<svg xmlns="http://www.w3.org/2000/svg" width="1583" height="332" viewBox="0 0 1583 332">
  <title>back3</title>
  <style>
    #Layer_1{
      transform: translatex(80%);
    }
    #link2{
      animation: a1 3s linear infinite alternate;
    }
    @keyframes a1{
      100%{opacity:0;}
    }
    #link1{
      animation: a2 4s linear infinite alternate;
    }
    @keyframes a2{
      100%{transform: translate(3%,5%);opacity:0;}
    }
    @media screen and (max-width: 1000px){
      #Layer_1{
        transform: translatex(0%);
      }
    }
  </style>
  <g style="isolation: isolate">
    <g id="Layer_1" data-name="Layer 1">
      <g id="link1">
        <circle cx="210" cy="48" r="23" fill="#71b2e2"/>
        <path d="M1322.4,58.5l8.8-4.3,1.1-.4a6.7,6.7,0,0,1,7.2,2.9c2.2,3.2.6,6.4-.5,8a3.9,3.9,0,0,1-1.7,1.4l-5.4,2.7-5,2.4s-5.6,2.8-8.6-2.3l-.7-1.4,1.5-.7a2.1,2.1,0,0,1,2.3.2c.9.8,2.4,1.7,3.5,1l1.1-.7,7.7-3.8,1.3-.7a2.8,2.8,0,0,0,1.6-1.6,2.3,2.3,0,0,0-.3-2.1l-.8-.8a2.5,2.5,0,0,0-2.4-.3l-6.8,3S1325.6,59.6,1322.4,58.5Z" transform="translate(-1111 -18)" fill="none" stroke="#2d2d2d" stroke-miterlimit="10" stroke-width="2"/>
        <path d="M1319.6,73.6l-8.7,4.4-1.2.4a6.8,6.8,0,0,1-6.7-10.9,3.9,3.9,0,0,1,1.7-1.4l5.5-2.8,4.9-2.4s5.7-2.8,8.6,2.3l.7,1.4-1.5.8a1.8,1.8,0,0,1-2.2-.3c-1-.7-2.4-1.6-3.5-.9l-1.2.6-7.6,3.8-1.4.7a3.3,3.3,0,0,0-1.6,1.7,2.1,2.1,0,0,0,.3,2,3,3,0,0,0,.8.8,2.1,2.1,0,0,0,2.4.3l6.9-3S1316.5,72.5,1319.6,73.6Z" transform="translate(-1111 -18)" fill="none" stroke="#2d2d2d" stroke-miterlimit="10" stroke-width="2"/>
      </g>
      <g id="link2">
        <circle cx="246.5" cy="17.5" r="17.5" fill="#71b2e2"/>
        <path d="M1360.3,31.4l4.8-2.5.7-.2a3.6,3.6,0,0,1,3.9,1.6,3.6,3.6,0,0,1-.2,4.4,1.9,1.9,0,0,1-1,.8l-3,1.5-2.7,1.4s-3.2,1.5-4.8-1.3l-.4-.8.9-.4a1.3,1.3,0,0,1,1.2.1c.5.5,1.3,1,1.9.6l.7-.4,4.2-2.1.8-.4a1.4,1.4,0,0,0,.8-.9.9.9,0,0,0-.1-1.1l-.5-.5a1.2,1.2,0,0,0-1.3-.1l-3.8,1.6A3.9,3.9,0,0,0,1360.3,31.4Z" transform="translate(-1111 -18)" fill="none" stroke="#2d2d2d" stroke-miterlimit="10"/>
        <path d="M1358.7,39.7l-4.8,2.4-.7.2a3.4,3.4,0,0,1-3.9-1.6,3.6,3.6,0,0,1,.2-4.4,3.9,3.9,0,0,1,1-.8l3-1.5,2.7-1.3s3.2-1.6,4.8,1.3l.4.7-.8.4a1,1,0,0,1-1.3-.1c-.5-.4-1.3-.9-1.9-.5l-.7.3-4.2,2.1-.8.4a1.4,1.4,0,0,0-.8,1,1.1,1.1,0,0,0,.1,1.1l.5.4a1.2,1.2,0,0,0,1.3.2l3.8-1.7A3.6,3.6,0,0,0,1358.7,39.7Z" transform="translate(-1111 -18)" fill="none" stroke="#2d2d2d" stroke-miterlimit="10"/>
      </g>
      <g id="characters">
        <g>
          <rect x="225.5" y="199.8" width="7" height="49.87" fill="#99a2a9"/>
          <rect x="250.4" y="186.4" width="3.9" height="13.88" fill="#99a2a9"/>
          <rect x="1362.6" y="131.4" width="9.3" height="74.51" rx="1.5" transform="translate(-1081.9 -176.9) rotate(6.7)" fill="#191919"/>
          <path d="M1370.1,133.9h0a1.3,1.3,0,0,0-1.4,1.3l-7.8,66.2a1.2,1.2,0,0,0,1,1.5h0a1.3,1.3,0,0,0,1.4-1.2l7.8-66.3A1.4,1.4,0,0,0,1370.1,133.9Z" transform="translate(-1111 -18)" fill="#303030"/>
          <path d="M1326.1,273.4a4.1,4.1,0,0,1-4.1,4.1,4.1,4.1,0,1,1,0-8.1A4,4,0,0,1,1326.1,273.4Z" transform="translate(-1111 -18)" fill="#303030"/>
          <path d="M1363.1,273.4a4.1,4.1,0,0,1-4.1,4.1,4.1,4.1,0,1,1,0-8.1A4,4,0,0,1,1363.1,273.4Z" transform="translate(-1111 -18)" fill="#303030"/>
          <path d="M206,249.6h46a1.4,1.4,0,0,1,1.4,1.4v2.1a0,0,0,0,1,0,0H204.7a0,0,0,0,1,0,0V251A1.4,1.4,0,0,1,206,249.6Z" fill="#99a2a9"/>
          <rect x="229.7" y="204.1" width="1.8" height="45.52" fill="#99a2a9" style="mix-blend-mode: soft-light"/>
          <rect x="212.8" y="178.7" width="2.2" height="14.61" fill="#99a2a9"/>
          <rect x="240.9" y="178.7" width="2.2" height="14.61" fill="#99a2a9"/>
          <rect x="206.6" y="174.7" width="41" height="7.79" rx="1.3" fill="#191919"/>
          <rect x="202.4" y="191.9" width="53.8" height="14.7" rx="1.9" fill="#191919"/>
        </g>
        <g>
          <rect x="21.6" y="192.7" width="7.1" height="5.53" fill="#99a2a9"/>
          <g>
            <rect x="1140.2" y="221.6" width="7" height="49.87" transform="translate(1176.4 475) rotate(180)" fill="#99a2a9"/>
            <path d="M1157.7,277.2a4.1,4.1,0,1,0,8.1,0,4.1,4.1,0,1,0-8.1,0Z" transform="translate(-1111 -18)" fill="#303030"/>
            <path d="M1120.7,277.2a4.1,4.1,0,1,0,8.1,0,4.1,4.1,0,1,0-8.1,0Z" transform="translate(-1111 -18)" fill="#303030"/>
            <path d="M1119.3,274.9h48.8a3.5,3.5,0,0,0-3.4-3.5h-41.9a3.5,3.5,0,0,0-3.5,3.5Z" transform="translate(-1111 -18)" fill="#99a2a9"/>
            <rect x="1141.3" y="225.9" width="1.8" height="45.52" transform="translate(1173.4 479.3) rotate(180)" fill="#99a2a9" style="mix-blend-mode: soft-light"/>
          </g>
          <rect x="1116.8" y="216" width="53.8" height="10.06" rx="1.5" transform="translate(1176.4 424) rotate(180)" fill="#303030"/>
          <g>
            <path d="M1147.2,211.3h-22.8a9.5,9.5,0,0,1-9.5-9.5V170.3a21,21,0,0,1,20.9-21h0a21,21,0,0,1,20.9,21v31.5A9.6,9.6,0,0,1,1147.2,211.3Z" transform="translate(-1111 -18)" fill="#191919"/>
            <path d="M17.7,135H37.5a6.4,6.4,0,0,1,6.4,6.4v45.4a2.9,2.9,0,0,1-2.9,2.9H14.2a2.9,2.9,0,0,1-2.9-2.9V141.4a6.4,6.4,0,0,1,6.4-6.4Z" fill="#303030"/>
          </g>
        </g>
        <g>
          <g>
            <path d="M1234.7,162.9h-.1a1.1,1.1,0,0,1,.4-1.3l3.4-1.8a1,1,0,0,1,1.3.3h0a1,1,0,0,1-.4,1.3l-3.4,1.8A.8.8,0,0,1,1234.7,162.9Z" transform="translate(-1111 -18)" fill="#ffa47c"/>
            <path d="M1233.7,161.4h0a.8.8,0,0,1,.3-1.2l3.5-1.9a1,1,0,0,1,1.2.4h0a.9.9,0,0,1-.4,1.2l-3.4,1.9A.9.9,0,0,1,1233.7,161.4Z" transform="translate(-1111 -18)" fill="#ffa47c"/>
            <path d="M1232.8,160h0a.9.9,0,0,1,.4-1.2l3.4-1.9a.9.9,0,0,1,1.2.4h0a.8.8,0,0,1-.3,1.2l-3.4,1.9A1.1,1.1,0,0,1,1232.8,160Z" transform="translate(-1111 -18)" fill="#ffa47c"/>
            <path d="M1232.1,158.5h0a.9.9,0,0,1,.4-1.2l3.4-1.9a1,1,0,0,1,1.2.4h0a.8.8,0,0,1-.3,1.2l-3.4,1.9A1,1,0,0,1,1232.1,158.5Z" transform="translate(-1111 -18)" fill="#ffa47c"/>
            <path d="M1244.7,153s-6.4.5-7.6,1-4.9,3.6-4.9,3.6,2.1.7,2.5,1.8,1.2,3.8,1.2,3.8a26.3,26.3,0,0,0,5.8-2.1,17.7,17.7,0,0,0,3.1-2.4Z" transform="translate(-1111 -18)" fill="#ffa47c"/>
          </g>
          <polygon points="131.5 143.2 136.1 140.6 133.4 133.7 127.8 135.3 131.5 143.2" fill="#e0f2ff"/>
          <path d="M1290.9,123.5c3.8,2.7,2.7,6.6-.2,10.1s-21.1,18.4-22.6,18.4-6.3-4.5-5.7-6.5,13.9-17.7,16.7-20.2S1286.5,120.4,1290.9,123.5Z" transform="translate(-1111 -18)" fill="#191919"/>
          <path d="M1296,99.6s3.7,12.7,4.6,13.1a30.4,30.4,0,0,1,9.2,7.2c2.9,3.6,1.9,21.3,2.1,27.7s5.3,15.1,7.7,20.8-14.5,17.5-15.2,17.7-8.1-3.9-9.7-5.6-4.3-17.2-5.3-21.1-5.3-17.3-5.7-18.1a29.2,29.2,0,0,1-2.4-12.1c0-1.3-.6-3.4-.2-4.3s7.3-5.8,7.2-6.6-1.9-12.2-1.9-12.2Z" transform="translate(-1111 -18)" fill="#ffbd95"/>
          <path d="M1300.6,112.7l-9.6,9.6-2.7-4s-6.6,4.7-7.2,6.6-.2,5.4-.2,6.8a81.6,81.6,0,0,0,3.1,12.4c1.1,2.9,2,6.9,3.7,12s3.8,15.3,3.8,15.3,4.2-.8,10.7-2.8,15.9-4.3,16.1-4.7-4.9-13.7-4.9-15-1.4-25-2-27.9-2.8-4.4-5-5.8A42.4,42.4,0,0,0,1300.6,112.7Z" transform="translate(-1111 -18)" fill="#cee0ff"/>
          <path d="M1304.8,114.4a16.5,16.5,0,0,0-4.7,6.8c-3.4,10.5,8.3,21.6,2.1,24.9-9.9,5.4-7.6,8.2-7.5,10.3a96.8,96.8,0,0,1-.6,10.8l23.7-2.8c3.2-.2-4.3-13.1-4.5-16.5-.8-14.7-1.6-25.4-2.1-27.8S1304.8,114.4,1304.8,114.4Z" transform="translate(-1111 -18)" fill="#b8d1ff"/>
          <polygon points="176.2 93 186.6 86.1 188.5 92.7 185.6 95.7 176.2 93" fill="#ffa47c"/>
          <path d="M1282,89.1c2.6-3,10.9-6.5,15.8-1.4s3.8,11,1.9,14.8a14.5,14.5,0,0,1-6.2,6.6c-.7.4-6.9,2.2-8.3,2s-2.3-6.5-2.5-6.4-1-.3-1.1-.8.1-5.4-.2-5.8S1279,92.6,1282,89.1Z" transform="translate(-1111 -18)" fill="#ffbd95"/>
          <path d="M1280.6,92.1s4.5-3.3,11.1,1.5c1.5,1-.3,6.3,0,6.7s4.4-4.2,4.3-3.6c-1.1,6,1.2,9,1.7,9s5.6-8.9,2.4-15.3-10.5-6.1-12.1-5.6S1281.2,86.4,1280.6,92.1Z" transform="translate(-1111 -18)" fill="#8d3b26"/>
          <path d="M1293.3,97.7c-.3,1.9-.3,4.4.8,4.6s2.1-1.2,2.5-3.1-.2-3.7-1.3-3.8S1293.7,95.8,1293.3,97.7Z" transform="translate(-1111 -18)" fill="#ffbd95"/>
          <g>
            <rect x="1300.2" y="277" width="7.5" height="1.4" transform="translate(1497 537.4) rotate(180)" fill="#191919"/>
            <path d="M1307.6,267.2a13.3,13.3,0,0,1,1.8,5.3c.1,1.5-.8,4.6-1.8,4.6a70.4,70.4,0,0,0-9.1.5c-3,.4-4.1,2.1-11.6,2.1-2.1,0-6.1-.2-6-1s7.2-2.5,9.5-4.6c5.7-5.4,9.6-6.7,9.6-6.7S1307.4,267,1307.6,267.2Z" transform="translate(-1111 -18)" fill="#0f0d0d"/>
          </g>
          <path d="M1313.6,171.8s.5,3,.9,7.4-3.7,18.3-5.2,29.3-2.4,13.2-2.1,15.8,3.7,13.1,3.2,20.1-1.8,25.3-1.8,25.3a18.6,18.6,0,0,1-5.6,1.2c-3.6.4-6.1-2.7-6.1-2.7s-2.9-40.8-3.4-45.2c-.3-2.7-2.6-22-3.3-37.7-.2-5,.4-16.7.4-18.8S1313.6,171.8,1313.6,171.8Z" transform="translate(-1111 -18)" fill="#191919"/>
          <g>
            <polygon points="213 262.3 220.4 261 220.1 259.6 212.7 260.9 213 262.3" fill="#191919"/>
            <path d="M1329.1,267.7a14.9,14.9,0,0,1,2.7,5.1c.4,1.5.1,4.8-.9,5a71.7,71.7,0,0,0-8.9,2.1c-2.9.9-5.2,4.1-11,4.1-2.2,0-6.5,0-6.3-.9s6.8-2.9,8.6-5.4c4.8-6.5,8.3-8.4,8.3-8.4S1328.8,267.5,1329.1,267.7Z" transform="translate(-1111 -18)" fill="#191919"/>
          </g>
          <path d="M1318,164.7s3.3,6.2,3.8,11.5.1,12.6-.1,23.6.8,21.3,1.5,23.8,5.4,13.1,5.8,20.1,1.4,24.7,1.4,24.7a20.4,20.4,0,0,1-6.4,2.5,8.6,8.6,0,0,1-5.8-.5s-8.9-40.1-11-44c-3.3-6-6-26.1-9.4-39.6-1.4-5.4-6.4-18.3-6.4-18.3Z" transform="translate(-1111 -18)" fill="#303030"/>
          <polygon points="179.9 101.5 180 104.3 185.1 99.3 179.9 101.5" fill="#b8d1ff"/>
          <polygon points="180 104.3 178.3 101.2 177.1 102.7 180 104.3" fill="#b8d1ff"/>
          <polygon points="181.1 102.5 177.5 102.4 178 105.9 180 106 181.1 102.5" fill="#303030"/>
          <path d="M1291,124a94.9,94.9,0,0,0-.4,16.6c.7,7,2.6,29.2,2.6,29.2l-2.7,5.3-2.7-5s-.1-21.9-.1-29.7a132.9,132.9,0,0,1,1.3-16.5Z" transform="translate(-1111 -18)" fill="#303030"/>
          <path d="M1300.6,112.7s-6.2,9.9-8.5,17.1a129.1,129.1,0,0,0-3.6,14l4.7,42.3a126.5,126.5,0,0,0,17.2-1.3,64.3,64.3,0,0,0,13.4-3.4,90.9,90.9,0,0,0-2.2-10.7c-2.1-7.7-5.3-17.5-5.8-21.4-1-6.9-1.8-27.3-4.8-31.2S1300.6,112.7,1300.6,112.7Z" transform="translate(-1111 -18)" fill="#303030"/>
          <path d="M1287,118.8s-1,9.7-.6,14.7a75.4,75.4,0,0,0,2.1,11.4l4.7,41.2-6.2-2.4s-6.3-46.1-6.6-51.5-.3-7.4.6-8.3S1287,118.8,1287,118.8Z" transform="translate(-1111 -18)" fill="#191919"/>
          <path d="M1307.5,117.4c4.2.5,3.2,22.6,1.3,31.1s-15.6,37.6-15.6,37.6-5.6-39.3-4.7-41.2,3.2-7,4.7-10.9C1296.3,125.8,1302.2,116.8,1307.5,117.4Z" transform="translate(-1111 -18)" fill="#191919"/>
          <polygon points="178.3 101.2 176.5 104.6 175.4 101.7 177 99.2 178.3 101.2" fill="#e0f2ff"/>
          <path d="M1306.1,117.2c4.5.4,5.4,4.4,4.7,8.9s-8.8,28.3-10,29-8.7-.5-9.1-2.6,4.8-23.8,6-27.4S1301,116.7,1306.1,117.2Z" transform="translate(-1111 -18)" fill="#303030"/>
          <path d="M1241.6,161.2a21.4,21.4,0,0,1-3.5,1.5l-.7.4h-.7l-.4.3h-.7l-.6.3c-.6.2-.8-.2-1-.2l-.8.3a11.9,11.9,0,0,1-2.9-1.8c-.2-.3-2-1.8-1.9-2s.9-.6,2,.1a9.8,9.8,0,0,0,2.2,1.2,7.6,7.6,0,0,1-1-2.2c-.2-.4.2-.7.6-.7s1.1.8,1.1.8a6.3,6.3,0,0,1,.4-.9c.7-.1,1.1.7,1.4.9s.1-.8.4-.8,1.8,2.3,2.7,1.8S1240.8,159.9,1241.6,161.2Z" transform="translate(-1111 -18)" fill="#ffa47c"/>
          <path d="M1281,179.9s-.2,3.6-2.4,4.3-4.7-.7-5.4-.8c-2.6-.7-5.5,1.4-7.1,1.3s-1.8-1.2-1.2-1.3c3.3-.9,5.1-2.5,6.6-2.7s6.8-2.6,6.8-2.6Z" transform="translate(-1111 -18)" fill="#ffbd95"/>
          <polygon points="170.2 164.6 172.9 160.4 167.2 156.4 164.5 160.5 170.2 164.6" fill="#e0f2ff"/>
          <polygon points="191.4 95 188.5 92.7 179.9 101.5 182.4 104.7 191.4 95" fill="#e0f2ff"/>
          <path d="M1272.6,143.5c-1.5-4.7-11.1-1.3-15.6.8s-17.5,8.4-17.5,8.4l3.9,8.3a191.8,191.8,0,0,0,24.7-8.8C1269.4,151.6,1274.1,148.3,1272.6,143.5Z" transform="translate(-1111 -18)" fill="#191919"/>
          <path d="M1300.1,148.9c4.1,2.6-2.3,13.1-5.3,17.1l-12.2,15.8-7.1-4.9s6.9-13,14.7-24.4C1291,151.3,1295.9,146.3,1300.1,148.9Z" transform="translate(-1111 -18)" fill="#303030"/>
        </g>
        <g>
          <g>
            <path d="M1213.8,179.2s0,3.4,2.1,4.2,4.8-.4,5.4-.5c2.7-.4,5.4,1.7,7.1,1.7s1.8-1,1.3-1.2c-3.3-1-4.9-2.6-6.4-2.9s-6.7-2.7-6.7-2.7Z" transform="translate(-1111 -18)" fill="#ffbd95"/>
            <path d="M1214.2,181.5a8.7,8.7,0,0,0,2.5,2.8c1.3.7,3.2-.1,4.4.3s.9-.3.9-.5a16.4,16.4,0,0,0-2.2-1C1219.2,182.8,1217.1,180.2,1214.2,181.5Z" transform="translate(-1111 -18)" fill="#ffbd95"/>
          </g>
          <path d="M1201.9,150.5c4.1-2.5,8.6,6.3,10.6,10.7s6.5,17.9,6.5,17.9l-4.7,2.5a133.1,133.1,0,0,1-14.5-21.9C1199.2,158.5,1197.8,153,1201.9,150.5Z" transform="translate(-1111 -18)" fill="#b8d1ff"/>
          <polygon points="106.9 156.8 108.9 161 102.7 164.4 100.2 160.2 106.9 156.8" fill="#e0f2ff"/>
          <path d="M1196.2,122.2c-4.6.1-5.8,4-5.4,8.5s7.4,27,8.6,27.8,7.7-.2,8.3-2.2-2.3-22.1-3.3-25.7S1201.6,122,1196.2,122.2Z" transform="translate(-1111 -18)" fill="#b8d1ff"/>
          <path d="M1186.7,100.2s-3.5,12.8-4.4,13.3a30.2,30.2,0,0,0-9,7.3c-2.9,3.7-1.5,21.3-1.5,27.7s-5,15.2-7.3,21,14.9,17.3,15.6,17.4,8-4.1,9.6-5.8,4-17.3,4.8-21.2,4.9-17.4,5.3-18.2a26,26,0,0,0,2.1-12.1c.1-1.4.6-3.5.2-4.4s-7.5-5.6-7.4-6.5l1.7-12.2Z" transform="translate(-1111 -18)" fill="#ffbd95"/>
          <path d="M1182.3,113.5l9.8,9.3,2.6-4.1s6.8,4.7,7.4,6.5.3,5.4.3,6.8a68.4,68.4,0,0,1-2.8,12.4c-1,3-1.9,7-3.5,12.1s-3.4,15.5-3.4,15.5-4.3-.8-10.7-2.6-16-4-16.3-4.4,4.6-13.8,4.6-15.1.9-25,1.4-28,2.7-4.4,4.9-5.8A36.9,36.9,0,0,1,1182.3,113.5Z" transform="translate(-1111 -18)" fill="#cee0ff"/>
          <path d="M1174.9,117.2s7.9,0,9.2,3.8c3.7,10.5,2.5,12.9,8.7,16.1,10,5.2,1,19.1,1,21.2a62,62,0,0,1-.8,9.3l-26.7-2.1c-3.2-.1,3.9-13.2,4-16.6.6-14.7,1-25.5,1.6-27.8A8,8,0,0,1,1174.9,117.2Z" transform="translate(-1111 -18)" fill="#b8d1ff"/>
          <polygon points="84.7 93.4 74.2 86.7 72.3 93.4 75.4 96.4 84.7 93.4" fill="#ffa47c"/>
          <path d="M1200.5,89.5c-2.7-3-11.1-6.4-15.9-1.1s-3.5,11.1-1.6,14.8a13.7,13.7,0,0,0,6.4,6.4c.7.4,6.9,2.2,8.2,1.9s2.2-6.5,2.5-6.5a1.1,1.1,0,0,0,1.1-.7c.1-.8-.2-5.4,0-5.9S1203.5,92.9,1200.5,89.5Z" transform="translate(-1111 -18)" fill="#ffbd95"/>
          <path d="M1201.9,92.5s-4.5-3.3-11.1,1.6c-1.4,1.1.5,6.4.1,6.8s-4.4-4.2-4.3-3.6c1.2,6-1,9-1.6,9s-7.9-9-4.7-15.4,11.9-6.7,13.6-6.2S1205.7,85.1,1201.9,92.5Z" transform="translate(-1111 -18)" fill="#8d3b26"/>
          <path d="M1189.3,98.3c.4,1.9.4,4.4-.7,4.6s-2.2-1.2-2.5-3.1.1-3.6,1.1-3.8S1188.9,96.4,1189.3,98.3Z" transform="translate(-1111 -18)" fill="#ffbd95"/>
          <g>
            <rect x="64.9" y="259.9" width="7.5" height="1.4" fill="#191919"/>
            <path d="M1176.2,268a12.6,12.6,0,0,0-1.7,5.3c-.2,1.4.7,4.6,1.7,4.6a72.9,72.9,0,0,1,9.2.5c2.9.4,4,2,11.5,2,2.2,0,6.2-.1,6-1s-7.2-2.5-9.4-4.6c-5.8-5.3-9.7-6.6-9.7-6.6S1176.4,267.7,1176.2,268Z" transform="translate(-1111 -18)" fill="#0f0d0d"/>
          </g>
          <path d="M1170.3,172.5s-.5,3.1-1,7.4,3.8,18.4,5.3,29.3,2.4,13.2,2,15.8-3.6,13.1-3.2,20.1,1.8,25.3,1.8,25.3a22,22,0,0,0,5.7,1.3c3.6.3,6.1-2.8,6.1-2.8s2.9-40.8,3.3-45.1,2.6-22,3.3-37.7c.2-5.1-.4-16.7-.4-18.8S1170.3,172.5,1170.3,172.5Z" transform="translate(-1111 -18)" fill="#191919"/>
          <g>
            <polygon points="62.3 263.9 54.8 263.4 54.9 261.9 62.4 262.4 62.3 263.9" fill="#191919"/>
            <path d="M1166.9,269.8a13.1,13.1,0,0,0-2.1,5.3c-.2,1.5.4,4.8,1.4,4.9a56.5,56.5,0,0,1,9.1,1.1c2.9.5,3.9,2.3,11.4,2.8,2.2.1,6.2.2,6.1-.7s-7-3-9.1-5.3c-5.5-5.9-9.2-7.4-9.2-7.4S1167.1,269.5,1166.9,269.8Z" transform="translate(-1111 -18)" fill="#191919"/>
          </g>
          <path d="M1165.6,165.4s-2.5,6.5-2.4,11.9,1.3,12.5,2.8,23.5,1.6,21.2,1.2,23.8-3.8,13.5-3.4,20.5,2.3,24.3,2.3,24.3a10.9,10.9,0,0,0,5.8,2.2,8.8,8.8,0,0,0,5.8-1.2s4.2-40.9,5.8-44.9c2.6-6.4,3-26.7,4.8-40.5.7-5.5,4.1-17.7,4.1-17.7Z" transform="translate(-1111 -18)" fill="#303030"/>
          <polygon points="81.2 102 81.1 104.8 75.9 99.9 81.2 102" fill="#b8d1ff"/>
          <polygon points="81.1 104.8 82.8 101.7 84 103.1 81.1 104.8" fill="#b8d1ff"/>
          <polygon points="80 103.1 83.6 102.9 83.2 106.3 81.2 106.5 80 103.1" fill="#303030"/>
          <polygon points="69.6 95.8 72.3 93.4 81.2 102 78.7 105.3 69.6 95.8" fill="#e0f2ff"/>
          <polygon points="82.8 101.7 84.6 105 85.6 102.1 84 99.7 82.8 101.7" fill="#e0f2ff"/>
          <path d="M1165.5,165.3s7.7.5,15.4.8l12.4.5v3s-7.9.2-16-.3-12.6-1.2-12.6-1.2Z" transform="translate(-1111 -18)" fill="#3b1b1d"/>
          <rect x="78.6" y="148.5" width="3.6" height="3.54" rx="0.4" fill="#722c1d"/>
          <path d="M1192.2,124.5a103.7,103.7,0,0,1,.7,16.6c-.5,7.1-1,29.2-1,29.2l2.7,5.2,2.6-5.1s-1.2-21.7-1.4-29.5a148.2,148.2,0,0,0-1.6-16.6Z" transform="translate(-1111 -18)" fill="#303030"/>
          <g>
            <path d="M1235,163h0a.8.8,0,0,0-.2-1.2l-3-2.1a.8.8,0,0,0-1.2.2h0a.8.8,0,0,0,.2,1.2l3,2.1A.9.9,0,0,0,1235,163Z" transform="translate(-1111 -18)" fill="#ffa47c"/>
            <path d="M1236.1,161.7h0a1,1,0,0,0-.3-1.2l-3-2.1a1,1,0,0,0-1.2.3h0a.8.8,0,0,0,.2,1.2l3.1,2A.8.8,0,0,0,1236.1,161.7Z" transform="translate(-1111 -18)" fill="#ffa47c"/>
            <path d="M1237,160.4h0a.8.8,0,0,0-.2-1.2l-3.1-2a.8.8,0,0,0-1.2.2h0a1,1,0,0,0,.3,1.2l3,2.1A1,1,0,0,0,1237,160.4Z" transform="translate(-1111 -18)" fill="#ffa47c"/>
            <path d="M1237.8,159.1h0a1,1,0,0,0-.3-1.2l-3-2a.8.8,0,0,0-1.2.2h0a.8.8,0,0,0,.2,1.2l3.1,2.1A1,1,0,0,0,1237.8,159.1Z" transform="translate(-1111 -18)" fill="#ffa47c"/>
            <path d="M1226.4,152.7s6,1.1,7.1,1.7a37.5,37.5,0,0,1,4.3,3.8s-2,.5-2.5,1.5-1.5,3.5-1.5,3.5a30.6,30.6,0,0,1-5.3-2.5,27.4,27.4,0,0,1-2.6-2.6Z" transform="translate(-1111 -18)" fill="#ffa47c"/>
          </g>
          <path d="M1174.5,119.6c-3.7,2.8-2.4,6.6.6,10s21.8,17.6,23.3,17.5,6.1-4.7,5.4-6.7-14.9-16.5-17.8-18.9S1178.7,116.3,1174.5,119.6Z" transform="translate(-1111 -18)" fill="#cee0ff"/>
          <path d="M1195.6,140.9c-2.4,4.4,6.7,9.2,11.4,11.1s18.9,6.8,18.9,6.8l2.4-5.9s-10.7-6.6-23.2-12.9C1202.1,138.4,1198.1,136.5,1195.6,140.9Z" transform="translate(-1111 -18)" fill="#cee0ff"/>
          <rect x="1223.2" y="151.4" width="5" height="7.64" transform="translate(-920.5 -537.3) rotate(25.9)" fill="#e0f2ff"/>
        </g>
        <g>
          <rect x="1154.2" y="231.2" width="99.3" height="6.52" transform="translate(-141.7 1420.3) rotate(-90)" fill="#79858e"/>
          <rect x="1230.8" y="231.2" width="99.3" height="6.52" transform="translate(-65 1496.9) rotate(-90)" fill="#79858e"/>
          <rect x="90.5" y="168.7" width="81.2" height="91.11" fill="#79858e"/>
          <polygon points="172.6 179.6 89.5 181.2 89.5 175.8 172.6 175.9 172.6 179.6" fill="#b9b9bd" style="mix-blend-mode: multiply"/>
          <rect x="81.7" y="166.6" width="99.3" height="9.39" fill="#99a2a9"/>
        </g>
        <g>
          <rect x="0.8" y="239.2" width="41.1" height="29.14" rx="1.6" fill="#353432"/>
          <path d="M1124.8,256.1c-.2-.1-.7.1-1,.3l-.9.2h-1.2c-.4,0-.3.6-.3.6h3.9A.7.7,0,0,0,1124.8,256.1Z" transform="translate(-1111 -18)" fill="#353432"/>
          <path d="M1152,257.8h-39.3a1.8,1.8,0,0,0-1.7,1.7v4.2a8.4,8.4,0,0,0,8.4,8.4h25.9a8.3,8.3,0,0,0,8.4-8.4v-4.2A1.7,1.7,0,0,0,1152,257.8Z" transform="translate(-1111 -18)" fill="#242321"/>
          <path d="M1152,257.2h-39.3a1.8,1.8,0,0,0-1.7,1.7v4.2a8.5,8.5,0,0,0,8.4,8.5h25.9a8.4,8.4,0,0,0,8.4-8.5v-4.2A1.7,1.7,0,0,0,1152,257.2Z" transform="translate(-1111 -18)" fill="#4c4b49"/>
          <path d="M1125.9,253.8h-1.6a.4.4,0,0,0,0,.7h1.6a.3.3,0,0,0,.3-.3C1126.2,254,1126.1,253.8,1125.9,253.8Z" transform="translate(-1111 -18)" fill="#353432"/>
          <path d="M1124.7,253.6a.4.4,0,0,0-.4.4v2.6a.4.4,0,0,0,.4.4.5.5,0,0,0,.5-.4V254A.5.5,0,0,0,1124.7,253.6Z" transform="translate(-1111 -18)" fill="#ffb136"/>
          <path d="M1124.9,253.6c0,.1.1.1.1.2v2.5a.5.5,0,0,1-.5.5h-.2c.1.2.2.3.4.3a.5.5,0,0,0,.5-.4V254C1125.2,253.8,1125.1,253.7,1124.9,253.6Z" transform="translate(-1111 -18)" fill="#f68b2e"/>
          <path d="M1143.1,256.6H1142l-1-.2c-.3-.2-.8-.4-1-.3a.7.7,0,0,0-.5,1.1h3.9S1143.5,256.6,1143.1,256.6Z" transform="translate(-1111 -18)" fill="#353432"/>
          <path d="M1140.5,253.8h-1.6c-.2,0-.3.2-.3.4a.3.3,0,0,0,.3.3h1.6a.4.4,0,0,0,0-.7Z" transform="translate(-1111 -18)" fill="#353432"/>
          <path d="M1140.1,253.6a.5.5,0,0,0-.5.4v2.6a.5.5,0,0,0,.5.4.4.4,0,0,0,.4-.4V254A.4.4,0,0,0,1140.1,253.6Z" transform="translate(-1111 -18)" fill="#ffb136"/>
          <path d="M1139.9,256.3v-2.7c-.2.1-.3.2-.3.4v2.6a.5.5,0,0,0,.5.4c.2,0,.3-.1.4-.3h-.2A.5.5,0,0,1,1139.9,256.3Z" transform="translate(-1111 -18)" fill="#f68b2e"/>
          <path d="M1139.1,252.6a50.9,50.9,0,0,0-13.5,0,.6.6,0,0,0-.6.7,4.1,4.1,0,0,1,.1,1.1.7.7,0,0,0,.8.5,55.7,55.7,0,0,1,12.9,0,.7.7,0,0,0,.8-.5,4.1,4.1,0,0,0,.1-1.1A.6.6,0,0,0,1139.1,252.6Z" transform="translate(-1111 -18)" fill="#353432"/>
          <path d="M1129.9,273.7a1.7,1.7,0,0,0,1.7,1.6h1.6a1.6,1.6,0,0,0,1.6-1.6v-5.5h-4.9Z" transform="translate(-1111 -18)" fill="#f68b2e"/>
          <path d="M1130.8,273.2a.9.9,0,0,0,.9.9h1.3a.9.9,0,0,0,.9-.9v-3.9h-3.1Z" transform="translate(-1111 -18)" fill="#ffb136"/>
          <rect x="18.1" y="249.4" width="6.3" height="2.56" rx="0.6" fill="#353432"/>
        </g>
      </g>
      <line x1="134.5" y1="122.5" x2="129" y2="129" fill="none" stroke="#969696" stroke-miterlimit="10"/>
      <line x1="124.5" y1="119.5" x2="124.3" y2="128.5" fill="none" stroke="#969696" stroke-miterlimit="10"/>
      <line x1="116.5" y1="123.5" x2="120.5" y2="129" fill="none" stroke="#969696" stroke-miterlimit="10"/>
    </g>
  </g>
</svg>
