<svg id="education" xmlns="http://www.w3.org/2000/svg" xmlns:xlink="http://www.w3.org/1999/xlink" width="441.5" height="372.3" viewBox="0 0 441.5 372.3">
  <defs>
    <linearGradient id="Áåçûìÿííûé_ãðàäèåíò_33" data-name="Áåçûìÿííûé ãðàäèåíò 33" x1="479.56" y1="306.92" x2="515.17" y2="306.92" gradientUnits="userSpaceOnUse">
      <stop offset="0" stop-color="#e39a65"/>
      <stop offset="1" stop-color="#e95f8d"/>
    </linearGradient>
    <linearGradient id="Áåçûìÿííûé_ãðàäèåíò_33-2" x1="434.91" y1="262.22" x2="492.69" y2="262.22" xlink:href="#Áåçûìÿííûé_ãðàäèåíò_33"/>
    <linearGradient id="Áåçûìÿííûé_ãðàäèåíò_33-3" x1="73.69" y1="280.58" x2="131.46" y2="280.58" xlink:href="#Áåçûìÿííûé_ãðàäèåíò_33"/>
    <linearGradient id="Áåçûìÿííûé_ãðàäèåíò_33-4" x1="137.46" y1="277.06" x2="432.82" y2="277.06" xlink:href="#Áåçûìÿííûé_ãðàäèåíò_33"/>
    <radialGradient id="radial-gradient" cx="300.45" cy="60.61" r="223.3" gradientUnits="userSpaceOnUse">
      <stop offset="0" stop-color="#a17fff"/>
      <stop offset="0.47" stop-color="#7fe7ff"/>
      <stop offset="0.47" stop-color="#7fe7ff"/>
      <stop offset="0.66" stop-color="#24c0d1"/>
      <stop offset="0.74" stop-color="#00b1bf"/>
      <stop offset="0.8" stop-color="#2a8bff"/>
    </radialGradient>
    <radialGradient id="Áåçûìÿííûé_ãðàäèåíò_109" data-name="Áåçûìÿííûé ãðàäèåíò 109" cx="163.87" cy="239.93" r="244.17" gradientUnits="userSpaceOnUse">
      <stop offset="0" stop-color="#e39a65"/>
      <stop offset="0.47" stop-color="#a92ffb"/>
      <stop offset="0.57" stop-color="#891cfb"/>
      <stop offset="0.68" stop-color="#6507fa"/>
      <stop offset="0.74" stop-color="#0d0c6f"/>
    </radialGradient>
    <radialGradient id="radial-gradient-2" cx="186.33" cy="190.92" r="218.96" gradientUnits="userSpaceOnUse">
      <stop offset="0" stop-color="#632aff"/>
      <stop offset="0.48" stop-color="#94ffd4"/>
      <stop offset="0.58" stop-color="#83e6e6"/>
      <stop offset="0.73" stop-color="#6ac2ff"/>
      <stop offset="1" stop-color="#0074ff"/>
    </radialGradient>
    <linearGradient id="Áåçûìÿííûé_ãðàäèåíò_33-5" x1="138.55" y1="189.3" x2="221.82" y2="189.3" xlink:href="#Áåçûìÿííûé_ãðàäèåíò_33"/>
    <radialGradient id="radial-gradient-3" cx="150.22" cy="127.67" r="165.35" gradientUnits="userSpaceOnUse">
      <stop offset="0" stop-color="#3a2aff"/>
      <stop offset="0.15" stop-color="#aaadff"/>
      <stop offset="0.41" stop-color="#94f4ff"/>
      <stop offset="0.93" stop-color="#1572ff"/>
    </radialGradient>
    <linearGradient id="linear-gradient" x1="153.14" y1="107.18" x2="212.45" y2="107.18" gradientUnits="userSpaceOnUse">
      <stop offset="0" stop-color="#55e9ff"/>
      <stop offset="0.25" stop-color="#55e4ff"/>
      <stop offset="0.56" stop-color="#156cff"/>
    </linearGradient>
    <linearGradient id="Áåçûìÿííûé_ãðàäèåíò_483" data-name="Áåçûìÿííûé ãðàäèåíò 483" x1="85.02" y1="66.62" x2="133.2" y2="66.62" gradientUnits="userSpaceOnUse">
      <stop offset="0" stop-color="#4f1fec"/>
      <stop offset="1" stop-color="#a92ffb"/>
    </linearGradient>
    <linearGradient id="linear-gradient-2" x1="83.88" y1="66.62" x2="132.06" y2="66.62" gradientUnits="userSpaceOnUse">
      <stop offset="0" stop-color="#00d0ff"/>
      <stop offset="1" stop-color="#0056aa"/>
    </linearGradient>
    <linearGradient id="Áåçûìÿííûé_ãðàäèåíò_193" data-name="Áåçûìÿííûé ãðàäèåíò 193" x1="158.71" y1="97.82" x2="219.46" y2="97.82" gradientUnits="userSpaceOnUse">
      <stop offset="0" stop-color="#131060"/>
      <stop offset="0.19" stop-color="#141062"/>
      <stop offset="0.28" stop-color="#19106a"/>
      <stop offset="0.36" stop-color="#221078"/>
      <stop offset="0.42" stop-color="#2e0f8b"/>
      <stop offset="0.48" stop-color="#3e0fa3"/>
      <stop offset="0.54" stop-color="#510ec2"/>
      <stop offset="0.58" stop-color="#680de5"/>
      <stop offset="0.61" stop-color="#740df8"/>
      <stop offset="0.62" stop-color="#7a14f0"/>
      <stop offset="0.68" stop-color="#9b3cc3"/>
      <stop offset="0.75" stop-color="#b75d9d"/>
      <stop offset="0.81" stop-color="#cc7680"/>
      <stop offset="0.88" stop-color="#dc886c"/>
      <stop offset="0.94" stop-color="#e5935f"/>
      <stop offset="1" stop-color="#e8975b"/>
    </linearGradient>
    <radialGradient id="radial-gradient-4" cx="145.74" cy="90.4" r="108.16" gradientUnits="userSpaceOnUse">
      <stop offset="0" stop-color="#e39a65"/>
      <stop offset="0.25" stop-color="#55f7ff"/>
      <stop offset="0.74" stop-color="#0049d4"/>
    </radialGradient>
    <linearGradient id="Áåçûìÿííûé_ãðàäèåíò_193-2" x1="178.98" y1="117.43" x2="187.39" y2="117.43" xlink:href="#Áåçûìÿííûé_ãðàäèåíò_193"/>
    <style>
    svg{
      transform: scale(0.6);
    }
      .path1{
          transform-box:fill-box;
          transform-origin:50% 50%;
          stroke: url(#Áåçûìÿííûé_ãðàäèåíò_33-2);
          fill: none;
          stroke-width: 3px;
          stroke-dasharray: 900 ;
          stroke-dashoffset: 900;
          animation: zzz 4s linear infinite alternate;
      }
      @keyframes zzz {
             100% {stroke-dashoffset: 0;}
          }
    .mug{
      animation: aa1 2s linear infinite alternate;
    }
    @keyframes aa1{
      100%{transform:translateY(3%);}
    }
    </style>
  </defs>
  <title>edu</title>
  <g>
    <path d="M263.6,409.7V400h3.1c1.6,0,2.5,1,2.5,2.8a4.4,4.4,0,0,1-.2,1.3,1.5,1.5,0,0,1-.6.9l-.8.4h-2v4.2Zm2-5.6h.6q.8,0,.9-.3c.2-.2.2-.5.2-1v-1l-.4-.3h-1.2Z" transform="translate(-73.7 -37.5)" fill="#fff"/>
    <path d="M270.2,409.7V400h2.4l1.3.2a1.8,1.8,0,0,1,1,.4,1.9,1.9,0,0,1,.7.8,3.7,3.7,0,0,1,.2,1.2,3.3,3.3,0,0,1-.3,1.5,2,2,0,0,1-.9.9l1.4,4.7h-2.1l-1.1-4.3h-.7v4.3Zm1.9-5.5h.5a1.1,1.1,0,0,0,1-.4,1.5,1.5,0,0,0,.3-1c0-.5,0-.9-.2-1.1a1.3,1.3,0,0,0-1-.3h-.6Z" transform="translate(-73.7 -37.5)" fill="#fff"/>
    <path d="M279.8,409.9l-1.3-.2a2.2,2.2,0,0,1-.9-.7,3.1,3.1,0,0,1-.5-1,5.3,5.3,0,0,1-.1-1.3v-3.6a6.1,6.1,0,0,1,.1-1.4,4.7,4.7,0,0,1,.5-1l.9-.6,1.3-.2a2.7,2.7,0,0,1,2.2.8,3.3,3.3,0,0,1,.7,2.4v3.6a3.6,3.6,0,0,1-.7,2.4A2.7,2.7,0,0,1,279.8,409.9Zm-.4-1.5h.8l.3-.2c0-.1.1-.2.1-.3v-5.7c0-.1-.1-.2-.1-.3a.4.4,0,0,0-.1-.3l-.3-.2h-.8c-.1,0-.1.1-.2.2s-.1.1-.1.3a.4.4,0,0,0-.1.3v5.4a1236252820516.6,1236252820516.6,0,0,1,.2.6Z" transform="translate(-73.7 -37.5)" fill="#fff"/>
    <path d="M286.5,409.9a2.1,2.1,0,0,1-1.2-.3,1.5,1.5,0,0,1-.9-.6,3.6,3.6,0,0,1-.4-1.1,6.1,6.1,0,0,1-.1-1.4v-4.4l.3-.9a2,2,0,0,1,.6-.7,1.5,1.5,0,0,1,.8-.4l1.1-.2,1.3.2a1.5,1.5,0,0,1,.9.6,1.9,1.9,0,0,1,.4.9,3.7,3.7,0,0,1,.2,1.2v.5h-1.9v-1.1a.4.4,0,0,1-.1-.3.4.4,0,0,0-.1-.3l-.3-.2h-.8c-.1.1-.2.1-.2.2s-.1.2-.2.4v5a1.8,1.8,0,0,0,.2,1.1c.1.2.3.3.7.3a.8.8,0,0,0,.7-.3,2.2,2.2,0,0,0,.2-1.2V406h-.9v-1.3h2.7v5h-1.3v-.8A1.7,1.7,0,0,1,286.5,409.9Z" transform="translate(-73.7 -37.5)" fill="#fff"/>
    <path d="M290.9,409.7V400h2.4l1.3.2a1.8,1.8,0,0,1,1,.4,1.9,1.9,0,0,1,.7.8,3.7,3.7,0,0,1,.2,1.2,3.3,3.3,0,0,1-.3,1.5,2,2,0,0,1-.9.9l1.3,4.7h-2l-1.1-4.3h-.7v4.3Zm1.9-5.5h.5a1.1,1.1,0,0,0,1-.4,1.5,1.5,0,0,0,.3-1,2.7,2.7,0,0,0-.2-1.1,1.3,1.3,0,0,0-1-.3h-.6Z" transform="translate(-73.7 -37.5)" fill="#fff"/>
    <path d="M297.3,409.7l1.9-9.7h2.2l1.9,9.7h-1.9l-.3-2.1h-1.6l-.3,2.1Zm2.4-3.3h1.2l-.6-3.9Z" transform="translate(-73.7 -37.5)" fill="#fff"/>
    <path d="M304.2,409.7l.2-9.7h2l1.3,6.2L309,400h2v9.7h-1.4v-6.5l-1.3,6.5h-1.2l-1.3-6.5v6.5Z" transform="translate(-73.7 -37.5)" fill="#fff"/>
    <path d="M312.5,409.7l.2-9.7h2.1l1.2,6.2,1.3-6.2h2l.2,9.7H318v-6.5l-1.3,6.5h-1.2l-1.3-6.5v6.5Z" transform="translate(-73.7 -37.5)" fill="#fff"/>
    <path d="M320.9,409.7V400h2v9.7Z" transform="translate(-73.7 -37.5)" fill="#fff"/>
    <path d="M324.3,409.7V400h1.4l2.2,5.1V400h1.6v9.7h-1.3l-2.2-5.3v5.3Z" transform="translate(-73.7 -37.5)" fill="#fff"/>
    <path d="M333.5,409.9a2.8,2.8,0,0,1-1.3-.3,1.6,1.6,0,0,1-.8-.6,3.6,3.6,0,0,1-.4-1.1,5.9,5.9,0,0,1-.2-1.4v-3.2c0-.4.1-.8.1-1.2l.3-.9a1.8,1.8,0,0,1,.5-.7,2,2,0,0,1,.8-.4l1.2-.2,1.3.2a1.6,1.6,0,0,1,.8.6,1.3,1.3,0,0,1,.5.9,3.7,3.7,0,0,1,.2,1.2v.5h-2v-1.4c-.1-.2-.1-.3-.2-.3a.2.2,0,0,0-.2-.2h-.8c-.1.1-.2.1-.2.2a.5.5,0,0,0-.2.4v.3a.9.9,0,0,0-.1.5V407a3.1,3.1,0,0,0,.2,1.1,1,1,0,0,0,.8.3.8.8,0,0,0,.7-.3,3.7,3.7,0,0,0,.2-1.2V406h-.9v-1.3h2.7v5h-1.3v-.8A1.8,1.8,0,0,1,333.5,409.9Z" transform="translate(-73.7 -37.5)" fill="#fff"/>
  </g>
  <path class="path1" d="M497.4,316.5a7.3,7.3,0,0,1-3.5-.9l-11.8-6.8a2.3,2.3,0,0,1,0-3.8l11.8-6.7a6.6,6.6,0,0,1,6.9,0l11.8,6.7a2.2,2.2,0,0,1,0,3.8l-11.8,6.8A6.7,6.7,0,0,1,497.4,316.5Z" transform="translate(-73.7 -37.5)" fill="none" stroke-miterlimit="10" stroke-width="3" stroke="url(#Áåçûìÿííûé_ãðàäèåíò_33)"/>
  <path class="path1" d="M463.8,278.1a10.7,10.7,0,0,1-5.7-1.6l-20.2-11.6a3.3,3.3,0,0,1-1.5-2.7,3,3,0,0,1,1.5-2.6l20.2-11.7a11.6,11.6,0,0,1,11.4,0l20.2,11.7a3,3,0,0,1,1.5,2.6,3.3,3.3,0,0,1-1.5,2.7l-20.2,11.6A11.7,11.7,0,0,1,463.8,278.1Z" transform="translate(-73.7 -37.5)" fill="none" stroke-miterlimit="10" stroke-width="3" stroke="url(#Áåçûìÿííûé_ãðàäèåíò_33-2)"/>
  <path class="path1" d="M102.6,296.4a11.6,11.6,0,0,1-5.7-1.5L76.7,283.2a3,3,0,0,1-1.5-2.6,3.3,3.3,0,0,1,1.5-2.7l20.2-11.6a10.9,10.9,0,0,1,11.3,0l20.2,11.6a3.2,3.2,0,0,1,1.6,2.7,2.9,2.9,0,0,1-1.6,2.6l-20.2,11.7A11.2,11.2,0,0,1,102.6,296.4Z" transform="translate(-73.7 -37.5)" fill="none" stroke-miterlimit="10" stroke-width="3" stroke="url(#Áåçûìÿííûé_ãðàäèåíò_33-3)"/>
  <g>
    <path d="M307.1,347.3,162.7,263.9c-2.1-1.2-1.9-3.3.6-4.7L256,205.6a9.1,9.1,0,0,1,8.2-.3l144.4,83.4c2.1,1.2,1.9,3.3-.6,4.7l-92.7,53.5C312.9,348.3,309.2,348.5,307.1,347.3Z" transform="translate(-73.7 -37.5)" fill="#020230" opacity="0.4"/>
    <path class="path1" d="M310.4,362.3a9.1,9.1,0,0,1-4.5-1h0L141,266.1a3.7,3.7,0,0,1-2-3.2c0-1.4,1-2.8,2.7-3.8l112.4-65.9c3.1-1.7,7.6-1.9,10.3-.3L429.2,288a3.6,3.6,0,0,1,2.1,3.2c0,1.4-1,2.8-2.7,3.8L316.2,360.9A12.7,12.7,0,0,1,310.4,362.3Z" transform="translate(-73.7 -37.5)" fill="none" stroke-miterlimit="10" stroke-width="3" stroke="url(#Áåçûìÿííûé_ãðàäèåíò_33-4)"/>
    <path d="M447,148.9,303.1,65.8a3.8,3.8,0,0,0-2.9-.4h0l-2.7.9,1,.3a4.2,4.2,0,0,0-.9,1.6L265,173.8a6.3,6.3,0,0,0,2.7,7.1L411.5,264l1.1.4-.4.8,2.6-.9h0a4,4,0,0,0,2.3-2.7L449.6,156A6.3,6.3,0,0,0,447,148.9Z" transform="translate(-73.7 -37.5)" fill="url(#radial-gradient)"/>
    <path d="M406.4,267.9h0L264.3,186c-2-1.2-5.7-1.1-8.1.3l-91.8,53-3.1-1.2.9,4.3h0a2.4,2.4,0,0,0,1.4,1.8L307,326.9c2.1,1.3,5.7,1.1,8.1-.3l92.1-53.1a3.6,3.6,0,0,0,1.9-2.3h0l.9-4.2Z" transform="translate(-73.7 -37.5)" fill="url(#Áåçûìÿííûé_ãðàäèåíò_109)"/>
    <path d="M307.1,323.2,162.7,239.8c-2.1-1.2-1.9-3.4.6-4.8L256,181.5a9.1,9.1,0,0,1,8.2-.3l144.4,83.4c2.1,1.2,1.9,3.3-.6,4.7l-92.7,53.5C312.9,324.2,309.2,324.4,307.1,323.2Z" transform="translate(-73.7 -37.5)" fill="url(#radial-gradient-2)"/>
    <path d="M408,268.2l-92.7,53.5c-2.4,1.4-6.1,1.6-8.2.3L162.7,238.7a3.5,3.5,0,0,1-1.3-1.5,2.2,2.2,0,0,0,1.3,2.6l144.4,83.4c2.1,1.2,5.8,1,8.2-.4L408,269.3c1.6-.9,2.3-2.1,1.9-3.2A3.7,3.7,0,0,1,408,268.2Z" transform="translate(-73.7 -37.5)" fill="#fff"/>
    <g opacity="0.4">
      <path d="M231.6,226.3l-4.9-2.9c-.4-.2-.3-.6.1-.8l5.8-3.4a1.6,1.6,0,0,1,1.5,0L239,222c.4.2.3.6-.1.9l-5.8,3.3A2,2,0,0,1,231.6,226.3Z" transform="translate(-73.7 -37.5)" fill="#06033e"/>
      <path d="M239.1,230.6l-4.9-2.8c-.4-.2-.3-.6.1-.9l5.8-3.3a1.6,1.6,0,0,1,1.5-.1l4.9,2.8a.5.5,0,0,1-.1.9l-5.8,3.3A1.6,1.6,0,0,1,239.1,230.6Z" transform="translate(-73.7 -37.5)" fill="#06033e"/>
      <path d="M246.6,234.9l-4.8-2.8c-.4-.2-.4-.6.1-.9l5.7-3.3a1.8,1.8,0,0,1,1.6,0l4.8,2.8c.4.2.4.6-.1.9l-5.7,3.3A1.8,1.8,0,0,1,246.6,234.9Z" transform="translate(-73.7 -37.5)" fill="#06033e"/>
      <path d="M257.1,231.4l-4.9-2.9c-.4-.2-.4-.6.1-.8l4.8-2.8a1.6,1.6,0,0,1,1.5-.1l4.9,2.8c.4.2.4.6-.1.9l-4.8,2.8A1.6,1.6,0,0,1,257.1,231.4Z" transform="translate(-73.7 -37.5)" fill="#06033e"/>
      <path d="M264.6,235.7l-4.9-2.8c-.4-.2-.3-.6.1-.9l4.9-2.8a1.6,1.6,0,0,1,1.5,0l4.9,2.8c.3.2.3.6-.2.9l-4.8,2.7A1.6,1.6,0,0,1,264.6,235.7Z" transform="translate(-73.7 -37.5)" fill="#06033e"/>
      <path d="M272.1,240.1l-4.9-2.9c-.4-.2-.3-.6.2-.8l4.8-2.8a1.6,1.6,0,0,1,1.5-.1l4.9,2.8c.4.2.3.6-.1.9l-4.9,2.8A2,2,0,0,1,272.1,240.1Z" transform="translate(-73.7 -37.5)" fill="#06033e"/>
      <path d="M279.6,244.4l-4.8-2.8c-.4-.2-.4-.6.1-.9l4.8-2.8a2,2,0,0,1,1.5-.1l4.9,2.9c.4.2.4.6-.1.8l-4.8,2.8A1.8,1.8,0,0,1,279.6,244.4Z" transform="translate(-73.7 -37.5)" fill="#06033e"/>
      <path d="M287.2,248.7l-4.9-2.8c-.4-.2-.3-.6.1-.9l4.8-2.7a1.8,1.8,0,0,1,1.6-.1l4.8,2.8c.4.2.4.6-.1.9l-4.8,2.8A1.6,1.6,0,0,1,287.2,248.7Z" transform="translate(-73.7 -37.5)" fill="#06033e"/>
      <path d="M294.7,253.1l-4.9-2.8c-.4-.2-.3-.6.1-.9l4.9-2.8a1.6,1.6,0,0,1,1.5-.1l4.9,2.9c.4.2.3.6-.1.8l-4.9,2.8A1.6,1.6,0,0,1,294.7,253.1Z" transform="translate(-73.7 -37.5)" fill="#06033e"/>
      <path d="M302.2,257.4l-4.8-2.8c-.4-.2-.4-.6.1-.9l4.8-2.7a1.6,1.6,0,0,1,1.5-.1l4.9,2.8c.4.2.3.6-.1.9l-4.8,2.8A1.8,1.8,0,0,1,302.2,257.4Z" transform="translate(-73.7 -37.5)" fill="#06033e"/>
      <path d="M309.8,261.8l-4.9-2.8c-.4-.3-.4-.6.1-.9l4.8-2.8a1.8,1.8,0,0,1,1.6-.1l4.8,2.9c.4.2.4.6-.1.8l-4.8,2.8A1.6,1.6,0,0,1,309.8,261.8Z" transform="translate(-73.7 -37.5)" fill="#06033e"/>
      <path d="M317.3,266.1l-4.9-2.8c-.4-.2-.3-.6.1-.9l4.9-2.7a1.6,1.6,0,0,1,1.5-.1l4.9,2.8c.4.2.3.6-.1.9l-4.9,2.8A1.6,1.6,0,0,1,317.3,266.1Z" transform="translate(-73.7 -37.5)" fill="#06033e"/>
      <path d="M324.8,270.5l-4.8-2.8c-.4-.3-.4-.7.1-.9l4.8-2.8a1.6,1.6,0,0,1,1.5-.1l4.9,2.8a.5.5,0,0,1-.1.9l-4.8,2.8A1.8,1.8,0,0,1,324.8,270.5Z" transform="translate(-73.7 -37.5)" fill="#06033e"/>
      <path d="M268.2,229.3l-4.9-2.8c-.4-.2-.4-.6.1-.9l4.8-2.8a2,2,0,0,1,1.5-.1l4.9,2.9c.4.2.4.6-.1.8l-4.8,2.8A1.6,1.6,0,0,1,268.2,229.3Z" transform="translate(-73.7 -37.5)" fill="#06033e"/>
      <path d="M260.5,224.9l-4.9-2.8a.5.5,0,0,1,.1-.9l4.9-2.8a1.6,1.6,0,0,1,1.5-.1l4.9,2.9c.4.2.3.6-.1.8l-4.9,2.8A1.6,1.6,0,0,1,260.5,224.9Z" transform="translate(-73.7 -37.5)" fill="#06033e"/>
      <path d="M252.9,220.5l-10.5-6.1c-.4-.2-.4-.6.1-.9l4.8-2.8a1.6,1.6,0,0,1,1.5,0l10.5,6c.4.3.4.7-.1.9l-4.8,2.8A1.6,1.6,0,0,1,252.9,220.5Z" transform="translate(-73.7 -37.5)" fill="#06033e"/>
      <path d="M258.2,215.1l-8.5-4.9c-.4-.3-.4-.7.1-.9l4.8-2.8a1.8,1.8,0,0,1,1.6-.1l8.5,5c.4.2.3.6-.1.8l-4.9,2.8A1.6,1.6,0,0,1,258.2,215.1Z" transform="translate(-73.7 -37.5)" fill="#06033e"/>
      <path d="M275.7,233.6l-4.9-2.8c-.4-.2-.3-.6.1-.9l4.8-2.7a1.8,1.8,0,0,1,1.6-.1l4.9,2.8c.3.2.3.6-.2.9l-4.8,2.8A1.6,1.6,0,0,1,275.7,233.6Z" transform="translate(-73.7 -37.5)" fill="#06033e"/>
      <path d="M283.2,238l-4.9-2.8c-.4-.2-.3-.6.1-.9l4.9-2.8a1.6,1.6,0,0,1,1.5-.1l4.9,2.9c.4.2.3.6-.1.8l-4.9,2.8A1.6,1.6,0,0,1,283.2,238Z" transform="translate(-73.7 -37.5)" fill="#06033e"/>
      <path d="M290.7,242.3l-4.8-2.8c-.4-.2-.4-.6.1-.9l4.8-2.7a1.6,1.6,0,0,1,1.5-.1l4.9,2.8c.4.2.4.6-.1.9l-4.8,2.8A1.8,1.8,0,0,1,290.7,242.3Z" transform="translate(-73.7 -37.5)" fill="#06033e"/>
      <path d="M298.3,246.7l-4.9-2.8c-.4-.3-.3-.6.1-.9l4.8-2.8a1.8,1.8,0,0,1,1.6-.1l4.8,2.9c.4.2.4.6-.1.8l-4.8,2.8A1.6,1.6,0,0,1,298.3,246.7Z" transform="translate(-73.7 -37.5)" fill="#06033e"/>
      <path d="M305.8,251l-4.9-2.8c-.4-.2-.3-.6.1-.9l4.9-2.8a1.9,1.9,0,0,1,1.5,0l4.9,2.8c.4.2.3.6-.1.9l-4.9,2.8A1.6,1.6,0,0,1,305.8,251Z" transform="translate(-73.7 -37.5)" fill="#06033e"/>
      <path d="M313.3,255.4l-4.8-2.8c-.4-.3-.4-.7.1-.9l4.8-2.8a1.6,1.6,0,0,1,1.5-.1l4.9,2.8a.5.5,0,0,1-.1.9l-4.8,2.8A1.8,1.8,0,0,1,313.3,255.4Z" transform="translate(-73.7 -37.5)" fill="#06033e"/>
      <path d="M320.9,259.7l-4.9-2.8c-.4-.2-.4-.6.1-.9l4.8-2.8a2.2,2.2,0,0,1,1.6,0l4.8,2.8c.4.2.4.6-.1.9l-4.8,2.8A1.6,1.6,0,0,1,320.9,259.7Z" transform="translate(-73.7 -37.5)" fill="#06033e"/>
      <path d="M328.4,264.1l-4.9-2.8a.5.5,0,0,1,.1-.9l4.9-2.8a1.6,1.6,0,0,1,1.5-.1l4.9,2.8a.5.5,0,0,1-.1.9l-4.9,2.8A1.6,1.6,0,0,1,328.4,264.1Z" transform="translate(-73.7 -37.5)" fill="#06033e"/>
      <path d="M335.9,268.4l-4.9-2.8c-.3-.2-.3-.6.2-.9l4.8-2.8a2,2,0,0,1,1.5,0l4.9,2.8c.4.2.3.6-.1.9l-4.8,2.8A1.8,1.8,0,0,1,335.9,268.4Z" transform="translate(-73.7 -37.5)" fill="#06033e"/>
      <path d="M349.3,276.2,338.7,270c-.4-.2-.4-.6.1-.9l4.8-2.8a1.9,1.9,0,0,1,1.5,0l10.7,6.1c.4.2.3.6-.1.9l-4.9,2.8A1.6,1.6,0,0,1,349.3,276.2Z" transform="translate(-73.7 -37.5)" fill="#06033e"/>
      <path d="M364,267.7l-9-5.2c-.4-.2-.4-.6.1-.9l4.8-2.8a1.8,1.8,0,0,1,1.6,0l8.9,5.2c.4.2.4.6-.1.8l-4.8,2.8A1.6,1.6,0,0,1,364,267.7Z" transform="translate(-73.7 -37.5)" fill="#06033e"/>
      <path d="M288.9,232.8,284,230c-.4-.2-.3-.6.1-.9l4.8-2.8a1.8,1.8,0,0,1,1.6-.1l4.8,2.9c.4.2.4.6-.1.8l-4.8,2.8A1.6,1.6,0,0,1,288.9,232.8Z" transform="translate(-73.7 -37.5)" fill="#06033e"/>
      <path d="M281.2,228.3l-4.9-2.8c-.4-.2-.4-.6.1-.9l4.8-2.7a1.6,1.6,0,0,1,1.5-.1l4.9,2.8c.4.2.4.6-.1.9l-4.8,2.8C282.2,228.5,281.5,228.6,281.2,228.3Z" transform="translate(-73.7 -37.5)" fill="#06033e"/>
      <path d="M273.4,223.9l-4.8-2.8c-.4-.3-.4-.7.1-.9l4.8-2.8a1.6,1.6,0,0,1,1.5-.1l4.9,2.8a.5.5,0,0,1-.1.9l-4.8,2.8A1.8,1.8,0,0,1,273.4,223.9Z" transform="translate(-73.7 -37.5)" fill="#06033e"/>
      <path d="M265.7,219.4l-4.9-2.8c-.4-.2-.3-.6.2-.9l4.8-2.8a2,2,0,0,1,1.5,0l4.9,2.8c.4.2.3.6-.1.9l-4.9,2.8A1.6,1.6,0,0,1,265.7,219.4Z" transform="translate(-73.7 -37.5)" fill="#06033e"/>
      <path d="M296.4,237.1l-4.9-2.8c-.4-.2-.3-.6.1-.9l4.9-2.7a1.6,1.6,0,0,1,1.5-.1l4.9,2.8c.4.2.3.6-.1.9l-4.9,2.8A1.6,1.6,0,0,1,296.4,237.1Z" transform="translate(-73.7 -37.5)" fill="#06033e"/>
      <path d="M303.9,241.5l-4.8-2.8c-.4-.3-.4-.6.1-.9L304,235a1.6,1.6,0,0,1,1.5-.1l4.9,2.9c.4.2.3.6-.1.8l-4.8,2.8A1.8,1.8,0,0,1,303.9,241.5Z" transform="translate(-73.7 -37.5)" fill="#06033e"/>
      <path d="M311.5,245.8l-4.9-2.8c-.4-.2-.4-.6.1-.9l4.8-2.7a1.8,1.8,0,0,1,1.6-.1l4.8,2.8c.4.2.4.6-.1.9l-4.8,2.8A1.6,1.6,0,0,1,311.5,245.8Z" transform="translate(-73.7 -37.5)" fill="#06033e"/>
      <path d="M319,250.2l-4.9-2.8a.5.5,0,0,1,.1-.9l4.9-2.8a1.6,1.6,0,0,1,1.5-.1l4.9,2.9c.4.2.3.6-.2.8l-4.8,2.8A1.6,1.6,0,0,1,319,250.2Z" transform="translate(-73.7 -37.5)" fill="#06033e"/>
      <path d="M326.5,254.5l-4.9-2.8c-.3-.2-.3-.6.2-.9l4.8-2.8a2,2,0,0,1,1.5,0l4.9,2.8c.4.2.3.6-.1.9l-4.9,2.8A1.6,1.6,0,0,1,326.5,254.5Z" transform="translate(-73.7 -37.5)" fill="#06033e"/>
      <path d="M334.1,258.9l-4.9-2.8c-.4-.3-.4-.7.1-.9l4.8-2.8a1.6,1.6,0,0,1,1.5-.1l4.9,2.8c.4.3.4.7-.1.9l-4.8,2.8A1.6,1.6,0,0,1,334.1,258.9Z" transform="translate(-73.7 -37.5)" fill="#06033e"/>
      <path d="M341.6,263.2l-4.9-2.8c-.4-.2-.3-.6.1-.9l4.8-2.8a2.2,2.2,0,0,1,1.6,0l4.8,2.8c.4.2.4.6-.1.9l-4.8,2.8A1.6,1.6,0,0,1,341.6,263.2Z" transform="translate(-73.7 -37.5)" fill="#06033e"/>
      <path d="M349.1,267.6l-4.9-2.8a.5.5,0,0,1,.1-.9l4.9-2.8a1.6,1.6,0,0,1,1.5-.1l4.9,2.8a.5.5,0,0,1-.1.9l-4.9,2.8A1.6,1.6,0,0,1,349.1,267.6Z" transform="translate(-73.7 -37.5)" fill="#06033e"/>
      <path d="M356.6,271.9l-4.8-2.8c-.4-.2-.4-.6.1-.9l4.8-2.8a1.6,1.6,0,0,1,1.5,0l4.9,2.8c.4.2.4.6-.1.9l-4.8,2.8A2.2,2.2,0,0,1,356.6,271.9Z" transform="translate(-73.7 -37.5)" fill="#06033e"/>
      <path d="M284.9,222l-4.9-2.8c-.4-.2-.3-.6.1-.9l4.9-2.7a1.6,1.6,0,0,1,1.5-.1l4.9,2.8c.4.2.3.6-.1.9l-4.9,2.8A1.6,1.6,0,0,1,284.9,222Z" transform="translate(-73.7 -37.5)" fill="#06033e"/>
      <path d="M277.4,217.7l-4.9-2.8c-.4-.2-.3-.6.1-.9l4.9-2.8a1.6,1.6,0,0,1,1.5,0l4.9,2.8c.4.2.3.6-.1.9l-4.9,2.8A2,2,0,0,1,277.4,217.7Z" transform="translate(-73.7 -37.5)" fill="#06033e"/>
      <path d="M269.9,213.4l-4.9-2.8c-.3-.3-.3-.6.2-.9l4.8-2.8a1.6,1.6,0,0,1,1.5-.1l4.9,2.9c.4.2.3.6-.1.8l-4.9,2.8A1.6,1.6,0,0,1,269.9,213.4Z" transform="translate(-73.7 -37.5)" fill="#06033e"/>
      <path d="M262.4,209.1l-4.9-2.9c-.3-.2-.3-.6.2-.8l4.8-2.8a1.6,1.6,0,0,1,1.5-.1l4.9,2.8c.4.3.3.6-.1.9L264,209A1.8,1.8,0,0,1,262.4,209.1Z" transform="translate(-73.7 -37.5)" fill="#06033e"/>
      <path d="M270.1,204.6l-4.8-2.8c-.4-.2-.4-.6.1-.9l1.6-.9a1.6,1.6,0,0,1,1.5-.1l4.9,2.8a.5.5,0,0,1-.1.9l-1.6,1A2.2,2.2,0,0,1,270.1,204.6Z" transform="translate(-73.7 -37.5)" fill="#06033e"/>
      <path d="M279.9,210.3l-4.9-2.9c-.4-.2-.3-.6.1-.8l1.6-1a2.2,2.2,0,0,1,1.6,0l4.8,2.8c.4.2.4.6-.1.9l-1.6.9A1.6,1.6,0,0,1,279.9,210.3Z" transform="translate(-73.7 -37.5)" fill="#06033e"/>
      <path d="M287.4,214.6l-4.9-2.8a.5.5,0,0,1,.1-.9l1.6-1a1.9,1.9,0,0,1,1.5,0l4.9,2.8c.4.2.3.6-.1.9l-1.6.9A1.6,1.6,0,0,1,287.4,214.6Z" transform="translate(-73.7 -37.5)" fill="#06033e"/>
      <path d="M294.8,218.9l-4.8-2.8c-.4-.3-.4-.7.1-.9l1.6-.9a1.6,1.6,0,0,1,1.5-.1l4.9,2.8c.4.2.3.6-.1.9l-1.6.9A1.8,1.8,0,0,1,294.8,218.9Z" transform="translate(-73.7 -37.5)" fill="#06033e"/>
      <path d="M302.3,223.2l-4.9-2.8a.5.5,0,0,1,.1-.9l1.6-.9a1.8,1.8,0,0,1,1.6-.1l4.8,2.8c.4.2.4.6-.1.9l-1.6.9A1.6,1.6,0,0,1,302.3,223.2Z" transform="translate(-73.7 -37.5)" fill="#06033e"/>
      <path d="M344,247.2l-4.9-2.8c-.4-.2-.4-.6.1-.9l1.6-.9a1.6,1.6,0,0,1,1.5,0l4.9,2.8c.4.2.3.6-.1.8l-1.6,1C345,247.4,344.3,247.5,344,247.2Z" transform="translate(-73.7 -37.5)" fill="#06033e"/>
      <path d="M351.4,251.5l-4.9-2.8c-.4-.2-.3-.6.1-.9l1.6-.9a1.8,1.8,0,0,1,1.6,0l4.8,2.8c.4.2.4.6-.1.9l-1.6.9A1.6,1.6,0,0,1,351.4,251.5Z" transform="translate(-73.7 -37.5)" fill="#06033e"/>
      <path d="M358.9,255.9,354,253c-.4-.2-.3-.6.1-.8l1.6-1a1.6,1.6,0,0,1,1.5,0l4.9,2.8c.4.2.4.6-.1.9l-1.6.9A2,2,0,0,1,358.9,255.9Z" transform="translate(-73.7 -37.5)" fill="#06033e"/>
      <path d="M366.3,260.2l-4.8-2.9c-.4-.2-.4-.6.1-.8l1.6-1a1.6,1.6,0,0,1,1.5,0l4.9,2.8c.4.2.3.6-.1.9l-1.6.9A1.8,1.8,0,0,1,366.3,260.2Z" transform="translate(-73.7 -37.5)" fill="#06033e"/>
      <path d="M292.4,226.4l-4.8-2.8c-.4-.3-.4-.6.1-.9l4.8-2.8a1.6,1.6,0,0,1,1.5-.1l4.9,2.9c.4.2.3.6-.1.8l-4.8,2.8A1.8,1.8,0,0,1,292.4,226.4Z" transform="translate(-73.7 -37.5)" fill="#06033e"/>
      <path d="M300,230.7l-4.9-2.8c-.4-.2-.4-.6.1-.9l4.8-2.8a2.2,2.2,0,0,1,1.6,0l4.8,2.8c.4.2.4.6-.1.9l-4.8,2.8A1.6,1.6,0,0,1,300,230.7Z" transform="translate(-73.7 -37.5)" fill="#06033e"/>
      <path d="M307.5,235.1l-4.9-2.8a.5.5,0,0,1,.1-.9l4.9-2.8a1.6,1.6,0,0,1,1.5-.1l4.9,2.8a.5.5,0,0,1-.1.9L309,235A1.6,1.6,0,0,1,307.5,235.1Z" transform="translate(-73.7 -37.5)" fill="#06033e"/>
      <path d="M315,239.4l-4.9-2.8c-.3-.2-.3-.6.2-.9l4.8-2.8a1.9,1.9,0,0,1,1.5,0l4.9,2.8c.4.2.3.6-.1.9l-4.8,2.8A1.8,1.8,0,0,1,315,239.4Z" transform="translate(-73.7 -37.5)" fill="#06033e"/>
      <path d="M322.6,243.8l-4.9-2.8c-.4-.3-.4-.7.1-.9l4.8-2.8a1.6,1.6,0,0,1,1.5-.1L329,240c.4.3.4.7-.1.9l-4.8,2.8A1.6,1.6,0,0,1,322.6,243.8Z" transform="translate(-73.7 -37.5)" fill="#06033e"/>
      <path d="M330.1,248.1l-4.9-2.8c-.4-.2-.3-.6.1-.9l4.9-2.8a2,2,0,0,1,1.5,0l4.9,2.8c.3.2.3.6-.2.9l-4.8,2.8A1.6,1.6,0,0,1,330.1,248.1Z" transform="translate(-73.7 -37.5)" fill="#06033e"/>
      <path d="M337.6,252.5l-4.9-2.8a.5.5,0,0,1,.1-.9l4.9-2.8a1.6,1.6,0,0,1,1.5-.1l4.9,2.8a.5.5,0,0,1-.1.9l-4.9,2.8A1.6,1.6,0,0,1,337.6,252.5Z" transform="translate(-73.7 -37.5)" fill="#06033e"/>
      <path d="M345.1,256.8l-4.8-2.8c-.4-.2-.4-.6.1-.9l4.8-2.8a1.6,1.6,0,0,1,1.5,0l4.9,2.8c.4.2.4.6-.1.9l-4.8,2.8A2.2,2.2,0,0,1,345.1,256.8Z" transform="translate(-73.7 -37.5)" fill="#06033e"/>
      <path d="M352.7,261.2l-4.9-2.8a.5.5,0,0,1,.1-.9l4.8-2.8a1.8,1.8,0,0,1,1.6-.1l4.8,2.8c.4.3.4.7-.1.9l-4.8,2.8A1.6,1.6,0,0,1,352.7,261.2Z" transform="translate(-73.7 -37.5)" fill="#06033e"/>
      <path d="M249.4,226.9,235,218.6c-.4-.2-.3-.6.1-.8L240,215a1.6,1.6,0,0,1,1.5-.1l14.4,8.3c.3.2.3.6-.2.9l-4.8,2.8A1.6,1.6,0,0,1,249.4,226.9Z" transform="translate(-73.7 -37.5)" fill="#06033e"/>
      <path d="M341.9,280.3,327.5,272c-.4-.2-.3-.6.1-.8l4.9-2.8a1.6,1.6,0,0,1,1.5-.1l14.4,8.3c.4.2.3.6-.1.9l-4.9,2.8A1.6,1.6,0,0,1,341.9,280.3Z" transform="translate(-73.7 -37.5)" fill="#06033e"/>
      <path d="M311.8,272.6l-4.9-2.9c-.4-.2-.3-.6.1-.8l5.8-3.4a1.6,1.6,0,0,1,1.5,0l4.9,2.8c.4.2.3.6-.1.9l-5.8,3.3A1.6,1.6,0,0,1,311.8,272.6Z" transform="translate(-73.7 -37.5)" fill="#06033e"/>
      <path d="M257.1,241l-7.8-4.5c-.4-.2-.3-.6.1-.9l5.8-3.3a1.6,1.6,0,0,1,1.5-.1l7.8,4.5c.4.2.3.6-.1.9l-5.8,3.3A1.6,1.6,0,0,1,257.1,241Z" transform="translate(-73.7 -37.5)" fill="#06033e"/>
      <path d="M304.5,268.4l-7.8-4.5a.5.5,0,0,1,.1-.9l5.8-3.3a1.6,1.6,0,0,1,1.5-.1l7.8,4.5c.4.2.4.6-.1.9l-5.7,3.3A1.8,1.8,0,0,1,304.5,268.4Z" transform="translate(-73.7 -37.5)" fill="#06033e"/>
      <path d="M268,247.3l-7.8-4.5c-.4-.3-.4-.7.1-.9l5.7-3.4a2.2,2.2,0,0,1,1.6,0l7.8,4.5c.3.2.3.6-.2.9l-5.7,3.3A1.6,1.6,0,0,1,268,247.3Z" transform="translate(-73.7 -37.5)" fill="#06033e"/>
      <path d="M267.6,238.5l33.9,19.6c.4.2.4.6,0,.9l-5.9,3.4a1.9,1.9,0,0,1-1.5,0l-33.9-19.6Z" transform="translate(-73.7 -37.5)" fill="#06033e"/>
      <path d="M332.8,280.4l5.5,3.2c.3.2.2.5-.1.7l-2.4,1.4a1.3,1.3,0,0,1-1.2,0l-5.5-3.1c-.3-.2-.3-.5.1-.8l2.4-1.3A1.7,1.7,0,0,1,332.8,280.4Z" transform="translate(-73.7 -37.5)" fill="#06033e"/>
      <path d="M325.2,276.1l5.5,3.1c.3.2.2.5-.1.7l-2.4,1.4a1.3,1.3,0,0,1-1.2,0l-5.5-3.1c-.3-.2-.2-.5.1-.7l2.4-1.4A1.3,1.3,0,0,1,325.2,276.1Z" transform="translate(-73.7 -37.5)" fill="#06033e"/>
      <path d="M317.7,271.7l5.4,3.1c.4.2.3.5-.1.8l-2.3,1.3a1.5,1.5,0,0,1-1.3.1l-5.4-3.2c-.3-.1-.3-.5.1-.7l2.4-1.3A1.1,1.1,0,0,1,317.7,271.7Z" transform="translate(-73.7 -37.5)" fill="#06033e"/>
      <path d="M329.4,273.7l5.4,3.1c.3.2.3.5-.1.7l-2.3,1.4a1.5,1.5,0,0,1-1.3,0l-5.4-3.1c-.3-.2-.3-.5.1-.7l2.3-1.4A1.5,1.5,0,0,1,329.4,273.7Z" transform="translate(-73.7 -37.5)" fill="#06033e"/>
    </g>
    <g opacity="0.4">
      <path d="M231.6,226.3l-4.9-2.9c-.4-.2-.3-.6.1-.8l5.8-3.4a1.6,1.6,0,0,1,1.5,0L239,222c.4.2.3.6-.1.9l-5.8,3.3A2,2,0,0,1,231.6,226.3Z" transform="translate(-73.7 -37.5)" fill="#06033e"/>
      <path d="M239.1,230.6l-4.9-2.8c-.4-.2-.3-.6.1-.9l5.8-3.3a1.6,1.6,0,0,1,1.5-.1l4.9,2.8a.5.5,0,0,1-.1.9l-5.8,3.3A1.6,1.6,0,0,1,239.1,230.6Z" transform="translate(-73.7 -37.5)" fill="#06033e"/>
      <path d="M246.6,234.9l-4.8-2.8c-.4-.2-.4-.6.1-.9l5.7-3.3a1.8,1.8,0,0,1,1.6,0l4.8,2.8c.4.2.4.6-.1.9l-5.7,3.3A1.8,1.8,0,0,1,246.6,234.9Z" transform="translate(-73.7 -37.5)" fill="#06033e"/>
      <path d="M257.1,231.4l-4.9-2.9c-.4-.2-.4-.6.1-.8l4.8-2.8a1.6,1.6,0,0,1,1.5-.1l4.9,2.8c.4.2.4.6-.1.9l-4.8,2.8A1.6,1.6,0,0,1,257.1,231.4Z" transform="translate(-73.7 -37.5)" fill="#06033e"/>
      <path d="M264.6,235.7l-4.9-2.8c-.4-.2-.3-.6.1-.9l4.9-2.8a1.6,1.6,0,0,1,1.5,0l4.9,2.8c.3.2.3.6-.2.9l-4.8,2.7A1.6,1.6,0,0,1,264.6,235.7Z" transform="translate(-73.7 -37.5)" fill="#06033e"/>
      <path d="M272.1,240.1l-4.9-2.9c-.4-.2-.3-.6.2-.8l4.8-2.8a1.6,1.6,0,0,1,1.5-.1l4.9,2.8c.4.2.3.6-.1.9l-4.9,2.8A2,2,0,0,1,272.1,240.1Z" transform="translate(-73.7 -37.5)" fill="#06033e"/>
      <path d="M279.6,244.4l-4.8-2.8c-.4-.2-.4-.6.1-.9l4.8-2.8a2,2,0,0,1,1.5-.1l4.9,2.9c.4.2.4.6-.1.8l-4.8,2.8A1.8,1.8,0,0,1,279.6,244.4Z" transform="translate(-73.7 -37.5)" fill="#06033e"/>
      <path d="M287.2,248.7l-4.9-2.8c-.4-.2-.3-.6.1-.9l4.8-2.7a1.8,1.8,0,0,1,1.6-.1l4.8,2.8c.4.2.4.6-.1.9l-4.8,2.8A1.6,1.6,0,0,1,287.2,248.7Z" transform="translate(-73.7 -37.5)" fill="#06033e"/>
      <path d="M294.7,253.1l-4.9-2.8c-.4-.2-.3-.6.1-.9l4.9-2.8a1.6,1.6,0,0,1,1.5-.1l4.9,2.9c.4.2.3.6-.1.8l-4.9,2.8A1.6,1.6,0,0,1,294.7,253.1Z" transform="translate(-73.7 -37.5)" fill="#06033e"/>
      <path d="M302.2,257.4l-4.8-2.8c-.4-.2-.4-.6.1-.9l4.8-2.7a1.6,1.6,0,0,1,1.5-.1l4.9,2.8c.4.2.3.6-.1.9l-4.8,2.8A1.8,1.8,0,0,1,302.2,257.4Z" transform="translate(-73.7 -37.5)" fill="#06033e"/>
      <path d="M309.8,261.8l-4.9-2.8c-.4-.3-.4-.6.1-.9l4.8-2.8a1.8,1.8,0,0,1,1.6-.1l4.8,2.9c.4.2.4.6-.1.8l-4.8,2.8A1.6,1.6,0,0,1,309.8,261.8Z" transform="translate(-73.7 -37.5)" fill="#06033e"/>
      <path d="M317.3,266.1l-4.9-2.8c-.4-.2-.3-.6.1-.9l4.9-2.7a1.6,1.6,0,0,1,1.5-.1l4.9,2.8c.4.2.3.6-.1.9l-4.9,2.8A1.6,1.6,0,0,1,317.3,266.1Z" transform="translate(-73.7 -37.5)" fill="#06033e"/>
      <path d="M324.8,270.5l-4.8-2.8c-.4-.3-.4-.7.1-.9l4.8-2.8a1.6,1.6,0,0,1,1.5-.1l4.9,2.8a.5.5,0,0,1-.1.9l-4.8,2.8A1.8,1.8,0,0,1,324.8,270.5Z" transform="translate(-73.7 -37.5)" fill="#06033e"/>
      <path d="M268.2,229.3l-4.9-2.8c-.4-.2-.4-.6.1-.9l4.8-2.8a2,2,0,0,1,1.5-.1l4.9,2.9c.4.2.4.6-.1.8l-4.8,2.8A1.6,1.6,0,0,1,268.2,229.3Z" transform="translate(-73.7 -37.5)" fill="#06033e"/>
      <path d="M260.5,224.9l-4.9-2.8a.5.5,0,0,1,.1-.9l4.9-2.8a1.6,1.6,0,0,1,1.5-.1l4.9,2.9c.4.2.3.6-.1.8l-4.9,2.8A1.6,1.6,0,0,1,260.5,224.9Z" transform="translate(-73.7 -37.5)" fill="#06033e"/>
      <path d="M252.9,220.5l-10.5-6.1c-.4-.2-.4-.6.1-.9l4.8-2.8a1.6,1.6,0,0,1,1.5,0l10.5,6c.4.3.4.7-.1.9l-4.8,2.8A1.6,1.6,0,0,1,252.9,220.5Z" transform="translate(-73.7 -37.5)" fill="#06033e"/>
      <path d="M258.2,215.1l-8.5-4.9c-.4-.3-.4-.7.1-.9l4.8-2.8a1.8,1.8,0,0,1,1.6-.1l8.5,5c.4.2.3.6-.1.8l-4.9,2.8A1.6,1.6,0,0,1,258.2,215.1Z" transform="translate(-73.7 -37.5)" fill="#06033e"/>
      <path d="M275.7,233.6l-4.9-2.8c-.4-.2-.3-.6.1-.9l4.8-2.7a1.8,1.8,0,0,1,1.6-.1l4.9,2.8c.3.2.3.6-.2.9l-4.8,2.8A1.6,1.6,0,0,1,275.7,233.6Z" transform="translate(-73.7 -37.5)" fill="#06033e"/>
      <path d="M283.2,238l-4.9-2.8c-.4-.2-.3-.6.1-.9l4.9-2.8a1.6,1.6,0,0,1,1.5-.1l4.9,2.9c.4.2.3.6-.1.8l-4.9,2.8A1.6,1.6,0,0,1,283.2,238Z" transform="translate(-73.7 -37.5)" fill="#06033e"/>
      <path d="M290.7,242.3l-4.8-2.8c-.4-.2-.4-.6.1-.9l4.8-2.7a1.6,1.6,0,0,1,1.5-.1l4.9,2.8c.4.2.4.6-.1.9l-4.8,2.8A1.8,1.8,0,0,1,290.7,242.3Z" transform="translate(-73.7 -37.5)" fill="#06033e"/>
      <path d="M298.3,246.7l-4.9-2.8c-.4-.3-.3-.6.1-.9l4.8-2.8a1.8,1.8,0,0,1,1.6-.1l4.8,2.9c.4.2.4.6-.1.8l-4.8,2.8A1.6,1.6,0,0,1,298.3,246.7Z" transform="translate(-73.7 -37.5)" fill="#06033e"/>
      <path d="M305.8,251l-4.9-2.8c-.4-.2-.3-.6.1-.9l4.9-2.8a1.9,1.9,0,0,1,1.5,0l4.9,2.8c.4.2.3.6-.1.9l-4.9,2.8A1.6,1.6,0,0,1,305.8,251Z" transform="translate(-73.7 -37.5)" fill="#06033e"/>
      <path d="M313.3,255.4l-4.8-2.8c-.4-.3-.4-.7.1-.9l4.8-2.8a1.6,1.6,0,0,1,1.5-.1l4.9,2.8a.5.5,0,0,1-.1.9l-4.8,2.8A1.8,1.8,0,0,1,313.3,255.4Z" transform="translate(-73.7 -37.5)" fill="#06033e"/>
      <path d="M320.9,259.7l-4.9-2.8c-.4-.2-.4-.6.1-.9l4.8-2.8a2.2,2.2,0,0,1,1.6,0l4.8,2.8c.4.2.4.6-.1.9l-4.8,2.8A1.6,1.6,0,0,1,320.9,259.7Z" transform="translate(-73.7 -37.5)" fill="#06033e"/>
      <path d="M328.4,264.1l-4.9-2.8a.5.5,0,0,1,.1-.9l4.9-2.8a1.6,1.6,0,0,1,1.5-.1l4.9,2.8a.5.5,0,0,1-.1.9l-4.9,2.8A1.6,1.6,0,0,1,328.4,264.1Z" transform="translate(-73.7 -37.5)" fill="#06033e"/>
      <path d="M335.9,268.4l-4.9-2.8c-.3-.2-.3-.6.2-.9l4.8-2.8a2,2,0,0,1,1.5,0l4.9,2.8c.4.2.3.6-.1.9l-4.8,2.8A1.8,1.8,0,0,1,335.9,268.4Z" transform="translate(-73.7 -37.5)" fill="#06033e"/>
      <path d="M349.3,276.2,338.7,270c-.4-.2-.4-.6.1-.9l4.8-2.8a1.9,1.9,0,0,1,1.5,0l10.7,6.1c.4.2.3.6-.1.9l-4.9,2.8A1.6,1.6,0,0,1,349.3,276.2Z" transform="translate(-73.7 -37.5)" fill="#06033e"/>
      <path d="M364,267.7l-9-5.2c-.4-.2-.4-.6.1-.9l4.8-2.8a1.8,1.8,0,0,1,1.6,0l8.9,5.2c.4.2.4.6-.1.8l-4.8,2.8A1.6,1.6,0,0,1,364,267.7Z" transform="translate(-73.7 -37.5)" fill="#06033e"/>
      <path d="M288.9,232.8,284,230c-.4-.2-.3-.6.1-.9l4.8-2.8a1.8,1.8,0,0,1,1.6-.1l4.8,2.9c.4.2.4.6-.1.8l-4.8,2.8A1.6,1.6,0,0,1,288.9,232.8Z" transform="translate(-73.7 -37.5)" fill="#06033e"/>
      <path d="M281.2,228.3l-4.9-2.8c-.4-.2-.4-.6.1-.9l4.8-2.7a1.6,1.6,0,0,1,1.5-.1l4.9,2.8c.4.2.4.6-.1.9l-4.8,2.8C282.2,228.5,281.5,228.6,281.2,228.3Z" transform="translate(-73.7 -37.5)" fill="#06033e"/>
      <path d="M273.4,223.9l-4.8-2.8c-.4-.3-.4-.7.1-.9l4.8-2.8a1.6,1.6,0,0,1,1.5-.1l4.9,2.8a.5.5,0,0,1-.1.9l-4.8,2.8A1.8,1.8,0,0,1,273.4,223.9Z" transform="translate(-73.7 -37.5)" fill="#06033e"/>
      <path d="M265.7,219.4l-4.9-2.8c-.4-.2-.3-.6.2-.9l4.8-2.8a2,2,0,0,1,1.5,0l4.9,2.8c.4.2.3.6-.1.9l-4.9,2.8A1.6,1.6,0,0,1,265.7,219.4Z" transform="translate(-73.7 -37.5)" fill="#06033e"/>
      <path d="M296.4,237.1l-4.9-2.8c-.4-.2-.3-.6.1-.9l4.9-2.7a1.6,1.6,0,0,1,1.5-.1l4.9,2.8c.4.2.3.6-.1.9l-4.9,2.8A1.6,1.6,0,0,1,296.4,237.1Z" transform="translate(-73.7 -37.5)" fill="#06033e"/>
      <path d="M303.9,241.5l-4.8-2.8c-.4-.3-.4-.6.1-.9L304,235a1.6,1.6,0,0,1,1.5-.1l4.9,2.9c.4.2.3.6-.1.8l-4.8,2.8A1.8,1.8,0,0,1,303.9,241.5Z" transform="translate(-73.7 -37.5)" fill="#06033e"/>
      <path d="M311.5,245.8l-4.9-2.8c-.4-.2-.4-.6.1-.9l4.8-2.7a1.8,1.8,0,0,1,1.6-.1l4.8,2.8c.4.2.4.6-.1.9l-4.8,2.8A1.6,1.6,0,0,1,311.5,245.8Z" transform="translate(-73.7 -37.5)" fill="#06033e"/>
      <path d="M319,250.2l-4.9-2.8a.5.5,0,0,1,.1-.9l4.9-2.8a1.6,1.6,0,0,1,1.5-.1l4.9,2.9c.4.2.3.6-.2.8l-4.8,2.8A1.6,1.6,0,0,1,319,250.2Z" transform="translate(-73.7 -37.5)" fill="#06033e"/>
      <path d="M326.5,254.5l-4.9-2.8c-.3-.2-.3-.6.2-.9l4.8-2.8a2,2,0,0,1,1.5,0l4.9,2.8c.4.2.3.6-.1.9l-4.9,2.8A1.6,1.6,0,0,1,326.5,254.5Z" transform="translate(-73.7 -37.5)" fill="#06033e"/>
      <path d="M334.1,258.9l-4.9-2.8c-.4-.3-.4-.7.1-.9l4.8-2.8a1.6,1.6,0,0,1,1.5-.1l4.9,2.8c.4.3.4.7-.1.9l-4.8,2.8A1.6,1.6,0,0,1,334.1,258.9Z" transform="translate(-73.7 -37.5)" fill="#06033e"/>
      <path d="M341.6,263.2l-4.9-2.8c-.4-.2-.3-.6.1-.9l4.8-2.8a2.2,2.2,0,0,1,1.6,0l4.8,2.8c.4.2.4.6-.1.9l-4.8,2.8A1.6,1.6,0,0,1,341.6,263.2Z" transform="translate(-73.7 -37.5)" fill="#06033e"/>
      <path d="M349.1,267.6l-4.9-2.8a.5.5,0,0,1,.1-.9l4.9-2.8a1.6,1.6,0,0,1,1.5-.1l4.9,2.8a.5.5,0,0,1-.1.9l-4.9,2.8A1.6,1.6,0,0,1,349.1,267.6Z" transform="translate(-73.7 -37.5)" fill="#06033e"/>
      <path d="M356.6,271.9l-4.8-2.8c-.4-.2-.4-.6.1-.9l4.8-2.8a1.6,1.6,0,0,1,1.5,0l4.9,2.8c.4.2.4.6-.1.9l-4.8,2.8A2.2,2.2,0,0,1,356.6,271.9Z" transform="translate(-73.7 -37.5)" fill="#06033e"/>
      <path d="M284.9,222l-4.9-2.8c-.4-.2-.3-.6.1-.9l4.9-2.7a1.6,1.6,0,0,1,1.5-.1l4.9,2.8c.4.2.3.6-.1.9l-4.9,2.8A1.6,1.6,0,0,1,284.9,222Z" transform="translate(-73.7 -37.5)" fill="#06033e"/>
      <path d="M277.4,217.7l-4.9-2.8c-.4-.2-.3-.6.1-.9l4.9-2.8a1.6,1.6,0,0,1,1.5,0l4.9,2.8c.4.2.3.6-.1.9l-4.9,2.8A2,2,0,0,1,277.4,217.7Z" transform="translate(-73.7 -37.5)" fill="#06033e"/>
      <path d="M269.9,213.4l-4.9-2.8c-.3-.3-.3-.6.2-.9l4.8-2.8a1.6,1.6,0,0,1,1.5-.1l4.9,2.9c.4.2.3.6-.1.8l-4.9,2.8A1.6,1.6,0,0,1,269.9,213.4Z" transform="translate(-73.7 -37.5)" fill="#06033e"/>
      <path d="M262.4,209.1l-4.9-2.9c-.3-.2-.3-.6.2-.8l4.8-2.8a1.6,1.6,0,0,1,1.5-.1l4.9,2.8c.4.3.3.6-.1.9L264,209A1.8,1.8,0,0,1,262.4,209.1Z" transform="translate(-73.7 -37.5)" fill="#06033e"/>
      <path d="M270.1,204.6l-4.8-2.8c-.4-.2-.4-.6.1-.9l1.6-.9a1.6,1.6,0,0,1,1.5-.1l4.9,2.8a.5.5,0,0,1-.1.9l-1.6,1A2.2,2.2,0,0,1,270.1,204.6Z" transform="translate(-73.7 -37.5)" fill="#06033e"/>
      <path d="M279.9,210.3l-4.9-2.9c-.4-.2-.3-.6.1-.8l1.6-1a2.2,2.2,0,0,1,1.6,0l4.8,2.8c.4.2.4.6-.1.9l-1.6.9A1.6,1.6,0,0,1,279.9,210.3Z" transform="translate(-73.7 -37.5)" fill="#06033e"/>
      <path d="M287.4,214.6l-4.9-2.8a.5.5,0,0,1,.1-.9l1.6-1a1.9,1.9,0,0,1,1.5,0l4.9,2.8c.4.2.3.6-.1.9l-1.6.9A1.6,1.6,0,0,1,287.4,214.6Z" transform="translate(-73.7 -37.5)" fill="#06033e"/>
      <path d="M294.8,218.9l-4.8-2.8c-.4-.3-.4-.7.1-.9l1.6-.9a1.6,1.6,0,0,1,1.5-.1l4.9,2.8c.4.2.3.6-.1.9l-1.6.9A1.8,1.8,0,0,1,294.8,218.9Z" transform="translate(-73.7 -37.5)" fill="#06033e"/>
      <path d="M302.3,223.2l-4.9-2.8a.5.5,0,0,1,.1-.9l1.6-.9a1.8,1.8,0,0,1,1.6-.1l4.8,2.8c.4.2.4.6-.1.9l-1.6.9A1.6,1.6,0,0,1,302.3,223.2Z" transform="translate(-73.7 -37.5)" fill="#06033e"/>
      <path d="M344,247.2l-4.9-2.8c-.4-.2-.4-.6.1-.9l1.6-.9a1.6,1.6,0,0,1,1.5,0l4.9,2.8c.4.2.3.6-.1.8l-1.6,1C345,247.4,344.3,247.5,344,247.2Z" transform="translate(-73.7 -37.5)" fill="#06033e"/>
      <path d="M351.4,251.5l-4.9-2.8c-.4-.2-.3-.6.1-.9l1.6-.9a1.8,1.8,0,0,1,1.6,0l4.8,2.8c.4.2.4.6-.1.9l-1.6.9A1.6,1.6,0,0,1,351.4,251.5Z" transform="translate(-73.7 -37.5)" fill="#06033e"/>
      <path d="M358.9,255.9,354,253c-.4-.2-.3-.6.1-.8l1.6-1a1.6,1.6,0,0,1,1.5,0l4.9,2.8c.4.2.4.6-.1.9l-1.6.9A2,2,0,0,1,358.9,255.9Z" transform="translate(-73.7 -37.5)" fill="#06033e"/>
      <path d="M366.3,260.2l-4.8-2.9c-.4-.2-.4-.6.1-.8l1.6-1a1.6,1.6,0,0,1,1.5,0l4.9,2.8c.4.2.3.6-.1.9l-1.6.9A1.8,1.8,0,0,1,366.3,260.2Z" transform="translate(-73.7 -37.5)" fill="#06033e"/>
      <path d="M292.4,226.4l-4.8-2.8c-.4-.3-.4-.6.1-.9l4.8-2.8a1.6,1.6,0,0,1,1.5-.1l4.9,2.9c.4.2.3.6-.1.8l-4.8,2.8A1.8,1.8,0,0,1,292.4,226.4Z" transform="translate(-73.7 -37.5)" fill="#06033e"/>
      <path d="M300,230.7l-4.9-2.8c-.4-.2-.4-.6.1-.9l4.8-2.8a2.2,2.2,0,0,1,1.6,0l4.8,2.8c.4.2.4.6-.1.9l-4.8,2.8A1.6,1.6,0,0,1,300,230.7Z" transform="translate(-73.7 -37.5)" fill="#06033e"/>
      <path d="M307.5,235.1l-4.9-2.8a.5.5,0,0,1,.1-.9l4.9-2.8a1.6,1.6,0,0,1,1.5-.1l4.9,2.8a.5.5,0,0,1-.1.9L309,235A1.6,1.6,0,0,1,307.5,235.1Z" transform="translate(-73.7 -37.5)" fill="#06033e"/>
      <path d="M315,239.4l-4.9-2.8c-.3-.2-.3-.6.2-.9l4.8-2.8a1.9,1.9,0,0,1,1.5,0l4.9,2.8c.4.2.3.6-.1.9l-4.8,2.8A1.8,1.8,0,0,1,315,239.4Z" transform="translate(-73.7 -37.5)" fill="#06033e"/>
      <path d="M322.6,243.8l-4.9-2.8c-.4-.3-.4-.7.1-.9l4.8-2.8a1.6,1.6,0,0,1,1.5-.1L329,240c.4.3.4.7-.1.9l-4.8,2.8A1.6,1.6,0,0,1,322.6,243.8Z" transform="translate(-73.7 -37.5)" fill="#06033e"/>
      <path d="M330.1,248.1l-4.9-2.8c-.4-.2-.3-.6.1-.9l4.9-2.8a2,2,0,0,1,1.5,0l4.9,2.8c.3.2.3.6-.2.9l-4.8,2.8A1.6,1.6,0,0,1,330.1,248.1Z" transform="translate(-73.7 -37.5)" fill="#06033e"/>
      <path d="M337.6,252.5l-4.9-2.8a.5.5,0,0,1,.1-.9l4.9-2.8a1.6,1.6,0,0,1,1.5-.1l4.9,2.8a.5.5,0,0,1-.1.9l-4.9,2.8A1.6,1.6,0,0,1,337.6,252.5Z" transform="translate(-73.7 -37.5)" fill="#06033e"/>
      <path d="M345.1,256.8l-4.8-2.8c-.4-.2-.4-.6.1-.9l4.8-2.8a1.6,1.6,0,0,1,1.5,0l4.9,2.8c.4.2.4.6-.1.9l-4.8,2.8A2.2,2.2,0,0,1,345.1,256.8Z" transform="translate(-73.7 -37.5)" fill="#06033e"/>
      <path d="M352.7,261.2l-4.9-2.8a.5.5,0,0,1,.1-.9l4.8-2.8a1.8,1.8,0,0,1,1.6-.1l4.8,2.8c.4.3.4.7-.1.9l-4.8,2.8A1.6,1.6,0,0,1,352.7,261.2Z" transform="translate(-73.7 -37.5)" fill="#06033e"/>
      <path d="M249.4,226.9,235,218.6c-.4-.2-.3-.6.1-.8L240,215a1.6,1.6,0,0,1,1.5-.1l14.4,8.3c.3.2.3.6-.2.9l-4.8,2.8A1.6,1.6,0,0,1,249.4,226.9Z" transform="translate(-73.7 -37.5)" fill="#06033e"/>
      <path d="M341.9,280.3,327.5,272c-.4-.2-.3-.6.1-.8l4.9-2.8a1.6,1.6,0,0,1,1.5-.1l14.4,8.3c.4.2.3.6-.1.9l-4.9,2.8A1.6,1.6,0,0,1,341.9,280.3Z" transform="translate(-73.7 -37.5)" fill="#06033e"/>
      <path d="M311.8,272.6l-4.9-2.9c-.4-.2-.3-.6.1-.8l5.8-3.4a1.6,1.6,0,0,1,1.5,0l4.9,2.8c.4.2.3.6-.1.9l-5.8,3.3A1.6,1.6,0,0,1,311.8,272.6Z" transform="translate(-73.7 -37.5)" fill="#06033e"/>
      <path d="M257.1,241l-7.8-4.5c-.4-.2-.3-.6.1-.9l5.8-3.3a1.6,1.6,0,0,1,1.5-.1l7.8,4.5c.4.2.3.6-.1.9l-5.8,3.3A1.6,1.6,0,0,1,257.1,241Z" transform="translate(-73.7 -37.5)" fill="#06033e"/>
      <path d="M304.5,268.4l-7.8-4.5a.5.5,0,0,1,.1-.9l5.8-3.3a1.6,1.6,0,0,1,1.5-.1l7.8,4.5c.4.2.4.6-.1.9l-5.7,3.3A1.8,1.8,0,0,1,304.5,268.4Z" transform="translate(-73.7 -37.5)" fill="#06033e"/>
      <path d="M268,247.3l-7.8-4.5c-.4-.3-.4-.7.1-.9l5.7-3.4a2.2,2.2,0,0,1,1.6,0l7.8,4.5c.3.2.3.6-.2.9l-5.7,3.3A1.6,1.6,0,0,1,268,247.3Z" transform="translate(-73.7 -37.5)" fill="#06033e"/>
      <path d="M267.6,238.5l33.9,19.6c.4.2.4.6,0,.9l-5.9,3.4a1.9,1.9,0,0,1-1.5,0l-33.9-19.6Z" transform="translate(-73.7 -37.5)" fill="#06033e"/>
      <path d="M332.8,280.4l5.5,3.2c.3.2.2.5-.1.7l-2.4,1.4a1.3,1.3,0,0,1-1.2,0l-5.5-3.1c-.3-.2-.3-.5.1-.8l2.4-1.3A1.7,1.7,0,0,1,332.8,280.4Z" transform="translate(-73.7 -37.5)" fill="#06033e"/>
      <path d="M325.2,276.1l5.5,3.1c.3.2.2.5-.1.7l-2.4,1.4a1.3,1.3,0,0,1-1.2,0l-5.5-3.1c-.3-.2-.2-.5.1-.7l2.4-1.4A1.3,1.3,0,0,1,325.2,276.1Z" transform="translate(-73.7 -37.5)" fill="#06033e"/>
      <path d="M317.7,271.7l5.4,3.1c.4.2.3.5-.1.8l-2.3,1.3a1.5,1.5,0,0,1-1.3.1l-5.4-3.2c-.3-.1-.3-.5.1-.7l2.4-1.3A1.1,1.1,0,0,1,317.7,271.7Z" transform="translate(-73.7 -37.5)" fill="#06033e"/>
      <path d="M329.4,273.7l5.4,3.1c.3.2.3.5-.1.7l-2.3,1.4a1.5,1.5,0,0,1-1.3,0l-5.4-3.1c-.3-.2-.3-.5.1-.7l2.3-1.4A1.5,1.5,0,0,1,329.4,273.7Z" transform="translate(-73.7 -37.5)" fill="#06033e"/>
    </g>
    <path d="M407.7,261.2,268.2,180.5a6,6,0,0,1-2.5-6.8l31.1-101a3.5,3.5,0,0,1,5.3-2.2l139.5,80.6a6,6,0,0,1,2.5,6.8L413,258.9A3.5,3.5,0,0,1,407.7,261.2Z" transform="translate(-73.7 -37.5)" fill="#06033e" opacity="0.4"/>
    <path d="M407.7,261.2,268.2,180.5a6,6,0,0,1-2.5-6.8l31.1-101a3.5,3.5,0,0,1,5.3-2.2l139.5,80.6a6,6,0,0,1,2.5,6.8L413,258.9A3.5,3.5,0,0,1,407.7,261.2Z" transform="translate(-73.7 -37.5)" fill="#284556" opacity="0.4"/>
    <path d="M400.2,230.3l-94.4-54.5a4.3,4.3,0,0,1-1.8-4.7l21.4-69.4a2.4,2.4,0,0,1,3.7-1.5l94.4,54.5a4.1,4.1,0,0,1,1.7,4.7l-21.3,69.3A2.4,2.4,0,0,1,400.2,230.3Z" transform="translate(-73.7 -37.5)" fill="#3c3c6b" opacity="0.5"/>
    <g opacity="0.5">
      <path d="M387.5,232,293,177.4a3.9,3.9,0,0,1-1.7-4.6l21.3-69.4a2.5,2.5,0,0,1,3.7-1.6l94.4,54.6a4.2,4.2,0,0,1,1.8,4.7l-21.4,69.3A2.4,2.4,0,0,1,387.5,232Z" transform="translate(-73.7 -37.5)" fill="#2c4b5b"/>
    </g>
    <path d="M410.7,156.4l-94.4-54.6a2.6,2.6,0,0,0-2.7.1,2.5,2.5,0,0,1,1.4.4l94.5,54.5a4.4,4.4,0,0,1,1.7,4.7l-21.4,69.3a2.4,2.4,0,0,1-1,1.5,2.4,2.4,0,0,0,2.3-1.9l21.4-69.3A4.2,4.2,0,0,0,410.7,156.4Z" transform="translate(-73.7 -37.5)" fill="#fff"/>
    <path d="M268.3,288.6a7.8,7.8,0,0,1-3.5-.8h0L227,265.9a2.7,2.7,0,0,1-1.6-2.3,3.7,3.7,0,0,1,2.1-2.9L247,249.5a8.7,8.7,0,0,1,8-.3L292.8,271a2.8,2.8,0,0,1,1.6,2.3,3.5,3.5,0,0,1-2.1,2.9l-19.5,11.3A9.7,9.7,0,0,1,268.3,288.6Zm-16.8-39.2a9.1,9.1,0,0,0-4,1l-19.4,11.3c-1,.5-1.6,1.2-1.6,1.9s.6,1.1,1,1.4l37.9,21.8a7.5,7.5,0,0,0,6.8-.3l19.5-11.2c1-.6,1.6-1.3,1.6-2a1.7,1.7,0,0,0-1-1.3l-37.9-21.9A6.5,6.5,0,0,0,251.5,249.4Z" transform="translate(-73.7 -37.5)" fill="#06033e" opacity="0.4"/>
  </g>
  <g>
    <g>
      <path d="M339.3,138.2l-5.8-3.3a1.5,1.5,0,0,1-.7-1.7h0a.9.9,0,0,1,1.3-.6L340,136a1.6,1.6,0,0,1,.6,1.7h0A.9.9,0,0,1,339.3,138.2Z" transform="translate(-73.7 -37.5)" fill="#fff"/>
      <path d="M353.2,146.3l-8.6-5a1.8,1.8,0,0,1-.7-1.7h0a.9.9,0,0,1,1.4-.5l8.6,4.9a1.6,1.6,0,0,1,.6,1.7h0A.9.9,0,0,1,353.2,146.3Z" transform="translate(-73.7 -37.5)" fill="#fff"/>
      <path d="M327.5,164.2l-5.8-3.3a1.5,1.5,0,0,1-.7-1.7h0a.9.9,0,0,1,1.3-.6l5.9,3.4a1.6,1.6,0,0,1,.6,1.7h0A.8.8,0,0,1,327.5,164.2Z" transform="translate(-73.7 -37.5)" fill="#fff"/>
      <path d="M339.9,171.4l-8.6-5a1.5,1.5,0,0,1-.6-1.7h0c.1-.6.7-.8,1.3-.5l8.6,5a1.4,1.4,0,0,1,.6,1.6h0A.8.8,0,0,1,339.9,171.4Z" transform="translate(-73.7 -37.5)" fill="#fff"/>
      <path d="M321.8,133.6l-3.6-2.1a1.5,1.5,0,0,1-.7-1.7h0a.9.9,0,0,1,1.3-.5l3.7,2.1a1.5,1.5,0,0,1,.6,1.7h0A.9.9,0,0,1,321.8,133.6Z" transform="translate(-73.7 -37.5)" fill="#fff"/>
      <path d="M332.8,145.4,321.6,139a1.6,1.6,0,0,1-.6-1.7h0a.9.9,0,0,1,1.3-.6l11.1,6.5a1.4,1.4,0,0,1,.7,1.7h0A.9.9,0,0,1,332.8,145.4Z" transform="translate(-73.7 -37.5)" fill="#fff"/>
      <path d="M322.5,150.4l-3.6-2.1a1.5,1.5,0,0,1-.7-1.7h0a.9.9,0,0,1,1.3-.5l3.7,2.1a1.5,1.5,0,0,1,.6,1.7h0A.9.9,0,0,1,322.5,150.4Z" transform="translate(-73.7 -37.5)" fill="#fff"/>
      <path d="M341.3,183.1l-9.8-5.6a1.6,1.6,0,0,1-.6-1.7h0a.8.8,0,0,1,1.3-.5l9.7,5.6a1.4,1.4,0,0,1,.7,1.7h0A.9.9,0,0,1,341.3,183.1Z" transform="translate(-73.7 -37.5)" fill="#fff"/>
      <path d="M318.4,159l-2.3-1.4a1.4,1.4,0,0,1-.7-1.7h0a.9.9,0,0,1,1.3-.5l2.4,1.4a1.4,1.4,0,0,1,.6,1.6h0A.9.9,0,0,1,318.4,159Z" transform="translate(-73.7 -37.5)" fill="#fff"/>
      <path d="M316.2,168.6l-2.9-1.6a1.7,1.7,0,0,1-.7-1.7h0a.9.9,0,0,1,1.3-.6l3,1.7a1.6,1.6,0,0,1,.6,1.7h0A.9.9,0,0,1,316.2,168.6Z" transform="translate(-73.7 -37.5)" fill="#fff"/>
      <path d="M327.5,175.2l-7.7-4.5a1.4,1.4,0,0,1-.6-1.6h0a.9.9,0,0,1,1.3-.6l7.7,4.4a1.6,1.6,0,0,1,.6,1.7h0A.9.9,0,0,1,327.5,175.2Z" transform="translate(-73.7 -37.5)" fill="#fff"/>
      <path d="M317.4,174.8l-5.5-3.2a1.7,1.7,0,0,1-.7-1.7h0a.9.9,0,0,1,1.4-.5l5.5,3.2a1.5,1.5,0,0,1,.6,1.7h0A.9.9,0,0,1,317.4,174.8Z" transform="translate(-73.7 -37.5)" fill="#fff"/>
      <path d="M349.6,188l-3.5-2.1a1.5,1.5,0,0,1-.7-1.7h0a.9.9,0,0,1,1.3-.5l3.6,2a1.6,1.6,0,0,1,.6,1.7h0A.9.9,0,0,1,349.6,188Z" transform="translate(-73.7 -37.5)" fill="#fff"/>
      <path d="M336.1,158.2l-9.8-5.6a1.6,1.6,0,0,1-.6-1.7h0a.8.8,0,0,1,1.3-.5l9.7,5.6a1.5,1.5,0,0,1,.7,1.7h0A.8.8,0,0,1,336.1,158.2Z" transform="translate(-73.7 -37.5)" fill="#fff"/>
    </g>
    <path d="M337.2,153.4l-17-9.8a1.4,1.4,0,0,1-.6-1.6h0a.9.9,0,0,1,1.3-.6l17,9.8a1.6,1.6,0,0,1,.6,1.7h0A.8.8,0,0,1,337.2,153.4Z" transform="translate(-73.7 -37.5)" fill="#e8975b"/>
    <path d="M327.2,158.6l-9.7-5.6a1.5,1.5,0,0,1-.7-1.7h0a.9.9,0,0,1,1.3-.6l9.8,5.7a1.4,1.4,0,0,1,.6,1.6h0A.9.9,0,0,1,327.2,158.6Z" transform="translate(-73.7 -37.5)" fill="#e8975b"/>
    <path d="M343.5,162.5l-3.6-2a1.6,1.6,0,0,1-.6-1.7h0a.9.9,0,0,1,1.3-.6l3.5,2.1a1.4,1.4,0,0,1,.7,1.7h0A.9.9,0,0,1,343.5,162.5Z" transform="translate(-73.7 -37.5)" fill="#e8975b"/>
    <path d="M379.5,161.4l-21-12.1a1.5,1.5,0,0,1-.6-1.7h0c.1-.6.7-.8,1.3-.5l20.9,12.1a1.5,1.5,0,0,1,.7,1.7h0A.9.9,0,0,1,379.5,161.4Z" transform="translate(-73.7 -37.5)" fill="#e8975b"/>
    <path d="M326.4,169.1l-11.7-6.8a1.5,1.5,0,0,1-.7-1.7h0a.8.8,0,0,1,1.3-.5l11.8,6.7a1.6,1.6,0,0,1,.6,1.7h0A.9.9,0,0,1,326.4,169.1Z" transform="translate(-73.7 -37.5)" fill="#f8359e"/>
    <path d="M328.2,131.8l-8.7-5a1.4,1.4,0,0,1-.6-1.6h0a.9.9,0,0,1,1.3-.6l8.6,5a1.4,1.4,0,0,1,.7,1.7h0A.9.9,0,0,1,328.2,131.8Z" transform="translate(-73.7 -37.5)" fill="#f8359e"/>
    <path d="M315.6,179.2l-10-5.7a1.6,1.6,0,0,1-.6-1.7h0a.9.9,0,0,1,1.3-.6l10,5.8a1.6,1.6,0,0,1,.6,1.7h0A.9.9,0,0,1,315.6,179.2Z" transform="translate(-73.7 -37.5)" fill="#e8975b"/>
  </g>
  <g>
    <path d="M381.8,150.6l-4.2-2.4a1,1,0,0,1-.5-1.2h0c.1-.5.5-.7.9-.4l4.3,2.4a1.2,1.2,0,0,1,.5,1.2h0C382.6,150.7,382.2,150.9,381.8,150.6Z" transform="translate(-73.7 -37.5)" fill="#fff"/>
    <path d="M390,155.3l-4.3-2.4a1.1,1.1,0,0,1-.5-1.2h0c.2-.5.6-.7,1-.4l4.3,2.4c.3.3.6.8.4,1.2h0C390.8,155.4,390.4,155.6,390,155.3Z" transform="translate(-73.7 -37.5)" fill="#fff"/>
    <path d="M398.1,160.1l-4.3-2.5a1,1,0,0,1-.4-1.2h0c.1-.5.5-.7.9-.4l4.3,2.4a1.3,1.3,0,0,1,.5,1.3h0A.7.7,0,0,1,398.1,160.1Z" transform="translate(-73.7 -37.5)" fill="#fff"/>
    <path d="M402.1,162.4H402a1.1,1.1,0,0,1-.5-1.2h0a.6.6,0,0,1,1-.4h.1a1.3,1.3,0,0,1,.5,1.3h0A.7.7,0,0,1,402.1,162.4Z" transform="translate(-73.7 -37.5)" fill="#f8359e"/>
  </g>
  <path class="path1" d="M172.6,209.4a15.3,15.3,0,0,0,15.2,0l31.4-18.1a2.4,2.4,0,0,0,0-4l-31.4-18.1a15.3,15.3,0,0,0-15.2,0l-31.4,18.1a2.4,2.4,0,0,0,0,4Z" transform="translate(-73.7 -37.5)" fill="none" stroke-miterlimit="10" stroke-width="3" stroke="url(#Áåçûìÿííûé_ãðàäèåíò_33-5)"/>
  <g class="mug">
    <ellipse cx="108" cy="153.1" rx="19.6" ry="11.3" fill="#020230" opacity="0.4"/>
    <path d="M210.8,109.9h-56l5.2,60.5h0c0,3.4,2.3,6.8,6.7,9.3,8.9,5.2,23.3,5.2,32.2,0,4.4-2.5,6.7-5.9,6.7-9.3Z" transform="translate(-73.7 -37.5)" fill="url(#radial-gradient-3)"/>
    <path d="M210.8,109.9h-56l.9,9.9a21.9,21.9,0,0,0,5.2,4.7c10.7,7.1,28.3,8.4,40.3,3.3l-1.8,44.3a8.8,8.8,0,0,1-2,5.3c-1.8,2.2-5.3,4.7-12,6.1a31.2,31.2,0,0,0,13.5-3.8c4.4-2.5,6.7-5.9,6.7-9.3l4.1-48.5h0Z" transform="translate(-73.7 -37.5)" fill="#06033e" opacity="0.4"/>
    <ellipse cx="109.1" cy="72.3" rx="28" ry="16.1" fill="#06033e" opacity="0.4"/>
    <ellipse cx="109.1" cy="66.6" rx="24.1" ry="13.9" fill="#06033e" opacity="0.4"/>
    <path d="M212.4,109.1h0l-.5-5.4h0c-.3-4.1-3.1-8.2-8.5-11.3-11.4-6.5-29.8-6.5-41.2,0-5.5,3.2-8.4,7.4-8.5,11.6h0l-.5,4.8v.4h0c-.3,4.6,2.5,9.2,8.6,12.8,11.6,6.6,30.4,6.6,42,0C209.9,118.4,212.8,113.7,212.4,109.1Z" transform="translate(-73.7 -37.5)" fill="url(#linear-gradient)"/>
    <ellipse cx="109.1" cy="66.6" rx="24.1" ry="13.9" fill="url(#Áåçûìÿííûé_ãðàäèåíò_483)"/>
    <ellipse cx="108" cy="66.6" rx="24.1" ry="13.9" fill="url(#linear-gradient-2)"/>
    <path d="M168.6,96.4c9.4-5.4,24.7-5.4,34.1,0l.3.2a16.5,16.5,0,0,0-3.2-2.3c-9.4-5.4-24.6-5.4-34,0s-9.4,14-.4,19.5C159.4,108.4,160.4,101.1,168.6,96.4Z" transform="translate(-73.7 -37.5)" fill="#06033e" opacity="0.4"/>
    <path d="M165.8,96.7c9.4-5.4,24.6-5.4,34,0,4.2,2.5,6.5,5.5,7,8.7.6-4-1.7-8-7-11.1-9.4-5.4-24.6-5.4-34,0-5.3,3.1-7.6,7.1-7,11.1C159.3,102.2,161.6,99.2,165.8,96.7Z" transform="translate(-73.7 -37.5)" fill="url(#Áåçûìÿííûé_ãðàäèåíò_193)"/>
    <path d="M203.5,92.4c-11.3-6.6-29.8-6.8-41.2-.3s-11.6,17.1-.2,23.8,29.8,6.8,41.2.4S214.9,99.1,203.5,92.4ZM199.8,114a31.1,31.1,0,0,1-10.9,3.6l-.5-1.4a1.3,1.3,0,0,0-1.3-1h-8.6a1.3,1.3,0,0,0-1.3,1l-.5,1.4a31.1,31.1,0,0,1-10.9-3.6c-9.4-5.4-9.4-14.2,0-19.7s24.6-5.4,34,0S209.2,108.6,199.8,114Z" transform="translate(-73.7 -37.5)" fill="url(#radial-gradient-4)"/>
    <g>
      <path d="M199.8,93.3c-9.4-5.4-24.6-5.4-34,0-5,2.9-7.3,6.6-7.1,10.4.2-3.4,2.6-6.8,7.1-9.4,9.4-5.4,24.6-5.4,34,0,4.5,2.6,6.9,6,7.1,9.4C207.1,99.9,204.8,96.2,199.8,93.3Z" transform="translate(-73.7 -37.5)" fill="#fff"/>
      <path d="M203.3,115.2c-11.4,6.5-29.9,6.4-41.2-.3-5.4-3.2-8.2-7.3-8.5-11.4-.2,4.5,2.6,9,8.5,12.4,11.3,6.7,29.8,6.8,41.2.4,6-3.4,8.9-8,8.7-12.5C211.8,108,208.9,112.1,203.3,115.2Z" transform="translate(-73.7 -37.5)" fill="#fff"/>
    </g>
    <rect x="105.9" y="79.4" width="6.5" height="1.4" rx="0.7" fill="#0c0a78"/>
    <path d="M185.4,117h-5.2a.6.6,0,0,0-.6.6h0v.2a.6.6,0,0,1,.6-.5h5.2a.6.6,0,0,1,.6.5v-.2h0A.6.6,0,0,0,185.4,117Z" transform="translate(-73.7 -37.5)" fill="url(#Áåçûìÿííûé_ãðàäèåíò_193-2)"/>
    <g>
      <path d="M183.6,164.2a4.5,4.5,0,0,1-5.5,3.2,4.6,4.6,0,0,1-3.2-5.5c.7-2.4,2.9-3,5.3-2.4S184.2,161.8,183.6,164.2Z" transform="translate(-73.7 -37.5)" fill="#e8975b"/>
      <path d="M187.1,159.5a2,2,0,1,1-2.8-2.8c.9-.9,2.7-1.3,3.4-.6S188,158.6,187.1,159.5Z" transform="translate(-73.7 -37.5)" fill="#e8975b"/>
      <path d="M182.4,155.8a1.9,1.9,0,0,1-2.3,1.6,2,2,0,0,1-1.6-2.3c.3-1.3,1.4-2.6,2.5-2.4S182.7,154.5,182.4,155.8Z" transform="translate(-73.7 -37.5)" fill="#e8975b"/>
      <path d="M176.7,155.2a2,2,0,0,1-1.1,2.6,1.9,1.9,0,0,1-2.6-1.1c-.5-1.2-.2-2.9.8-3.3S176.2,154,176.7,155.2Z" transform="translate(-73.7 -37.5)" fill="#e8975b"/>
    </g>
  </g>
  <path d="M184.6,117.7s15.7-5.3,9.3-23.2S175.3,71,180.2,56.6c0,0-7.7,11.7-.5,27.4s8.9,14,8.8,21.5a13.7,13.7,0,0,1-7.3,12.2Z" transform="translate(-73.7 -37.5)" fill="#afafaf" opacity="0.5"/>
  <path d="M186,59.1s-1.6-10.7,8.5-21.6c0,0-8.9,20-6,29.8C188.5,67.3,186.1,61,186,59.1Z" transform="translate(-73.7 -37.5)" fill="#afafaf" opacity="0.5"/>
</svg>
