<svg id="Layer_1" data-name="Layer 1" xmlns="http://www.w3.org/2000/svg" width="238.7" height="253" viewBox="0 0 238.7 253">
  <title>linking</title>
  <style>
    #link2{
      animation: a1 3s linear infinite alternate;
    }
    @keyframes a1{
      100%{opacity:0;}
    }
    #link1{
      animation: a2 4s linear infinite alternate;
    }
    @keyframes a2{
      100%{transform: translate(3%,5%);opacity:0;}
    }
  </style>
  <g id="character">
    <path d="M90.3,103.6s-1.5-1.2-.4-6a92.6,92.6,0,0,1,4.4-12.2l8.8,13.8Z" transform="translate(-44.3 -28)" fill="#b7a994"/>
    <g>
      <path d="M151.7,125.3c2.6-10.2,9.9-28,4.7-30.6-6.7-3.5-25.3-4.6-25.3-4.6v.3s-18.6,2.9-24.7,7.2,5.1,20.7,9,30.5a94.5,94.5,0,0,1,4,22.6c.1,2.4-.3,13.2.4,17.7.2,1.3,14.7,7.6,20.1,8.2s18.7-9.8,18.7-11.2c.1-4.5-3.4-15.1-3.7-17.5C154,138.4,151.1,127.8,151.7,125.3Z" transform="translate(-44.3 -28)" fill="#ffbd95"/>
      <path d="M117.3,105.7c1.9-3.2-.3-8.1-6.4-11.6s-10.7-5.3-12.3-6.2-10.9-6.8-13.7-8S79,79,77.5,81.6s1.1,7.1,4.9,10.5S112,114.5,117.3,105.7Z" transform="translate(-44.3 -28)" fill="#ffbd95"/>
      <path d="M138.6,86.6c-.5-1.9-2.3-11.2-2.3-11.2l-6.2.4v.3l-6.2.5s-.4,9.5-.7,11.4-5.3,5.2-5.3,5.2L146.2,92S139.2,88.5,138.6,86.6Z" transform="translate(-44.3 -28)" fill="#ffbd95"/>
      <path d="M138,84c-.6-2.9-1.3-6.9-1.6-8.2l-.4-.4-5.9.4v.3l-6.2.5s-.4,9.5-.7,11.4-5.3,5.2-5.3,5.2h.7L131,88.9c1.6-.6,7-4.9,7-4.9Z" transform="translate(-44.3 -28)" fill="#ffa47c"/>
      <path d="M131,154.4c-7.6-.7-14.4,5.9-15.7,22.2s-2.9,37.7-2.1,40.3,10.2,2.4,11.4,1,14.2-38.7,14.7-43.9S139.3,155.2,131,154.4Z" transform="translate(-44.3 -28)" fill="#ffbd95"/>
      <path d="M118.6,213.4c-2.4-.1-10.1,2.1-10.9,17.3s-.3,38-.3,38l5.5.4s9.2-29.4,9.6-34.8C123.4,222,125.9,214,118.6,213.4Z" transform="translate(-44.3 -28)" fill="#ffbd95"/>
      <path d="M148.9,157.4c7.6-.4,10.8,4.8,11.4,21.1s-4.8,37.3-5.7,39.9-10,1.8-11.1.4-3.4-37-3.7-42.3S140.5,157.8,148.9,157.4Z" transform="translate(-44.3 -28)" fill="#ffbd95"/>
      <path d="M150.1,214.9c-2.2-.8-9.2.5-12.2,15.4s-1.9,37.8-1.9,37.8l6,.2s8.8-27,10-32.3C154.7,224,157.1,217.1,150.1,214.9Z" transform="translate(-44.3 -28)" fill="#ffbd95"/>
      <path d="M84,87.4c-2.4,1.9-5.4,2.2-11.1-4.4S56.2,59.6,56.2,59.6l3.9-3S74.3,66.9,77.6,70.3,90.4,82.5,84,87.4Z" transform="translate(-44.3 -28)" fill="#ffbd95"/>
      <path d="M140.7,63.3c3.7,7.1,2.1,17-2.5,19.4s-13.7-1.8-17.4-9-2.4-15.2,3.1-18.1S136.9,56.1,140.7,63.3Z" transform="translate(-44.3 -28)" fill="#ffbd95"/>
      <path d="M123.8,77.9c-.8-.6-6.3-5.8-6.8-7.4s-1.8-5-.3-7.1c.3-.5,1.6-.9,1-2.4s3.1-4.4,3.6-4.7a21.6,21.6,0,0,1,4.4-2.3c1.8-.6,5.4-1.5,11.3,2.3,1.1.7-3.6,0-4-.6s-8.3,6.3-8.9,7.2a13.9,13.9,0,0,0-1,3.7c-.1.5,1.3,3.1,1.2,3.7s-2.2,1.5-2.3,2.2C121.5,75.1,123.8,77.9,123.8,77.9Z" transform="translate(-44.3 -28)" fill="#8d3b26"/>
      <path d="M135.9,268.2s-1.1,5.9-.1,8.5c.2.7,17.2,2.3,19.6,1.4s4.5-2,4.5-2-.5-2.6-1.6-2.7-11.5-2.8-12.6-4.3-2-3.9-2.6-3S138.9,268.7,135.9,268.2Z" transform="translate(-44.3 -28)" fill="#191919"/>
      <path d="M155.4,278.1l3.5-1.5a15.2,15.2,0,0,1-4,.6c-1.9-.4-8.7-2.4-13.1-3.8a7.4,7.4,0,0,1-5.1-5.2h-.8s-1.1,5.9-.1,8.5C136,277.4,153,279,155.4,278.1Z" transform="translate(-44.3 -28)" fill="#080808"/>
      <path d="M159.9,276.1s-4.2,2.1-5.2,2.1-10.4-2.1-15.8-2.5l-3.5-.5c-.3-.1.1,1.6.1,1.6l.5,1.2s18.1,1.3,18.7,1.2,5.9-2.3,5.9-2.3Z" transform="translate(-44.3 -28)" fill="#22272c"/>
      <path d="M113.1,269.5l-7.2-.9a10.6,10.6,0,0,1-2.2,4.3c-1.4,1.8-3.4,3.6-3.4,5.2a2,2,0,0,0,1.2,2.2c2.4.5,6.9,1.1,8.2.3s2.1-2.2,2.9-3.2.7-3,.7-3.9S113.1,269.5,113.1,269.5Z" transform="translate(-44.3 -28)" fill="#22272c"/>
      <path d="M113.1,268.7l-7.1-.9a12.7,12.7,0,0,1-2.2,4.3c-1.4,1.8-3.4,3.6-3.5,5.2a1.8,1.8,0,0,0,1.3,2c2.3.4,6.8,1.1,8.1.3a11.4,11.4,0,0,0,2.8-3c.8-1.1.8-3,.9-3.9S113.1,268.7,113.1,268.7Z" transform="translate(-44.3 -28)" fill="#191919"/>
      <path d="M107.8,266.9c-.9.4-1.7,5-1.7,5.3s1.5.5,2,.5c2.2-.2,3.4-3.9,3-5.1S108.5,266.5,107.8,266.9Z" transform="translate(-44.3 -28)" fill="#191919"/>
      <path d="M113.4,272.7c0-.8-.2-2.7-.2-3.6v1.3c0,1,0,2.9-.9,4a10.6,10.6,0,0,1-2.7,2.9c-1.3.8-5.8.2-8.2-.3a1.5,1.5,0,0,1-.9-.6,2.9,2.9,0,0,0-.2.9,1.8,1.8,0,0,0,1.3,2c2.3.4,6.8,1.1,8.1.3a11.4,11.4,0,0,0,2.8-3C113.3,275.5,113.3,273.6,113.4,272.7Z" transform="translate(-44.3 -28)" fill="#080808"/>
      <path d="M126.7,54.1c2.7-1.4,10.7-3.1,12.6,2.6.6,2-2.3,5.3-2.3,5.3s.6-4-2.5-3.5-4,4.5-6.7,5.2-4.1,1.6-5.1,0S123.5,55.8,126.7,54.1Z" transform="translate(-44.3 -28)" fill="#8d3b26"/>
      <path d="M135.7,57.6s2.3,1.1,2.8,2.6a3.1,3.1,0,0,1-.1,2.3,2.1,2.1,0,0,0,1.5-1.7c.6-4.7-3.4-5.3-3.4-5.3Z" transform="translate(-44.3 -28)" fill="#8d3b26"/>
      <path d="M61.9,60.7s-1.1-2.9-.9-4,.1-5.1-1-6.7a13.8,13.8,0,0,1-1.6-5.6c0-.6-1.2-.2-1.6.9s1.3,4.7.8,5.1-7-8.7-7.7-8.4,3.4,6.5,3.1,6.8-5.2-5.8-6-5.3,4.3,6.9,3.9,7.1-5.9-4.4-6.6-3.7,5.4,5,5,5.5-4.4-1.6-4.7-.8,4.2,2.7,4.9,3.2,5.4,5.1,6.3,5,3.1,2,3.1,2Z" transform="translate(-44.3 -28)" fill="#ffbd95"/>
    </g>
    <path d="M119.1,156.1l20.9,1.5-.2,18.9s-13.8,38.4-13,38.6,1.8,1.4,1,1.7-1.7,1-1.1,1.7-.5,2.6-.3,3.7c1,5.2-8.5,37.5-11,44.2-.7,1.9-7.2,1.9-9.6.8s-2.1-2.5-2.1-2.5,2.3-31.6,2.5-34.1,3.9-12.2,3.7-12.9.9-1.7,1-2.7a12.3,12.3,0,0,0,.2-2.6c-.1-.7,2.9-26.8,2.7-31.6S119.1,156.1,119.1,156.1Z" transform="translate(-44.3 -28)" fill="#0e3854"/>
    <path d="M140,157.6l16.7-3.5a142.1,142.1,0,0,1,3.9,18.8c1.1,8.7-3.9,44.4-3.9,45l-1.3,8.1c-.7,3.7-10.2,40.9-10.2,40.9a7.2,7.2,0,0,1-6.6,1.4c-3.8-1.2-4.5-3.2-4.5-3.2s.6-34.4,3.3-37.7,2.8-5.7,2.4-5.8-.8-1.4,0-1.8,1.2-1.9.3-2-.2-4.4-.4-7.8,0-35.5,0-35.5Z" transform="translate(-44.3 -28)" fill="#0e3854"/>
    <path d="M121.7,90.2s5.5,4.6,11.4,4.1a11.5,11.5,0,0,0,8.4-5l9,2.2,9.1,9.8s-6.4,19.2-6.7,25.4,3.4,26.8,3.4,26.8-8.3,5.3-17.9,4.4-20.1-1.4-20.1-1.4-.1-16.5-2.4-24.6-9.9-25.4-9.9-25.4l5.9-11.8Z" transform="translate(-44.3 -28)" fill="#7e0000"/>
    <path d="M113.8,180.8c.2,4.8-2.8,30.9-2.7,31.6a12.3,12.3,0,0,1-.2,2.6c-.1,1-1.3,1.9-1,2.7s-3.5,10.4-3.7,12.9-2.5,34.1-2.5,34.1-.2.8.8,1.7c.1-5.3,4.4-25.4,4.7-31.4s4.8-19.1,5.4-19.9,7.9-45.9,9.2-49.1,16.2-8.4,16.2-8.4l-20.9-1.5S113.6,175.9,113.8,180.8Z" transform="translate(-44.3 -28)" fill="#00233f"/>
    <path d="M142.8,178.7c-2.3-2.7-2.8-2.4-2.9-2.2.7,6.8-.5,30.6-.2,33.5s-.5,7.6.4,7.8.5,1.7-.3,2-.3,1.6,0,1.8-.5,3.4-2.4,5.8-3.3,37.7-3.3,37.7.7,2,4.5,3.2h.2c.3-5.7,1.1-17.7,1.4-22.6.5-6.5,5.5-22.5,5.5-24.9S145.5,181.9,142.8,178.7Z" transform="translate(-44.3 -28)" fill="#00233f"/>
    <path d="M137.9,130.7c2.9-4.8,14.4-10.4,13.2-12.6s-22.8,2.8-24.8,2.3-3.2-11.6-3.2-11.6l-8.5,19.3,1.3,3.8c2.3,8.1,2.4,24.6,2.4,24.6s10.6.6,20.1,1.4h2.7C140.7,156.7,135,135.4,137.9,130.7Z" transform="translate(-44.3 -28)" fill="#5b0000"/>
    <path d="M94.3,85.4a19.3,19.3,0,0,1,.2,8c-.9,4.6-4.2,10.2-4.2,10.2l16.8,9.9s3,20.2.6,29.3-3.9,16.5-3.9,16.5,11.8,6,15.9,6.5a20.2,20.2,0,0,0,7-.1s-2.8-58.5-4.2-61.7-4.8-12-4.8-12-6,1.7-6.2.7-2.2-2-2.4-1.3-2-.3-1.9-.9S94.3,85.4,94.3,85.4Z" transform="translate(-44.3 -28)" fill="#cee0ff"/>
    <path d="M144.9,90.2l9.3.6c3.1.2,6.7,9.3,8,14.1,0,0-3,16.7-4.5,29.5a94.2,94.2,0,0,0,.6,25s-7.3,4.9-8.8,4.8a7.7,7.7,0,0,1-3.3-1.3s2.9-43.2,3.1-52.2S144.9,90.2,144.9,90.2Z" transform="translate(-44.3 -28)" fill="#cee0ff"/>
    <path d="M107.7,142.8c-2.5,9.1-3.9,16.5-3.9,16.5s4.2,2.1,8.4,3.9c.7-5.9,2-17.6,2-19.6s-2.5-30.4-4-32.7-19.9-7.3-19.9-7.3l16.8,9.9S110.1,133.7,107.7,142.8Z" transform="translate(-44.3 -28)" fill="#b8d1ff"/>
    <path d="M155.5,94.7c-5.5.8,1.2,14.7.6,17.1s-1.4,21-1.4,26.9c.1,3.8-.2,15.6-.5,23.1l4.1-2.4a94.2,94.2,0,0,1-.6-25c1.5-12.8,4.5-29.5,4.5-29.5S157.1,94.5,155.5,94.7Z" transform="translate(-44.3 -28)" fill="#b8d1ff"/>
    <path d="M174.6,123.8c2.5-1.8,3.5-4.6-1.4-12.1s-18.4-23.2-18.4-23.2l-4,2.9s6.3,17,8.8,21.1S168.1,128.6,174.6,123.8Z" transform="translate(-44.3 -28)" fill="#ffbd95"/>
    <path d="M149,83.6a53.7,53.7,0,0,1,6.8-2s-.8,2.5-.1,3.6,2.6,3.8,2.6,3.8a56.8,56.8,0,0,1-6,3.8C149.4,94.1,147.8,84.3,149,83.6Z" transform="translate(-44.3 -28)" fill="#ffbd95"/>
    <g>
      <g>
        <path d="M178.9,77.1h0a.6.6,0,0,0,.5-.6v-4a.6.6,0,0,0-.6-.6h0a.6.6,0,0,0-.5.6v4A.6.6,0,0,0,178.9,77.1Z" transform="translate(-44.3 -28)" fill="#2b2b2b"/>
        <path d="M174.9,80.3h0a4.1,4.1,0,0,1-4.3-4V73.2a4.1,4.1,0,0,1,4-4.2h0a4.1,4.1,0,0,1,4.3,4v3.1A4.1,4.1,0,0,1,174.9,80.3Z" transform="translate(-44.3 -28)" fill="#555e66"/>
      </g>
      <g>
        <g>
          <path d="M151,81.8h5.6a0,0,0,0,1,0,0V95.5a1,1,0,0,1-1,1H152a1,1,0,0,1-1-1V81.8A0,0,0,0,1,151,81.8Z" transform="translate(-67.5 45.1) rotate(-24.9)" fill="#3c3c3c"/>
          <path d="M157.9,94.2h-.1a2.7,2.7,0,0,1-3.7-1.3l-4.5-9.8-1.4.6,5,10.7a2.8,2.8,0,0,0,3.7,1.4h0a2.9,2.9,0,0,0,1.6-2Z" transform="translate(-44.3 -28)" fill="#2b2b2b"/>
        </g>
        <polygon points="101.5 53.3 103.6 57.4 110.3 54.3 110.3 53 101.5 53.3" fill="#2b2b2b"/>
      </g>
      <g>
        <path d="M146.3,81.3l9.2-.3-.3-11.6-9.3.3a5.9,5.9,0,0,0-5.6,6h0A5.9,5.9,0,0,0,146.3,81.3Z" transform="translate(-44.3 -28)" fill="#3c3c3c"/>
        <path d="M152.3,74.6l-6.6.2a1.8,1.8,0,0,1-1.7-1.7h0a1.7,1.7,0,0,1,1.6-1.7l6.6-.2a1.7,1.7,0,0,1,1.8,1.6h0A1.8,1.8,0,0,1,152.3,74.6Z" transform="translate(-44.3 -28)" fill="#555e66"/>
      </g>
      <g>
        <path d="M164,67a78.4,78.4,0,0,1-8.8,2.8l.2,5.4v5.5a67.9,67.9,0,0,1,9,2.2,34.1,34.1,0,0,1,10.3,5.3l-.4-13.5L174,61.1A32.8,32.8,0,0,1,164,67Z" transform="translate(-44.3 -28)" fill="#ff6801"/>
        <path d="M175.8,89.2h0a1,1,0,0,1-1-.9L174,60.9a1.1,1.1,0,0,1,.9-1.1h0a1.2,1.2,0,0,1,1.1,1l.8,27.4A.9.9,0,0,1,175.8,89.2Z" transform="translate(-44.3 -28)" fill="#ffa961"/>
        <path d="M174.8,88.2a34.1,34.1,0,0,0-10.3-5.3,67.9,67.9,0,0,0-9-2.2V77.2l7,1.6a9.4,9.4,0,0,0,11.3-7.7l.5-2.9Z" transform="translate(-44.3 -28)" fill="#b45002"/>
      </g>
    </g>
    <g>
      <path d="M158.9,87.6h0a1.2,1.2,0,0,0-1.4-.6l-4.1,1.8a1.2,1.2,0,0,0-.6,1.4h0a1.2,1.2,0,0,0,1.4.6l4.1-1.8A1.1,1.1,0,0,0,158.9,87.6Z" transform="translate(-44.3 -28)" fill="#ffbd95"/>
      <path d="M158.3,85.7h0a1,1,0,0,0-1.4-.5l-4.1,1.7a1.2,1.2,0,0,0-.6,1.4h0a1.1,1.1,0,0,0,1.4.6l4.1-1.8A1,1,0,0,0,158.3,85.7Z" transform="translate(-44.3 -28)" fill="#ffbd95"/>
      <path d="M157.6,83.9h0a1.1,1.1,0,0,0-1.4-.5l-4.1,1.8a1,1,0,0,0-.6,1.3h0a1.1,1.1,0,0,0,1.4.6l4.1-1.8A1,1,0,0,0,157.6,83.9Z" transform="translate(-44.3 -28)" fill="#ffbd95"/>
      <path d="M156.7,82.3h0a1,1,0,0,0-1.3-.6l-4.2,1.8a1.1,1.1,0,0,0-.5,1.4h0a1.1,1.1,0,0,0,1.4.5l4.1-1.7A1.1,1.1,0,0,0,156.7,82.3Z" transform="translate(-44.3 -28)" fill="#ffbd95"/>
    </g>
  </g>
  <g id="link1">
    <circle cx="185.7" cy="47" r="23" fill="#71b2e2"/>
    <path d="M231.4,67.5l8.8-4.3,1.1-.4a6.7,6.7,0,0,1,7.2,2.9c2.2,3.2.6,6.4-.5,8a3.9,3.9,0,0,1-1.7,1.4l-5.4,2.7-5,2.4s-5.6,2.8-8.6-2.3l-.7-1.4,1.5-.7a2.1,2.1,0,0,1,2.3.2c.9.8,2.4,1.7,3.5,1l1.1-.7,7.7-3.8,1.3-.7a2.8,2.8,0,0,0,1.6-1.6,2.3,2.3,0,0,0-.3-2.1,3,3,0,0,0-.8-.8,2.5,2.5,0,0,0-2.4-.3l-6.8,3S234.6,68.6,231.4,67.5Z" transform="translate(-44.3 -28)" fill="none" stroke="#2d2d2d" stroke-miterlimit="10" stroke-width="2"/>
    <path d="M228.6,82.6,219.9,87l-1.2.4A6.8,6.8,0,0,1,212,76.5a3.9,3.9,0,0,1,1.7-1.4l5.5-2.8,4.9-2.4s5.7-2.8,8.6,2.3l.7,1.4-1.5.8a1.8,1.8,0,0,1-2.2-.3c-1-.7-2.4-1.6-3.5-.9l-1.2.6-7.6,3.8-1.4.7a3.3,3.3,0,0,0-1.6,1.7,2.1,2.1,0,0,0,.3,2,3,3,0,0,0,.8.8,2.1,2.1,0,0,0,2.4.3l6.9-3S225.5,81.5,228.6,82.6Z" transform="translate(-44.3 -28)" fill="none" stroke="#2d2d2d" stroke-miterlimit="10" stroke-width="2"/>
  </g>
  <g id="link2">
    <circle cx="221.2" cy="17.5" r="17.5" fill="#71b2e2"/>
    <path d="M268.3,41.4l4.8-2.5.7-.2a3.6,3.6,0,0,1,3.9,1.6,3.6,3.6,0,0,1-.2,4.4,1.9,1.9,0,0,1-1,.8l-3,1.5-2.7,1.4s-3.2,1.5-4.8-1.3l-.4-.8.9-.4a1.3,1.3,0,0,1,1.2.1c.5.5,1.3,1,1.9.6l.7-.4,4.2-2.1.8-.4a1.4,1.4,0,0,0,.8-.9.9.9,0,0,0-.1-1.1l-.5-.5a1.2,1.2,0,0,0-1.3-.1l-3.8,1.6A3.9,3.9,0,0,0,268.3,41.4Z" transform="translate(-44.3 -28)" fill="none" stroke="#2d2d2d" stroke-miterlimit="10"/>
    <path d="M266.7,49.7l-4.8,2.4-.7.2a3.4,3.4,0,0,1-3.9-1.6,3.6,3.6,0,0,1,.2-4.4,3.9,3.9,0,0,1,1-.8l3-1.5,2.7-1.3s3.2-1.6,4.8,1.3l.4.7-.8.4a1,1,0,0,1-1.3-.1c-.5-.4-1.3-.9-1.9-.5l-.7.3-4.2,2.1-.8.4a1.4,1.4,0,0,0-.8,1,1.1,1.1,0,0,0,.1,1.1l.5.4a1.2,1.2,0,0,0,1.3.2l3.8-1.7A3.6,3.6,0,0,0,266.7,49.7Z" transform="translate(-44.3 -28)" fill="none" stroke="#2d2d2d" stroke-miterlimit="10"/>
  </g>
</svg>
