<svg id="Layer_1" data-name="Layer 1" xmlns="http://www.w3.org/2000/svg" width="800" height="800" viewBox="0 0 800 800">
  <title>Logo Zhivaar</title>
  <g>
    <g>
      <path d="M72.6,389.2h83v18.9l-43,67c5.6,0,9.7-.4,12.2-1.2s4-2.2,4.8-4.2a30,30,0,0,0,1.1-9.3v-8.2h26v45.9H72.6v-20l41-65.9a58.3,58.3,0,0,0-8.2.4,11.3,11.3,0,0,0-4.7,1.7,7.7,7.7,0,0,0-2.6,4.1,29.7,29.7,0,0,0-.7,7.5c0,1.1,0,3.1.2,6.2h-25Z" fill="#0067e2"/>
      <path d="M177.1,389.2h41v18.9a8.3,8.3,0,0,0-2.4,4.5,29.5,29.5,0,0,0-.5,6.5v12h11.9V415a8.3,8.3,0,0,0-3-6.9V389.2h42v18.9a13.6,13.6,0,0,0-3.2,4.7,15.5,15.5,0,0,0-.9,5.5l.2,47.8a42.7,42.7,0,0,0,.6,8,8.9,8.9,0,0,0,3.3,5v19h-42v-19a5.4,5.4,0,0,0,2.5-3.5,21.6,21.6,0,0,0,.5-5.4v-18H215.2v18c0,1.9,0,3.2.1,4.1a6.2,6.2,0,0,0,.7,2.3,12,12,0,0,0,2,2.5v19h-41v-19a9.9,9.9,0,0,0,3.3-4.4,17.2,17.2,0,0,0,.9-5.8l-.2-48.7a37.7,37.7,0,0,0-.6-7.3,8.4,8.4,0,0,0-3.4-4.8Z" fill="#0067e2"/>
      <path d="M349,389.2h43v19.9c-2.6,2.6-3.9,5.1-3.9,7.4a46.8,46.8,0,0,0,1,5.7l7,41.9,5.9-41.9a14.5,14.5,0,0,1,.4-2.2,16,16,0,0,0,.4-3.3c0-3.4-1.2-6-3.7-7.6V389.2h38v19.9a14.2,14.2,0,0,0-3.1,4.8,40,40,0,0,0-1.9,7.3L417,498.1H370l-15.4-77.2a26.1,26.1,0,0,0-2-7.2,17.6,17.6,0,0,0-3.6-4.6Z" fill="#0067e2"/>
      <path d="M507,389.2l15,79c.9,5.3,2.9,8.9,6,10.9v19H485v-19a10.8,10.8,0,0,0,2.8-2.9,9.1,9.1,0,0,0,1.1-3c.1-1,.1-2.3.1-4H472.1a22.4,22.4,0,0,0,.6,5.8,9,9,0,0,0,3.3,4.1v19H439v-20a21.8,21.8,0,0,0,3.3-4.4,30.4,30.4,0,0,0,1.7-6.6l14-77.9Zm-22,58.9-5-32-5,32Z" fill="#0067e2"/>
      <path d="M607.6,389.2l15,79c.9,5.3,2.9,8.9,6.1,10.9v19H585.6v-19a9.4,9.4,0,0,0,2.8-2.9,7.3,7.3,0,0,0,1.1-3,39,39,0,0,0,.2-4h-17a22.4,22.4,0,0,0,.6,5.8,10.6,10.6,0,0,0,3.3,4.1v19h-37v-20a16.2,16.2,0,0,0,3.3-4.4,30.4,30.4,0,0,0,1.7-6.6l14-77.9Zm-22,58.9-4.9-32-5.1,32Z" fill="#0067e2"/>
      <path d="M639.3,389.2h50a56.8,56.8,0,0,1,24.9,5.4c7.5,3.7,11.2,11.5,11.2,23.5,0,5.8-.6,10.4-2,13.8s-3.1,6.1-5.3,7.8a32,32,0,0,1-8.7,4.5c4.3.7,7.4,1.8,9.4,3.2a9.5,9.5,0,0,1,3.8,5.8,54.8,54.8,0,0,1,.8,10.6v5.4a21.9,21.9,0,0,0,.7,6.3,5.8,5.8,0,0,0,3.3,3.6v19H692.3a60.2,60.2,0,0,1-3.2-14.1,187.9,187.9,0,0,1-.8-18.9c0-3.5-.9-5.9-2.7-7.1a24.1,24.1,0,0,0-8.2-2.9v13.1a36.1,36.1,0,0,0,.7,7.3,4.6,4.6,0,0,0,3.2,3.6v19h-42v-19a9.9,9.9,0,0,0,2.9-3.3,12.4,12.4,0,0,0,1-3.9c.1-1.4.2-3.3.2-5.8V421.2a35.3,35.3,0,0,0-.5-6.6,7,7,0,0,0-1.3-3.1,7.4,7.4,0,0,0-2.3-1.4Zm38.1,23v21.9a32.4,32.4,0,0,0,7-.6,7.1,7.1,0,0,0,4.3-3.1c1.1-1.6,1.7-4,1.7-7.3s-1-7.4-2.9-8.8S682.2,412.2,677.4,412.2Z" fill="#0067e2"/>
    </g>
    <g>
      <path d="M279.3,375h59.3L349,353.9h-5.3l9-14.4c2.3-3.7-2.3-9.7-6.2-4.8s-3.8,17.8-12.1,18-4.2-9.8-3.4-11.9,10.9-13.5,3.6-19.5c-8.1-3.6-9.8,5.8-9.7,12.5s.3,19.2-4.2,19.5-2.5-3.5-1.9-5.5-2.4-4.5-4.3-2.2-.1,4.9-4.8,5.3-3-13.4-4.2-16.8-8.4-9.7-9.9-1.4a5.7,5.7,0,0,0,.1,2.9c1,2.9,3.4,1.5,4.5,9.5s-.5,8.7-4.2,8.7-11.4-7.3-11.2-14.7.6-20.8-6.1-21.1-5.1,11.2-4.2,13.3,8.9,12.8,9.3,18.1.9,8.8-6.8,6.1c-2.5-1.6-4.7-9-7.2-6.7-5.3,5.4-.8,7.9,3.1,13.8A69.6,69.6,0,0,1,279.3,375Z" fill="#0067e2"/>
      <path d="M280.2,388.4v21.9s-1.8-.7,5.9,2.7,14.8,9.8,14.8,24.8-3.1,10.5-3.1,25.2,2.5,21.4,7,29.5,4.4,7.6,9.5-2.8,6.2-13.4,6.2-26-2.5-17.8-2.5-22.3-.6-12.1,4.7-19.9,15.5-10.8,15.5-10.8V388.4Zm28.9,96.8a2.9,2.9,0,1,1,0-5.7,2.9,2.9,0,0,1,0,5.7Z" fill="#0067e2"/>
      <circle cx="322.7" cy="308.8" r="2.5" fill="#0067e2"/>
      <circle cx="284.9" cy="304.4" r="2.5" fill="#0067e2"/>
      <circle cx="313.3" cy="331" r="1.6" fill="#0067e2"/>
      <circle cx="291.5" cy="324.3" r="1" fill="#0067e2"/>
    </g>
  </g>
</svg>
