<svg id="Layer_1" data-name="Layer 1" xmlns="http://www.w3.org/2000/svg" width="255.9" height="180.9" viewBox="0 0 255.9 180.9">
  <title>logoEX</title>
  <path d="M157.7,118.5c-1,.6-2.6,1.6-4.4,2.9-3.5,2.3-4.2,3-5.8,3.9a26.3,26.3,0,0,1-7.7,2.7c-1.4.3-3.6.7-11.1,1s-10.4.5-15.3,0c-3.2-.3-5.8-.7-7.6-1a7,7,0,0,0-4,1.8,6.5,6.5,0,0,0-1.8,2.9,4.8,4.8,0,0,0,.2,3.7c.5.7,1.1,1.1,4,2.1s3.5,1,5,1.6,1.5.9,5.3,3.2,3,1.6,5,2.9a27,27,0,0,1,5,3.7c2.2,2,1.7,2.4,4.5,5.2s2.6,2.3,3.4,3.7.6,2,1.6,4.5,1.6,2.6,2.1,4.5-.2,3.6.5,7.1,1.2,2.2,1.6,4.8.1,3,.8,5a5.3,5.3,0,0,0,1.6,2.6c.3.3,1.7,1.6,3.2,1.3s1.5-1.2,2.6-3.4a61.4,61.4,0,0,0,2.9-6.6c1-3.1,1.7-5.7,2.1-7.6.9-4.1.8-4.9,2.1-11.9.7-3.7,1-5.6,1.6-7.7s2-6,2.6-7.6a82.7,82.7,0,0,1,4.3-8.7c1.1-2,2.5-4,5.2-7.9s3.3-4.5,4.3-6.4a32,32,0,0,0,2.6-7.1c.6-3,1.2-5.4.3-8.2a13.8,13.8,0,0,0-3.5-5,38.4,38.4,0,0,0-7.4-5.8c-4.7-3.2-3.3-2.9-10.8-8.4-4.6-3.4-5.5-3.8-8.9-6.6s-1.6-1.4-5.8-5c-2.7-2.3-4.2-3.4-5.8-5.5s-2.5-4.8-2.4-5.3a4.3,4.3,0,0,1,2.6-3.2c1.1-.4,2.1,0,4,.5l5.8,1.6c5.7,2,7.4,1.5,12.4,3.2s3.9,2.7,11.6,6.1,7.9,2.4,12.1,5.2a44,44,0,0,0,5.5,3.7c2,1,2.6,1,7.7,2.9s5.2,2.1,6.6,2.4,4.7.2,8.4-.3,6.4-.8,9.5-2.1,3.7-2.6,9-5.5,4.8-1.8,9.7-4.5,4.8-3.3,9.3-5.5c2.2-1.2,4.6-2,9.2-3.7s8.1-3,10.6-3.2a57.9,57.9,0,0,1,8.1.5c3.1.4,3.7.6,4.3,1.1,2.5,2.5-.1,8.8-.3,9.2-.9,2.1-1.7,2.8-6.9,8.2s-6.4,6.9-8.4,8.7-4.2,3.5-7.9,6.3-8.3,6.1-9.5,6.9c-6.9,4.7-7.2,4.4-9,6.3a31.2,31.2,0,0,0-6,9.2,43.3,43.3,0,0,0-2.2,5.8,48.9,48.9,0,0,0-1.3,10.3c-.1,2.1-.1,4.3,0,11.1.1,5.1.1,7.6.3,10,.3,5.6.7,5.4.8,9.3s-.3,3-.5,10.8c-.1.2-.2,3.5-.8,7.9-.5,2.8-.8,4-1.9,4.7a4.6,4.6,0,0,1-4.7,0c-2.7-1.2-3.2-4.1-5-9.5s-2.3-4.6-4.3-10.5c-2.6-8-1.8-8.9-4.4-16.6a45.5,45.5,0,0,0-5.1-10.8c-3-4.8-5.2-6.3-6.3-6.9a11.1,11.1,0,0,0-7.6-1.8,11.9,11.9,0,0,0-6.1,3.4c-1.4,1.3-1.7,2.1-4.2,4.7l-2.4,2.4" transform="translate(-22.4 -59.5)" fill="none" stroke="#0c0b0b" stroke-miterlimit="10" stroke-width="2"/>
  <path d="M111,162.4,22.7,240.1" transform="translate(-22.4 -59.5)" fill="none" stroke="#0c0b0b" stroke-miterlimit="10"/>
  <path d="M120.1,174,75.5,215.6" transform="translate(-22.4 -59.5)" fill="none" stroke="#0c0b0b" stroke-miterlimit="10"/>
</svg>
