<svg xmlns="http://www.w3.org/2000/svg" xmlns:xlink="http://www.w3.org/1999/xlink" width="746.89" height="679.57" viewBox="0 0 746.89 679.57">
  <defs>
    <linearGradient id="linear-gradient" x1="376.22" y1="624.66" x2="376.22" y2="393.44" gradientUnits="userSpaceOnUse">
      <stop offset="0" stop-color="#fff" stop-opacity="0"/>
      <stop offset="1" stop-opacity="0.3"/>
    </linearGradient>
    <linearGradient id="linear-gradient-2" x1="376.22" y1="211.32" x2="376.22" y2="557.37" xlink:href="#linear-gradient"/>
    <radialGradient id="radial-gradient" cx="562.2" cy="267.15" r="84.33" gradientTransform="translate(0 -287.16) scale(1 2.07)" gradientUnits="userSpaceOnUse">
      <stop offset="0" stop-color="#006837" stop-opacity="0"/>
      <stop offset="1" stop-opacity="0.3"/>
    </radialGradient>
    <radialGradient id="radial-gradient-2" cx="562.2" cy="267.15" r="84.33" gradientTransform="translate(0 -287.16) scale(1 2.07)" xlink:href="#linear-gradient"/>
    <radialGradient id="radial-gradient-3" cx="195.79" cy="259.21" r="102.58" gradientTransform="translate(160.82 -159.36) rotate(23.01) scale(1 1.43)" gradientUnits="userSpaceOnUse">
      <stop offset="0" stop-color="#ed1c24" stop-opacity="0"/>
      <stop offset="1" stop-opacity="0.3"/>
    </radialGradient>
    <radialGradient id="radial-gradient-4" cx="195.79" cy="259.21" r="102.58" gradientTransform="translate(160.82 -159.36) rotate(23.01) scale(1 1.43)" xlink:href="#linear-gradient"/>
    <style>
    #leftpoly{
      opacity: 0.2;
      animation: leftpoly 5s ease infinite;
    }
    @keyframes leftpoly{
      100%{opacity: 2; fill:#fff;
      }
    }
    #rightpoly{
      opacity: 0.2;
      animation: rightpoly 5s ease infinite;
    }
    @keyframes rightpoly{
      100%{opacity: 2; fill:#fff;}
    }
    #background1{
      animation: background1 3s linear infinite;
    }
    @keyframes background1{
      100%{fill: white;}
    }
    #test1{
      animation: test1 1s ease infinite alternate;
    }
    @keyframes test1{
      100%{transform:rotate(-0.5deg);}
    }
    #test2{
      animation: test2 1s ease infinite alternate;
    }
    @keyframes test2{
      100%{transform:rotate(0.5deg);}
    }
    </style>
  </defs>
  <title>عکاسی</title>
  <g style="isolation: isolate">
    <g id="Layer_1" data-name="Layer 1">
      <g>
       
        <g>
          <g>
            <g id="test2">
              <g>
                <polygon points="243.43 93.79 232.74 115.69 276.84 115.69 266.16 93.79 243.43 93.79" fill="#303031"/>
                <polygon points="237.93 75.81 222.06 71.42 222.28 103.45 243.65 95.15 237.93 75.81" fill="#303031"/>
                <polygon points="271.66 75.81 287.53 71.42 289 103.64 267.64 95.34 271.66 75.81" fill="#303031"/>
                <path d="M274.39,83.76l-5.52-27.3h-27l-5.52,27.3a9.87,9.87,0,0,0-.77,3.79c0,7.6,8.87,13.77,19.81,13.77s19.8-6.17,19.8-13.77A9.87,9.87,0,0,0,274.39,83.76Z" fill="#414042"/>
              </g>
              <path d="M269.1,58.2c0,5.27-6.15,9.55-13.74,9.55s-13.75-4.28-13.75-9.55,6.15-9.56,13.75-9.56S269.1,52.92,269.1,58.2Z" fill="#58595b"/>
            </g>
            <g>
              <g>
                <polygon points="364.12 93.79 353.43 115.69 397.53 115.69 386.85 93.79 364.12 93.79" fill="#303031"/>
                <polygon points="358.62 75.81 342.75 71.42 342.97 103.45 364.34 95.15 358.62 75.81" fill="#303031"/>
                <polygon points="392.35 75.81 408.22 71.42 409.69 103.64 388.33 95.34 392.35 75.81" fill="#303031"/>
                <path d="M395.08,83.76l-5.52-27.3h-27L357,83.76a9.87,9.87,0,0,0-.77,3.79c0,7.6,8.87,13.77,19.81,13.77s19.8-6.17,19.8-13.77A9.87,9.87,0,0,0,395.08,83.76Z" fill="#414042"/>
              </g>
              <ellipse cx="376.05" cy="58.2" rx="13.75" ry="9.55" fill="#58595b"/>
            </g>
            <g id="test1">
              <g >
                <polygon points="484.81 93.79 474.12 115.69 518.23 115.69 507.54 93.79 484.81 93.79" fill="#303031"/>
                <polygon points="479.31 75.81 463.44 71.42 463.66 103.45 485.03 95.15 479.31 75.81" fill="#303031"/>
                <polygon points="513.04 75.81 528.91 71.42 530.39 103.64 509.02 95.34 513.04 75.81" fill="#303031"/>
                <path d="M515.77,83.76l-5.52-27.3h-27l-5.52,27.3a9.87,9.87,0,0,0-.77,3.79c0,7.6,8.87,13.77,19.81,13.77s19.8-6.17,19.8-13.77A9.87,9.87,0,0,0,515.77,83.76Z" fill="#414042"/>
              </g>
              <path d="M510.48,58.2c0,5.27-6.15,9.55-13.74,9.55S483,63.47,483,58.2s6.15-9.56,13.75-9.56S510.48,52.92,510.48,58.2Z" fill="#58595b"/>
            </g>
          </g>
          <g>
            <g>
              <polygon  points="193.53 458.67 69.61 575.85 682.83 575.85 558.92 458.67 193.53 458.67" fill="#e3dfda"/>
              <polygon  points="193.53 458.67 69.61 575.85 682.83 575.85 558.92 458.67 193.53 458.67" fill="url(#linear-gradient)" style="mix-blend-mode: multiply"/>
            </g>
            <g>
              <rect id="background1" x="193.53" y="132.36" width="365.39" height="326.3" fill="#e3dfda"/>
              <rect x="193.53" y="132.36" width="365.39" height="326.3" fill="url(#linear-gradient-2)" style="mix-blend-mode: multiply"/>
            </g>
            <path d="M566.43,135.75a3.38,3.38,0,0,1-3.38,3.38H189.39a3.39,3.39,0,0,1-3.38-3.38h0a3.39,3.39,0,0,1,3.38-3.39H563.05a3.38,3.38,0,0,1,3.38,3.39Z" fill="#50413d"/>
            <g>
              <line x1="558.92" y1="135.75" x2="558.92" y2="135.75" fill="none" stroke="#50413d" stroke-linecap="round" stroke-linejoin="round"/>
              <path d="M558.86,137.74c-.81,26-9,297.7,2.95,297.7,12.08,0,.81-279.88,0-298.7" fill="none" stroke="#50413d" stroke-linecap="round" stroke-linejoin="round" stroke-dasharray="0 2"/>
              <line x1="561.81" y1="135.75" x2="561.81" y2="135.75" fill="none" stroke="#50413d" stroke-linecap="round" stroke-linejoin="round"/>
              <line x1="560.36" y1="135.75" x2="559.64" y2="135.75" fill="none" stroke="#50413d" stroke-linecap="round" stroke-linejoin="round" stroke-dasharray="0 1.44"/>
            </g>
          </g>
          
            <rect x="361.78" y="637.09" width="22.09" height="24.91" fill="#fff6eb"/>
            <path d="M357.57,499.14l0,0-.07-.05,0,0h0c-2-1.84-4.65.08-4.65.08l-26.9,24.49c-2.36,2.65-.85,4.39-.5,4.73s1.83,2.17,4.8,0l26.84-24.56S359.22,501.28,357.57,499.14Z" fill="#414042"/>
            <path d="M332.61,522.93l0,0a1.42,1.42,0,0,0-.13-.12.47.47,0,0,1-.06-.09l0,0c-4.28-4-10,.19-10,.19l-25.86,23.52c-5.08,5.73-1.84,9.48-1.07,10.22.47.61,3.94,4.67,10.34-.07l25.72-23.69S336.18,527.55,332.61,522.93Z" fill="#231f20"/>
            <g>
              <rect x="410.32" y="500.26" width="4.7" height="15.93" fill="#231f20"/>
              <polygon points="410.31 516.19 405.62 512.66 405.62 503.78 410.31 500.26 410.31 516.19" fill="#414042"/>
              <rect x="398.83" y="506.76" width="6.79" height="2.92" fill="#231f20"/>
            </g>
            <rect x="345.56" y="503.78" width="54.3" height="8.88" fill="#58595b"/>
            <polygon points="399.86 503.78 345.56 503.78 354.81 494.91 390.61 494.91 399.86 503.78" fill="#231f20"/>
            <path d="M358.46,532.13s2.69-7.17,14.35-7.17S387,532.13,387,532.13Z" fill="#231f20"/>
            <rect x="366.35" y="512.66" width="12.72" height="15.88" fill="#414042"/>
            <g>
              <rect x="352.39" y="532.13" width="40.64" height="43.72" fill="#231f20"/>
              <g>
                <rect x="334.6" y="543.75" width="15.41" height="21.38" fill="#231f20"/>
                <path d="M337,543.81v21.38a5.89,5.89,0,0,0,5,2.89,7.52,7.52,0,0,0,5.58-2.89V543.81a6.15,6.15,0,0,0-10.59,0Z" fill="#414042"/>
                <rect x="350" y="548.75" width="2.39" height="11.36" fill="#231f20"/>
              </g>
              <g>
                <rect x="395.42" y="543.74" width="15.41" height="21.38" fill="#231f20"/>
                <path d="M408.42,565.06V543.68a5.89,5.89,0,0,0-5-2.89,7.55,7.55,0,0,0-5.58,2.89v21.38a6.15,6.15,0,0,0,10.59,0Z" fill="#414042"/>
                <rect x="393.03" y="548.75" width="2.39" height="11.36" fill="#231f20"/>
              </g>
            </g>
            <rect x="361.67" y="532.13" width="22.08" height="43.72" fill="#58595b"/>
            <path d="M365,532.13v8.66s1.5,4.88,7.66,4.88,7.7-4.88,7.7-4.88v-8.66Z" fill="#414042"/>
            <path d="M397.83,579.31a3.47,3.47,0,0,1-3.47,3.47h-43.3a3.47,3.47,0,0,1-3.47-3.47h0a3.47,3.47,0,0,1,3.47-3.46h43.3a3.47,3.47,0,0,1,3.47,3.46Z" fill="#231f20"/>
            <rect x="355.74" y="582.78" width="34.15" height="8.6" fill="#414042"/>
            <rect x="360.98" y="591.38" width="23.45" height="12.07" fill="#231f20"/>
            <polygon points="381.35 606.02 364.06 606.02 360.98 603.45 384.44 603.45 381.35 606.02" fill="#58595b"/>
            <rect x="360.25" y="606.02" width="24.91" height="31.07" fill="#414042"/>
            <rect x="357.09" y="612.18" width="31.23" height="20.54" fill="#231f20"/>
            <rect x="357.09" y="612.18" width="31.23" height="2.05" fill="#58595b"/>
            <rect x="357.09" y="630.67" width="31.23" height="2.05" fill="#58595b"/>
            <rect x="360.25" y="640.69" width="24.91" height="3.08" fill="#231f20"/>
          </g>
          <g>
            <g>
              <polygon points="651.13 440.54 643.84 468.63 641.65 468.63 648.07 440.54 651.13 440.54" fill="#231f20"/>
              <rect x="648.12" y="240.77" width="2.98" height="234.2" fill="#414042"/>
              <g>
                <rect x="646.68" y="259.21" width="5.86" height="7.88" fill="#231f20"/>
                <rect x="652.54" y="259.21" width="3.69" height="2.69" fill="#231f20"/>
              </g>
              <g>
                <rect x="646.68" y="363.38" width="5.86" height="7.88" fill="#231f20"/>
                <rect x="652.54" y="363.38" width="3.69" height="2.69" fill="#231f20"/>
              </g>
              <rect x="652.63" y="474.77" width="38.68" height="2.98" fill="#414042"/>
              <polygon points="642.7 440.54 644.77 442.7 575.08 509.63 570.77 509.63 642.7 440.54" fill="#414042"/>
              <rect x="607.77" y="474.77" width="38.68" height="2.98" fill="#414042"/>
              <rect x="644.6" y="474.25" width="9.8" height="4.02" fill="#231f20"/>
              <polygon points="656.37 440.54 654.31 442.7 724 509.63 728.31 509.63 656.37 440.54" fill="#414042"/>
              <rect x="642.74" y="438.83" width="13.74" height="4.98" fill="#231f20"/>
            </g>
            <g>
              <polyline points="613.38 148.24 659.65 197.59 659.65 351.98 613.38 385.93 611.93 150.05" fill="#414042"/>
              <polygon points="511.03 370.67 511.03 171.45 613.38 148.24 613.38 385.93 511.03 370.67" fill="#58595b"/>
              <polygon id="rightpoly" points="611.93 384.25 512.48 369.42 512.48 172.61 611.93 150.05 611.93 384.25" fill="#fff"/>
              <polygon points="611.93 384.25 512.48 369.42 512.48 172.61 611.93 150.05 611.93 384.25" fill="url(#radial-gradient)"/>
              <polygon points="611.93 384.25 512.48 369.42 512.48 172.61 611.93 150.05 611.93 384.25" fill="url(#radial-gradient-2)"/>
            </g>
          </g>
          <g>
            <g>
              <polygon points="124.06 440.54 116.77 468.63 114.57 468.63 121 440.54 124.06 440.54" fill="#231f20"/>
              <rect x="121.05" y="240.77" width="2.98" height="234.2" fill="#414042"/>
              <g>
                <rect x="119.61" y="259.21" width="5.86" height="7.88" fill="#231f20"/>
                <rect x="125.47" y="259.21" width="3.69" height="2.69" fill="#231f20"/>
              </g>
              <g>
                <rect x="119.61" y="363.38" width="5.86" height="7.88" fill="#231f20"/>
                <rect x="125.47" y="363.38" width="3.69" height="2.69" fill="#231f20"/>
              </g>
              <rect x="125.56" y="474.77" width="38.68" height="2.98" fill="#414042"/>
              <polygon points="115.63 440.54 117.7 442.7 48 509.63 43.7 509.63 115.63 440.54" fill="#414042"/>
              <rect x="80.7" y="474.77" width="38.68" height="2.98" fill="#414042"/>
              <rect x="117.53" y="474.25" width="9.8" height="4.02" fill="#231f20"/>
              <polygon points="129.3 440.54 127.23 442.7 196.93 509.63 201.24 509.63 129.3 440.54" fill="#414042"/>
              <rect x="115.67" y="438.83" width="13.74" height="4.98" fill="#231f20"/>
            </g>
            <g>
              <path d="M141.33,360.19s-41.57-54.77-40.76-130.08C100.57,230.11,158.05,327.63,141.33,360.19Z" fill="#303031"/>
              <polygon points="108.36 267.3 161.93 167.19 250.26 158.22 283.23 251.11 229.66 351.22 141.33 360.19 108.36 267.3" fill="#58595b"/>
              <polygon id="leftpoly" points="144.1 355.81 112.8 267.64 164.5 171.03 247.49 162.6 278.79 250.78 227.09 347.38 144.1 355.81" fill="#fff"/>
              <polygon points="108.36 267.3 100.57 230.11 131.25 178.84 161.93 167.19 108.36 267.3" fill="#414042"/>
            </g>
            <polygon points="144.1 355.81 112.8 267.64 164.5 171.03 247.49 162.6 278.79 250.78 227.09 347.38 144.1 355.81" fill="url(#radial-gradient-3)"/>
            <polygon points="144.1 355.81 112.8 267.64 164.5 171.03 247.49 162.6 278.79 250.78 227.09 347.38 144.1 355.81" fill="url(#radial-gradient-4)"/>
          </g>
          <g>
            <path d="M554.62,56.46a1.74,1.74,0,0,1-1.74,1.74H199.56a1.73,1.73,0,0,1-1.73-1.74h0a1.73,1.73,0,0,1,1.73-1.74H552.88a1.74,1.74,0,0,1,1.74,1.74Z" fill="#414042"/>
            <g>
              <rect x="212.65" y="5.44" width="3.48" height="51.01" fill="#414042"/>
              <rect x="374.48" y="5.44" width="3.48" height="51.01" fill="#414042"/>
              <rect x="536.32" y="5.44" width="3.48" height="51.01" fill="#414042"/>
            </g>
          </g>
          <g>
            <path d="M439.5,437s-6.07,1.58-6.07-6.08-3-8.18-7.55-8.18-3.83-3.84-3.83-3.84L421.14,400l-2.37-.2-15.66-1.27a18.87,18.87,0,0,1-10-4.6c-.39-.36-.77-.74-1.14-1.15h0a17,17,0,0,1-3.26-5.42s-2.24-10.87-21.73-10.87H336.5s-11.91,0-14.73,12.47c-3.09,13.59-11.35,13.74-11.35,13.74l-12.78,3.51s-7.35,1.6-7.35,16v76.07s2.87,6.39,12.46,6.39H456.49s9.91-1,9.91-15V437Z" fill="#231f20"/>
            <path d="M460.36,448.57a5.27,5.27,0,1,0-5.27,5.27A5.27,5.27,0,0,0,460.36,448.57Z" fill="#bcbec0"/>
            <path d="M417.14,413.18a5.2,5.2,0,1,0-5.2,5.2A5.2,5.2,0,0,0,417.14,413.18Z" fill="#bcbec0"/>
            <rect x="304" y="425.76" width="126.79" height="78.88" rx="3.3" fill="#58595b"/>
            <rect x="313.02" y="427.94" width="112.86" height="74.33" rx="3.3" fill="#231f20"/>
            <rect x="323.56" y="381.22" width="62.97" height="42.22" rx="11.22" fill="#414042"/>
            <rect x="324.88" y="382.54" width="60.33" height="39.58" rx="9.9" fill="#231f20"/>
            <rect x="330.86" y="385.8" width="48.37" height="33.06" rx="3.3" fill="#414042"/>
            <rect x="337.28" y="388.67" width="35.52" height="27.33" rx="3.3" fill="#231f20"/>
            <rect x="342.75" y="393.04" width="24.59" height="18.58" rx="3.3" fill="#414042"/>
            <rect x="344.94" y="395.23" width="20.22" height="14.21" fill="#a3587c"/>
            <rect x="321.49" y="431.49" width="100.56" height="67.22" fill="#bcbec0"/>
            <rect x="335" y="455" width="30" height="15" stroke-width="2" stroke="red" fill="#bcbec0">
              <animate attributeName="width" to="37" dur="4s" repeatCount="indefinite" />
              <animate attributeName="height" to="20" dur="4s" repeatCount="indefinite" />
            </rect>
            <path d="M311.93,414.83a3.56,3.56,0,1,0-3.55,3.55A3.55,3.55,0,0,0,311.93,414.83Z" fill="#bcbec0"/>
            <path d="M400.19,413.18a4.1,4.1,0,1,0-4.1,4.1A4.09,4.09,0,0,0,400.19,413.18Z" fill="#bcbec0"/>
            <path d="M414.4,413.18a2.46,2.46,0,1,0-2.46,2.46A2.46,2.46,0,0,0,414.4,413.18Z" fill="#f4564a" stroke="#fff" stroke-miterlimit="10" stroke-width="1.14"/>
            <path d="M463.32,469.75a14.49,14.49,0,1,0-14.49,14.48A14.48,14.48,0,0,0,463.32,469.75Z" fill="#54b1ba"/>
            <path d="M453.52,469.49a4.7,4.7,0,1,0-4.42,5A4.7,4.7,0,0,0,453.52,469.49Z" fill="none" stroke="#ec5824" stroke-miterlimit="10" stroke-width="0.53"/>
            <path d="M449.28,474.5a4.7,4.7,0,1,0-5-4.43A4.7,4.7,0,0,0,449.28,474.5Z" fill="#231f20"/>
            <g>
              <path d="M441.46,469.75a7.38,7.38,0,0,1,.91-3.55l-4.53-2.54a12.49,12.49,0,0,0,.22,12.54l4.48-2.62A7.33,7.33,0,0,1,441.46,469.75Z" fill="#dbbd79"/>
              <path d="M448.83,477.13a7.29,7.29,0,0,1-3.51-.89l-2.55,4.52a12.53,12.53,0,0,0,12.39-.16l-2.62-4.48A7.29,7.29,0,0,1,448.83,477.13Z" fill="#dbbd79"/>
              <path d="M456.21,469.75a7.29,7.29,0,0,1-1,3.68l4.53,2.54a12.53,12.53,0,0,0,0-12.43l-4.48,2.61A7.32,7.32,0,0,1,456.21,469.75Z" fill="#dbbd79"/>
              <path d="M448.83,462.37a7.42,7.42,0,0,1,3.72,1l2.54-4.52a12.47,12.47,0,0,0-12.59.05l2.61,4.48A7.36,7.36,0,0,1,448.83,462.37Z" fill="#dbbd79"/>
            </g>
            <path d="M459,448.57a3.95,3.95,0,1,0-4,3.94A4,4,0,0,0,459,448.57Z" fill="#414042"/>
            <path d="M446.63,492.26a4.09,4.09,0,1,0-4.09,4.09A4.09,4.09,0,0,0,446.63,492.26Z" fill="#58595b"/>
            <path d="M425,400.3a2.15,2.15,0,0,1,2.37-2.28c2.51,0,9-.49,15.44,1.14,0,0,1.6,0,1.72,2.72Z" fill="#6d6e71"/>
            <path d="M393.14,393.92,392,392.77C392.37,393.18,392.75,393.56,393.14,393.92Z" fill="none"/>
            <path d="M450.42,402.36,421.14,400l.91,18.87s-.68,3.84,3.83,3.84,7.55.53,7.55,8.18S439.5,437,439.5,437h26.9V417.7S463.84,402.36,450.42,402.36Z" fill="#58595b"/>
            <path d="M393.14,393.92a18.87,18.87,0,0,0,10,4.6l15.66,1.27c1.19-8.39-.65-8.37-.65-8.37-9.37-3.17-23.36-2.75-23.36-2.75-4-.38-2.77,4.09-2.77,4.09h0Z" fill="#414042"/>
          </g>
        </g>
      </g>
    </g>
  
</svg>
