<?xml version="1.0" encoding="utf-8"?>
<!-- Generator: Adobe Illustrator 22.0.0, SVG Export Plug-In . SVG Version: 6.00 Build 0)  -->
<svg version="1.1" id="Ñëîé_1" xmlns="http://www.w3.org/2000/svg" xmlns:xlink="http://www.w3.org/1999/xlink" x="0px" y="0px"
	 viewBox="0 0 500 500" style="enable-background:new 0 0 500 500;" xml:space="preserve">
<style type="text/css">
	.st0{opacity:0.5;fill:#173D7A;enable-background:new    ;}
	.st1{fill:#396CAA;}
	.st2{fill:#D4ECFF;}
	.st3{fill:#5793CE;}
	.st4{fill:#FAFDFF;}
	.st5{fill:#173D7A;}
	.st6{fill:#396CAA;}
	.st7{opacity:0.4;fill:#D4ECFF;enable-background:new    ;}



	.S1{
		animation : s11 2s linear infinite;
	}
    @keyframes s11{
		0%{fill:#D4ECFF;}
		20%{fill:#173D7A;}
		40%{fill:#173D7A;}
		60%{fill:#173D7A;}
		80%{fill:#173D7A;}
		100%{fill:#173D7A;}
	}

	.S2{
		animation : s22 2s linear infinite;
	}
    @keyframes s22{
		0%{fill:#173D7A;}
		20%{fill:#D4ECFF;}
		40%{fill:#173D7A;}
		60%{fill:#173D7A;}
		80%{fill:#173D7A;}
		100%{fill:#173D7A;}
	}

	.S3{
		animation : s33 2s linear infinite;
	}
    @keyframes s33{
		0%{fill:#173D7A}
		20%{fill:#173D7A}
		40%{fill:#D4ECFF;}
		60%{fill:#173D7A;}
		80%{fill:#173D7A;}
		100%{fill:#173D7A;}
	}

	.S4{
		animation : s44 2s linear infinite;
	}
    @keyframes s44{
		0%{fill:#173D7A;}
		20%{fill:#173D7A;}
		40%{fill:#173D7A;}
		60%{fill:#D4ECFF;}
		80%{fill:#173D7A;}
		100%{fill:#173D7A;}
	}

	.S5{
		animation : s55 2s linear infinite;
	}
    @keyframes s55{
		0%{fill:#173D7A;}
		20%{fill:#173D7A;}
		40%{fill:#173D7A;}
		60%{fill:#173D7A;}
		80%{fill:#D4ECFF;}
		100%{fill:#173D7A;}
	}
    
	.SS1{
		animation :ss11 2s linear infinite;
	}
	@keyframes ss11{
		0%{fill:white };
		50%{};
	}

	.SS2{
		animation :ss22 2s linear infinite;
	}
	@keyframes ss22{
		0%{}
		50%{fill:white}
	}

	#Layer4{
		animation : Layer44 4s ease-in-out -1.5s infinite alternate;
	}
	@keyframes Layer44{
		0%{transform : translateY(3%)}
		100%{transform : translateY(-3%)}
	}

	#Layer3{
		animation : Layer33 4s ease-in-out -1s infinite alternate;
	}
	@keyframes Layer33{
		0%{transform : translateY(3%)}
		100%{transform : translateY(-3%)}
	}

	#Layer1{
		animation : Layer11 4s ease-in-out -0.5s infinite alternate;
	}
	@keyframes Layer11{
		0%{transform : translateY(3%)}
		100%{transform : translateY(-3%)}
	}

	#Layer2{
		animation : Layer22 4s ease-in-out 0s infinite alternate;
	}
	@keyframes Layer22{
		0%{transform : translateY(3%)}
		100%{transform : translateY(-3%)}
	}


	







</style>
<path class="st0" d="M260.1,303.5l83.6-47.6c3.1-1.8,2.7-4.8-0.9-6.9l-48.1-27.8c-3.5-2-8.9-2.3-11.9-0.5l-83.5,47.7
			c-3.1,1.8-2.7,4.8,0.9,6.9l48.1,27.8C251.7,305.1,257.1,305.3,260.1,303.5z"/>
<g id="Layer4">
	<g id="Layer_1_4_">
		
		<g>
			<g>
				<path class="st1" d="M197.2,245.1L197.2,245.1V63.3l72.3-18.9l13.3-7.7c3.1-1.8,8.4-1.5,11.9,0.5l12.4,7.2h38.6l-11.4,175.5
					c0.1,1.2-0.6,2.3-2,3.2l-72.1,54.4c-3.1,1.8-8.4,1.5-11.9-0.5l-48.1-27.8C198.1,248.1,197.1,246.6,197.2,245.1z"/>
				<path class="st2" d="M288.4,35.5c2.2,0.1,4.6,0.6,6.4,1.7l12.4,7.2h38.6v182.3c0.1,1.2-0.6,2.3-2,3.2l-83.6,47.6
					c-1.5,0.8-3.5,1.2-5.5,1.2l-0.9-183.5L288.4,35.5z"/>
				<path class="st3" d="M259.4,277.9c-2.6,1.1-6.4,1.1-9.5-0.1V93.1h9.5V277.9z"/>
				<path class="st2" d="M260.1,95.3l83.6-47.6c3.1-1.8,2.7-4.8-0.9-6.9L294.7,13c-3.5-2-8.9-2.3-11.9-0.5l-83.5,47.6
					c-3.1,1.8-2.7,4.8,0.9,6.9l48.1,27.8C251.7,96.8,257.1,97,260.1,95.3z"/>
				<path class="st4" d="M200.1,63.6l48.1,27.8c3.5,2,8.9,2.3,11.9,0.5l83.6-47.6c0.7-0.4,1.2-0.9,1.5-1.4c1,1.7,0.6,3.5-1.5,4.7
					l-83.6,47.6c-3.1,1.8-8.4,1.5-11.9-0.5l-48.1-27.8c-2.7-1.6-3.6-3.8-2.4-5.5C198.2,62.2,199,63,200.1,63.6z"/>
				<g>
					<path class="st5" d="M257.8,75.9l55.6-32.2c1.4-0.8,1.3-2.3-0.4-3.2l-22.5-13c-1.7-1-4.1-1.1-5.6-0.2l-55.6,32.2
						c-1.4,0.8-1.3,2.3,0.4,3.2l22.5,13C253.8,76.7,256.3,76.8,257.8,75.9z"/>
					<g>
						<path class="st2" d="M287.8,45.2l3.2-1.9c0.2-0.1,0.2-0.3-0.1-0.4l-3.1-1.8c-0.2-0.1-0.6-0.1-0.8,0l-3.2,1.9
							c-0.2,0.1-0.2,0.3,0.1,0.4l3.1,1.8C287.2,45.3,287.6,45.3,287.8,45.2z"/>
						<path class="st2" d="M277,51.3l3.2-1.9c0.2-0.1,0.2-0.3-0.1-0.4l-3.1-1.8c-0.2-0.1-0.6-0.1-0.8,0l-3.2,1.9
							c-0.2,0.1-0.2,0.3,0.1,0.4l3.1,1.8C276.5,51.4,276.8,51.5,277,51.3z"/>
						<path class="st2" d="M266.2,57.5l3.2-1.9c0.2-0.1,0.2-0.3-0.1-0.4l-3.1-1.8c-0.2-0.1-0.6-0.1-0.8,0l-3.2,1.9
							c-0.2,0.1-0.2,0.3,0.1,0.4l3.1,1.8C265.7,57.6,266.1,57.6,266.2,57.5z"/>
						<path class="st2" d="M255.5,63.7l3.2-1.9c0.2-0.1,0.2-0.3-0.1-0.4l-3.1-1.8c-0.2-0.1-0.6-0.1-0.8,0l-3.2,1.9
							c-0.2,0.1-0.2,0.3,0.1,0.4l3.1,1.8C254.9,63.8,255.3,63.8,255.5,63.7z"/>
					</g>
					<path class="st3" d="M313.4,43.7L313.4,43.7c-0.2,0-0.3-0.1-0.4-0.2l-22.5-13c-1.7-1-4.1-1.1-5.6-0.2l-55.6,32.2
						c-1.3-0.9-1.4-2.2-0.1-3l55.6-32.2c1.4-0.8,3.9-0.7,5.6,0.2l22.5,13C314.6,41.4,314.8,42.9,313.4,43.7z"/>
				</g>
			</g>
		</g>
		<g>
			<path class=" SS1" d="M238.8,253.9l-31.6-18.1c-1.8-1-3.2-3.8-3.2-6.2v-11.3c0-2.4,1.4-3.5,3.2-2.4l31.6,18.1
				c1.8,1,3.2,3.8,3.2,6.2v11.3C242,253.8,240.6,254.9,238.8,253.9z"/>
			<path class="st6 SS2" d="M205.6,215.5c-0.5,0.5-0.8,1.3-0.8,2.4v11.3c0,2.4,1.4,5.1,3.2,6.2l31.6,18.1c0.6,0.3,1.1,0.4,1.6,0.3
				c-0.6,0.6-1.4,0.6-2.4,0.1l-31.6-18.1c-1.8-1-3.2-3.8-3.2-6.2v-11.3C204,216.7,204.6,215.7,205.6,215.5z"/>
			<g>
				<path class="st1 SS1" d="M229.3,241.6l-2.9-1.7c-0.4-0.2-0.7-0.8-0.7-1.3v-3.1c0-0.5,0.3-0.8,0.7-0.5l2.9,1.7
					c0.4,0.2,0.7,0.8,0.7,1.3v3.1C230,241.6,229.7,241.8,229.3,241.6z"/>
				<path class="st6 SS2" d="M219.6,236l-2.9-1.7c-0.4-0.2-0.7-0.8-0.7-1.3v-3.1c0-0.5,0.3-0.8,0.7-0.5l2.9,1.7c0.4,0.2,0.7,0.8,0.7,1.3
					v3.1C220.3,236,220,236.2,219.6,236z"/>
			</g>
		</g>
		<g>
			<path class="st5 SS1" d="M238.8,213l-31.6-18.1c-1.8-1-3.2-3.8-3.2-6.2v-11.3c0-2.4,1.4-3.5,3.2-2.4l31.6,18.1c1.8,1,3.2,3.8,3.2,6.2
				v11.3C242,212.9,240.6,214,238.8,213z"/>
			<path class="st6 SS2" d="M205.6,174.7c-0.5,0.5-0.8,1.3-0.8,2.4v11.3c0,2.4,1.4,5.1,3.2,6.2l31.6,18.1c0.6,0.3,1.1,0.4,1.6,0.3
				c-0.6,0.6-1.4,0.6-2.4,0.1l-31.6-18.2c-1.8-1-3.2-3.8-3.2-6.2v-11.3C204,175.8,204.6,174.8,205.6,174.7z"/>
			<g>
				<path class="st1 SS1" d="M229.3,200.7l-2.9-1.7c-0.4-0.2-0.7-0.8-0.7-1.3v-3.1c0-0.5,0.3-0.8,0.7-0.5l2.9,1.7
					c0.4,0.2,0.7,0.8,0.7,1.3v3.1C230,200.7,229.7,200.9,229.3,200.7z"/>
				<path class="st6 SS2" d="M219.6,195.1l-2.9-1.7c-0.4-0.2-0.7-0.8-0.7-1.3V189c0-0.5,0.3-0.8,0.7-0.5l2.9,1.7
					c0.4,0.2,0.7,0.8,0.7,1.3v3.1C220.3,195.1,220,195.3,219.6,195.1z"/>
			</g>
		</g>
		<g>
			<path class="st5" d="M238.8,172.1L207.2,154c-1.8-1-3.2-3.8-3.2-6.2v-11.3c0-2.4,1.4-3.5,3.2-2.4l31.6,18.1
				c1.8,1,3.2,3.8,3.2,6.2v11.3C242,172.1,240.6,173.2,238.8,172.1z"/>
			<path class="st6" d="M205.6,133.8c-0.5,0.5-0.8,1.3-0.8,2.4v11.3c0,2.4,1.4,5.1,3.2,6.2l31.6,18.1c0.6,0.3,1.1,0.4,1.6,0.3
				c-0.6,0.6-1.4,0.6-2.4,0.1l-31.6-18.1c-1.8-1-3.2-3.8-3.2-6.2v-11.3C204,135,204.6,134,205.6,133.8z"/>
			<g>
				<path class="st1 SS1" d="M229.3,159.9l-2.9-1.7c-0.4-0.2-0.7-0.8-0.7-1.3v-3.1c0-0.5,0.3-0.8,0.7-0.5l2.9,1.7
					c0.4,0.2,0.7,0.8,0.7,1.3v3.1C230,159.8,229.7,160.1,229.3,159.9z"/>
				<path class="st6 SS2" d="M219.6,154.3l-2.9-1.7c-0.4-0.2-0.7-0.8-0.7-1.3v-3.1c0-0.5,0.3-0.8,0.7-0.5l2.9,1.7
					c0.4,0.2,0.7,0.8,0.7,1.3v3.1C220.3,154.2,220,154.5,219.6,154.3z"/>
			</g>
		</g>
		<g>
			<path class="st5" d="M238.8,131.3l-31.6-18.1c-1.8-1-3.2-3.8-3.2-6.2V95.7c0-2.4,1.4-3.5,3.2-2.4l31.6,18.1
				c1.8,1,3.2,3.8,3.2,6.2v11.3C242,131.2,240.6,132.3,238.8,131.3z"/>
			<path class="st6" d="M205.6,92.9c-0.5,0.5-0.8,1.3-0.8,2.4v11.3c0,2.4,1.4,5.1,3.2,6.2l31.6,18.1c0.6,0.3,1.1,0.4,1.6,0.3
				c-0.6,0.6-1.4,0.6-2.4,0.1l-31.6-18.1c-1.8-1-3.2-3.8-3.2-6.2V95.7C204,94.1,204.6,93.1,205.6,92.9z"/>
			<g>
				<path class="st1 SS1" d="M229.3,119l-2.9-1.7c-0.4-0.2-0.7-0.8-0.7-1.3v-3.1c0-0.5,0.3-0.8,0.7-0.5l2.9,1.7c0.4,0.2,0.7,0.8,0.7,1.3
					v3.1C230,119,229.7,119.2,229.3,119z"/>
				<path class="st6 SS2" d="M219.6,113.4l-2.9-1.7c-0.4-0.2-0.7-0.8-0.7-1.3v-3.1c0-0.5,0.3-0.8,0.7-0.5l2.9,1.7
					c0.4,0.2,0.7,0.8,0.7,1.3v3.1C220.3,113.4,220,113.6,219.6,113.4z"/>
			</g>
		</g>
		<path class="st2" d="M260.1,91.9l83.6-47.6c3.1-1.8,2.7-4.8-0.9-6.9L294.7,9.6c-3.5-2-8.9-2.3-11.9-0.5l-83.5,47.7
			c-3.1,1.8-2.7,4.8,0.9,6.9l48.1,27.8C251.7,93.5,257.1,93.7,260.1,91.9z"/>
		<g>
			<path class="st3" d="M265.5,264l73-42.1c1.6-0.9,3-3.5,3-5.7v-13.9c0-2.2-1.3-3.2-3-2.2l-73,42.1c-1.6,0.9-3,3.5-3,5.7v13.9
				C262.5,263.9,263.9,264.9,265.5,264z"/>
			<path class="st7" d="M267.6,259.1l68.8-39.7c0.8-0.5,1.5-1.8,1.5-2.9V206c0-1.1-0.7-1.6-1.5-1.1l-68.8,39.8
				c-0.8,0.5-1.5,1.8-1.5,2.9v10.5C266.1,259.1,266.8,259.6,267.6,259.1z"/>
			<path class="st2" d="M322,222.4l10.3-5.9c0.8-0.5,1.5-1.7,1.5-2.8l0,0c0-1.1-0.7-1.6-1.5-1.1l-10.3,5.9c-0.8,0.5-1.5,1.7-1.5,2.8
				l0,0C320.6,222.4,321.2,222.9,322,222.4z"/>
			<path class="st5" d="M313.3,225.5c0,1.1,0.8,1.5,1.7,1c0.9-0.5,1.7-1.8,1.7-2.9s-0.8-1.5-1.7-1S313.3,224.4,313.3,225.5z"/>
			<path class="st5" d="M307.4,228.9c0,1.1,0.8,1.5,1.7,1c0.9-0.5,1.7-1.8,1.7-2.9s-0.8-1.5-1.7-1
				C308.1,226.6,307.4,227.9,307.4,228.9z"/>
			<path class="st2" d="M301.4,232.4c0,1.1,0.8,1.5,1.7,1s1.7-1.8,1.7-2.9s-0.8-1.5-1.7-1S301.4,231.3,301.4,232.4z"/>
			<path class="st5" d="M295.5,235.8c0,1.1,0.8,1.5,1.7,1s1.7-1.8,1.7-2.9s-0.8-1.5-1.7-1C296.2,233.4,295.5,234.7,295.5,235.8z"/>
			<path class="st5" d="M270.5,253.3l3.5-2c0.5-0.3,0.9-1.1,0.9-1.8v-3.7c0-0.7-0.4-1-0.9-0.7l-3.5,2c-0.5,0.3-0.9,1.1-0.9,1.8v3.7
				C269.6,253.3,270,253.6,270.5,253.3z"/>
		</g>
		<g>
			<path class="st3" d="M265.7,233.7l73-42.1c1.6-0.9,3-3.5,3-5.7V172c0-2.2-1.3-3.2-3-2.2l-73,42.1c-1.6,0.9-3,3.5-3,5.7v13.9
				C262.7,233.6,264.1,234.6,265.7,233.7z"/>
			<path class="st7" d="M267.8,228.8l68.8-39.7c0.8-0.5,1.5-1.8,1.5-2.9v-10.5c0-1.1-0.7-1.6-1.5-1.1l-68.8,39.8
				c-0.8,0.5-1.5,1.8-1.5,2.9v10.5C266.3,228.8,267,229.3,267.8,228.8z"/>
			<path class="st2" d="M322.2,192.1l10.3-5.9c0.8-0.5,1.5-1.7,1.5-2.8l0,0c0-1.1-0.7-1.6-1.5-1.1l-10.3,5.9
				c-0.8,0.5-1.5,1.7-1.5,2.8l0,0C320.8,192.1,321.4,192.6,322.2,192.1z"/>
			<path class="st5" d="M313.5,195.2c0,1.1,0.8,1.5,1.7,1c0.9-0.5,1.7-1.8,1.7-2.9s-0.8-1.5-1.7-1S313.5,194.1,313.5,195.2z"/>
			<path class="st5" d="M307.6,198.6c0,1.1,0.8,1.5,1.7,1c0.9-0.5,1.7-1.8,1.7-2.9s-0.8-1.5-1.7-1
				C308.3,196.3,307.6,197.6,307.6,198.6z"/>
			<path class="st2" d="M301.6,202.1c0,1.1,0.8,1.5,1.7,1s1.7-1.8,1.7-2.9s-0.8-1.5-1.7-1C302.4,199.7,301.6,201,301.6,202.1z"/>
			<path class="st5" d="M295.7,205.5c0,1.1,0.8,1.5,1.7,1s1.7-1.8,1.7-2.9s-0.8-1.5-1.7-1C296.4,203.1,295.7,204.4,295.7,205.5z"/>
			<path class="st5" d="M270.7,223l3.5-2c0.5-0.3,0.9-1.1,0.9-1.8v-3.7c0-0.7-0.4-1-0.9-0.7l-3.5,2c-0.5,0.3-0.9,1.1-0.9,1.8v3.7
				C269.8,223,270.2,223.3,270.7,223z"/>
		</g>
		<g>
			<path class="st3" d="M265.2,205.4l73-42.1c1.6-0.9,3-3.5,3-5.7v-13.9c0-2.2-1.3-3.2-3-2.2l-73,42.1c-1.6,0.9-3,3.5-3,5.7v13.9
				C262.2,205.3,263.6,206.3,265.2,205.4z"/>
			<path class="st7" d="M267.3,200.5l68.8-39.7c0.8-0.5,1.5-1.8,1.5-2.9v-10.5c0-1.1-0.7-1.6-1.5-1.1l-68.8,39.8
				c-0.8,0.5-1.5,1.8-1.5,2.9v10.5C265.8,200.5,266.5,201,267.3,200.5z"/>
			<path class="st2" d="M321.7,163.8l10.3-5.9c0.8-0.5,1.5-1.7,1.5-2.8l0,0c0-1.1-0.7-1.6-1.5-1.1l-10.3,5.9
				c-0.8,0.5-1.5,1.7-1.5,2.8l0,0C320.3,163.8,320.9,164.3,321.7,163.8z"/>
			<path class="st5" d="M313,166.9c0,1.1,0.8,1.5,1.7,1c0.9-0.5,1.7-1.8,1.7-2.9s-0.8-1.5-1.7-1C313.8,164.5,313,165.8,313,166.9z"
				/>
			<path class="st5" d="M307.1,170.3c0,1.1,0.8,1.5,1.7,1c0.9-0.5,1.7-1.8,1.7-2.9s-0.8-1.5-1.7-1
				C307.8,168,307.1,169.3,307.1,170.3z"/>
			<path class="st2" d="M301.1,173.8c0,1.1,0.8,1.5,1.7,1s1.7-1.8,1.7-2.9s-0.8-1.5-1.7-1S301.1,172.7,301.1,173.8z"/>
			<path class="st5" d="M295.2,177.2c0,1.1,0.8,1.5,1.7,1s1.7-1.8,1.7-2.9s-0.8-1.5-1.7-1C295.9,174.8,295.2,176.1,295.2,177.2z"/>
			<path class="st5" d="M270.2,194.7l3.5-2c0.5-0.3,0.9-1.1,0.9-1.8v-3.7c0-0.7-0.4-1-0.9-0.7l-3.5,2c-0.5,0.3-0.9,1.1-0.9,1.8v3.7
				C269.3,194.7,269.7,195,270.2,194.7z"/>
		</g>
		<g>
			<path class="st3" d="M265.2,176.4l73-42.1c1.6-0.9,3-3.5,3-5.7v-13.9c0-2.2-1.3-3.2-3-2.2l-73,42.1c-1.6,0.9-3,3.5-3,5.7v13.9
				C262.2,176.3,263.6,177.3,265.2,176.4z"/>
			<path class="st7" d="M267.3,171.5l68.8-39.7c0.8-0.5,1.5-1.8,1.5-2.9v-10.5c0-1.1-0.7-1.6-1.5-1.1l-68.8,39.8
				c-0.8,0.5-1.5,1.8-1.5,2.9v10.5C265.8,171.5,266.5,172,267.3,171.5z"/>
			<path class="st2" d="M321.7,134.8l10.3-5.9c0.8-0.5,1.5-1.7,1.5-2.8l0,0c0-1.1-0.7-1.6-1.5-1.1l-10.3,5.9
				c-0.8,0.5-1.5,1.7-1.5,2.8l0,0C320.3,134.8,320.9,135.3,321.7,134.8z"/>
			<path class="st5" d="M313,137.9c0,1.1,0.8,1.5,1.7,1c0.9-0.5,1.7-1.8,1.7-2.9s-0.8-1.5-1.7-1C313.8,135.5,313,136.8,313,137.9z"
				/>
			<path class="st5" d="M307.1,141.3c0,1.1,0.8,1.5,1.7,1c0.9-0.5,1.7-1.8,1.7-2.9s-0.8-1.5-1.7-1
				C307.8,139,307.1,140.3,307.1,141.3z"/>
			<path class="st5" d="M301.1,144.8c0,1.1,0.8,1.5,1.7,1s1.7-1.8,1.7-2.9s-0.8-1.5-1.7-1S301.1,143.7,301.1,144.8z"/>
			<path class="st5 S5" d="M295.2,148.2c0,1.1,0.8,1.5,1.7,1s1.7-1.8,1.7-2.9s-0.8-1.5-1.7-1C295.9,145.8,295.2,147.1,295.2,148.2z"/>
			<path class="st5" d="M270.2,165.7l3.5-2c0.5-0.3,0.9-1.1,0.9-1.8v-3.7c0-0.7-0.4-1-0.9-0.7l-3.5,2c-0.5,0.3-0.9,1.1-0.9,1.8v3.7
				C269.3,165.7,269.7,166,270.2,165.7z"/>
		</g>
		<g>
			<path class="st3" d="M265.7,147.9l73-42.1c1.6-0.9,3-3.5,3-5.7V86.2c0-2.2-1.3-3.2-3-2.2l-73,42.1c-1.6,0.9-3,3.5-3,5.7v13.9
				C262.7,147.8,264.1,148.8,265.7,147.9z"/>
			<path class="st7" d="M267.8,143l68.8-39.7c0.8-0.5,1.5-1.8,1.5-2.9V89.9c0-1.1-0.7-1.6-1.5-1.1l-68.8,39.8
				c-0.8,0.5-1.5,1.8-1.5,2.9V142C266.3,143,267,143.5,267.8,143z"/>
			<path class="st2" d="M322.2,106.3l10.3-5.9c0.8-0.5,1.5-1.7,1.5-2.8l0,0c0-1.1-0.7-1.6-1.5-1.1l-10.3,5.9
				c-0.8,0.5-1.5,1.7-1.5,2.8l0,0C320.8,106.3,321.4,106.8,322.2,106.3z"/>
			<path class="st5 S1" d="M313.5,109.4c0,1.1,0.8,1.5,1.7,1c0.9-0.5,1.7-1.8,1.7-2.9c0-1.1-0.8-1.5-1.7-1S313.5,108.3,313.5,109.4z"/>
			<path class="st5 S2" d="M307.6,112.8c0,1.1,0.8,1.5,1.7,1c0.9-0.5,1.7-1.8,1.7-2.9c0-1.1-0.8-1.5-1.7-1
				C308.3,110.5,307.6,111.8,307.6,112.8z"/>
			<path class="st5 S3" d="M301.6,116.3c0,1.1,0.8,1.5,1.7,1s1.7-1.8,1.7-2.9s-0.8-1.5-1.7-1C302.4,113.9,301.6,115.2,301.6,116.3z"/>
			<path class="st5 S4" d="M295.7,119.7c0,1.1,0.8,1.5,1.7,1s1.7-1.8,1.7-2.9s-0.8-1.5-1.7-1C296.4,117.3,295.7,118.6,295.7,119.7z"/>
			<path class="st5 S5" d="M270.7,137.2l3.5-2c0.5-0.3,0.9-1.1,0.9-1.8v-3.7c0-0.7-0.4-1-0.9-0.7l-3.5,2c-0.5,0.3-0.9,1.1-0.9,1.8v3.7
				C269.8,137.2,270.2,137.5,270.7,137.2z"/>
		</g>
		<g>
			<path class="st3" d="M266.2,119.7l73-42.1c1.6-0.9,3-3.5,3-5.7V58c0-2.2-1.3-3.2-3-2.2l-73,42.1c-1.6,0.9-3,3.5-3,5.7v13.9
				C263.2,119.6,264.6,120.6,266.2,119.7z"/>
			<path class="st7" d="M268.3,114.8l68.8-39.7c0.8-0.5,1.5-1.8,1.5-2.9V61.7c0-1.1-0.7-1.6-1.5-1.1l-68.8,39.8
				c-0.8,0.5-1.5,1.8-1.5,2.9v10.5C266.8,114.8,267.5,115.3,268.3,114.8z"/>
			<path class="st2" d="M322.7,78.1l10.3-5.9c0.8-0.5,1.5-1.7,1.5-2.8l0,0c0-1.1-0.7-1.6-1.5-1.1l-10.3,5.9
				c-0.8,0.5-1.5,1.7-1.5,2.8l0,0C321.3,78.1,321.9,78.6,322.7,78.1z"/>
			<path class="st5 S1" d="M314,81.2c0,1.1,0.8,1.5,1.7,1c0.9-0.5,1.7-1.8,1.7-2.9c0-1.1-0.8-1.5-1.7-1S314,80.1,314,81.2z"/>
			<path class="st5 S2" d="M308.1,84.6c0,1.1,0.8,1.5,1.7,1c0.9-0.5,1.7-1.8,1.7-2.9c0-1.1-0.8-1.5-1.7-1
				C308.8,82.3,308.1,83.6,308.1,84.6z"/>
			<path class="st5 S3" d="M302.1,88.1c0,1.1,0.8,1.5,1.7,1s1.7-1.8,1.7-2.9c0-1.1-0.8-1.5-1.7-1C302.9,85.7,302.1,87,302.1,88.1z"/>
			<path class="st5 S4" d="M296.2,91.5c0,1.1,0.8,1.5,1.7,1s1.7-1.8,1.7-2.9c0-1.1-0.8-1.5-1.7-1C296.9,89.1,296.2,90.4,296.2,91.5z"/>
			<path class="st5 S5" d="M271.2,109l3.5-2c0.5-0.3,0.9-1.1,0.9-1.8v-3.7c0-0.7-0.4-1-0.9-0.7l-3.5,2c-0.5,0.3-0.9,1.1-0.9,1.8v3.7
				C270.3,109,270.7,109.3,271.2,109z"/>
		</g>
	</g>
</g>
<path class="st0" d="M363.4,363.8l83.6-47.6c3.1-1.8,2.7-4.8-0.9-6.9L398,281.5c-3.5-2-8.9-2.3-11.9-0.5l-83.5,47.7
			c-3.1,1.8-2.7,4.8,0.9,6.9l48.1,27.8C355,365.4,360.4,365.6,363.4,363.8z"/>
<g id="Layer3">
	<g id="Layer_1_6_">
		
		<g>
			<g>
				<path class="st1" d="M300.5,305.4L300.5,305.4V123.6l72.3-18.9l13.3-7.7c3.1-1.8,8.4-1.5,11.9,0.5l12.4,7.2H449l-11.4,175.5
					c0.1,1.2-0.6,2.3-2,3.2l-72.1,54.4c-3.1,1.8-8.4,1.5-11.9-0.5l-48.1-27.8C301.4,308.4,300.4,306.9,300.5,305.4z"/>
				<path class="st2" d="M391.7,95.8c2.2,0.1,4.6,0.6,6.4,1.7l12.4,7.2h38.6V287c0.1,1.2-0.6,2.3-2,3.2l-83.6,47.6
					c-1.5,0.8-3.5,1.2-5.5,1.2l-0.9-183.5L391.7,95.8z"/>
				<path class="st3" d="M362.7,338.2c-2.6,1.1-6.4,1.1-9.5-0.1V153.4h9.5V338.2z"/>
				<path class="st2" d="M363.4,155.6L447,108c3.1-1.8,2.7-4.8-0.9-6.9L398,73.3c-3.5-2-8.9-2.3-11.9-0.5l-83.5,47.6
					c-3.1,1.8-2.7,4.8,0.9,6.9l48.1,27.8C355,157.1,360.4,157.3,363.4,155.6z"/>
				<path class="st4" d="M303.4,123.9l48.1,27.8c3.5,2,8.9,2.3,11.9,0.5l83.6-47.6c0.7-0.4,1.2-0.9,1.5-1.4c1,1.7,0.6,3.5-1.5,4.7
					l-83.6,47.6c-3.1,1.8-8.4,1.5-11.9-0.5l-48.1-27.8c-2.7-1.6-3.6-3.8-2.4-5.5C301.5,122.5,302.3,123.3,303.4,123.9z"/>
				<g>
					<path class="st5" d="M361.1,136.2l55.6-32.2c1.4-0.8,1.3-2.3-0.4-3.2l-22.5-13c-1.7-1-4.1-1.1-5.6-0.2l-55.6,32.2
						c-1.4,0.8-1.3,2.3,0.4,3.2l22.5,13C357.1,137,359.6,137.1,361.1,136.2z"/>
					<g>
						<path class="st2" d="M391.1,105.5l3.2-1.9c0.2-0.1,0.2-0.3-0.1-0.4l-3.1-1.8c-0.2-0.1-0.6-0.1-0.8,0l-3.2,1.9
							c-0.2,0.1-0.2,0.3,0.1,0.4l3.1,1.8C390.5,105.6,390.9,105.6,391.1,105.5z"/>
						<path class="st2" d="M380.3,111.6l3.2-1.9c0.2-0.1,0.2-0.3-0.1-0.4l-3.1-1.8c-0.2-0.1-0.6-0.1-0.8,0l-3.2,1.9
							c-0.2,0.1-0.2,0.3,0.1,0.4l3.1,1.8C379.8,111.7,380.1,111.8,380.3,111.6z"/>
						<path class="st2" d="M369.5,117.8l3.2-1.9c0.2-0.1,0.2-0.3-0.1-0.4l-3.1-1.8c-0.2-0.1-0.6-0.1-0.8,0l-3.2,1.9
							c-0.2,0.1-0.2,0.3,0.1,0.4l3.1,1.8C369,117.9,369.4,117.9,369.5,117.8z"/>
						<path class="st2" d="M358.8,124l3.2-1.9c0.2-0.1,0.2-0.3-0.1-0.4l-3.1-1.8c-0.2-0.1-0.6-0.1-0.8,0l-3.2,1.9
							c-0.2,0.1-0.2,0.3,0.1,0.4l3.1,1.8C358.2,124.1,358.6,124.1,358.8,124z"/>
					</g>
					<path class="st3" d="M416.7,104L416.7,104c-0.2,0-0.3-0.1-0.4-0.2l-22.5-13c-1.7-1-4.1-1.1-5.6-0.2l-55.6,32.2
						c-1.3-0.9-1.4-2.2-0.1-3l55.6-32.2c1.4-0.8,3.9-0.7,5.6,0.2l22.5,13C417.9,101.7,418.1,103.2,416.7,104z"/>
				</g>
			</g>
		</g>
		<g>
			<path class="st5" d="M342.1,314.2l-31.6-18.1c-1.8-1-3.2-3.8-3.2-6.2v-11.3c0-2.4,1.4-3.5,3.2-2.4l31.6,18.1
				c1.8,1,3.2,3.8,3.2,6.2v11.3C345.3,314.1,343.9,315.2,342.1,314.2z"/>
			<path class="st6" d="M308.9,275.8c-0.5,0.5-0.8,1.3-0.8,2.4v11.3c0,2.4,1.4,5.1,3.2,6.2l31.6,18.1c0.6,0.3,1.1,0.4,1.6,0.3
				c-0.6,0.6-1.4,0.6-2.4,0.1l-31.6-18.1c-1.8-1-3.2-3.8-3.2-6.2v-11.3C307.3,277,307.9,276,308.9,275.8z"/>
			<g>
				<path class="st1 SS1" d="M332.6,301.9l-2.9-1.7c-0.4-0.2-0.7-0.8-0.7-1.3v-3.1c0-0.5,0.3-0.8,0.7-0.5l2.9,1.7
					c0.4,0.2,0.7,0.8,0.7,1.3v3.1C333.3,301.9,333,302.1,332.6,301.9z"/>
				<path class="st6 SS2" d="M322.9,296.3l-2.9-1.7c-0.4-0.2-0.7-0.8-0.7-1.3v-3.1c0-0.5,0.3-0.8,0.7-0.5l2.9,1.7
					c0.4,0.2,0.7,0.8,0.7,1.3v3.1C323.6,296.3,323.3,296.5,322.9,296.3z"/>
			</g>
		</g>
		<g>
			<path class="st5" d="M342.1,273.3l-31.6-18.1c-1.8-1-3.2-3.8-3.2-6.2v-11.3c0-2.4,1.4-3.5,3.2-2.4l31.6,18.1
				c1.8,1,3.2,3.8,3.2,6.2v11.3C345.3,273.2,343.9,274.3,342.1,273.3z"/>
			<path class="st6" d="M308.9,235c-0.5,0.5-0.8,1.3-0.8,2.4v11.3c0,2.4,1.4,5.1,3.2,6.2l31.6,18.1c0.6,0.3,1.1,0.4,1.6,0.3
				c-0.6,0.6-1.4,0.6-2.4,0.1l-31.6-18.2c-1.8-1-3.2-3.8-3.2-6.2v-11.3C307.3,236.1,307.9,235.1,308.9,235z"/>
			<g>
				<path class="st1 SS1" d="M332.6,261l-2.9-1.7c-0.4-0.2-0.7-0.8-0.7-1.3v-3.1c0-0.5,0.3-0.8,0.7-0.5l2.9,1.7c0.4,0.2,0.7,0.8,0.7,1.3
					v3.1C333.3,261,333,261.2,332.6,261z"/>
				<path class="st6 SS2" d="M322.9,255.4l-2.9-1.7c-0.4-0.2-0.7-0.8-0.7-1.3v-3.1c0-0.5,0.3-0.8,0.7-0.5l2.9,1.7
					c0.4,0.2,0.7,0.8,0.7,1.3v3.1C323.6,255.4,323.3,255.6,322.9,255.4z"/>
			</g>
		</g>
		<g>
			<path class="st5" d="M342.1,232.4l-31.6-18.1c-1.8-1-3.2-3.8-3.2-6.2v-11.3c0-2.4,1.4-3.5,3.2-2.4l31.6,18.1
				c1.8,1,3.2,3.8,3.2,6.2V230C345.3,232.4,343.9,233.5,342.1,232.4z"/>
			<path class="st6" d="M308.9,194.1c-0.5,0.5-0.8,1.3-0.8,2.4v11.3c0,2.4,1.4,5.1,3.2,6.2l31.6,18.1c0.6,0.3,1.1,0.4,1.6,0.3
				c-0.6,0.6-1.4,0.6-2.4,0.1l-31.6-18.1c-1.8-1-3.2-3.8-3.2-6.2v-11.3C307.3,195.3,307.9,194.3,308.9,194.1z"/>
			<g>
				<path class="st1 SS1" d="M332.6,220.2l-2.9-1.7c-0.4-0.2-0.7-0.8-0.7-1.3v-3.1c0-0.5,0.3-0.8,0.7-0.5l2.9,1.7
					c0.4,0.2,0.7,0.8,0.7,1.3v3.1C333.3,220.1,333,220.4,332.6,220.2z"/>
				<path class="st6 SS2" d="M322.9,214.6l-2.9-1.7c-0.4-0.2-0.7-0.8-0.7-1.3v-3.1c0-0.5,0.3-0.8,0.7-0.5l2.9,1.7
					c0.4,0.2,0.7,0.8,0.7,1.3v3.1C323.6,214.5,323.3,214.8,322.9,214.6z"/>
			</g>
		</g>
		<g>
			<path class="st5" d="M342.1,191.6l-31.6-18.1c-1.8-1-3.2-3.8-3.2-6.2V156c0-2.4,1.4-3.5,3.2-2.4l31.6,18.1c1.8,1,3.2,3.8,3.2,6.2
				v11.3C345.3,191.5,343.9,192.6,342.1,191.6z"/>
			<path class="st6" d="M308.9,153.2c-0.5,0.5-0.8,1.3-0.8,2.4v11.3c0,2.4,1.4,5.1,3.2,6.2l31.6,18.1c0.6,0.3,1.1,0.4,1.6,0.3
				c-0.6,0.6-1.4,0.6-2.4,0.1l-31.6-18.1c-1.8-1-3.2-3.8-3.2-6.2V156C307.3,154.4,307.9,153.4,308.9,153.2z"/>
			<g>
				<path class="st1 SS1" d="M332.6,179.3l-2.9-1.7c-0.4-0.2-0.7-0.8-0.7-1.3v-3.1c0-0.5,0.3-0.8,0.7-0.5l2.9,1.7
					c0.4,0.2,0.7,0.8,0.7,1.3v3.1C333.3,179.3,333,179.5,332.6,179.3z"/>
				<path class="st6 SS2" d="M322.9,173.7L320,172c-0.4-0.2-0.7-0.8-0.7-1.3v-3.1c0-0.5,0.3-0.8,0.7-0.5l2.9,1.7
					c0.4,0.2,0.7,0.8,0.7,1.3v3.1C323.6,173.7,323.3,173.9,322.9,173.7z"/>
			</g>
		</g>
		<path class="st2" d="M363.4,152.2l83.6-47.6c3.1-1.8,2.7-4.8-0.9-6.9L398,69.9c-3.5-2-8.9-2.3-11.9-0.5l-83.5,47.7
			c-3.1,1.8-2.7,4.8,0.9,6.9l48.1,27.8C355,153.8,360.4,154,363.4,152.2z"/>
		<g>
			<path class="st3" d="M368.8,324.3l73-42.1c1.6-0.9,3-3.5,3-5.7v-13.9c0-2.2-1.3-3.2-3-2.2l-73,42.1c-1.6,0.9-3,3.5-3,5.7v13.9
				C365.8,324.2,367.2,325.2,368.8,324.3z"/>
			<path class="st7" d="M370.9,319.4l68.8-39.7c0.8-0.5,1.5-1.8,1.5-2.9v-10.5c0-1.1-0.7-1.6-1.5-1.1L370.9,305
				c-0.8,0.5-1.5,1.8-1.5,2.9v10.5C369.4,319.4,370.1,319.9,370.9,319.4z"/>
			<path class="st2" d="M425.3,282.7l10.3-5.9c0.8-0.5,1.5-1.7,1.5-2.8l0,0c0-1.1-0.7-1.6-1.5-1.1l-10.3,5.9
				c-0.8,0.5-1.5,1.7-1.5,2.8l0,0C423.9,282.7,424.5,283.2,425.3,282.7z"/>
			<path class="st5 S1" d="M416.6,285.8c0,1.1,0.8,1.5,1.7,1c0.9-0.5,1.7-1.8,1.7-2.9s-0.8-1.5-1.7-1S416.6,284.7,416.6,285.8z"/>
			<path class="st5 S2" d="M410.7,289.2c0,1.1,0.8,1.5,1.7,1c0.9-0.5,1.7-1.8,1.7-2.9s-0.8-1.5-1.7-1
				C411.4,286.9,410.7,288.2,410.7,289.2z"/>
			<path class="st5 S3" d="M404.7,292.7c0,1.1,0.8,1.5,1.7,1s1.7-1.8,1.7-2.9s-0.8-1.5-1.7-1S404.7,291.6,404.7,292.7z"/>
			<path class="st5 S4" d="M398.8,296.1c0,1.1,0.8,1.5,1.7,1s1.7-1.8,1.7-2.9s-0.8-1.5-1.7-1C399.5,293.7,398.8,295,398.8,296.1z"/>
			<path class="st5 S5" d="M373.8,313.6l3.5-2c0.5-0.3,0.9-1.1,0.9-1.8v-3.7c0-0.7-0.4-1-0.9-0.7l-3.5,2c-0.5,0.3-0.9,1.1-0.9,1.8v3.7
				C372.9,313.6,373.3,313.9,373.8,313.6z"/>
		</g>
		<g>
			<path class="st3" d="M369,294l73-42.1c1.6-0.9,3-3.5,3-5.7v-13.9c0-2.2-1.3-3.2-3-2.2l-73,42.1c-1.6,0.9-3,3.5-3,5.7v13.9
				C366,293.9,367.4,294.9,369,294z"/>
			<path class="st7" d="M371.1,289.1l68.8-39.7c0.8-0.5,1.5-1.8,1.5-2.9V236c0-1.1-0.7-1.6-1.5-1.1l-68.8,39.8
				c-0.8,0.5-1.5,1.8-1.5,2.9v10.5C369.6,289.1,370.3,289.6,371.1,289.1z"/>
			<path class="st2" d="M425.5,252.4l10.3-5.9c0.8-0.5,1.5-1.7,1.5-2.8l0,0c0-1.1-0.7-1.6-1.5-1.1l-10.3,5.9
				c-0.8,0.5-1.5,1.7-1.5,2.8l0,0C424.1,252.4,424.7,252.9,425.5,252.4z"/>
			<path class="st5 S1" d="M416.8,255.5c0,1.1,0.8,1.5,1.7,1c0.9-0.5,1.7-1.8,1.7-2.9s-0.8-1.5-1.7-1S416.8,254.4,416.8,255.5z"/>
			<path class="st5 S2" d="M410.9,258.9c0,1.1,0.8,1.5,1.7,1c0.9-0.5,1.7-1.8,1.7-2.9s-0.8-1.5-1.7-1
				C411.6,256.6,410.9,257.9,410.9,258.9z"/>
			<path class="st5 S3" d="M404.9,262.4c0,1.1,0.8,1.5,1.7,1c0.9-0.5,1.7-1.8,1.7-2.9s-0.8-1.5-1.7-1
				C405.7,260,404.9,261.3,404.9,262.4z"/>
			<path class="st5 S4" d="M399,265.8c0,1.1,0.8,1.5,1.7,1s1.7-1.8,1.7-2.9s-0.8-1.5-1.7-1C399.7,263.4,399,264.7,399,265.8z"/>
			<path class="st5 S5" d="M374,283.3l3.5-2c0.5-0.3,0.9-1.1,0.9-1.8v-3.7c0-0.7-0.4-1-0.9-0.7l-3.5,2c-0.5,0.3-0.9,1.1-0.9,1.8v3.7
				C373.1,283.3,373.5,283.6,374,283.3z"/>
		</g>
		<g>
			<path class="st3" d="M368.5,265.7l73-42.1c1.6-0.9,3-3.5,3-5.7V204c0-2.2-1.3-3.2-3-2.2l-73,42.1c-1.6,0.9-3,3.5-3,5.7v13.9
				C365.5,265.6,366.9,266.6,368.5,265.7z"/>
			<path class="st7" d="M370.6,260.8l68.8-39.7c0.8-0.5,1.5-1.8,1.5-2.9v-10.5c0-1.1-0.7-1.6-1.5-1.1l-68.8,39.8
				c-0.8,0.5-1.5,1.8-1.5,2.9v10.5C369.1,260.8,369.8,261.3,370.6,260.8z"/>
			<path class="st2" d="M425,224.1l10.3-5.9c0.8-0.5,1.5-1.7,1.5-2.8l0,0c0-1.1-0.7-1.6-1.5-1.1l-10.3,5.9c-0.8,0.5-1.5,1.7-1.5,2.8
				l0,0C423.6,224.1,424.2,224.6,425,224.1z"/>
			<path class="st5 S1" d="M416.3,227.2c0,1.1,0.8,1.5,1.7,1c0.9-0.5,1.7-1.8,1.7-2.9s-0.8-1.5-1.7-1
				C417.1,224.8,416.3,226.1,416.3,227.2z"/>
			<path class="st5 S2" d="M410.4,230.6c0,1.1,0.8,1.5,1.7,1c0.9-0.5,1.7-1.8,1.7-2.9s-0.8-1.5-1.7-1
				C411.1,228.3,410.4,229.6,410.4,230.6z"/>
			<path class="st5 S3" d="M404.4,234.1c0,1.1,0.8,1.5,1.7,1s1.7-1.8,1.7-2.9s-0.8-1.5-1.7-1S404.4,233,404.4,234.1z"/>
			<path class="st5 S4" d="M398.5,237.5c0,1.1,0.8,1.5,1.7,1s1.7-1.8,1.7-2.9s-0.8-1.5-1.7-1C399.2,235.1,398.5,236.4,398.5,237.5z"/>
			<path class="st5 S5" d="M373.5,255l3.5-2c0.5-0.3,0.9-1.1,0.9-1.8v-3.7c0-0.7-0.4-1-0.9-0.7l-3.5,2c-0.5,0.3-0.9,1.1-0.9,1.8v3.7
				C372.6,255,373,255.3,373.5,255z"/>
		</g>
		<g>
			<path class="st3" d="M368.5,236.7l73-42.1c1.6-0.9,3-3.5,3-5.7V175c0-2.2-1.3-3.2-3-2.2l-73,42.1c-1.6,0.9-3,3.5-3,5.7v13.9
				C365.5,236.6,366.9,237.6,368.5,236.7z"/>
			<path class="st7" d="M370.6,231.8l68.8-39.7c0.8-0.5,1.5-1.8,1.5-2.9v-10.5c0-1.1-0.7-1.6-1.5-1.1l-68.8,39.8
				c-0.8,0.5-1.5,1.8-1.5,2.9v10.5C369.1,231.8,369.8,232.3,370.6,231.8z"/>
			<path class="st2" d="M425,195.1l10.3-5.9c0.8-0.5,1.5-1.7,1.5-2.8l0,0c0-1.1-0.7-1.6-1.5-1.1l-10.3,5.9c-0.8,0.5-1.5,1.7-1.5,2.8
				l0,0C423.6,195.1,424.2,195.6,425,195.1z"/>
			<path class="st5 S1" d="M416.3,198.2c0,1.1,0.8,1.5,1.7,1c0.9-0.5,1.7-1.8,1.7-2.9s-0.8-1.5-1.7-1
				C417.1,195.8,416.3,197.1,416.3,198.2z"/>
			<path class="st5 S2" d="M410.4,201.6c0,1.1,0.8,1.5,1.7,1c0.9-0.5,1.7-1.8,1.7-2.9s-0.8-1.5-1.7-1
				C411.1,199.3,410.4,200.6,410.4,201.6z"/>
			<path class="st5 S3" d="M404.4,205.1c0,1.1,0.8,1.5,1.7,1s1.7-1.8,1.7-2.9s-0.8-1.5-1.7-1S404.4,204,404.4,205.1z"/>
			<path class="st5 S4" d="M398.5,208.5c0,1.1,0.8,1.5,1.7,1s1.7-1.8,1.7-2.9s-0.8-1.5-1.7-1C399.2,206.1,398.5,207.4,398.5,208.5z"/>
			<path class="st5 S5" d="M373.5,226l3.5-2c0.5-0.3,0.9-1.1,0.9-1.8v-3.7c0-0.7-0.4-1-0.9-0.7l-3.5,2c-0.5,0.3-0.9,1.1-0.9,1.8v3.7
				C372.6,226,373,226.3,373.5,226z"/>
		</g>
		<g>
			<path class="st3" d="M369,208.2l73-42.1c1.6-0.9,3-3.5,3-5.7v-13.9c0-2.2-1.3-3.2-3-2.2l-73,42.1c-1.6,0.9-3,3.5-3,5.7V206
				C366,208.1,367.4,209.1,369,208.2z"/>
			<path class="st7" d="M371.1,203.3l68.8-39.7c0.8-0.5,1.5-1.8,1.5-2.9v-10.5c0-1.1-0.7-1.6-1.5-1.1l-68.8,39.8
				c-0.8,0.5-1.5,1.8-1.5,2.9v10.5C369.6,203.3,370.3,203.8,371.1,203.3z"/>
			<path class="st2" d="M425.5,166.6l10.3-5.9c0.8-0.5,1.5-1.7,1.5-2.8l0,0c0-1.1-0.7-1.6-1.5-1.1l-10.3,5.9
				c-0.8,0.5-1.5,1.7-1.5,2.8l0,0C424.1,166.6,424.7,167.1,425.5,166.6z"/>
			<path class="st5 S1" d="M416.8,169.7c0,1.1,0.8,1.5,1.7,1c0.9-0.5,1.7-1.8,1.7-2.9c0-1.1-0.8-1.5-1.7-1S416.8,168.6,416.8,169.7z"/>
			<path class="st5 S2" d="M410.9,173.1c0,1.1,0.8,1.5,1.7,1c0.9-0.5,1.7-1.8,1.7-2.9c0-1.1-0.8-1.5-1.7-1
				C411.6,170.8,410.9,172.1,410.9,173.1z"/>
			<path class="st5 S3" d="M404.9,176.6c0,1.1,0.8,1.5,1.7,1c0.9-0.5,1.7-1.8,1.7-2.9s-0.8-1.5-1.7-1
				C405.7,174.2,404.9,175.5,404.9,176.6z"/>
			<path class="st5 S4" d="M399,180c0,1.1,0.8,1.5,1.7,1s1.7-1.8,1.7-2.9s-0.8-1.5-1.7-1C399.7,177.6,399,178.9,399,180z"/>
			<path class="st5 S5" d="M374,197.5l3.5-2c0.5-0.3,0.9-1.1,0.9-1.8V190c0-0.7-0.4-1-0.9-0.7l-3.5,2c-0.5,0.3-0.9,1.1-0.9,1.8v3.7
				C373.1,197.5,373.5,197.8,374,197.5z"/>
		</g>
		<g>
			<path class="st3" d="M369.5,180l73-42.1c1.6-0.9,3-3.5,3-5.7v-13.9c0-2.2-1.3-3.2-3-2.2l-73,42.1c-1.6,0.9-3,3.5-3,5.7v13.9
				C366.5,179.9,367.9,180.9,369.5,180z"/>
			<path class="st7" d="M371.6,175.1l68.8-39.7c0.8-0.5,1.5-1.8,1.5-2.9V122c0-1.1-0.7-1.6-1.5-1.1l-68.8,39.8
				c-0.8,0.5-1.5,1.8-1.5,2.9v10.5C370.1,175.1,370.8,175.6,371.6,175.1z"/>
			<path class="st2" d="M426,138.4l10.3-5.9c0.8-0.5,1.5-1.7,1.5-2.8l0,0c0-1.1-0.7-1.6-1.5-1.1l-10.3,5.9c-0.8,0.5-1.5,1.7-1.5,2.8
				l0,0C424.6,138.4,425.2,138.9,426,138.4z"/>
			<path class="st5 S1" d="M417.3,141.5c0,1.1,0.8,1.5,1.7,1c0.9-0.5,1.7-1.8,1.7-2.9c0-1.1-0.8-1.5-1.7-1S417.3,140.4,417.3,141.5z"/>
			<path class="st5 S2" d="M411.4,144.9c0,1.1,0.8,1.5,1.7,1c0.9-0.5,1.7-1.8,1.7-2.9c0-1.1-0.8-1.5-1.7-1
				C412.1,142.6,411.4,143.9,411.4,144.9z"/>
			<path class="st5 S3" d="M405.4,148.4c0,1.1,0.8,1.5,1.7,1c0.9-0.5,1.7-1.8,1.7-2.9c0-1.1-0.8-1.5-1.7-1
				C406.2,146,405.4,147.3,405.4,148.4z"/>
			<path class="st5 S4" d="M399.5,151.8c0,1.1,0.8,1.5,1.7,1s1.7-1.8,1.7-2.9c0-1.1-0.8-1.5-1.7-1C400.2,149.4,399.5,150.7,399.5,151.8
				z"/>
			<path class="st5 S5" d="M374.5,169.3l3.5-2c0.5-0.3,0.9-1.1,0.9-1.8v-3.7c0-0.7-0.4-1-0.9-0.7l-3.5,2c-0.5,0.3-0.9,1.1-0.9,1.8v3.7
				C373.6,169.3,374,169.6,374.5,169.3z"/>
		</g>
	</g>
</g>
<path class="st0" d="M133.3,378.3l83.6-47.6c3.1-1.8,2.7-4.8-0.9-6.9L167.9,296c-3.5-2-8.9-2.3-11.9-0.5l-83.5,47.7
			c-3.1,1.8-2.7,4.8,0.9,6.9l48.1,27.8C124.9,379.9,130.3,380.1,133.3,378.3z"/>
<g id="Layer2">
	<g id="Layer_1_2_">
		
		<g>
			<g>
				<path class="st1" d="M70.4,319.9L70.4,319.9V138.1l72.3-18.9l13.3-7.7c3.1-1.8,8.4-1.5,11.9,0.5l12.4,7.2h38.6l-11.4,175.5
					c0.1,1.2-0.6,2.3-2,3.2l-72.1,54.4c-3.1,1.8-8.4,1.5-11.9-0.5L73.4,324C71.3,322.9,70.3,321.4,70.4,319.9z"/>
				<path class="st2" d="M161.6,110.3c2.2,0.1,4.6,0.6,6.4,1.7l12.4,7.2H219v182.3c0.1,1.2-0.6,2.3-2,3.2l-83.6,47.6
					c-1.5,0.8-3.5,1.2-5.5,1.2L127,170L161.6,110.3z"/>
				<path class="st3" d="M132.6,352.7c-2.6,1.1-6.4,1.1-9.5-0.1V167.9h9.5V352.7z"/>
				<path class="st2" d="M133.3,170.1l83.6-47.6c3.1-1.8,2.7-4.8-0.9-6.9l-48.1-27.8c-3.5-2-8.9-2.3-11.9-0.5l-83.5,47.6
					c-3.1,1.8-2.7,4.8,0.9,6.9l48.1,27.8C124.9,171.6,130.3,171.8,133.3,170.1z"/>
				<path class="st4" d="M73.3,138.4l48.1,27.8c3.5,2,8.9,2.3,11.9,0.5l83.6-47.6c0.7-0.4,1.2-0.9,1.5-1.4c1,1.7,0.6,3.5-1.5,4.7
					L133.3,170c-3.1,1.8-8.4,1.5-11.9-0.5l-48.1-27.8c-2.7-1.6-3.6-3.8-2.4-5.5C71.4,137,72.2,137.8,73.3,138.4z"/>
				<g>
					<path class="st5" d="M131,150.7l55.6-32.2c1.4-0.8,1.3-2.3-0.4-3.2l-22.5-13c-1.7-1-4.1-1.1-5.6-0.2l-55.6,32.2
						c-1.4,0.8-1.3,2.3,0.4,3.2l22.5,13C127,151.5,129.5,151.6,131,150.7z"/>
					<g>
						<path class="st2" d="M161,120l3.2-1.9c0.2-0.1,0.2-0.3-0.1-0.4l-3.1-1.8c-0.2-0.1-0.6-0.1-0.8,0l-3.2,1.9
							c-0.2,0.1-0.2,0.3,0.1,0.4l3.1,1.8C160.4,120.1,160.8,120.1,161,120z"/>
						<path class="st2" d="M150.2,126.1l3.2-1.9c0.2-0.1,0.2-0.3-0.1-0.4l-3.1-1.8c-0.2-0.1-0.6-0.1-0.8,0l-3.2,1.9
							c-0.2,0.1-0.2,0.3,0.1,0.4l3.1,1.8C149.7,126.2,150,126.3,150.2,126.1z"/>
						<path class="st2" d="M139.4,132.3l3.2-1.9c0.2-0.1,0.2-0.3-0.1-0.4l-3.1-1.8c-0.2-0.1-0.6-0.1-0.8,0l-3.2,1.9
							c-0.2,0.1-0.2,0.3,0.1,0.4l3.1,1.8C138.9,132.4,139.3,132.4,139.4,132.3z"/>
						<path class="st2" d="M128.7,138.5l3.2-1.9c0.2-0.1,0.2-0.3-0.1-0.4l-3.1-1.8c-0.2-0.1-0.6-0.1-0.8,0l-3.2,1.9
							c-0.2,0.1-0.2,0.3,0.1,0.4l3.1,1.8C128.1,138.6,128.5,138.6,128.7,138.5z"/>
					</g>
					<path class="st3" d="M186.6,118.5L186.6,118.5c-0.2,0-0.3-0.1-0.4-0.2l-22.5-13c-1.7-1-4.1-1.1-5.6-0.2l-55.6,32.2
						c-1.3-0.9-1.4-2.2-0.1-3l55.6-32.2c1.4-0.8,3.9-0.7,5.6,0.2l22.5,13C187.8,116.2,188,117.7,186.6,118.5z"/>
				</g>
			</g>
		</g>
		<g>
			<path class="st5" d="M112,328.7l-31.6-18.1c-1.8-1-3.2-3.8-3.2-6.2v-11.3c0-2.4,1.4-3.5,3.2-2.4l31.6,18.1c1.8,1,3.2,3.8,3.2,6.2
				v11.3C115.2,328.6,113.8,329.7,112,328.7z"/>
			<path class="st6" d="M78.8,290.3c-0.5,0.5-0.8,1.3-0.8,2.4V304c0,2.4,1.4,5.1,3.2,6.2l31.6,18.1c0.6,0.3,1.1,0.4,1.6,0.3
				c-0.6,0.6-1.4,0.6-2.4,0.1l-31.6-18.1c-1.8-1-3.2-3.8-3.2-6.2v-11.3C77.2,291.5,77.8,290.5,78.8,290.3z"/>
			<g>
				<path class="st1 SS1" d="M102.5,316.4l-2.9-1.7c-0.4-0.2-0.7-0.8-0.7-1.3v-3.1c0-0.5,0.3-0.8,0.7-0.5l2.9,1.7
					c0.4,0.2,0.7,0.8,0.7,1.3v3.1C103.2,316.4,102.9,316.6,102.5,316.4z"/>
				<path class="st6 SS2" d="M92.8,310.8l-2.9-1.7c-0.4-0.2-0.7-0.8-0.7-1.3v-3.1c0-0.5,0.3-0.8,0.7-0.5l2.9,1.7
					c0.4,0.2,0.7,0.8,0.7,1.3v3.1C93.5,310.8,93.2,311,92.8,310.8z"/>
			</g>
		</g>
		<g>
			<path class="st5" d="M112,287.8l-31.6-18.1c-1.8-1-3.2-3.8-3.2-6.2v-11.3c0-2.4,1.4-3.5,3.2-2.4l31.6,18.1c1.8,1,3.2,3.8,3.2,6.2
				v11.3C115.2,287.7,113.8,288.8,112,287.8z"/>
			<path class="st6" d="M78.8,249.5c-0.5,0.5-0.8,1.3-0.8,2.4v11.3c0,2.4,1.4,5.1,3.2,6.2l31.6,18.1c0.6,0.3,1.1,0.4,1.6,0.3
				c-0.6,0.6-1.4,0.6-2.4,0.1l-31.6-18.2c-1.8-1-3.2-3.8-3.2-6.2v-11.3C77.2,250.6,77.8,249.6,78.8,249.5z"/>
			<g>
				<path class="st1 SS1" d="M102.5,275.5l-2.9-1.7c-0.4-0.2-0.7-0.8-0.7-1.3v-3.1c0-0.5,0.3-0.8,0.7-0.5l2.9,1.7
					c0.4,0.2,0.7,0.8,0.7,1.3v3.1C103.2,275.5,102.9,275.7,102.5,275.5z"/>
				<path class="st6 SS2" d="M92.8,269.9l-2.9-1.7c-0.4-0.2-0.7-0.8-0.7-1.3v-3.1c0-0.5,0.3-0.8,0.7-0.5l2.9,1.7
					c0.4,0.2,0.7,0.8,0.7,1.3v3.1C93.5,269.9,93.2,270.1,92.8,269.9z"/>
			</g>
		</g>
		<g>
			<path class="st5" d="M112,246.9l-31.6-18.1c-1.8-1-3.2-3.8-3.2-6.2v-11.3c0-2.4,1.4-3.5,3.2-2.4L112,227c1.8,1,3.2,3.8,3.2,6.2
				v11.3C115.2,246.9,113.8,248,112,246.9z"/>
			<path class="st6" d="M78.8,208.6c-0.5,0.5-0.8,1.3-0.8,2.4v11.3c0,2.4,1.4,5.1,3.2,6.2l31.6,18.1c0.6,0.3,1.1,0.4,1.6,0.3
				c-0.6,0.6-1.4,0.6-2.4,0.1l-31.6-18.1c-1.8-1-3.2-3.8-3.2-6.2v-11.3C77.2,209.8,77.8,208.8,78.8,208.6z"/>
			<g>
				<path class="st1 SS1" d="M102.5,234.7l-2.9-1.7c-0.4-0.2-0.7-0.8-0.7-1.3v-3.1c0-0.5,0.3-0.8,0.7-0.5l2.9,1.7
					c0.4,0.2,0.7,0.8,0.7,1.3v3.1C103.2,234.6,102.9,234.9,102.5,234.7z"/>
				<path class="st6 SS2" d="M92.8,229.1l-2.9-1.7c-0.4-0.2-0.7-0.8-0.7-1.3V223c0-0.5,0.3-0.8,0.7-0.5l2.9,1.7c0.4,0.2,0.7,0.8,0.7,1.3
					v3.1C93.5,229,93.2,229.3,92.8,229.1z"/>
			</g>
		</g>
		<g>
			<path class="st5" d="M112,206.1L80.4,188c-1.8-1-3.2-3.8-3.2-6.2v-11.3c0-2.4,1.4-3.5,3.2-2.4l31.6,18.1c1.8,1,3.2,3.8,3.2,6.2
				v11.3C115.2,206,113.8,207.1,112,206.1z"/>
			<path class="st6" d="M78.8,167.7c-0.5,0.5-0.8,1.3-0.8,2.4v11.3c0,2.4,1.4,5.1,3.2,6.2l31.6,18.1c0.6,0.3,1.1,0.4,1.6,0.3
				c-0.6,0.6-1.4,0.6-2.4,0.1L80.4,188c-1.8-1-3.2-3.8-3.2-6.2v-11.3C77.2,168.9,77.8,167.9,78.8,167.7z"/>
			<g>
				<path class="st1 SS1" d="M102.5,193.8l-2.9-1.7c-0.4-0.2-0.7-0.8-0.7-1.3v-3.1c0-0.5,0.3-0.8,0.7-0.5l2.9,1.7
					c0.4,0.2,0.7,0.8,0.7,1.3v3.1C103.2,193.8,102.9,194,102.5,193.8z"/>
				<path class="st6 SS2" d="M92.8,188.2l-2.9-1.7c-0.4-0.2-0.7-0.8-0.7-1.3v-3.1c0-0.5,0.3-0.8,0.7-0.5l2.9,1.7
					c0.4,0.2,0.7,0.8,0.7,1.3v3.1C93.5,188.2,93.2,188.4,92.8,188.2z"/>
			</g>
		</g>
		<path class="st2" d="M133.3,166.7l83.6-47.6c3.1-1.8,2.7-4.8-0.9-6.9l-48.1-27.8c-3.5-2-8.9-2.3-11.9-0.5l-83.5,47.7
			c-3.1,1.8-2.7,4.8,0.9,6.9l48.1,27.8C124.9,168.3,130.3,168.5,133.3,166.7z"/>
		<g>
			<path class="st3" d="M138.7,338.8l73-42.1c1.6-0.9,3-3.5,3-5.7v-13.9c0-2.2-1.3-3.2-3-2.2l-73,42.1c-1.6,0.9-3,3.5-3,5.7v13.9
				C135.7,338.7,137.1,339.7,138.7,338.8z"/>
			<path class="st7" d="M140.8,333.9l68.8-39.7c0.8-0.5,1.5-1.8,1.5-2.9v-10.5c0-1.1-0.7-1.6-1.5-1.1l-68.8,39.8
				c-0.8,0.5-1.5,1.8-1.5,2.9v10.5C139.3,333.9,140,334.4,140.8,333.9z"/>
			<path class="st2" d="M195.2,297.2l10.3-5.9c0.8-0.5,1.5-1.7,1.5-2.8l0,0c0-1.1-0.7-1.6-1.5-1.1l-10.3,5.9
				c-0.8,0.5-1.5,1.7-1.5,2.8l0,0C193.8,297.2,194.4,297.7,195.2,297.2z"/>
			<path class="st5 S1" d="M186.5,300.3c0,1.1,0.8,1.5,1.7,1c0.9-0.5,1.7-1.8,1.7-2.9s-0.8-1.5-1.7-1S186.5,299.2,186.5,300.3z"/>
			<path class="st5 S2" d="M180.6,303.7c0,1.1,0.8,1.5,1.7,1c0.9-0.5,1.7-1.8,1.7-2.9s-0.8-1.5-1.7-1
				C181.3,301.4,180.6,302.7,180.6,303.7z"/>
			<path class="st5 S3" d="M174.6,307.2c0,1.1,0.8,1.5,1.7,1s1.7-1.8,1.7-2.9s-0.8-1.5-1.7-1S174.6,306.1,174.6,307.2z"/>
			<path class="st5 S4" d="M168.7,310.6c0,1.1,0.8,1.5,1.7,1s1.7-1.8,1.7-2.9s-0.8-1.5-1.7-1C169.4,308.2,168.7,309.5,168.7,310.6z"/>
			<path class="st5 S5" d="M143.7,328.1l3.5-2c0.5-0.3,0.9-1.1,0.9-1.8v-3.7c0-0.7-0.4-1-0.9-0.7l-3.5,2c-0.5,0.3-0.9,1.1-0.9,1.8v3.7
				C142.8,328.1,143.2,328.4,143.7,328.1z"/>
		</g>
		<g>
			<path class="st3" d="M138.9,308.5l73-42.1c1.6-0.9,3-3.5,3-5.7v-13.9c0-2.2-1.3-3.2-3-2.2l-73,42.1c-1.6,0.9-3,3.5-3,5.7v13.9
				C135.9,308.4,137.3,309.4,138.9,308.5z"/>
			<path class="st7" d="M141,303.6l68.8-39.7c0.8-0.5,1.5-1.8,1.5-2.9v-10.5c0-1.1-0.7-1.6-1.5-1.1L141,289.2
				c-0.8,0.5-1.5,1.8-1.5,2.9v10.5C139.5,303.6,140.2,304.1,141,303.6z"/>
			<path class="st2" d="M195.4,266.9l10.3-5.9c0.8-0.5,1.5-1.7,1.5-2.8l0,0c0-1.1-0.7-1.6-1.5-1.1l-10.3,5.9
				c-0.8,0.5-1.5,1.7-1.5,2.8l0,0C194,266.9,194.6,267.4,195.4,266.9z"/>
			<path class="st5 S1" d="M186.7,270c0,1.1,0.8,1.5,1.7,1c0.9-0.5,1.7-1.8,1.7-2.9s-0.8-1.5-1.7-1S186.7,268.9,186.7,270z"/>
			<path class="st5 S2" d="M180.8,273.4c0,1.1,0.8,1.5,1.7,1c0.9-0.5,1.7-1.8,1.7-2.9s-0.8-1.5-1.7-1
				C181.5,271.1,180.8,272.4,180.8,273.4z"/>
			<path class="st5 S3" d="M174.8,276.9c0,1.1,0.8,1.5,1.7,1c0.9-0.5,1.7-1.8,1.7-2.9s-0.8-1.5-1.7-1S174.8,275.8,174.8,276.9z"/>
			<path class="st5 S4" d="M168.9,280.3c0,1.1,0.8,1.5,1.7,1s1.7-1.8,1.7-2.9s-0.8-1.5-1.7-1C169.6,277.9,168.9,279.2,168.9,280.3z"/>
			<path class="st5 S5" d="M143.9,297.8l3.5-2c0.5-0.3,0.9-1.1,0.9-1.8v-3.7c0-0.7-0.4-1-0.9-0.7l-3.5,2c-0.5,0.3-0.9,1.1-0.9,1.8v3.7
				C143,297.8,143.4,298.1,143.9,297.8z"/>
		</g>
		<g>
			<path class="st3" d="M138.4,280.2l73-42.1c1.6-0.9,3-3.5,3-5.7v-13.9c0-2.2-1.3-3.2-3-2.2l-73,42.1c-1.6,0.9-3,3.5-3,5.7V278
				C135.4,280.1,136.8,281.1,138.4,280.2z"/>
			<path class="st7" d="M140.5,275.3l68.8-39.7c0.8-0.5,1.5-1.8,1.5-2.9v-10.5c0-1.1-0.7-1.6-1.5-1.1l-68.8,39.8
				c-0.8,0.5-1.5,1.8-1.5,2.9v10.5C139,275.3,139.7,275.8,140.5,275.3z"/>
			<path class="st2" d="M194.9,238.6l10.3-5.9c0.8-0.5,1.5-1.7,1.5-2.8l0,0c0-1.1-0.7-1.6-1.5-1.1l-10.3,5.9
				c-0.8,0.5-1.5,1.7-1.5,2.8l0,0C193.5,238.6,194.1,239.1,194.9,238.6z"/>
			<path class="st5 S1" d="M186.2,241.7c0,1.1,0.8,1.5,1.7,1c0.9-0.5,1.7-1.8,1.7-2.9s-0.8-1.5-1.7-1
				C187,239.3,186.2,240.6,186.2,241.7z"/>
			<path class="st5 S2" d="M180.3,245.1c0,1.1,0.8,1.5,1.7,1c0.9-0.5,1.7-1.8,1.7-2.9s-0.8-1.5-1.7-1
				C181,242.8,180.3,244.1,180.3,245.1z"/>
			<path class="st5 S3" d="M174.3,248.6c0,1.1,0.8,1.5,1.7,1s1.7-1.8,1.7-2.9s-0.8-1.5-1.7-1S174.3,247.5,174.3,248.6z"/>
			<path class="st5 S4" d="M168.4,252c0,1.1,0.8,1.5,1.7,1s1.7-1.8,1.7-2.9s-0.8-1.5-1.7-1C169.1,249.6,168.4,250.9,168.4,252z"/>
			<path class="st5 S5" d="M143.4,269.5l3.5-2c0.5-0.3,0.9-1.1,0.9-1.8V262c0-0.7-0.4-1-0.9-0.7l-3.5,2c-0.5,0.3-0.9,1.1-0.9,1.8v3.7
				C142.5,269.5,142.9,269.8,143.4,269.5z"/>
		</g>
		<g>
			<path class="st3" d="M138.4,251.2l73-42.1c1.6-0.9,3-3.5,3-5.7v-13.9c0-2.2-1.3-3.2-3-2.2l-73,42.1c-1.6,0.9-3,3.5-3,5.7V249
				C135.4,251.1,136.8,252.1,138.4,251.2z"/>
			<path class="st7" d="M140.5,246.3l68.8-39.7c0.8-0.5,1.5-1.8,1.5-2.9v-10.5c0-1.1-0.7-1.6-1.5-1.1l-68.8,39.8
				c-0.8,0.5-1.5,1.8-1.5,2.9v10.5C139,246.3,139.7,246.8,140.5,246.3z"/>
			<path class="st2" d="M194.9,209.6l10.3-5.9c0.8-0.5,1.5-1.7,1.5-2.8l0,0c0-1.1-0.7-1.6-1.5-1.1l-10.3,5.9
				c-0.8,0.5-1.5,1.7-1.5,2.8l0,0C193.5,209.6,194.1,210.1,194.9,209.6z"/>
			<path class="st5 S1" d="M186.2,212.7c0,1.1,0.8,1.5,1.7,1c0.9-0.5,1.7-1.8,1.7-2.9s-0.8-1.5-1.7-1
				C187,210.3,186.2,211.6,186.2,212.7z"/>
			<path class="st5 S2" d="M180.3,216.1c0,1.1,0.8,1.5,1.7,1c0.9-0.5,1.7-1.8,1.7-2.9s-0.8-1.5-1.7-1
				C181,213.8,180.3,215.1,180.3,216.1z"/>
			<path class="st5 S3" d="M174.3,219.6c0,1.1,0.8,1.5,1.7,1s1.7-1.8,1.7-2.9s-0.8-1.5-1.7-1S174.3,218.5,174.3,219.6z"/>
			<path class="st5 S4" d="M168.4,223c0,1.1,0.8,1.5,1.7,1s1.7-1.8,1.7-2.9s-0.8-1.5-1.7-1C169.1,220.6,168.4,221.9,168.4,223z"/>
			<path class="st5 S5" d="M143.4,240.5l3.5-2c0.5-0.3,0.9-1.1,0.9-1.8V233c0-0.7-0.4-1-0.9-0.7l-3.5,2c-0.5,0.3-0.9,1.1-0.9,1.8v3.7
				C142.5,240.5,142.9,240.8,143.4,240.5z"/>
		</g>
		<g>
			<path class="st3" d="M138.9,222.7l73-42.1c1.6-0.9,3-3.5,3-5.7V161c0-2.2-1.3-3.2-3-2.2l-73,42.1c-1.6,0.9-3,3.5-3,5.7v13.9
				C135.9,222.6,137.3,223.6,138.9,222.7z"/>
			<path class="st7" d="M141,217.8l68.8-39.7c0.8-0.5,1.5-1.8,1.5-2.9v-10.5c0-1.1-0.7-1.6-1.5-1.1L141,203.4
				c-0.8,0.5-1.5,1.8-1.5,2.9v10.5C139.5,217.8,140.2,218.3,141,217.8z"/>
			<path class="st2" d="M195.4,181.1l10.3-5.9c0.8-0.5,1.5-1.7,1.5-2.8l0,0c0-1.1-0.7-1.6-1.5-1.1l-10.3,5.9
				c-0.8,0.5-1.5,1.7-1.5,2.8l0,0C194,181.1,194.6,181.6,195.4,181.1z"/>
			<path class="st5 S1" d="M186.7,184.2c0,1.1,0.8,1.5,1.7,1c0.9-0.5,1.7-1.8,1.7-2.9c0-1.1-0.8-1.5-1.7-1S186.7,183.1,186.7,184.2z"/>
			<path class="st5 S2" d="M180.8,187.6c0,1.1,0.8,1.5,1.7,1c0.9-0.5,1.7-1.8,1.7-2.9c0-1.1-0.8-1.5-1.7-1
				C181.5,185.3,180.8,186.6,180.8,187.6z"/>
			<path class="st5 S3" d="M174.8,191.1c0,1.1,0.8,1.5,1.7,1c0.9-0.5,1.7-1.8,1.7-2.9s-0.8-1.5-1.7-1S174.8,190,174.8,191.1z"/>
			<path class="st5 S4" d="M168.9,194.5c0,1.1,0.8,1.5,1.7,1s1.7-1.8,1.7-2.9s-0.8-1.5-1.7-1C169.6,192.1,168.9,193.4,168.9,194.5z"/>
			<path class="st5 S5" d="M143.9,212l3.5-2c0.5-0.3,0.9-1.1,0.9-1.8v-3.7c0-0.7-0.4-1-0.9-0.7l-3.5,2c-0.5,0.3-0.9,1.1-0.9,1.8v3.7
				C143,212,143.4,212.3,143.9,212z"/>
		</g>
		<g>
			<path class="st3" d="M139.4,194.5l73-42.1c1.6-0.9,3-3.5,3-5.7v-13.9c0-2.2-1.3-3.2-3-2.2l-73,42.1c-1.6,0.9-3,3.5-3,5.7v13.9
				C136.4,194.4,137.8,195.4,139.4,194.5z"/>
			<path class="st7" d="M141.5,189.6l68.8-39.7c0.8-0.5,1.5-1.8,1.5-2.9v-10.5c0-1.1-0.7-1.6-1.5-1.1l-68.8,39.8
				c-0.8,0.5-1.5,1.8-1.5,2.9v10.5C140,189.6,140.7,190.1,141.5,189.6z"/>
			<path class="st2 " d="M195.9,152.9l10.3-5.9c0.8-0.5,1.5-1.7,1.5-2.8l0,0c0-1.1-0.7-1.6-1.5-1.1l-10.3,5.9
				c-0.8,0.5-1.5,1.7-1.5,2.8l0,0C194.5,152.9,195.1,153.4,195.9,152.9z"/>
			<path class="st5 S1" d="M187.2,156c0,1.1,0.8,1.5,1.7,1c0.9-0.5,1.7-1.8,1.7-2.9c0-1.1-0.8-1.5-1.7-1S187.2,154.9,187.2,156z"/>
			<path class="st5 S2" d="M181.3,159.4c0,1.1,0.8,1.5,1.7,1c0.9-0.5,1.7-1.8,1.7-2.9c0-1.1-0.8-1.5-1.7-1
				C182,157.1,181.3,158.4,181.3,159.4z"/>
			<path class="st5 S3" d="M175.3,162.9c0,1.1,0.8,1.5,1.7,1c0.9-0.5,1.7-1.8,1.7-2.9c0-1.1-0.8-1.5-1.7-1S175.3,161.8,175.3,162.9z"/>
			<path class="st5 S4" d="M169.4,166.3c0,1.1,0.8,1.5,1.7,1s1.7-1.8,1.7-2.9c0-1.1-0.8-1.5-1.7-1C170.1,163.9,169.4,165.2,169.4,166.3
				z"/>
			<path class="st5 S5" d="M144.4,183.8l3.5-2c0.5-0.3,0.9-1.1,0.9-1.8v-3.7c0-0.7-0.4-1-0.9-0.7l-3.5,2c-0.5,0.3-0.9,1.1-0.9,1.8v3.7
				C143.5,183.8,143.9,184.1,144.4,183.8z"/>
		</g>
	</g>
</g>
<path class="st0" d="M234.8,440.3l83.6-47.6c3.1-1.8,2.7-4.8-0.9-6.9L269.4,358c-3.5-2-8.9-2.3-11.9-0.5L174,405.2
		c-3.1,1.8-2.7,4.8,0.9,6.9l48.1,27.8C226.4,441.9,231.8,442.1,234.8,440.3z"/>
<g id="Layer1">
	
	<g>
		<g>
			<path class="st1" d="M171.9,381.9L171.9,381.9V200.1l72.3-18.9l13.3-7.7c3.1-1.8,8.4-1.5,11.9,0.5l12.4,7.2h38.6L309,356.7
				c0.1,1.2-0.6,2.3-2,3.2l-72.1,54.4c-3.1,1.8-8.4,1.5-11.9-0.5L174.9,386C172.8,384.9,171.8,383.4,171.9,381.9z"/>
			<path class="st2" d="M263.1,172.3c2.2,0.1,4.6,0.6,6.4,1.7l12.4,7.2h38.6v182.3c0.1,1.2-0.6,2.3-2,3.2l-83.6,47.6
				c-1.5,0.8-3.5,1.2-5.5,1.2L228.5,232L263.1,172.3z"/>
			<path class="st3" d="M234.1,414.7c-2.6,1.1-6.4,1.1-9.5-0.1V229.9h9.5V414.7z"/>
			<path class="st2" d="M234.8,232.1l83.6-47.6c3.1-1.8,2.7-4.8-0.9-6.9l-48.1-27.8c-3.5-2-8.9-2.3-11.9-0.5L174,196.9
				c-3.1,1.8-2.7,4.8,0.9,6.9l48.1,27.8C226.4,233.6,231.8,233.8,234.8,232.1z"/>
			<path class="st4" d="M174.8,200.4l48.1,27.8c3.5,2,8.9,2.3,11.9,0.5l83.6-47.6c0.7-0.4,1.2-0.9,1.5-1.4c1,1.7,0.6,3.5-1.5,4.7
				L234.8,232c-3.1,1.8-8.4,1.5-11.9-0.5l-48.1-27.8c-2.7-1.6-3.6-3.8-2.4-5.5C172.9,199,173.7,199.8,174.8,200.4z"/>
			<g>
				<path class="st5" d="M232.5,212.7l55.6-32.2c1.4-0.8,1.3-2.3-0.4-3.2l-22.5-13c-1.7-1-4.1-1.1-5.6-0.2L204,196.3
					c-1.4,0.8-1.3,2.3,0.4,3.2l22.5,13C228.5,213.5,231,213.6,232.5,212.7z"/>
				<g>
					<path class="st2" d="M262.5,182l3.2-1.9c0.2-0.1,0.2-0.3-0.1-0.4l-3.1-1.8c-0.2-0.1-0.6-0.1-0.8,0l-3.2,1.9
						c-0.2,0.1-0.2,0.3,0.1,0.4l3.1,1.8C261.9,182.1,262.3,182.1,262.5,182z"/>
					<path class="st2" d="M251.7,188.1l3.2-1.9c0.2-0.1,0.2-0.3-0.1-0.4l-3.1-1.8c-0.2-0.1-0.6-0.1-0.8,0l-3.2,1.9
						c-0.2,0.1-0.2,0.3,0.1,0.4l3.1,1.8C251.2,188.2,251.5,188.3,251.7,188.1z"/>
					<path class="st2" d="M240.9,194.3l3.2-1.9c0.2-0.1,0.2-0.3-0.1-0.4l-3.1-1.8c-0.2-0.1-0.6-0.1-0.8,0l-3.2,1.9
						c-0.2,0.1-0.2,0.3,0.1,0.4l3.1,1.8C240.4,194.4,240.8,194.4,240.9,194.3z"/>
					<path class="st2" d="M230.2,200.5l3.2-1.9c0.2-0.1,0.2-0.3-0.1-0.4l-3.1-1.8c-0.2-0.1-0.6-0.1-0.8,0l-3.2,1.9
						c-0.2,0.1-0.2,0.3,0.1,0.4l3.1,1.8C229.6,200.6,230,200.6,230.2,200.5z"/>
				</g>
				<path class="st3" d="M288.1,180.5L288.1,180.5c-0.2,0-0.3-0.1-0.4-0.2l-22.5-13c-1.7-1-4.1-1.1-5.6-0.2L204,199.3
					c-1.3-0.9-1.4-2.2-0.1-3l55.6-32.2c1.4-0.8,3.9-0.7,5.6,0.2l22.5,13C289.3,178.2,289.5,179.7,288.1,180.5z"/>
			</g>
		</g>
	</g>
	<g>
		<path class="st5" d="M213.5,390.7l-31.6-18.1c-1.8-1-3.2-3.8-3.2-6.2v-11.3c0-2.4,1.4-3.5,3.2-2.4l31.6,18.1
			c1.8,1,3.2,3.8,3.2,6.2v11.3C216.7,390.6,215.3,391.7,213.5,390.7z"/>
		<path class="st6" d="M180.3,352.3c-0.5,0.5-0.8,1.3-0.8,2.4V366c0,2.4,1.4,5.1,3.2,6.2l31.6,18.1c0.6,0.3,1.1,0.4,1.6,0.3
			c-0.6,0.6-1.4,0.6-2.4,0.1l-31.6-18.1c-1.8-1-3.2-3.8-3.2-6.2v-11.3C178.7,353.5,179.3,352.5,180.3,352.3z"/>
		<g>
			<path class="st1 SS1" d="M204,378.4l-2.9-1.7c-0.4-0.2-0.7-0.8-0.7-1.3v-3.1c0-0.5,0.3-0.8,0.7-0.5l2.9,1.7c0.4,0.2,0.7,0.8,0.7,1.3
				v3.1C204.7,378.4,204.4,378.6,204,378.4z"/>
			<path class="st6 SS2" d="M194.3,372.8l-2.9-1.7c-0.4-0.2-0.7-0.8-0.7-1.3v-3.1c0-0.5,0.3-0.8,0.7-0.5l2.9,1.7
				c0.4,0.2,0.7,0.8,0.7,1.3v3.1C195,372.8,194.7,373,194.3,372.8z"/>
		</g>
	</g>
	<g>
		<path class="st5" d="M213.5,349.8l-31.6-18.1c-1.8-1-3.2-3.8-3.2-6.2v-11.3c0-2.4,1.4-3.5,3.2-2.4l31.6,18.1
			c1.8,1,3.2,3.8,3.2,6.2v11.3C216.7,349.7,215.3,350.8,213.5,349.8z"/>
		<path class="st6" d="M180.3,311.5c-0.5,0.5-0.8,1.3-0.8,2.4v11.3c0,2.4,1.4,5.1,3.2,6.2l31.6,18.1c0.6,0.3,1.1,0.4,1.6,0.3
			c-0.6,0.6-1.4,0.6-2.4,0.1l-31.6-18.2c-1.8-1-3.2-3.8-3.2-6.2v-11.3C178.7,312.6,179.3,311.6,180.3,311.5z"/>
		<g>
			<path class="st1 SS1" d="M204,337.5l-2.9-1.7c-0.4-0.2-0.7-0.8-0.7-1.3v-3.1c0-0.5,0.3-0.8,0.7-0.5l2.9,1.7c0.4,0.2,0.7,0.8,0.7,1.3
				v3.1C204.7,337.5,204.4,337.7,204,337.5z"/>
			<path class="st6 SS2" d="M194.3,331.9l-2.9-1.7c-0.4-0.2-0.7-0.8-0.7-1.3v-3.1c0-0.5,0.3-0.8,0.7-0.5l2.9,1.7
				c0.4,0.2,0.7,0.8,0.7,1.3v3.1C195,331.9,194.7,332.1,194.3,331.9z"/>
		</g>
	</g>
	<g>
		<path class="st5" d="M213.5,308.9l-31.6-18.1c-1.8-1-3.2-3.8-3.2-6.2v-11.3c0-2.4,1.4-3.5,3.2-2.4l31.6,18.1
			c1.8,1,3.2,3.8,3.2,6.2v11.3C216.7,308.9,215.3,310,213.5,308.9z"/>
		<path class="st6" d="M180.3,270.6c-0.5,0.5-0.8,1.3-0.8,2.4v11.3c0,2.4,1.4,5.1,3.2,6.2l31.6,18.1c0.6,0.3,1.1,0.4,1.6,0.3
			c-0.6,0.6-1.4,0.6-2.4,0.1l-31.6-18.1c-1.8-1-3.2-3.8-3.2-6.2v-11.3C178.7,271.8,179.3,270.8,180.3,270.6z"/>
		<g>
			<path class="st1 SS1" d="M204,296.7l-2.9-1.7c-0.4-0.2-0.7-0.8-0.7-1.3v-3.1c0-0.5,0.3-0.8,0.7-0.5l2.9,1.7c0.4,0.2,0.7,0.8,0.7,1.3
				v3.1C204.7,296.6,204.4,296.9,204,296.7z"/>
			<path class="st6 SS2" d="M194.3,291.1l-2.9-1.7c-0.4-0.2-0.7-0.8-0.7-1.3V285c0-0.5,0.3-0.8,0.7-0.5l2.9,1.7c0.4,0.2,0.7,0.8,0.7,1.3
				v3.1C195,291,194.7,291.3,194.3,291.1z"/>
		</g>
	</g>
	<g>
		<path class="st5" d="M213.5,268.1L181.9,250c-1.8-1-3.2-3.8-3.2-6.2v-11.3c0-2.4,1.4-3.5,3.2-2.4l31.6,18.1c1.8,1,3.2,3.8,3.2,6.2
			v11.3C216.7,268,215.3,269.1,213.5,268.1z"/>
		<path class="st6" d="M180.3,229.7c-0.5,0.5-0.8,1.3-0.8,2.4v11.3c0,2.4,1.4,5.1,3.2,6.2l31.6,18.1c0.6,0.3,1.1,0.4,1.6,0.3
			c-0.6,0.6-1.4,0.6-2.4,0.1L181.9,250c-1.8-1-3.2-3.8-3.2-6.2v-11.3C178.7,230.9,179.3,229.9,180.3,229.7z"/>
		<g>
			<path class="st1 SS1" d="M204,255.8l-2.9-1.7c-0.4-0.2-0.7-0.8-0.7-1.3v-3.1c0-0.5,0.3-0.8,0.7-0.5l2.9,1.7c0.4,0.2,0.7,0.8,0.7,1.3
				v3.1C204.7,255.8,204.4,256,204,255.8z"/>
			<path class="st6 SS2" d="M194.3,250.2l-2.9-1.7c-0.4-0.2-0.7-0.8-0.7-1.3v-3.1c0-0.5,0.3-0.8,0.7-0.5l2.9,1.7
				c0.4,0.2,0.7,0.8,0.7,1.3v3.1C195,250.2,194.7,250.4,194.3,250.2z"/>
		</g>
	</g>
	<path class="st2" d="M234.8,228.7l83.6-47.6c3.1-1.8,2.7-4.8-0.9-6.9l-48.1-27.8c-3.5-2-8.9-2.3-11.9-0.5L174,193.6
		c-3.1,1.8-2.7,4.8,0.9,6.9l48.1,27.8C226.4,230.3,231.8,230.5,234.8,228.7z"/>
	<g>
		<path class="st3" d="M240.2,400.8l73-42.1c1.6-0.9,3-3.5,3-5.7v-13.9c0-2.2-1.3-3.2-3-2.2l-73,42.1c-1.6,0.9-3,3.5-3,5.7v13.9
			C237.2,400.7,238.6,401.7,240.2,400.8z"/>
		<path class="st7" d="M242.3,395.9l68.8-39.7c0.8-0.5,1.5-1.8,1.5-2.9v-10.5c0-1.1-0.7-1.6-1.5-1.1l-68.8,39.8
			c-0.8,0.5-1.5,1.8-1.5,2.9v10.5C240.8,395.9,241.5,396.4,242.3,395.9z"/>
		<path class="st2" d="M296.7,359.2l10.3-5.9c0.8-0.5,1.5-1.7,1.5-2.8l0,0c0-1.1-0.7-1.6-1.5-1.1l-10.3,5.9
			c-0.8,0.5-1.5,1.7-1.5,2.8l0,0C295.3,359.2,295.9,359.7,296.7,359.2z"/>
		<path class="st5 S1" d="M288,362.3c0,1.1,0.8,1.5,1.7,1c0.9-0.5,1.7-1.8,1.7-2.9s-0.8-1.5-1.7-1S288,361.2,288,362.3z"/>
		<path class="st5 S2" d="M282.1,365.7c0,1.1,0.8,1.5,1.7,1c0.9-0.5,1.7-1.8,1.7-2.9s-0.8-1.5-1.7-1
			C282.8,363.4,282.1,364.7,282.1,365.7z"/>
		<path class="st5 S3" d="M276.1,369.2c0,1.1,0.8,1.5,1.7,1s1.7-1.8,1.7-2.9s-0.8-1.5-1.7-1S276.1,368.1,276.1,369.2z"/>
		<path class="st5 S4" d="M270.2,372.6c0,1.1,0.8,1.5,1.7,1s1.7-1.8,1.7-2.9s-0.8-1.5-1.7-1C270.9,370.2,270.2,371.5,270.2,372.6z"/>
		<path class="st5 S5" d="M245.2,390.1l3.5-2c0.5-0.3,0.9-1.1,0.9-1.8v-3.7c0-0.7-0.4-1-0.9-0.7l-3.5,2c-0.5,0.3-0.9,1.1-0.9,1.8v3.7
			C244.3,390.1,244.7,390.4,245.2,390.1z"/>
	</g>
	<g>
		<path class="st3" d="M240.4,370.5l73-42.1c1.6-0.9,3-3.5,3-5.7v-13.9c0-2.2-1.3-3.2-3-2.2l-73,42.1c-1.6,0.9-3,3.5-3,5.7v13.9
			C237.4,370.4,238.8,371.4,240.4,370.5z"/>
		<path class="st7" d="M242.5,365.6l68.8-39.7c0.8-0.5,1.5-1.8,1.5-2.9v-10.5c0-1.1-0.7-1.6-1.5-1.1l-68.8,39.8
			c-0.8,0.5-1.5,1.8-1.5,2.9v10.5C241,365.6,241.7,366.1,242.5,365.6z"/>
		<path class="st2" d="M296.9,328.9l10.3-5.9c0.8-0.5,1.5-1.7,1.5-2.8l0,0c0-1.1-0.7-1.6-1.5-1.1l-10.3,5.9
			c-0.8,0.5-1.5,1.7-1.5,2.8l0,0C295.5,328.9,296.1,329.4,296.9,328.9z"/>
		<path class="st5 S1" d="M288.2,332c0,1.1,0.8,1.5,1.7,1c0.9-0.5,1.7-1.8,1.7-2.9s-0.8-1.5-1.7-1S288.2,330.9,288.2,332z"/>
		<path class="st5 S2" d="M282.3,335.4c0,1.1,0.8,1.5,1.7,1c0.9-0.5,1.7-1.8,1.7-2.9s-0.8-1.5-1.7-1C283,333.1,282.3,334.4,282.3,335.4
			z"/>
		<path class="st5 S3" d="M276.3,338.9c0,1.1,0.8,1.5,1.7,1s1.7-1.8,1.7-2.9s-0.8-1.5-1.7-1C277.1,336.5,276.3,337.8,276.3,338.9z"/>
		<path class="st5 S4" d="M270.4,342.3c0,1.1,0.8,1.5,1.7,1s1.7-1.8,1.7-2.9s-0.8-1.5-1.7-1C271.1,339.9,270.4,341.2,270.4,342.3z"/>
		<path class="st5 S5" d="M245.4,359.8l3.5-2c0.5-0.3,0.9-1.1,0.9-1.8v-3.7c0-0.7-0.4-1-0.9-0.7l-3.5,2c-0.5,0.3-0.9,1.1-0.9,1.8v3.7
			C244.5,359.8,244.9,360.1,245.4,359.8z"/>
	</g>
	<g>
		<path class="st3" d="M239.9,342.2l73-42.1c1.6-0.9,3-3.5,3-5.7v-13.9c0-2.2-1.3-3.2-3-2.2l-73,42.1c-1.6,0.9-3,3.5-3,5.7V340
			C236.9,342.1,238.3,343.1,239.9,342.2z"/>
		<path class="st7" d="M242,337.3l68.8-39.7c0.8-0.5,1.5-1.8,1.5-2.9v-10.5c0-1.1-0.7-1.6-1.5-1.1L242,322.9
			c-0.8,0.5-1.5,1.8-1.5,2.9v10.5C240.5,337.3,241.2,337.8,242,337.3z"/>
		<path class="st2" d="M296.4,300.6l10.3-5.9c0.8-0.5,1.5-1.7,1.5-2.8l0,0c0-1.1-0.7-1.6-1.5-1.1l-10.3,5.9
			c-0.8,0.5-1.5,1.7-1.5,2.8l0,0C295,300.6,295.6,301.1,296.4,300.6z"/>
		<path class="st5 S1" d="M287.7,303.7c0,1.1,0.8,1.5,1.7,1c0.9-0.5,1.7-1.8,1.7-2.9s-0.8-1.5-1.7-1
			C288.5,301.3,287.7,302.6,287.7,303.7z"/>
		<path class="st5 S2" d="M281.8,307.1c0,1.1,0.8,1.5,1.7,1c0.9-0.5,1.7-1.8,1.7-2.9s-0.8-1.5-1.7-1
			C282.5,304.8,281.8,306.1,281.8,307.1z"/>
		<path class="st5 S3" d="M275.8,310.6c0,1.1,0.8,1.5,1.7,1s1.7-1.8,1.7-2.9s-0.8-1.5-1.7-1S275.8,309.5,275.8,310.6z"/>
		<path class="st5 S4" d="M269.9,314c0,1.1,0.8,1.5,1.7,1s1.7-1.8,1.7-2.9s-0.8-1.5-1.7-1C270.6,311.6,269.9,312.9,269.9,314z"/>
		<path class="st5 S5" d="M244.9,331.5l3.5-2c0.5-0.3,0.9-1.1,0.9-1.8V324c0-0.7-0.4-1-0.9-0.7l-3.5,2c-0.5,0.3-0.9,1.1-0.9,1.8v3.7
			C244,331.5,244.4,331.8,244.9,331.5z"/>
	</g>
	<g>
		<path class="st3" d="M239.9,313.2l73-42.1c1.6-0.9,3-3.5,3-5.7v-13.9c0-2.2-1.3-3.2-3-2.2l-73,42.1c-1.6,0.9-3,3.5-3,5.7V311
			C236.9,313.1,238.3,314.1,239.9,313.2z"/>
		<path class="st7" d="M242,308.3l68.8-39.7c0.8-0.5,1.5-1.8,1.5-2.9v-10.5c0-1.1-0.7-1.6-1.5-1.1L242,293.9
			c-0.8,0.5-1.5,1.8-1.5,2.9v10.5C240.5,308.3,241.2,308.8,242,308.3z"/>
		<path class="st2" d="M296.4,271.6l10.3-5.9c0.8-0.5,1.5-1.7,1.5-2.8l0,0c0-1.1-0.7-1.6-1.5-1.1l-10.3,5.9
			c-0.8,0.5-1.5,1.7-1.5,2.8l0,0C295,271.6,295.6,272.1,296.4,271.6z"/>
		<path class="st5 S1" d="M287.7,274.7c0,1.1,0.8,1.5,1.7,1c0.9-0.5,1.7-1.8,1.7-2.9s-0.8-1.5-1.7-1
			C288.5,272.3,287.7,273.6,287.7,274.7z"/>
		<path class="st5 S2" d="M281.8,278.1c0,1.1,0.8,1.5,1.7,1c0.9-0.5,1.7-1.8,1.7-2.9s-0.8-1.5-1.7-1
			C282.5,275.8,281.8,277.1,281.8,278.1z"/>
		<path class="st5 S3" d="M275.8,281.6c0,1.1,0.8,1.5,1.7,1s1.7-1.8,1.7-2.9s-0.8-1.5-1.7-1S275.8,280.5,275.8,281.6z"/>
		<path class="st5 S4" d="M269.9,285c0,1.1,0.8,1.5,1.7,1s1.7-1.8,1.7-2.9s-0.8-1.5-1.7-1C270.6,282.6,269.9,283.9,269.9,285z"/>
		<path class="st5 S5" d="M244.9,302.5l3.5-2c0.5-0.3,0.9-1.1,0.9-1.8V295c0-0.7-0.4-1-0.9-0.7l-3.5,2c-0.5,0.3-0.9,1.1-0.9,1.8v3.7
			C244,302.5,244.4,302.8,244.9,302.5z"/>
	</g>
	<g>
		<path class="st3" d="M240.4,284.7l73-42.1c1.6-0.9,3-3.5,3-5.7V223c0-2.2-1.3-3.2-3-2.2l-73,42.1c-1.6,0.9-3,3.5-3,5.7v13.9
			C237.4,284.6,238.8,285.6,240.4,284.7z"/>
		<path class="st7" d="M242.5,279.8l68.8-39.7c0.8-0.5,1.5-1.8,1.5-2.9v-10.5c0-1.1-0.7-1.6-1.5-1.1l-68.8,39.8
			c-0.8,0.5-1.5,1.8-1.5,2.9v10.5C241,279.8,241.7,280.3,242.5,279.8z"/>
		<path class="st2" d="M296.9,243.1l10.3-5.9c0.8-0.5,1.5-1.7,1.5-2.8l0,0c0-1.1-0.7-1.6-1.5-1.1l-10.3,5.9
			c-0.8,0.5-1.5,1.7-1.5,2.8l0,0C295.5,243.1,296.1,243.6,296.9,243.1z"/>
		<path class="st5 S1" d="M288.2,246.2c0,1.1,0.8,1.5,1.7,1c0.9-0.5,1.7-1.8,1.7-2.9c0-1.1-0.8-1.5-1.7-1S288.2,245.1,288.2,246.2z"/>
		<path class="st5 S2" d="M282.3,249.6c0,1.1,0.8,1.5,1.7,1c0.9-0.5,1.7-1.8,1.7-2.9c0-1.1-0.8-1.5-1.7-1
			C283,247.3,282.3,248.6,282.3,249.6z"/>
		<path class="st5 S3" d="M276.3,253.1c0,1.1,0.8,1.5,1.7,1s1.7-1.8,1.7-2.9s-0.8-1.5-1.7-1C277.1,250.7,276.3,252,276.3,253.1z"/>
		<path class="st5 S4" d="M270.4,256.5c0,1.1,0.8,1.5,1.7,1s1.7-1.8,1.7-2.9s-0.8-1.5-1.7-1C271.1,254.1,270.4,255.4,270.4,256.5z"/>
		<path class="st5 S5" d="M245.4,274l3.5-2c0.5-0.3,0.9-1.1,0.9-1.8v-3.7c0-0.7-0.4-1-0.9-0.7l-3.5,2c-0.5,0.3-0.9,1.1-0.9,1.8v3.7
			C244.5,274,244.9,274.3,245.4,274z"/>
	</g>
	<g>
		<path class="st3" d="M240.9,256.5l73-42.1c1.6-0.9,3-3.5,3-5.7v-13.9c0-2.2-1.3-3.2-3-2.2l-73,42.1c-1.6,0.9-3,3.5-3,5.7v13.9
			C237.9,256.4,239.3,257.4,240.9,256.5z"/>
		<path class="st7" d="M243,251.6l68.8-39.7c0.8-0.5,1.5-1.8,1.5-2.9v-10.5c0-1.1-0.7-1.6-1.5-1.1L243,237.2
			c-0.8,0.5-1.5,1.8-1.5,2.9v10.5C241.5,251.6,242.2,252.1,243,251.6z"/>
		<path class="st2" d="M297.4,214.9l10.3-5.9c0.8-0.5,1.5-1.7,1.5-2.8l0,0c0-1.1-0.7-1.6-1.5-1.1l-10.3,5.9
			c-0.8,0.5-1.5,1.7-1.5,2.8l0,0C296,214.9,296.6,215.4,297.4,214.9z"/>
		<path class="st5 S1" d="M288.7,218c0,1.1,0.8,1.5,1.7,1c0.9-0.5,1.7-1.8,1.7-2.9c0-1.1-0.8-1.5-1.7-1S288.7,216.9,288.7,218z"/>
		<path class="st5 S2" d="M282.8,221.4c0,1.1,0.8,1.5,1.7,1c0.9-0.5,1.7-1.8,1.7-2.9c0-1.1-0.8-1.5-1.7-1
			C283.5,219.1,282.8,220.4,282.8,221.4z"/>
		<path class="st5 S3" d="M276.8,224.9c0,1.1,0.8,1.5,1.7,1s1.7-1.8,1.7-2.9c0-1.1-0.8-1.5-1.7-1C277.6,222.5,276.8,223.8,276.8,224.9z
			"/>
		<path class="st5 S4" d="M270.9,228.3c0,1.1,0.8,1.5,1.7,1s1.7-1.8,1.7-2.9c0-1.1-0.8-1.5-1.7-1C271.6,225.9,270.9,227.2,270.9,228.3z
			"/>
		<path class="st5 S5" d="M245.9,245.8l3.5-2c0.5-0.3,0.9-1.1,0.9-1.8v-3.7c0-0.7-0.4-1-0.9-0.7l-3.5,2c-0.5,0.3-0.9,1.1-0.9,1.8v3.7
			C245,245.8,245.4,246.1,245.9,245.8z"/>
	</g>
</g>
</svg>
