<?xml version="1.0" encoding="utf-8"?>
<!-- Generator: Adobe Illustrator 23.0.3, SVG Export Plug-In . SVG Version: 6.00 Build 0)  -->
<svg version="1.1" id="Layer_1" xmlns="http://www.w3.org/2000/svg" xmlns:xlink="http://www.w3.org/1999/xlink" x="0px" y="0px"
	 viewBox="0 0 200 200" style="enable-background:new 0 0 200 200;" xml:space="preserve">
<style type="text/css">
	.st0{clip-path:url(#SVGID_2_);}
	.st1{fill:#4A7899;}
	.st2{fill:#61A2D8;}
	.st3{opacity:0.75;fill:#3BC2D1;enable-background:new    ;}
	.st4{fill:#3BC2D1;}
	.st5{fill:#3AC1D1;}
	.st6{opacity:0.75;fill:#38C1D1;enable-background:new    ;}
	.st7{fill:#35C1D1;}
	.st8{fill:#2B8BD3;}
	.st9{fill:#2BC3D3;}
	.st10{fill:#7271B3;}
	.st11{fill:#F48C7F;}
	.st12{fill:#FFA42F;}
	.st13{fill:#F7A491;}
	.st14{fill:#536853;}
	.st15{fill:#2D2861;}
	.st16{fill:#352E73;}
	.st17{fill:#FCC13F;}
	.st18{fill:#F47458;}
	.st19{fill:#6D6D6D;}
	.st20{fill:#FFFFFF;}
	.st21{fill:#ECB865;}
	.st22{fill:#51322D;}
	.st23{fill:#EAEAEA;}
	.st24{fill:#172F6C;}
	.st25{fill:#FB9800;}
	.st26{fill:#4A8399;}
	.st27{fill:url(#SVGID_3_);}
	.st28{fill:url(#SVGID_4_);}
	.st29{fill:url(#SVGID_5_);}
	.st30{fill:url(#SVGID_6_);}
	.st31{fill:url(#SVGID_7_);}
	.st32{fill:url(#SVGID_8_);}
	.st33{fill:url(#SVGID_9_);}
	.st34{fill:url(#SVGID_10_);}
	.st35{fill:url(#SVGID_11_);}
	.st36{fill:#8CC63F; opacity:1; 	animation: a2 2s linear 1 forwards;}
	@keyframes a2{
		100%{opacity:0;}
	}
	.st37{fill:url(#SVGID_12_);}
	.st38{fill:url(#SVGID_13_);}
	.st39{fill:url(#SVGID_14_);}
	.st40{fill:url(#SVGID_15_);}
	.st41{fill:url(#SVGID_16_);}
	.st42{fill:url(#SVGID_17_);}
	.st43{fill:url(#SVGID_18_);}
	.st44{fill:url(#SVGID_19_);}
	.st45{fill:url(#SVGID_20_);}
	.st46{fill:url(#SVGID_21_);}
	.st47{fill:url(#SVGID_22_);}
	.st48{fill:url(#SVGID_23_);}
	.st49{fill:url(#SVGID_24_);}
	.st50{fill:url(#SVGID_25_);}
	.st51{fill:url(#SVGID_26_);}
	.st52{fill:url(#SVGID_27_);}
	.st53{fill:url(#SVGID_28_);}
	.st54{fill:url(#SVGID_29_);}
	.st55{fill:url(#SVGID_30_);}
	.st56{fill:url(#SVGID_31_);}
	.st57{fill:url(#SVGID_32_);}
	.st58{fill:url(#SVGID_33_);}
	.st59{fill:url(#SVGID_34_);}
	.st60{fill:url(#SVGID_35_);}
	.st61{fill:url(#SVGID_36_);}
	.st62{fill:url(#SVGID_37_);}
	.st63{fill:url(#SVGID_38_);}
	.st64{fill:url(#SVGID_39_);}
	.st65{fill:url(#SVGID_40_);}
	.st66{fill:url(#SVGID_41_);}
	.st67{fill:url(#SVGID_42_);}
	.st68{fill:#FEC100;}
	.st69{fill:#13375B;}
	.st70{fill:#355389;}
	.st71{fill:#466EB6;}
	.st72{display:none;}
	.st73{display:inline;}
	.st74{clip-path:url(#SVGID_44_);}
	.st75{clip-path:url(#SVGID_46_);}
	.st76{display:inline;fill:none;stroke:#394A56;stroke-width:0.15;stroke-miterlimit:10;}
	.st77{display:inline;fill:#424141;stroke:#394A56;stroke-width:0.15;stroke-miterlimit:10;}
	.st78{display:inline;opacity:0.4;}
	.st79{
		fill:#3A3A5B;
	}
	
	.test{
		opacity:0;
		transform: scale(10,10);
		animation: a1 2s linear 1 forwards;
	}
	@keyframes a1{
		
		100%{opacity: 2; transform: scale(1,1);}
	}
</style>
<g>
	<g id="server">
		<g>
			<g>
				<defs>
					<path id="SVGID_1_" d="M128.6,77.2L128.6,77.2L128.6,77.2c-0.1-0.3-0.3-0.6-0.5-0.8l0,0c-0.1-0.1-0.3-0.2-0.4-0.2
						c0,0,0,0-0.1,0c-0.2,0-0.3-0.1-0.5-0.1h-2.2v-3.4H79.8v3.4h-2.2c-0.2,0-0.3,0-0.5,0.1c0,0,0,0-0.1,0c-0.1,0.1-0.3,0.1-0.4,0.2
						l0,0c-0.3,0.2-0.4,0.5-0.5,0.8l0,0l0,0c0,0.1,0,0.2,0,0.4v12.2l0,0c0,0.3,0.1,0.6,0.3,0.9s0.4,0.4,0.7,0.6
						c0.2,0.1,0.4,0.1,0.6,0.1h2.1v3.7h-2.2c-0.1,0-0.2,0-0.3,0h-0.1c-0.1,0-0.1,0-0.2,0s-0.1,0.1-0.2,0.1c0,0,0,0-0.1,0
						c-0.1,0.1-0.2,0.1-0.2,0.2l0,0c-0.3,0.3-0.5,0.7-0.5,1.1l0,0l0,0l0,0v12.2l0,0c0,0.3,0.1,0.6,0.3,0.9s0.4,0.4,0.7,0.6
						c0.2,0.1,0.4,0.1,0.6,0.1h2.1v3.7h-2.1c-0.2,0-0.4,0-0.5,0.1c0,0,0,0-0.1,0c-0.2,0.1-0.3,0.1-0.4,0.3l0,0
						c-0.1,0.1-0.2,0.2-0.3,0.4l0,0c-0.1,0.2-0.1,0.3-0.2,0.5l0,0l0,0c0,0.1,0,0.2,0,0.2v12.1v0.1c0,0.3,0.1,0.6,0.3,0.9
						c0.2,0.3,0.4,0.4,0.7,0.6c0.2,0.1,0.4,0.1,0.6,0.1h2.1v5h19.3v8.9h-6.5v1.2h-3.2H76.1v4.8h13.3h3.2v1h19.6v-1h2.5h13.9v-4.7
						h-14h-2.5v-1.2h-6.5v-8.9h19.3v-5h2.2c0.9,0,1.6-0.7,1.6-1.6v-0.1v-12.1c0-0.1,0-0.2,0-0.2l0,0l0,0c0-0.2-0.1-0.4-0.2-0.5l0,0
						c-0.1-0.1-0.2-0.3-0.3-0.4l0,0c-0.1-0.1-0.3-0.2-0.4-0.3c0,0,0,0-0.1,0c-0.2-0.1-0.3-0.1-0.5-0.1H125v-3.7h2.2
						c0.9,0,1.6-0.7,1.6-1.6l0,0V96.6l0,0l0,0l0,0c0-0.4-0.2-0.8-0.5-1.1l0,0c-0.1-0.1-0.1-0.1-0.2-0.2c0,0,0,0-0.1,0
						c-0.1,0-0.1-0.1-0.2-0.1s-0.1,0-0.2,0h-0.1c-0.1,0-0.2,0-0.3,0H125v-3.7h2.2c0.9,0,1.6-0.7,1.6-1.6l0,0V77.6
						C128.6,77.5,128.6,77.3,128.6,77.2z"/>
				</defs>
				<clipPath id="SVGID_2_">
					<use xlink:href="#SVGID_1_"  style="overflow:visible;"/>
				</clipPath>
				<g class="st0">
					<g>
						<rect x="76" y="144.5" class="st1" width="52.5" height="4.8"/>
						<rect x="89.2" y="144.5" class="st1" width="25.3" height="4.8"/>
						<g>
							<rect x="99" y="130.9" class="st1" width="6.6" height="14.9"/>
							<rect x="92.5" y="143.3" class="st1" width="19.6" height="6.9"/>
						</g>
					</g>
					<g>
						<rect x="79.7" y="72.6" class="st1" width="45.1" height="61.8"/>
						<rect x="79.7" y="81.9" class="st1" width="45.1" height="52.5"/>
						<path class="st2" d="M76.1,77.6v12.2c0,0.9,0.7,1.6,1.6,1.6h49.4c0.9,0,1.6-0.7,1.6-1.6V77.6c0-0.9-0.7-1.6-1.6-1.6H77.6
							C76.8,76,76.1,76.7,76.1,77.6z"/>
						<path class="st2" d="M76.1,96.6v12.2c0,0.9,0.7,1.6,1.6,1.6h49.4c0.9,0,1.6-0.7,1.6-1.6V96.6c0-0.9-0.7-1.6-1.6-1.6H77.6
							C76.8,95.1,76.1,95.8,76.1,96.6z"/>
						<path class="st2" d="M76.1,115.6v12.2c0,0.9,0.7,1.6,1.6,1.6h49.4c0.9,0,1.6-0.7,1.6-1.6v-12.2c0-0.9-0.7-1.6-1.6-1.6H77.6
							C76.8,114.1,76.1,114.8,76.1,115.6z"/>
						<path class="st3" d="M128.6,77.2c-0.2-0.7-0.8-1.2-1.5-1.2H77.6c-0.7,0-1.4,0.5-1.5,1.2H128.6z"/>
						<path class="st4" d="M76.1,89.8L76.1,89.8c0,0.9,0.7,1.6,1.6,1.6h49.4c0.9,0,1.6-0.7,1.6-1.6l0,0H76.1z"/>
						<path class="st3" d="M128.6,96.6c0-0.9-0.7-1.5-1.6-1.5H77.6c-0.9,0-1.6,0.7-1.6,1.5H128.6z"/>
						<path class="st5" d="M76.1,108.8L76.1,108.8c0,0.9,0.7,1.6,1.6,1.6h49.4c0.9,0,1.6-0.7,1.6-1.6l0,0H76.1z"/>
						<path class="st6" d="M128.6,115.4c-0.1-0.8-0.8-1.3-1.5-1.3H77.6c-0.8,0-1.4,0.6-1.5,1.3H128.6z"/>
						<path class="st7" d="M76.1,127.7L76.1,127.7c0,1,0.7,1.7,1.6,1.7h49.4c0.9,0,1.6-0.7,1.6-1.6v-0.1H76.1z"/>
						<path class="st8" d="M116.1,82.2c0,1-0.9,1.9-1.9,1.9s-1.9-0.9-1.9-1.9s0.9-1.9,1.9-1.9C115.3,80.3,116.1,81.2,116.1,82.2z"/>
						<circle class="st9" cx="119.8" cy="82.2" r="1.9"/>
						<path class="st8" d="M116.1,100.8c0,1-0.9,1.9-1.9,1.9s-1.9-0.9-1.9-1.9s0.9-1.9,1.9-1.9C115.3,98.9,116.1,99.8,116.1,100.8z"
							/>
						<circle class="st9" cx="119.8" cy="100.8" r="1.9"/>
						<path class="st8" d="M116.1,119.5c0,1-0.9,1.9-1.9,1.9s-1.9-0.9-1.9-1.9s0.9-1.9,1.9-1.9C115.3,117.6,116.1,118.4,116.1,119.5
							z"/>
						<circle class="st9" cx="119.8" cy="119.5" r="1.9"/>
					</g>
				</g>
			</g>
		</g>
	</g>
	<g id="boy">
		<path class="st10" d="M57.9,130.2l-1.7-4.2c-0.8-2-3.4-3.7-5.3-2.8l-4.7-10c-0.4-1-1.5-1.4-2.5-1l0,0c-1,0.4-1.4,1.5-1,2.5
			l4.7,9.8c-4.4,1.6-0.3,7.4,0.5,9.3c0,0-1.3,2.8-0.6,5.5c1.9,7.2,6.4,7.7,9.8,6.3l2.1-0.8c3.4-1.4,3.3-8,1.5-11.7
			C60,132.1,57.9,130.2,57.9,130.2z"/>
		<g>
			<path class="st11" d="M68.7,125.7c-1.6,0.5-5.1,3.1-5.3,3l-4-3.2l-2.5,2.2c0,0,5.5,4.1,5.9,4.3c0.2,0.1,4.6-3.6,6.9-4.7
				C69.6,126.4,69.1,126.4,68.7,125.7z"/>
			<path class="st12" d="M62.3,127.3l-2.5,3.3c0,0-2.7-2.1-3.7-3.2c-1.2-1.3-2.5-4.2-2.3-4.3c0.5-0.3,1.7-0.5,2.5-0.4
				C59.1,123.4,62.3,127.3,62.3,127.3z"/>
		</g>
		<path class="st13" d="M60.6,171.2l-0.1,2.1c0,0.3-0.2,0.9-0.2,1.2c0,0.9,4-0.8,3.1-1.2c-0.1,0-0.5-0.3-0.5-0.6
			c0-0.5-0.1-1.4-0.1-1.4L60.6,171.2z"/>
		<path class="st14" d="M63.4,173.2c0,0-0.9,0.3-1.4,0.3c-0.5,0.1-1.2-0.3-1.5-0.1c-0.4,0.2-0.3,2.2-0.3,2.2s5.1,0.1,6.8,0
			C67.6,175.7,65.3,173.9,63.4,173.2z"/>
		<path class="st13" d="M51.8,171.4l-0.1,2.1c0,0.3-0.2,0.9-0.2,1.2c0,0.9,4-0.8,3.1-1.2c-0.1,0-0.6-0.5-0.7-0.8c0-0.5,0-1.2,0-1.2
			L51.8,171.4z"/>
		<path class="st14" d="M54.6,173.4c0,0-0.9,0.3-1.4,0.3c-0.5,0.1-1.1-0.5-1.5-0.4c-0.4,0.2-0.5,2.3-0.5,2.3s5.5,0.2,6.8,0.1
			C58.6,175.7,56.5,174.1,54.6,173.4z"/>
		<path class="st15" d="M58.1,141.4l1.7,0.7l3.6,17l-0.1,12.8l-2.9,0.1c0,0-1.3-11.2-1.3-12c0-0.9-6.2-15.1-6.2-15.1L58.1,141.4z"/>
		<path class="st16" d="M56.8,142.3c0,0-0.5,12.9-0.5,15.1c0,2.2-0.7,14.6-0.7,14.6l-4,0.1c0,0-0.2-3.8-0.5-9.3c0-0.9,0.1-2.6,0-3.5
			c-0.4-6.5-1.3-12.6-0.9-15c0.1-0.4,0.2-1.4,0.4-1.7C52.6,140.8,56.8,142.3,56.8,142.3z"/>
		<path class="st17" d="M52.1,122.7c0,0-2,0.3-2.5,0.7c-0.6,0.4-1.2,1.4-1.2,1.4s2.4,11.5,2.4,13.4c0,1.5-0.5,5.2-0.5,5.2
			s7.3,0.5,10.1-0.6c0,0-0.9-4.4-0.9-5.5s-1-11.6-1.3-12.3c-0.2-0.7-0.6-1.8-2-2.1C54.9,122.5,52.1,122.7,52.1,122.7z"/>
		<path class="st13" d="M52.7,119.6l-0.5,3.1c0,0,1.5,2.7,2.6,2.3c0.9-0.3,0.6-2.4,0.6-2.4s-0.5-1.8-0.3-2.7
			C55.2,119,52.7,119.6,52.7,119.6z"/>
		<path class="st13" d="M50,130c0,0-0.4,2.4-0.6,3.3c-0.3,2.1,0.2,2.3,0.2,2.3s4,0.8,5.7,1.1c0,0,0.3,0.1,0.8-0.1
			c0.5-0.2,1.8-0.4,1.9-0.3c0.2,0,1.1,0.4,1.2,0.6c0.1,0.1,0.3,0.3,0.2,0.4c0,0,0.3,0.4,0.2,0.4c-0.1,0.1-0.7-0.2-0.9-0.2
			c-0.2-0.1-0.5-0.1-0.7-0.1c-0.1,0.1-0.8,0.4-1.1,0.5c-0.4,0-9.8,0.1-10.2,0c-0.8-0.1-1-5.9-0.3-7.5C48.4,125.3,50,130,50,130z"/>
		<path class="st18" d="M55.3,121.7c0.1-0.8-2.8-0.8-2.8-0.8l-0.1,0.4c0.1,0.2,0.6,0.8,0.7,0.9c0.6,0.5,1.5,0.7,2.2,0.5
			C55.3,122.3,55.2,122,55.3,121.7z"/>
		<g>
			<path class="st13" d="M54.2,116.2c0-0.1-2.3,2.9-1.9,4.3c0.3,1.3,1.8,2.5,2.8,2.1c1.1-0.4,2.9-3.9,2.1-5.5
				C56.4,115.5,54.2,116.2,54.2,116.2z"/>
			<path class="st15" d="M57.7,115.1c-1.1-0.3-2.1-0.1-2.5,0c-0.5-0.2-1.2-0.3-2.4,0.4c-1.5,0.9-1.7,2.6-1.2,3.8
				c0.3,0.6,0.3,1.2,0.2,1.5c0,0.1,0.1,0.2,0.2,0.1l0,0c0.3-0.3,0.5-0.6,0.7-0.9c0.1-0.2,0.2-0.4,0.2-0.7c0-0.6,0.9-0.5,1.3-0.8
				c0.3-0.2,0.7-0.9,1.2-1.3l0.5-0.2c0,0,0.9-0.1,1.5,0.3C57.9,118,59.1,115.6,57.7,115.1z"/>
			<path class="st13" d="M53.8,119.2c-0.2,0.4-0.6,0.6-0.8,0.5c-0.2-0.1-0.2-0.5,0-0.9s0.6-0.6,0.8-0.5
				C54,118.4,54,118.8,53.8,119.2z"/>
		</g>
		<path class="st17" d="M50,123.2c0,0-1.4,0.3-2.4,1.6c-0.9,1.3-1.8,8.1-1.8,8.1l3.8,0.6l0.3-3.3l1-1.5L50,123.2z"/>
		<path class="st13" d="M69.6,124.5c0,0-1,0.8-0.9,1.3s0.7,1.4,0.9,1.4c0.1,0,1.7-1.1,1.9-1.3c0.1-0.1,0.2-0.3,0.1-0.3
			c0,0-0.2,0-0.3,0c-0.1,0-0.6,0.2-0.6,0.2s0.5-0.3,0.6-0.5c0-0.1-0.1-0.2-0.1-0.2c-0.2,0.1-0.7,0.3-0.7,0.3s0.5-0.4,0.5-0.6
			c-0.1-0.2-0.3-0.1-0.3-0.1c-0.1,0-0.4,0.3-0.4,0.3s0.5-0.4,0.3-0.5c-0.1,0-0.6,0.2-0.6,0.2L69.6,124.5z"/>
		<polygon class="st10" points="49.8,122.6 59.4,132.3 59.4,133.5 48.4,123.4 		"/>
		<g>
			<path class="st19" d="M70,128.2l-1.9-1.2c-0.1-0.1-0.2-0.3-0.1-0.4l1.9-3c0.1-0.1,0.3-0.2,0.4-0.1l1.9,1.2
				c0.1,0.1,0.2,0.3,0.1,0.4l-1.9,3C70.4,128.3,70.2,128.3,70,128.2z"/>
			
				<rect x="68.5" y="124.5" transform="matrix(0.5401 -0.8416 0.8416 0.5401 -73.6527 116.9438)" class="st20" width="3.3" height="2.7"/>
			<g>
				<path class="st21" d="M69.3,127.4C69.3,127.4,69.2,127.3,69.3,127.4C69.2,127.3,69.2,127.3,69.3,127.4
					C69.2,127.3,69.2,127.3,69.3,127.4L69.3,127.4L69.3,127.4c-0.1-0.1-0.1-0.1-0.1-0.1c0,0,0,0-0.1,0c0,0,0,0,0,0.1v0.1l0,0l0,0
					l0,0l0,0h0.1C69.2,127.5,69.2,127.5,69.3,127.4L69.3,127.4z"/>
			</g>
		</g>
		<path class="st22" d="M53.8,136.4c0,0-0.5,0.6-0.2,1.5h0.2c0,0-0.2-1,0.3-1.4L53.8,136.4z"/>
		<path class="st22" d="M54,137.1c0,0,0-0.4-0.3-0.4s-0.3,0.5-0.3,0.5s0,0.4,0.3,0.4C54,137.5,54,137.1,54,137.1z"/>
		<path class="st23" d="M53.9,137.1c0,0,0-0.3-0.2-0.3c-0.3,0-0.2,0.4-0.2,0.4s0,0.3,0.2,0.3C53.9,137.4,53.9,137.1,53.9,137.1z"/>
	</g>
	<g id="board">
		<path class="st24" d="M125.8,91.4H79.4c-2.8,0-5.1-2.3-5.1-5.1V78c0-2.8,2.3-5.1,5.1-5.1h46.4c2.8,0,5.1,2.3,5.1,5.1v8.3
			C130.9,89.1,128.6,91.4,125.8,91.4z"/>
		<path class="st25" d="M128.9,76.8H76.2c-1.1,0-1.9-0.9-1.9-1.9v-0.1c0-1.1,0.9-1.9,1.9-1.9H129c1.1,0,1.9,0.9,1.9,1.9v0.1
			C130.9,76,130,76.8,128.9,76.8z"/>
		<path class="st26" d="M84,79h-5c-0.2,0-0.3-0.1-0.3-0.3l0,0c0-0.2,0.1-0.3,0.3-0.3h5c0.2,0,0.3,0.1,0.3,0.3l0,0
			C84.3,78.9,84.2,79,84,79z"/>
		<path class="st26" d="M92.9,79h-5c-0.2,0-0.3-0.1-0.3-0.3l0,0c0-0.2,0.1-0.3,0.3-0.3h5c0.2,0,0.3,0.1,0.3,0.3l0,0
			C93.2,78.9,93.1,79,92.9,79z"/>
		<path class="st26" d="M104.6,79h-5c-0.2,0-0.3-0.1-0.3-0.3l0,0c0-0.2,0.1-0.3,0.3-0.3h5c0.2,0,0.3,0.1,0.3,0.3l0,0
			C105,78.9,104.8,79,104.6,79z"/>
		<path class="st26" d="M116.1,79h-5c-0.2,0-0.3-0.1-0.3-0.3l0,0c0-0.2,0.1-0.3,0.3-0.3h5c0.2,0,0.3,0.1,0.3,0.3l0,0
			C116.5,78.9,116.3,79,116.1,79z"/>
		<path class="st26" d="M126.7,79h-5c-0.2,0-0.3-0.1-0.3-0.3l0,0c0-0.2,0.1-0.3,0.3-0.3h5c0.2,0,0.3,0.1,0.3,0.3l0,0
			C127,78.9,126.9,79,126.7,79z"/>
		
			<linearGradient id="SVGID_3_" gradientUnits="userSpaceOnUse" x1="-13013.585" y1="119.4" x2="-13006.9854" y2="119.4" gradientTransform="matrix(1 0 0 -1 13092.623 202)">
			<stop  offset="0" style="stop-color:#1F90F2"/>
			<stop  offset="1" style="stop-color:#33A4FF"/>
		</linearGradient>
		<path class="st27" d="M85.5,82.8h-6.2c-0.1,0-0.2-0.1-0.2-0.2l0,0c0-0.1,0.1-0.2,0.2-0.2h6.2c0.1,0,0.2,0.1,0.2,0.2l0,0
			C85.6,82.7,85.6,82.8,85.5,82.8z"/>
		
			<linearGradient id="SVGID_4_" gradientUnits="userSpaceOnUse" x1="-13013.585" y1="118.8" x2="-13006.9854" y2="118.8" gradientTransform="matrix(1 0 0 -1 13092.623 202)">
			<stop  offset="0" style="stop-color:#1F90F2"/>
			<stop  offset="1" style="stop-color:#33A4FF"/>
		</linearGradient>
		<path class="st28" d="M85.5,83.4h-6.2c-0.1,0-0.2-0.1-0.2-0.2l0,0c0-0.1,0.1-0.2,0.2-0.2h6.2c0.1,0,0.2,0.1,0.2,0.2l0,0
			C85.6,83.4,85.6,83.4,85.5,83.4z"/>
		
			<linearGradient id="SVGID_5_" gradientUnits="userSpaceOnUse" x1="-13012.5439" y1="118" x2="-13008.0322" y2="118" gradientTransform="matrix(1 0 0 -1 13092.623 202)">
			<stop  offset="0" style="stop-color:#1F90F2"/>
			<stop  offset="1" style="stop-color:#33A4FF"/>
		</linearGradient>
		<path class="st29" d="M84.4,84.2h-4.2c-0.1,0-0.2-0.1-0.2-0.2l0,0c0-0.1,0.1-0.2,0.2-0.2h4.2c0.1,0,0.2,0.1,0.2,0.2l0,0
			C84.6,84.2,84.5,84.2,84.4,84.2z"/>
		
			<linearGradient id="SVGID_6_" gradientUnits="userSpaceOnUse" x1="-13013.585" y1="117" x2="-13006.9854" y2="117" gradientTransform="matrix(1 0 0 -1 13092.623 202)">
			<stop  offset="0" style="stop-color:#1F90F2"/>
			<stop  offset="1" style="stop-color:#33A4FF"/>
		</linearGradient>
		<path class="st30" d="M85.5,85.2h-6.2c-0.1,0-0.2-0.1-0.2-0.2l0,0c0-0.1,0.1-0.2,0.2-0.2h6.2c0.1,0,0.2,0.1,0.2,0.2l0,0
			C85.6,85.1,85.6,85.2,85.5,85.2z"/>
		
			<linearGradient id="SVGID_7_" gradientUnits="userSpaceOnUse" x1="-13013.585" y1="116.4" x2="-13006.9854" y2="116.4" gradientTransform="matrix(1 0 0 -1 13092.623 202)">
			<stop  offset="0" style="stop-color:#1F90F2"/>
			<stop  offset="1" style="stop-color:#33A4FF"/>
		</linearGradient>
		<path class="st31" d="M85.5,85.8h-6.2c-0.1,0-0.2-0.1-0.2-0.2l0,0c0-0.1,0.1-0.2,0.2-0.2h6.2c0.1,0,0.2,0.1,0.2,0.2l0,0
			C85.6,85.7,85.6,85.8,85.5,85.8z"/>
		
			<linearGradient id="SVGID_8_" gradientUnits="userSpaceOnUse" x1="-13012.5439" y1="115.6" x2="-13008.0322" y2="115.6" gradientTransform="matrix(1 0 0 -1 13092.623 202)">
			<stop  offset="0" style="stop-color:#1F90F2"/>
			<stop  offset="1" style="stop-color:#33A4FF"/>
		</linearGradient>
		<path class="st32" d="M84.4,86.6h-4.2c-0.1,0-0.2-0.1-0.2-0.2l0,0c0-0.1,0.1-0.2,0.2-0.2h4.2c0.1,0,0.2,0.1,0.2,0.2l0,0
			C84.6,86.5,84.5,86.6,84.4,86.6z"/>
		
			<linearGradient id="SVGID_9_" gradientUnits="userSpaceOnUse" x1="-13013.585" y1="114.8" x2="-13006.9854" y2="114.8" gradientTransform="matrix(1 0 0 -1 13092.623 202)">
			<stop  offset="0" style="stop-color:#1F90F2"/>
			<stop  offset="1" style="stop-color:#33A4FF"/>
		</linearGradient>
		<path class="st33" d="M85.5,87.4h-6.2c-0.1,0-0.2-0.1-0.2-0.2l0,0c0-0.1,0.1-0.2,0.2-0.2h6.2c0.1,0,0.2,0.1,0.2,0.2l0,0
			C85.6,87.3,85.6,87.4,85.5,87.4z"/>
		
			<linearGradient id="SVGID_10_" gradientUnits="userSpaceOnUse" x1="-13013.585" y1="114.15" x2="-13006.9854" y2="114.15" gradientTransform="matrix(1 0 0 -1 13092.623 202)">
			<stop  offset="0" style="stop-color:#1F90F2"/>
			<stop  offset="1" style="stop-color:#33A4FF"/>
		</linearGradient>
		<path class="st34" d="M85.5,88h-6.2c-0.2,0-0.3,0-0.3-0.1l0,0c0-0.1,0.1-0.2,0.2-0.2h6.2C85.5,87.7,85.6,87.8,85.5,88L85.5,88
			C85.6,88,85.6,88,85.5,88z"/>
		
			<linearGradient id="SVGID_11_" gradientUnits="userSpaceOnUse" x1="-13012.5439" y1="113.4" x2="-13008.0322" y2="113.4" gradientTransform="matrix(1 0 0 -1 13092.623 202)">
			<stop  offset="0" style="stop-color:#1F90F2"/>
			<stop  offset="1" style="stop-color:#33A4FF"/>
		</linearGradient>
		<path class="st35" d="M84.4,88.8h-4.2c-0.1,0-0.2-0.1-0.2-0.2l0,0c0-0.1,0.1-0.2,0.2-0.2h4.2c0.1,0,0.2,0.1,0.2,0.2l0,0
			C84.6,88.8,84.5,88.8,84.4,88.8z"/>
		<path class="st36" d="M92.3,82.9h-2.7c-0.1,0-0.2-0.1-0.2-0.2l0,0c0-0.1,0.1-0.2,0.2-0.2h2.7c0.1,0,0.2,0.1,0.2,0.2l0,0
			C92.5,82.8,92.4,82.9,92.3,82.9z"/>
		<path class="st36" d="M92.5,85h-3.1c-0.1,0-0.2-0.1-0.2-0.2l0,0c0-0.1,0.1-0.2,0.2-0.2h3.1c0.1,0,0.2,0.1,0.2,0.2l0,0
			C92.7,84.9,92.6,85,92.5,85z"/>
		<path class="st36" d="M92.5,85.6h-3.1c-0.1,0-0.2-0.1-0.2-0.2l0,0c0-0.1,0.1-0.2,0.2-0.2h3.1c0.1,0,0.2,0.1,0.2,0.2l0,0
			C92.7,85.5,92.6,85.6,92.5,85.6z"/>
		<path class="st36" d="M92.2,87.2h-2.7c-0.1,0-0.2-0.1-0.2-0.2l0,0c0-0.1,0.1-0.2,0.2-0.2h2.7c0.1,0,0.2,0.1,0.2,0.2l0,0
			C92.4,87.1,92.3,87.2,92.2,87.2z"/>
		<path class="st36" d="M92.6,87.9h-3.1c-0.1,0-0.2-0.1-0.2-0.2l0,0c0-0.1,0.1-0.2,0.2-0.2h3.1c0.1,0,0.2,0.1,0.2,0.2l0,0
			C92.8,87.8,92.7,87.9,92.6,87.9z"/>
		
			<linearGradient id="SVGID_12_" gradientUnits="userSpaceOnUse" x1="-12993.3047" y1="119.4" x2="-12986.7051" y2="119.4" gradientTransform="matrix(1 0 0 -1 13092.623 202)">
			<stop  offset="0" style="stop-color:#1F90F2"/>
			<stop  offset="1" style="stop-color:#33A4FF"/>
		</linearGradient>
		<path class="st37" d="M105.7,82.8h-6.2c-0.1,0-0.2-0.1-0.2-0.2l0,0c0-0.1,0.1-0.2,0.2-0.2h6.2c0.1,0,0.2,0.1,0.2,0.2l0,0
			C105.9,82.7,105.8,82.8,105.7,82.8z"/>
		
			<linearGradient id="SVGID_13_" gradientUnits="userSpaceOnUse" x1="-12993.3047" y1="118.8" x2="-12986.7051" y2="118.8" gradientTransform="matrix(1 0 0 -1 13092.623 202)">
			<stop  offset="0" style="stop-color:#1F90F2"/>
			<stop  offset="1" style="stop-color:#33A4FF"/>
		</linearGradient>
		<path class="st38" d="M105.7,83.4h-6.2c-0.1,0-0.2-0.1-0.2-0.2l0,0c0-0.1,0.1-0.2,0.2-0.2h6.2c0.1,0,0.2,0.1,0.2,0.2l0,0
			C105.9,83.4,105.8,83.4,105.7,83.4z"/>
		
			<linearGradient id="SVGID_14_" gradientUnits="userSpaceOnUse" x1="-12992.2637" y1="118" x2="-12987.752" y2="118" gradientTransform="matrix(1 0 0 -1 13092.623 202)">
			<stop  offset="0" style="stop-color:#1F90F2"/>
			<stop  offset="1" style="stop-color:#33A4FF"/>
		</linearGradient>
		<path class="st39" d="M104.7,84.2h-4.2c-0.1,0-0.2-0.1-0.2-0.2l0,0c0-0.1,0.1-0.2,0.2-0.2h4.2c0.1,0,0.2,0.1,0.2,0.2l0,0
			C104.9,84.2,104.8,84.2,104.7,84.2z"/>
		
			<linearGradient id="SVGID_15_" gradientUnits="userSpaceOnUse" x1="-12993.3047" y1="117" x2="-12986.7051" y2="117" gradientTransform="matrix(1 0 0 -1 13092.623 202)">
			<stop  offset="0" style="stop-color:#1F90F2"/>
			<stop  offset="1" style="stop-color:#33A4FF"/>
		</linearGradient>
		<path class="st40" d="M105.7,85.2h-6.2c-0.1,0-0.2-0.1-0.2-0.2l0,0c0-0.1,0.1-0.2,0.2-0.2h6.2c0.1,0,0.2,0.1,0.2,0.2l0,0
			C105.9,85.1,105.8,85.2,105.7,85.2z"/>
		
			<linearGradient id="SVGID_16_" gradientUnits="userSpaceOnUse" x1="-12993.3047" y1="116.4" x2="-12986.7051" y2="116.4" gradientTransform="matrix(1 0 0 -1 13092.623 202)">
			<stop  offset="0" style="stop-color:#1F90F2"/>
			<stop  offset="1" style="stop-color:#33A4FF"/>
		</linearGradient>
		<path class="st41" d="M105.7,85.8h-6.2c-0.1,0-0.2-0.1-0.2-0.2l0,0c0-0.1,0.1-0.2,0.2-0.2h6.2c0.1,0,0.2,0.1,0.2,0.2l0,0
			C105.9,85.7,105.8,85.8,105.7,85.8z"/>
		
			<linearGradient id="SVGID_17_" gradientUnits="userSpaceOnUse" x1="-12992.2637" y1="115.6" x2="-12987.752" y2="115.6" gradientTransform="matrix(1 0 0 -1 13092.623 202)">
			<stop  offset="0" style="stop-color:#1F90F2"/>
			<stop  offset="1" style="stop-color:#33A4FF"/>
		</linearGradient>
		<path class="st42" d="M104.7,86.6h-4.2c-0.1,0-0.2-0.1-0.2-0.2l0,0c0-0.1,0.1-0.2,0.2-0.2h4.2c0.1,0,0.2,0.1,0.2,0.2l0,0
			C104.9,86.5,104.8,86.6,104.7,86.6z"/>
		
			<linearGradient id="SVGID_18_" gradientUnits="userSpaceOnUse" x1="-12993.3047" y1="114.8" x2="-12986.7051" y2="114.8" gradientTransform="matrix(1 0 0 -1 13092.623 202)">
			<stop  offset="0" style="stop-color:#1F90F2"/>
			<stop  offset="1" style="stop-color:#33A4FF"/>
		</linearGradient>
		<path class="st43" d="M105.7,87.4h-6.2c-0.1,0-0.2-0.1-0.2-0.2l0,0c0-0.1,0.1-0.2,0.2-0.2h6.2c0.1,0,0.2,0.1,0.2,0.2l0,0
			C105.9,87.3,105.8,87.4,105.7,87.4z"/>
		
			<linearGradient id="SVGID_19_" gradientUnits="userSpaceOnUse" x1="-12993.3047" y1="114.2" x2="-12986.7051" y2="114.2" gradientTransform="matrix(1 0 0 -1 13092.623 202)">
			<stop  offset="0" style="stop-color:#1F90F2"/>
			<stop  offset="1" style="stop-color:#33A4FF"/>
		</linearGradient>
		<path class="st44" d="M105.7,88h-6.2c-0.1,0-0.2-0.1-0.2-0.2l0,0c0-0.1,0.1-0.2,0.2-0.2h6.2c0.1,0,0.2,0.1,0.2,0.2l0,0
			C105.9,88,105.8,88,105.7,88z"/>
		
			<linearGradient id="SVGID_20_" gradientUnits="userSpaceOnUse" x1="-12992.2637" y1="113.4" x2="-12987.752" y2="113.4" gradientTransform="matrix(1 0 0 -1 13092.623 202)">
			<stop  offset="0" style="stop-color:#1F90F2"/>
			<stop  offset="1" style="stop-color:#33A4FF"/>
		</linearGradient>
		<path class="st45" d="M104.7,88.8h-4.2c-0.1,0-0.2-0.1-0.2-0.2l0,0c0-0.1,0.1-0.2,0.2-0.2h4.2c0.1,0,0.2,0.1,0.2,0.2l0,0
			C104.9,88.8,104.8,88.8,104.7,88.8z"/>
		<path class="st36" d="M112.5,82.9h-2.7c-0.1,0-0.2-0.1-0.2-0.2l0,0c0-0.1,0.1-0.2,0.2-0.2h2.7c0.1,0,0.2,0.1,0.2,0.2l0,0
			C112.7,82.8,112.6,82.9,112.5,82.9z"/>
		<path class="st36" d="M112.7,85h-3.1c-0.1,0-0.2-0.1-0.2-0.2l0,0c0-0.1,0.1-0.2,0.2-0.2h3.1c0.1,0,0.2,0.1,0.2,0.2l0,0
			C113,84.9,112.9,85,112.7,85z"/>
		<path class="st36" d="M112.7,85.6h-3.1c-0.1,0-0.2-0.1-0.2-0.2l0,0c0-0.1,0.1-0.2,0.2-0.2h3.1c0.1,0,0.2,0.1,0.2,0.2l0,0
			C113,85.5,112.9,85.6,112.7,85.6z"/>
		<path class="st36" d="M112.5,87.2h-2.7c-0.1,0-0.2-0.1-0.2-0.2l0,0c0-0.1,0.1-0.2,0.2-0.2h2.7c0.1,0,0.2,0.1,0.2,0.2l0,0
			C112.7,87.1,112.6,87.2,112.5,87.2z"/>
		<path class="st36" d="M112.9,87.9h-3.1c-0.1,0-0.2-0.1-0.2-0.2l0,0c0-0.1,0.1-0.2,0.2-0.2h3.1c0.1,0,0.2,0.1,0.2,0.2l0,0
			C113.1,87.8,113,87.9,112.9,87.9z"/>
		
			<linearGradient id="SVGID_21_" gradientUnits="userSpaceOnUse" x1="-12971.6113" y1="119.5" x2="-12967.7188" y2="119.5" gradientTransform="matrix(1 0 0 -1 13092.623 202)">
			<stop  offset="0" style="stop-color:#1F90F2"/>
			<stop  offset="1" style="stop-color:#33A4FF"/>
		</linearGradient>
		<path class="st46" d="M124.7,82.7h-3.5c-0.1,0-0.2-0.1-0.2-0.2l0,0c0-0.1,0.1-0.2,0.2-0.2h3.5c0.1,0,0.2,0.1,0.2,0.2l0,0
			C124.9,82.6,124.8,82.7,124.7,82.7z"/>
		
			<linearGradient id="SVGID_22_" gradientUnits="userSpaceOnUse" x1="-12967.1982" y1="119.5" x2="-12964.5205" y2="119.5" gradientTransform="matrix(1 0 0 -1 13092.623 202)">
			<stop  offset="0" style="stop-color:#1F90F2"/>
			<stop  offset="1" style="stop-color:#33A4FF"/>
		</linearGradient>
		<path class="st47" d="M127.9,82.7h-2.3c-0.1,0-0.2-0.1-0.2-0.2l0,0c0-0.1,0.1-0.2,0.2-0.2h2.3c0.1,0,0.2,0.1,0.2,0.2l0,0
			C128.1,82.6,128,82.7,127.9,82.7z"/>
		
			<linearGradient id="SVGID_23_" gradientUnits="userSpaceOnUse" x1="-12971.6113" y1="118.8" x2="-12967.7188" y2="118.8" gradientTransform="matrix(1 0 0 -1 13092.623 202)">
			<stop  offset="0" style="stop-color:#1F90F2"/>
			<stop  offset="1" style="stop-color:#33A4FF"/>
		</linearGradient>
		<path class="st48" d="M124.7,83.4h-3.5c-0.1,0-0.2-0.1-0.2-0.2l0,0c0-0.1,0.1-0.2,0.2-0.2h3.5c0.1,0,0.2,0.1,0.2,0.2l0,0
			C124.9,83.4,124.8,83.4,124.7,83.4z"/>
		
			<linearGradient id="SVGID_24_" gradientUnits="userSpaceOnUse" x1="-12967.1982" y1="118.8" x2="-12964.5205" y2="118.8" gradientTransform="matrix(1 0 0 -1 13092.623 202)">
			<stop  offset="0" style="stop-color:#1F90F2"/>
			<stop  offset="1" style="stop-color:#33A4FF"/>
		</linearGradient>
		<path class="st49" d="M127.9,83.4h-2.3c-0.1,0-0.2-0.1-0.2-0.2l0,0c0-0.1,0.1-0.2,0.2-0.2h2.3c0.1,0,0.2,0.1,0.2,0.2l0,0
			C128.1,83.4,128,83.4,127.9,83.4z"/>
		
			<linearGradient id="SVGID_25_" gradientUnits="userSpaceOnUse" x1="-12971.6113" y1="118" x2="-12967.7188" y2="118" gradientTransform="matrix(1 0 0 -1 13092.623 202)">
			<stop  offset="0" style="stop-color:#1F90F2"/>
			<stop  offset="1" style="stop-color:#33A4FF"/>
		</linearGradient>
		<path class="st50" d="M124.7,84.2h-3.5c-0.1,0-0.2-0.1-0.2-0.2l0,0c0-0.1,0.1-0.2,0.2-0.2h3.5c0.1,0,0.2,0.1,0.2,0.2l0,0
			C124.9,84.1,124.8,84.2,124.7,84.2z"/>
		
			<linearGradient id="SVGID_26_" gradientUnits="userSpaceOnUse" x1="-12967.1982" y1="118" x2="-12964.5205" y2="118" gradientTransform="matrix(1 0 0 -1 13092.623 202)">
			<stop  offset="0" style="stop-color:#1F90F2"/>
			<stop  offset="1" style="stop-color:#33A4FF"/>
		</linearGradient>
		<path class="st51" d="M127.9,84.2h-2.3c-0.1,0-0.2-0.1-0.2-0.2l0,0c0-0.1,0.1-0.2,0.2-0.2h2.3c0.1,0,0.2,0.1,0.2,0.2l0,0
			C128.1,84.1,128,84.2,127.9,84.2z"/>
		
			<linearGradient id="SVGID_27_" gradientUnits="userSpaceOnUse" x1="-12971.6113" y1="117.3" x2="-12967.7188" y2="117.3" gradientTransform="matrix(1 0 0 -1 13092.623 202)">
			<stop  offset="0" style="stop-color:#1F90F2"/>
			<stop  offset="1" style="stop-color:#33A4FF"/>
		</linearGradient>
		<path class="st52" d="M124.7,84.9h-3.5c-0.1,0-0.2-0.1-0.2-0.2l0,0c0-0.1,0.1-0.2,0.2-0.2h3.5c0.1,0,0.2,0.1,0.2,0.2l0,0
			C124.9,84.8,124.8,84.9,124.7,84.9z"/>
		
			<linearGradient id="SVGID_28_" gradientUnits="userSpaceOnUse" x1="-12967.1982" y1="117.3" x2="-12964.5205" y2="117.3" gradientTransform="matrix(1 0 0 -1 13092.623 202)">
			<stop  offset="0" style="stop-color:#1F90F2"/>
			<stop  offset="1" style="stop-color:#33A4FF"/>
		</linearGradient>
		<path class="st53" d="M127.9,84.9h-2.3c-0.1,0-0.2-0.1-0.2-0.2l0,0c0-0.1,0.1-0.2,0.2-0.2h2.3c0.1,0,0.2,0.1,0.2,0.2l0,0
			C128.1,84.8,128,84.9,127.9,84.9z"/>
		
			<linearGradient id="SVGID_29_" gradientUnits="userSpaceOnUse" x1="-12971.6113" y1="116.6" x2="-12967.7188" y2="116.6" gradientTransform="matrix(1 0 0 -1 13092.623 202)">
			<stop  offset="0" style="stop-color:#1F90F2"/>
			<stop  offset="1" style="stop-color:#33A4FF"/>
		</linearGradient>
		<path class="st54" d="M124.7,85.6h-3.5c-0.1,0-0.2-0.1-0.2-0.2l0,0c0-0.1,0.1-0.2,0.2-0.2h3.5c0.1,0,0.2,0.1,0.2,0.2l0,0
			C124.9,85.6,124.8,85.6,124.7,85.6z"/>
		
			<linearGradient id="SVGID_30_" gradientUnits="userSpaceOnUse" x1="-12967.1982" y1="116.6" x2="-12964.5205" y2="116.6" gradientTransform="matrix(1 0 0 -1 13092.623 202)">
			<stop  offset="0" style="stop-color:#1F90F2"/>
			<stop  offset="1" style="stop-color:#33A4FF"/>
		</linearGradient>
		<path class="st55" d="M127.9,85.6h-2.3c-0.1,0-0.2-0.1-0.2-0.2l0,0c0-0.1,0.1-0.2,0.2-0.2h2.3c0.1,0,0.2,0.1,0.2,0.2l0,0
			C128.1,85.6,128,85.6,127.9,85.6z"/>
		
			<linearGradient id="SVGID_31_" gradientUnits="userSpaceOnUse" x1="-12971.6113" y1="115.8" x2="-12967.7188" y2="115.8" gradientTransform="matrix(1 0 0 -1 13092.623 202)">
			<stop  offset="0" style="stop-color:#1F90F2"/>
			<stop  offset="1" style="stop-color:#33A4FF"/>
		</linearGradient>
		<path class="st56" d="M124.7,86.4h-3.5c-0.1,0-0.2-0.1-0.2-0.2l0,0c0-0.1,0.1-0.2,0.2-0.2h3.5c0.1,0,0.2,0.1,0.2,0.2l0,0
			C124.9,86.3,124.8,86.4,124.7,86.4z"/>
		
			<linearGradient id="SVGID_32_" gradientUnits="userSpaceOnUse" x1="-12967.1982" y1="115.8" x2="-12964.5205" y2="115.8" gradientTransform="matrix(1 0 0 -1 13092.623 202)">
			<stop  offset="0" style="stop-color:#1F90F2"/>
			<stop  offset="1" style="stop-color:#33A4FF"/>
		</linearGradient>
		<path class="st57" d="M127.9,86.4h-2.3c-0.1,0-0.2-0.1-0.2-0.2l0,0c0-0.1,0.1-0.2,0.2-0.2h2.3c0.1,0,0.2,0.1,0.2,0.2l0,0
			C128.1,86.3,128,86.4,127.9,86.4z"/>
		
			<linearGradient id="SVGID_33_" gradientUnits="userSpaceOnUse" x1="-12971.6113" y1="115.1" x2="-12967.7188" y2="115.1" gradientTransform="matrix(1 0 0 -1 13092.623 202)">
			<stop  offset="0" style="stop-color:#1F90F2"/>
			<stop  offset="1" style="stop-color:#33A4FF"/>
		</linearGradient>
		<path class="st58" d="M124.7,87.1h-3.5c-0.1,0-0.2-0.1-0.2-0.2l0,0c0-0.1,0.1-0.2,0.2-0.2h3.5c0.1,0,0.2,0.1,0.2,0.2l0,0
			C124.9,87,124.8,87.1,124.7,87.1z"/>
		
			<linearGradient id="SVGID_34_" gradientUnits="userSpaceOnUse" x1="-12967.1982" y1="115.1" x2="-12964.5205" y2="115.1" gradientTransform="matrix(1 0 0 -1 13092.623 202)">
			<stop  offset="0" style="stop-color:#1F90F2"/>
			<stop  offset="1" style="stop-color:#33A4FF"/>
		</linearGradient>
		<path class="st59" d="M127.9,87.1h-2.3c-0.1,0-0.2-0.1-0.2-0.2l0,0c0-0.1,0.1-0.2,0.2-0.2h2.3c0.1,0,0.2,0.1,0.2,0.2l0,0
			C128.1,87,128,87.1,127.9,87.1z"/>
		
			<linearGradient id="SVGID_35_" gradientUnits="userSpaceOnUse" x1="-12971.6113" y1="114.4" x2="-12967.7188" y2="114.4" gradientTransform="matrix(1 0 0 -1 13092.623 202)">
			<stop  offset="0" style="stop-color:#1F90F2"/>
			<stop  offset="1" style="stop-color:#33A4FF"/>
		</linearGradient>
		<path class="st60" d="M124.7,87.8h-3.5c-0.1,0-0.2-0.1-0.2-0.2l0,0c0-0.1,0.1-0.2,0.2-0.2h3.5c0.1,0,0.2,0.1,0.2,0.2l0,0
			C124.9,87.8,124.8,87.8,124.7,87.8z"/>
		
			<linearGradient id="SVGID_36_" gradientUnits="userSpaceOnUse" x1="-12967.1982" y1="114.4" x2="-12964.5205" y2="114.4" gradientTransform="matrix(1 0 0 -1 13092.623 202)">
			<stop  offset="0" style="stop-color:#1F90F2"/>
			<stop  offset="1" style="stop-color:#33A4FF"/>
		</linearGradient>
		<path class="st61" d="M127.9,87.8h-2.3c-0.1,0-0.2-0.1-0.2-0.2l0,0c0-0.1,0.1-0.2,0.2-0.2h2.3c0.1,0,0.2,0.1,0.2,0.2l0,0
			C128.1,87.8,128,87.8,127.9,87.8z"/>
		
			<linearGradient id="SVGID_37_" gradientUnits="userSpaceOnUse" x1="-12971.6113" y1="113.6" x2="-12967.7188" y2="113.6" gradientTransform="matrix(1 0 0 -1 13092.623 202)">
			<stop  offset="0" style="stop-color:#1F90F2"/>
			<stop  offset="1" style="stop-color:#33A4FF"/>
		</linearGradient>
		<path class="st62" d="M124.7,88.6h-3.5c-0.1,0-0.2-0.1-0.2-0.2l0,0c0-0.1,0.1-0.2,0.2-0.2h3.5c0.1,0,0.2,0.1,0.2,0.2l0,0
			C124.9,88.5,124.8,88.6,124.7,88.6z"/>
		
			<linearGradient id="SVGID_38_" gradientUnits="userSpaceOnUse" x1="-12967.1982" y1="113.6" x2="-12964.5205" y2="113.6" gradientTransform="matrix(1 0 0 -1 13092.623 202)">
			<stop  offset="0" style="stop-color:#1F90F2"/>
			<stop  offset="1" style="stop-color:#33A4FF"/>
		</linearGradient>
		<path class="st63" d="M127.9,88.6h-2.3c-0.1,0-0.2-0.1-0.2-0.2l0,0c0-0.1,0.1-0.2,0.2-0.2h2.3c0.1,0,0.2,0.1,0.2,0.2l0,0
			C128.1,88.5,128,88.6,127.9,88.6z"/>
		
			<linearGradient id="SVGID_39_" gradientUnits="userSpaceOnUse" x1="-12971.6113" y1="112.9" x2="-12967.7188" y2="112.9" gradientTransform="matrix(1 0 0 -1 13092.623 202)">
			<stop  offset="0" style="stop-color:#1F90F2"/>
			<stop  offset="1" style="stop-color:#33A4FF"/>
		</linearGradient>
		<path class="st64" d="M124.7,89.3h-3.5c-0.1,0-0.2-0.1-0.2-0.2l0,0c0-0.1,0.1-0.2,0.2-0.2h3.5c0.1,0,0.2,0.1,0.2,0.2l0,0
			C124.9,89.2,124.8,89.3,124.7,89.3z"/>
		
			<linearGradient id="SVGID_40_" gradientUnits="userSpaceOnUse" x1="-12967.1982" y1="112.9" x2="-12964.5205" y2="112.9" gradientTransform="matrix(1 0 0 -1 13092.623 202)">
			<stop  offset="0" style="stop-color:#1F90F2"/>
			<stop  offset="1" style="stop-color:#33A4FF"/>
		</linearGradient>
		<path class="st65" d="M127.9,89.3h-2.3c-0.1,0-0.2-0.1-0.2-0.2l0,0c0-0.1,0.1-0.2,0.2-0.2h2.3c0.1,0,0.2,0.1,0.2,0.2l0,0
			C128.1,89.2,128,89.3,127.9,89.3z"/>
		
			<linearGradient id="SVGID_41_" gradientUnits="userSpaceOnUse" x1="-12971.6113" y1="112.2" x2="-12967.7188" y2="112.2" gradientTransform="matrix(1 0 0 -1 13092.623 202)">
			<stop  offset="0" style="stop-color:#1F90F2"/>
			<stop  offset="1" style="stop-color:#33A4FF"/>
		</linearGradient>
		<path class="st66" d="M124.7,90h-3.5c-0.1,0-0.2-0.1-0.2-0.2l0,0c0-0.1,0.1-0.2,0.2-0.2h3.5c0.1,0,0.2,0.1,0.2,0.2l0,0
			C124.9,90,124.8,90,124.7,90z"/>
		
			<linearGradient id="SVGID_42_" gradientUnits="userSpaceOnUse" x1="-12967.1982" y1="112.2" x2="-12964.5205" y2="112.2" gradientTransform="matrix(1 0 0 -1 13092.623 202)">
			<stop  offset="0" style="stop-color:#1F90F2"/>
			<stop  offset="1" style="stop-color:#33A4FF"/>
		</linearGradient>
		<path class="st67" d="M127.9,90h-2.3c-0.1,0-0.2-0.1-0.2-0.2l0,0c0-0.1,0.1-0.2,0.2-0.2h2.3c0.1,0,0.2,0.1,0.2,0.2l0,0
			C128.1,90,128,90,127.9,90z"/>
		<path class="st68" d="M126.9,76.1h-25.3c-0.7,0-1.2-0.6-1.2-1.2v-0.1c0-0.7,0.6-1.2,1.2-1.2h25.3c0.7,0,1.2,0.6,1.2,1.2v0.1
			C128.1,75.6,127.5,76.1,126.9,76.1z"/>
	</g>
	<g id="suitcase">
		<rect x="65" y="176.8" class="st69" width="1.9" height="1.4"/>
		<g>
			<path class="st70" d="M68.7,146.7c0-0.2,0.1-0.3,0.3-0.3h4.7c0.2,0,0.3,0.1,0.3,0.3v8.4h0.8v-8.4c0-0.7-0.5-1.2-1.1-1.2H69
				c-0.6,0-1.1,0.5-1.1,1.2v8.4h0.8L68.7,146.7L68.7,146.7z"/>
		</g>
		<path class="st69" d="M77.4,178.3L66,177.7c-0.6,0-1.1-0.5-1.1-1.2l-1.1-20.2c0-1.4,1.6-1.6,2.2-1.6h12.3c0.6,0,1.1,0.5,1.1,1.2
			v20.6C79.5,177.6,78.4,178.3,77.4,178.3z"/>
		<path class="st71" d="M71.1,178.3L71.1,178.3c-4,0-7.3-3.3-7.3-7.3v-8.4c0-4,3.3-7.3,7.3-7.3l0,0c4,0,7.3,3.3,7.3,7.3v8.4
			C78.4,175,75.2,178.3,71.1,178.3z"/>
		<path class="st70" d="M75.7,178.3h-9v-11.4c0-2.5,2-4.5,4.5-4.5l0,0c2.5,0,4.5,2,4.5,4.5V178.3z"/>
		<path class="st69" d="M71.5,153.8c1.1,0,2.1,0.5,2.1,1.1h0.9c0-1-1.4-1.8-3.1-1.8s-3,0.8-3.1,1.8h0.9
			C69.4,154.3,70.4,153.8,71.5,153.8z"/>
		<path class="st69" d="M73.2,146.4h-3.7c-0.3,0-0.6-0.3-0.6-0.6l0,0c0-0.3,0.3-0.6,0.6-0.6h3.7c0.3,0,0.6,0.3,0.6,0.6l0,0
			C73.8,146.2,73.5,146.4,73.2,146.4z"/>
	</g>
</g>
<g class="st72">
	<g class="st73">
		<g>
			<g>
				<defs>
					<path id="SVGID_43_" d="M89.3,103L89.3,103L89.3,103c0-0.2-0.1-0.3-0.3-0.4l0,0c-0.1,0-0.1-0.1-0.2-0.1l0,0c-0.1,0-0.2,0-0.3,0
						h-1.2v-1.8H63.6v1.8h-1.1c-0.1,0-0.2,0-0.3,0l0,0c-0.1,0-0.1,0.1-0.2,0.1l0,0c-0.1,0.1-0.2,0.3-0.3,0.4l0,0l0,0
						c0,0.1,0,0.1,0,0.2v6.4l0,0c0,0.2,0.1,0.3,0.1,0.5c0.1,0.1,0.2,0.2,0.4,0.3c0.1,0,0.2,0.1,0.3,0.1h1.1v1.9h-1.1
						c-0.1,0-0.1,0-0.2,0c0,0,0,0-0.1,0h-0.1c0,0-0.1,0-0.1,0.1l0,0l-0.1,0.1l0,0c-0.1,0.1-0.2,0.3-0.2,0.6l0,0l0,0l0,0v6.4l0,0
						c0,0.2,0.1,0.3,0.1,0.5c0.1,0.1,0.2,0.2,0.4,0.3c0.1,0,0.2,0.1,0.3,0.1h1.1v1.9h-1.1c-0.1,0-0.2,0-0.3,0.1l0,0
						c-0.1,0-0.2,0.1-0.2,0.1l0,0c-0.1,0.1-0.1,0.1-0.2,0.2l0,0c0,0.1-0.1,0.2-0.1,0.3l0,0l0,0v0.1v6.3v0.1c0,0.2,0.1,0.3,0.1,0.5
						c0.1,0.1,0.2,0.2,0.4,0.3c0.1,0,0.2,0.1,0.3,0.1h1.1v2.6h10.1v4.7h-3.4v0.6h-1.7h-7v2.5h7h1.7v0.5h10.3v-0.5h1.3h7.3v-2.5h-7.3
						h-1.3v-0.6h-3.4v-4.7h10.1v-2.6h1.2c0.5,0,0.8-0.4,0.8-0.8v-0.1v-6.3v-0.1l0,0l0,0c0-0.1,0-0.2-0.1-0.3l0,0
						c0-0.1-0.1-0.1-0.2-0.2l0,0c-0.1-0.1-0.1-0.1-0.2-0.1l0,0c-0.1,0-0.2-0.1-0.3-0.1h-1.2v-1.9h1.2c0.5,0,0.8-0.4,0.8-0.8l0,0
						v-6.4l0,0l0,0l0,0c0-0.2-0.1-0.4-0.2-0.6l0,0l-0.1-0.1l0,0c0,0-0.1,0-0.1-0.1h-0.1c0,0,0,0-0.1,0s-0.1,0-0.2,0h-1.2v-1.9h1.2
						c0.5,0,0.8-0.4,0.8-0.8l0,0v-6.4C89.3,103.2,89.3,103.1,89.3,103z"/>
				</defs>
				<clipPath id="SVGID_44_">
					<use xlink:href="#SVGID_43_"  style="overflow:visible;"/>
				</clipPath>
				<g class="st74">
					<g>
						<rect x="61.7" y="138.3" class="st1" width="27.6" height="2.5"/>
						<rect x="68.6" y="138.3" class="st1" width="13.3" height="2.5"/>
						<g>
							<rect x="73.7" y="131.2" class="st1" width="3.5" height="7.8"/>
							<rect x="70.3" y="137.7" class="st1" width="10.3" height="3.6"/>
						</g>
					</g>
					<g>
						<rect x="63.6" y="100.6" class="st1" width="23.7" height="32.4"/>
						<rect x="63.6" y="105.5" class="st1" width="23.7" height="27.6"/>
						<path class="st2" d="M61.7,103.2v6.4c0,0.5,0.4,0.8,0.8,0.8h25.9c0.5,0,0.8-0.4,0.8-0.8v-6.4c0-0.5-0.4-0.8-0.8-0.8H62.6
							C62.1,102.4,61.7,102.8,61.7,103.2z"/>
						<path class="st2" d="M61.7,113.2v6.4c0,0.5,0.4,0.8,0.8,0.8h25.9c0.5,0,0.8-0.4,0.8-0.8v-6.4c0-0.5-0.4-0.8-0.8-0.8H62.6
							C62.1,112.4,61.7,112.8,61.7,113.2z"/>
						<path class="st2" d="M61.7,123.2v6.4c0,0.5,0.4,0.8,0.8,0.8h25.9c0.5,0,0.8-0.4,0.8-0.8v-6.4c0-0.5-0.4-0.8-0.8-0.8H62.6
							C62.1,122.4,61.7,122.7,61.7,123.2z"/>
						<path class="st3" d="M89.3,103c-0.1-0.4-0.4-0.6-0.8-0.6H62.6c-0.4,0-0.7,0.3-0.8,0.6H89.3z"/>
						<path class="st4" d="M61.7,109.6L61.7,109.6c0,0.5,0.4,0.8,0.8,0.8h25.9c0.5,0,0.8-0.4,0.8-0.8l0,0H61.7z"/>
						<path class="st3" d="M89.3,113.2c0-0.4-0.4-0.8-0.8-0.8H62.6c-0.5,0-0.8,0.4-0.8,0.8H89.3z"/>
						<path class="st5" d="M61.7,119.6L61.7,119.6c0,0.5,0.4,0.8,0.8,0.8h25.9c0.5,0,0.8-0.4,0.8-0.8l0,0H61.7z"/>
						<path class="st6" d="M89.3,123.1c-0.1-0.4-0.4-0.7-0.8-0.7H62.6c-0.4,0-0.7,0.3-0.8,0.7H89.3z"/>
						<path class="st7" d="M61.7,129.5L61.7,129.5c0,0.5,0.4,0.9,0.8,0.9h25.9c0.5,0,0.8-0.4,0.8-0.8v-0.1L61.7,129.5L61.7,129.5z"
							/>
						<path class="st8" d="M82.8,105.7c0,0.6-0.4,1-1,1s-1-0.4-1-1s0.4-1,1-1C82.3,104.7,82.8,105.1,82.8,105.7z"/>
						<circle class="st9" cx="84.7" cy="105.7" r="1"/>
						<path class="st8" d="M82.8,115.4c0,0.6-0.4,1-1,1s-1-0.4-1-1s0.4-1,1-1C82.3,114.4,82.8,114.9,82.8,115.4z"/>
						<circle class="st9" cx="84.7" cy="115.4" r="1"/>
						<path class="st8" d="M82.8,125.2c0,0.6-0.4,1-1,1s-1-0.4-1-1s0.4-1,1-1C82.3,124.2,82.8,124.7,82.8,125.2z"/>
						<circle class="st9" cx="84.7" cy="125.2" r="1"/>
					</g>
				</g>
			</g>
		</g>
	</g>
	<g class="st73">
		<g>
			<g>
				<defs>
					<path id="SVGID_45_" d="M46.2,109.9L46.2,109.9L46.2,109.9c0-0.1-0.1-0.2-0.1-0.2l0,0c0,0-0.1,0-0.1-0.1l0,0h-0.1h-0.6v-0.9
						H34.1v0.9h-0.5h-0.1l0,0c0,0-0.1,0-0.1,0.1l0,0c-0.1,0.1-0.1,0.1-0.1,0.2l0,0l0,0v0.1v3l0,0c0,0.1,0,0.2,0.1,0.2
						c0,0.1,0.1,0.1,0.2,0.1c0,0,0.1,0,0.2,0h0.3v0.9h-0.5h-0.1l0,0l0,0l0,0l0,0c0,0,0,0-0.1,0l0,0c-0.1,0.1-0.1,0.2-0.1,0.3l0,0
						l0,0l0,0v3l0,0c0,0.1,0,0.2,0.1,0.2c0,0.1,0.1,0.1,0.2,0.1c0,0,0.1,0,0.2,0h0.3v0.9h-0.5h-0.1l0,0c0,0-0.1,0-0.1,0.1l0,0
						l-0.1,0.1l0,0v0.1l0,0l0,0c0,0,0,0,0,0.1v3l0,0c0,0.1,0,0.2,0.1,0.2c0,0.1,0.1,0.1,0.2,0.1c0,0,0.1,0,0.2,0h0.3v1.2h4.8v2.2
						h-1.6v0.3h-0.8h-3.4v1.2h3.3h0.8v0.2h4.9v-0.2h0.6h3.5v-1.2h-3.5h-0.6v-0.3h-1.6v-1.7h4.8v-1.2h0.6c0.2,0,0.4-0.2,0.4-0.4l0,0
						v-3c0,0,0,0,0-0.1l0,0l0,0v-0.1l0,0c0,0,0-0.1-0.1-0.1l0,0c0,0-0.1,0-0.1-0.1l0,0H46h-0.6v-1H46c0.2,0,0.4-0.2,0.4-0.4l0,0v-3
						l0,0l0,0l0,0c0-0.1,0-0.2-0.1-0.3l0,0c0,0,0,0-0.1,0l0,0l0,0l0,0l0,0h-0.1h-0.6v-0.9h0.6c0.2,0,0.4-0.2,0.4-0.4l0,0L46.2,109.9
						L46.2,109.9z"/>
				</defs>
				<clipPath id="SVGID_46_">
					<use xlink:href="#SVGID_45_"  style="overflow:visible;"/>
				</clipPath>
				<g class="st75">
					<g>
						<rect x="33.1" y="126.6" class="st1" width="13.1" height="1.2"/>
						<rect x="36.4" y="126.6" class="st1" width="6.3" height="1.2"/>
						<g>
							<rect x="38.8" y="123.2" class="st1" width="1.6" height="3.7"/>
							<rect x="37.2" y="126.3" class="st1" width="4.9" height="1.7"/>
						</g>
					</g>
					<g>
						<rect x="34.1" y="108.7" class="st1" width="11.2" height="15.4"/>
						<rect x="34.1" y="111" class="st1" width="11.2" height="13.1"/>
						<path class="st2" d="M33.1,110v3c0,0.2,0.2,0.4,0.4,0.4h12.3c0.2,0,0.4-0.2,0.4-0.4v-3c0-0.2-0.2-0.4-0.4-0.4H33.5
							C33.3,109.6,33.1,109.7,33.1,110z"/>
						<path class="st2" d="M33.1,114.7v3c0,0.2,0.2,0.4,0.4,0.4h12.3c0.2,0,0.4-0.2,0.4-0.4v-3c0-0.2-0.2-0.4-0.4-0.4H33.5
							C33.3,114.3,33.1,114.5,33.1,114.7z"/>
						<path class="st2" d="M33.1,119.4v3c0,0.2,0.2,0.4,0.4,0.4h12.3c0.2,0,0.4-0.2,0.4-0.4v-3c0-0.2-0.2-0.4-0.4-0.4H33.5
							C33.3,119,33.1,119.2,33.1,119.4z"/>
						<path class="st3" d="M46.2,109.9c0-0.2-0.2-0.3-0.4-0.3H33.5c-0.2,0-0.3,0.1-0.4,0.3H46.2z"/>
						<path class="st4" d="M33.1,113L33.1,113c0,0.2,0.2,0.4,0.4,0.4h12.3c0.2,0,0.4-0.2,0.4-0.4l0,0H33.1z"/>
						<path class="st3" d="M46.2,114.7c0-0.2-0.2-0.4-0.4-0.4H33.5c-0.2,0-0.4,0.2-0.4,0.4H46.2z"/>
						<path class="st5" d="M33.1,117.7L33.1,117.7c0,0.2,0.2,0.4,0.4,0.4h12.3c0.2,0,0.4-0.2,0.4-0.4l0,0H33.1z"/>
						<path class="st6" d="M46.2,119.4c0-0.2-0.2-0.3-0.4-0.3H33.5c-0.2,0-0.4,0.1-0.4,0.3H46.2z"/>
						<path class="st7" d="M33.1,122.4L33.1,122.4c0,0.2,0.2,0.4,0.4,0.4h12.3c0.2,0,0.4-0.2,0.4-0.4l0,0H33.1z"/>
						<path class="st8" d="M43.1,111.1c0,0.3-0.2,0.5-0.5,0.5s-0.5-0.2-0.5-0.5s0.2-0.5,0.5-0.5S43.1,110.9,43.1,111.1z"/>
						<circle class="st9" cx="44" cy="111.1" r="0.5"/>
						<path class="st8" d="M43.1,115.7c0,0.3-0.2,0.5-0.5,0.5s-0.5-0.2-0.5-0.5s0.2-0.5,0.5-0.5C42.9,115.3,43.1,115.5,43.1,115.7z"
							/>
						<circle class="st9" cx="44" cy="115.7" r="0.5"/>
						<path class="st8" d="M43.1,120.4c0,0.3-0.2,0.5-0.5,0.5s-0.5-0.2-0.5-0.5s0.2-0.5,0.5-0.5S43.1,120.1,43.1,120.4z"/>
						<circle class="st9" cx="44" cy="120.4" r="0.5"/>
					</g>
				</g>
			</g>
		</g>
	</g>
	<path class="st76" d="M46.2,120.5h8.1c0,0,2.2-0.3,2.1,2.2c-0.1,2.5-1.4,2.7-1.4,2.7h-1c0,0-0.8,0.1-0.5,1v0.8"/>
	<path class="st77" d="M52.7,128.3c0,0-0.1-1.1,0.6-1h0.3c0,0,0.7-0.2,0.5,1l0,0H52.7z"/>
	<line class="st76" x1="53" y1="128.3" x2="53" y2="129"/>
	<line class="st76" x1="53.9" y1="128.3" x2="53.9" y2="129"/>
	<g class="st78">
		<g>
			<g id="man_10_">
				<g>
					<g>
						<path class="st79" d="M65.7,137.8c-0.1,0.3-0.5,0.5-0.6,0.8c0,0.3-0.2,0.4-0.3,0.5h-1.1c0-0.1-0.1-0.2,0.2-0.3
							c0.4-0.1,0.5-0.5,0.5-0.8c0-0.2,0-0.3,0-0.5s0-0.4,0-0.4l0.8-0.2l0.1,0.1l0.1,0.1C65.3,137.1,65.8,137.5,65.7,137.8z"/>
					</g>
					<g>
						<path class="st79" d="M59.6,139.1H57c0-0.1,0.1-0.2,0.4-0.3c0.4-0.1,1.1-0.3,1.2-0.7l0,0c0.1-0.5,1,0.2,1,0.2s0,0,0,0.1
							C59.7,138.4,59.8,138.9,59.6,139.1z"/>
					</g>
					<g>
						<path class="st79" d="M57.5,125.7c0,0,0.1,1.5,0.3,3.4c0.2,2.5,0.5,5.6,0.5,6.2c0,1,0.2,2.6,0.2,2.6s0.4,0.4,1.3,0.2
							c0,0,0.8-2.3,1-4.8v-0.1c0.2-2.5,0.5-7.8,0.5-7.8L57.5,125.7z"/>
					</g>
					<g>
						<path class="st79" d="M57.5,125.7c0,0,0.1,1.5,0.3,3.4l3,4.3v-0.1c0.2-2.5,0.5-7.8,0.5-7.8L57.5,125.7z"/>
					</g>
					<g>
						<path class="st79" d="M58.1,125.9c0,0,2.4,5.6,4.1,8.2c1.6,2.6,2.1,3.4,2.1,3.4s0.9-0.3,1-0.6c0,0-0.6-5.1-1.7-6.3
							c-0.6-0.7-1.3-2.8-1.4-3.5c0-0.7-0.2-2.2-0.2-2.2L58.1,125.9z"/>
					</g>
				</g>
				<g>
					<path class="st79" d="M55.7,124.4l-0.1,0.3c0,0-0.7,0.1-0.5,0.8c0,0,0.1,0.3,0.3,0.2c0.2-0.1,0.1-0.1,0.4-0.2
						c0.3-0.1,0.4-0.3,0.4-0.6v-0.2L55.7,124.4z"/>
				</g>
				<g>
					<path class="st79" d="M59.4,117.3c-0.1-0.6-0.1-0.9-0.1-0.9l1.2-0.9c0,1.3,0.8,1.9,0.8,1.9s-1.7,0.7-2.6,0.5
						C58.8,117.8,59,117.5,59.4,117.3z"/>
				</g>
				<g>
					<path class="st79" d="M59,116.3c0,0,1.6,0.2,1.7-0.7c0.1-0.9,0.5-1.5-0.6-1.7c-1-0.2-1.3,0.1-1.4,0.4
						C58.7,114.7,58.6,116.2,59,116.3z"/>
				</g>
				<g>
					<path class="st79" d="M60.7,115.7c0,0,0-1.2-1.5-1.4c-1-0.1-0.4-0.9-0.3-1c0,0,0.8,0.1,1.5,0.3
						C62.1,113.9,60.9,115.6,60.7,115.7z"/>
				</g>
				<g>
					<path class="st79" d="M55.8,124.7c-0.2-0.2-0.4-0.5-0.4-0.5s1.8-2,1.9-2.2c0.1-0.2,1.2-3.6,1.2-3.6l2.8-0.5
						c0,0-2.3,4.3-2.7,4.9c-0.6,0.9-2.5,2.2-2.5,2.2S56,124.9,55.8,124.7z"/>
				</g>
				<g>
					<path class="st79" d="M57.4,125.9L57.4,125.9c0.5,0,1.5,0.2,2.4,0.1c0.7-0.1,1.4-0.3,2.1-0.6c0.1,0,0.3-0.1,0.3-0.2
						s0-0.3,0-0.4c-0.1-0.7-0.1-1.8-0.1-3.1c0-0.2,0-0.5,0-0.7c0-1.8-0.4-3.4-1.2-3.9c-0.1,0-0.5,0.2-0.9,0.3
						c-0.3,0.2-0.7,0.2-1,0.1l-0.3,0.3c-0.4,0.3-0.8,0.8-1,1.5c-0.2,0.6-0.3,1.7-0.3,2.8c0,0.5,0,1,0,1.5l0,0v0.1
						C57.4,124.9,57.4,125.8,57.4,125.9z"/>
				</g>
				<g>
					<path class="st79" d="M62.2,124.7c-0.1-0.7-0.1-1.8-0.1-3.1c0-0.2,0-0.5,0-0.7c-0.3-0.7-0.6-1.2-0.6-1.2h-0.8
						C60.8,119.6,60.2,123.4,62.2,124.7z"/>
				</g>
				<g>
					<g>
						<path class="st79" d="M68.6,128.2l-0.6-1.9c-0.2-0.6-0.9-0.9-1.5-0.7l-4.8,1.3c-0.6,0.2-1,0.8-0.8,1.3l0.6,1.9
							c0.2,0.6,0.9,0.9,1.5,0.7l4.8-1.3C68.4,129.4,68.8,128.8,68.6,128.2z"/>
					</g>
					<g>
						<g>
							<path class="st79" d="M69.2,128l-0.6-1.9c-0.2-0.6-0.9-0.9-1.5-0.7l-1.6,0.5l-0.1-0.4c-0.1-0.2-0.3-0.3-0.5-0.2h-0.1
								l-0.8,0.2l-0.5,0.1c-0.1,0-0.2,0.1-0.2,0.2s-0.1,0.2,0,0.3l0.1,0.4l-0.9,0.3h-0.1l0,0l0,0l0,0c-0.5,0.2-0.8,0.8-0.7,1.3
								l0.6,1.9c0.2,0.5,0.7,0.8,1.2,0.8l0,0c0.1,0,0.2,0,0.3,0l0,0l4.7-1.3C69.1,129.2,69.4,128.6,69.2,128z M63.5,126.4l-0.1-0.4
								c0-0.1,0-0.1,0.1-0.2l0.5-0.1l0.8-0.2H65l0,0c0.1,0,0.1,0,0.1,0.1l0.1,0.4L63.5,126.4z"/>
						</g>
					</g>
				</g>
				<g>
					<path class="st79" d="M63.8,125l0.2,0.2c0,0-0.3,0.6,0.4,0.8c0,0,0.3,0.1,0.3-0.1s0-0.1,0-0.4s-0.1-0.5-0.3-0.6l-0.2-0.2
						L63.8,125z"/>
				</g>
				<g>
					<path class="st79" d="M64.2,125c-0.3,0.1-0.6,0-0.6,0s-0.9-2.5-1-2.7s-2.6-2.9-2.6-2.9l1-2.4c0,0,2.7,4.1,3,4.7
						c0.5,1,0.6,3.1,0.6,3.1S64.5,125,64.2,125z"/>
				</g>
			</g>
		</g>
	</g>
</g>
<path class="st79 test" d="M91.2,82.1c-0.2,0.2-0.4,0.5-0.6,0.7c0.1,0,0.1,0,0.2,0c0.2-0.2,0.4-0.5,0.6-0.7
	C91.3,82.1,91.2,82.1,91.2,82.1z"/>
<path class="st79 test" d="M90.7,82.1c0.2,0.2,0.4,0.5,0.6,0.7c-0.1,0-0.1,0-0.2,0c-0.2-0.2-0.4-0.5-0.6-0.7
	C90.6,82.1,90.7,82.1,90.7,82.1z"/>
<path class="st79" d="M91.2,84.6c-0.2,0.2-0.4,0.5-0.6,0.7c0.1,0,0.1,0,0.2,0c0.2-0.2,0.4-0.5,0.6-0.7
	C91.3,84.6,91.3,84.6,91.2,84.6z"/>
<path class="st79" d="M90.7,84.6c0.2,0.2,0.4,0.5,0.6,0.7c-0.1,0-0.1,0-0.2,0c-0.2-0.2-0.4-0.5-0.6-0.7
	C90.6,84.6,90.7,84.6,90.7,84.6z"/>
<path class="st79" d="M91.2,86.2c-0.2,0.2-0.4,0.5-0.6,0.7c0.1,0,0.1,0,0.2,0c0.2-0.2,0.4-0.5,0.6-0.7
	C91.3,86.2,91.3,86.2,91.2,86.2z"/>
<path class="st79" d="M90.7,86.2c0.2,0.2,0.4,0.5,0.6,0.7c-0.1,0-0.1,0-0.2,0c-0.2-0.2-0.4-0.5-0.6-0.7
	C90.6,86.2,90.7,86.2,90.7,86.2z"/>
<path class="st79" d="M91.2,87.9c-0.2,0.2-0.4,0.5-0.6,0.7c0.1,0,0.1,0,0.2,0c0.2-0.2,0.4-0.5,0.6-0.7
	C91.3,87.9,91.2,87.9,91.2,87.9z"/>
<path class="st79" d="M90.7,87.9c0.2,0.2,0.4,0.5,0.6,0.7c-0.1,0-0.1,0-0.2,0c-0.2-0.2-0.4-0.5-0.6-0.7
	C90.6,87.9,90.6,87.9,90.7,87.9z"/>
<path class="st79" d="M113.4,82.2c-0.2,0.2-0.4,0.5-0.6,0.7c0.1,0,0.1,0,0.2,0c0.2-0.2,0.4-0.5,0.6-0.7
	C113.5,82.2,113.5,82.2,113.4,82.2z"/>
<path class="st79" d="M112.9,82.2c0.2,0.2,0.4,0.5,0.6,0.7c-0.1,0-0.1,0-0.2,0c-0.2-0.2-0.4-0.5-0.6-0.7
	C112.8,82.2,112.9,82.2,112.9,82.2z"/>
<path class="st79" d="M113.4,84.3c-0.2,0.2-0.4,0.5-0.6,0.7c0.1,0,0.1,0,0.2,0c0.2-0.2,0.4-0.5,0.6-0.7
	C113.6,84.3,113.5,84.3,113.4,84.3z"/>
<path class="st79" d="M113,84.3c0.2,0.2,0.4,0.5,0.6,0.7c-0.1,0-0.1,0-0.2,0c-0.2-0.2-0.4-0.5-0.6-0.7
	C112.8,84.3,112.9,84.3,113,84.3z"/>
<path class="st79" d="M113.4,87c-0.2,0.2-0.4,0.5-0.6,0.7c0.1,0,0.1,0,0.2,0c0.2-0.2,0.4-0.5,0.6-0.7C113.5,87,113.5,87,113.4,87z"
	/>
<path class="st79" d="M112.9,87c0.2,0.2,0.4,0.5,0.6,0.7c-0.1,0-0.1,0-0.2,0c-0.2-0.2-0.4-0.5-0.6-0.7C112.8,87,112.9,87,112.9,87z"
	/>
</svg>
