<svg id="Layer_1" data-name="Layer 1" xmlns="http://www.w3.org/2000/svg" width="874.9" height="583" viewBox="0 0 874.9 583">
  <title>graphic design</title>
  <style>
    svg{
      margin-left: 10%;
    }
    .wind{
      transform: scale(0.3) translateX(10%) translateY(170%);

    }
    .whole{
      transform: translateX(10%);
    }
  </style>
  <g class="wind">
    <polyline stroke-width="2" fill="none" points="45.89796447753906,113.24489688873291 53.380950927734375,115.96598148345947 57.46258544921875,117.32651615142822 61.544219970703125,118.68706607818604 71.06803131103516,121.4081506729126 83.31292724609375,124.12925052642822 93.51700592041016,126.85033512115479 105.08163452148438,130.25168704986572 111.88435363769531,132.97278690338135 120.72789001464844,135.01358890533447 128.8911590576172,136.37415409088135 137.7346954345703,137.7346887588501 147.93878173828125,139.09522342681885 156.78231811523438,139.77549076080322 166.30612182617188,139.77549076080322 175.149658203125,139.77549076080322 185.35374450683594,139.77549076080322 192.15646362304688,139.77549076080322 199.6394500732422,138.41495609283447 206.44216918945312,137.05442142486572 213.24490356445312,136.37415409088135 220.72789001464844,134.3333215713501 226.17005920410156,132.29251956939697 232.2925262451172,130.25168704986572 237.05442810058594,128.21086978912354 241.1360626220703,125.48978519439697 244.5373992919922,123.44896793365479 247.9387664794922,120.72788333892822 249.29933166503906,119.36733341217041 250.6598663330078,118.00679874420166 252.02040100097656,115.96598148345947 253.3809356689453,113.24489688873291 254.0612335205078,109.84352970123291 254.0612335205078,108.4829797744751 254.7415008544922,106.44216251373291 254.7415008544922,104.40134525299072 254.7415008544922,103.04081058502197 254.7415008544922,100.31972599029541 254.7415008544922,97.59862613677979 254.7415008544922,94.19727420806885 253.3809356689453,92.15645694732666 252.02040100097656,90.79590702056885 251.3401336669922,89.4353723526001 249.97959899902344,88.07482242584229 248.61903381347656,86.71427249908447 246.57823181152344,83.99318790435791 245.2176971435547,82.6326379776001 243.17686462402344,80.59183597564697 239.77549743652344,78.55101871490479 237.7346954345703,77.19046878814697 236.37416076660156,76.5102014541626 234.3333282470703,75.14965152740479 232.2925262451172,74.46938419342041 230.25169372558594,73.78910160064697 228.8911590576172,73.1088342666626 226.85032653808594,72.42856693267822 224.8095245361328,72.42856693267822 222.76870727539062,72.42856693267822 220.04762268066406,71.74828433990479 215.9659881591797,71.74828433990479 212.5646209716797,71.74828433990479 209.84353637695312,71.74828433990479 207.80271911621094,71.74828433990479 203.72108459472656,72.42856693267822 201,73.1088342666626 199.6394500732422,73.78910160064697 198.27891540527344,74.46938419342041 197.5986328125,74.46938419342041 196.23809814453125,75.82991886138916 195.5578155517578,76.5102014541626 193.51699829101562,77.87073612213135 192.83673095703125,79.23128604888916 192.15646362304688,80.59183597564697 190.79591369628906,81.95237064361572 190.1156463623047,83.99318790435791 188.75509643554688,86.71427249908447 188.75509643554688,88.07482242584229 188.0748291015625,89.4353723526001 188.0748291015625,90.79590702056885 188.0748291015625,91.47618961334229 188.0748291015625,92.15645694732666 188.0748291015625,93.51699161529541 188.0748291015625,94.87754154205322 188.0748291015625,96.23809146881104 188.0748291015625,97.59862613677979 188.0748291015625,99.63944339752197 188.0748291015625,101.68026065826416 188.75509643554688,104.40134525299072 188.75509643554688,105.08162784576416 189.4353790283203,107.12244510650635 190.1156463623047,108.4829797744751 191.4761962890625,109.84352970123291 192.15646362304688,111.20407962799072 193.51699829101562,112.56461429595947 194.87754821777344,113.92516422271729 196.23809814453125,114.60543155670166 197.5986328125,115.28569889068604 198.27891540527344,115.96598148345947 199.6394500732422,116.64624881744385 202.3605499267578,118.68706607818604 203.72108459472656,118.68706607818604 204.40135192871094,119.36733341217041 205.76190185546875,119.36733341217041 207.12245178222656,120.04761600494385 208.4829864501953,120.04761600494385 209.16326904296875,120.04761600494385 210.5238037109375,120.04761600494385 211.20408630371094,120.04761600494385 212.5646209716797,120.04761600494385 213.9251708984375,120.04761600494385 215.9659881591797,120.04761600494385 216.64625549316406,119.36733341217041 217.32652282714844,118.68706607818604 218.00680541992188,118.68706607818604 219.36734008789062,117.32651615142822 220.04762268066406,116.64624881744385 220.72789001464844,115.96598148345947 220.72789001464844,114.60543155670166 221.4081573486328,113.92516422271729 221.4081573486328,112.56461429595947 221.4081573486328,111.8843469619751 221.4081573486328,111.20407962799072 221.4081573486328,108.4829797744751 221.4081573486328,107.80271244049072 221.4081573486328,106.44216251373291 221.4081573486328,105.08162784576416 221.4081573486328,103.04081058502197 221.4081573486328,100.31972599029541 221.4081573486328,96.91835880279541 " stroke="#333"/>
    <polyline stroke-width="2" stroke="#333" fill="none" points="162.2244873046875,241.8163299560547 164.94557189941406,243.17686462402344 166.30612182617188,244.5373992919922 171.06802368164062,248.61903381347656 175.149658203125,250.6598663330078 178.551025390625,253.3809356689453 181.27210998535156,254.0612030029297 183.99319458007812,255.42176818847656 186.0340118408203,257.46258544921875 189.4353790283203,258.8231201171875 192.83673095703125,259.50341796875 196.9183807373047,261.544189453125 200.99998474121094,262.90472412109375 205.7619171142578,264.2652893066406 209.1632537841797,266.30609130859375 214.60545349121094,267.6666259765625 223.44898986816406,269.70745849609375 226.17005920410156,270.38775634765625 232.2925262451172,271.748291015625 240.45579528808594,272.4285888671875 245.89796447753906,273.7890930175781 252.70066833496094,274.4693603515625 258.8231201171875,275.82989501953125 264.2652893066406,275.82989501953125 269.0272216796875,276.5101623535156 273.7890930175781,276.5101623535156 280.59185791015625,276.5101623535156 283.31292724609375,276.5101623535156 288.755126953125,276.5101623535156 293.51702880859375,276.5101623535156 299.63946533203125,276.5101623535156 303.7210693359375,275.1496276855469 308.48297119140625,273.7890930175781 313.244873046875,271.748291015625 318.0068054199219,270.38775634765625 321.40814208984375,269.0272216796875 324.1292724609375,267.6666259765625 326.850341796875,266.9863586425781 330.251708984375,264.9455871582031 336.3741455078125,262.2244873046875 341.81634521484375,258.8231201171875 347.25848388671875,256.10205078125 351.34014892578125,254.0612030029297 354.74151611328125,251.3401336669922 356.10205078125,249.9795684814453 358.14288330078125,247.9387664794922 360.8639221191406,245.89793395996094 363.58502197265625,243.17686462402344 364.2652893066406,240.4557647705078 364.9455871582031,237.0543975830078 366.30609130859375,233.65306091308594 366.98638916015625,230.25169372558594 366.98638916015625,226.85032653808594 366.98638916015625,223.44895935058594 366.98638916015625,218.6870574951172 366.98638916015625,215.9659881591797 366.98638916015625,211.8843536376953 366.98638916015625,209.1632537841797 365.6258544921875,205.7618865966797 364.9455871582031,203.0408172607422 364.2652893066406,200.99998474121094 354.06121826171875,191.47618103027344 347.93878173828125,188.7550811767578 346.5782165527344,188.07481384277344 343.8571472167969,187.39454650878906 340.45574951171875,186.0340118408203 338.4149475097656,185.35374450683594 335.01361083984375,184.67344665527344 315.96600341796875,182.6326446533203 315.28570556640625,182.6326446533203 314.60546875,183.3129119873047 313.244873046875,183.3129119873047 312.56463623046875,183.3129119873047 311.2041015625,183.99317932128906 309.8435363769531,185.35374450683594 307.1224365234375,187.39454650878906 304.4013671875,188.7550811767578 302.36053466796875,190.1156463623047 300.3197021484375,191.47618103027344 299.63946533203125,192.8367156982422 298.2789306640625,193.51698303222656 297.5986328125,194.19728088378906 296.9183349609375,196.91835021972656 294.8775634765625,200.31971740722656 294.197265625,202.3605194091797 294.197265625,204.40135192871094 294.197265625,206.44215393066406 294.197265625,207.80271911621094 294.197265625,210.52378845214844 294.197265625,212.5646209716797 294.197265625,214.6054229736328 294.197265625,215.9659881591797 294.197265625,218.0067901611328 294.8775634765625,219.36732482910156 294.8775634765625,221.4081573486328 295.5578308105469,222.76869201660156 296.9183349609375,224.1292266845703 296.9183349609375,224.8095245361328 298.2789306640625,226.85032653808594 298.9591979980469,227.5305938720703 299.63946533203125,228.2108612060547 299.63946533203125,228.8911590576172 301.6802978515625,230.25169372558594 302.36053466796875,231.6122283935547 305.0816345214844,232.97279357910156 305.76190185546875,234.3333282470703 307.1224365234375,235.0135955810547 307.802734375,235.0135955810547 309.1632385253906,236.37413024902344 311.2041015625,237.0543975830078 312.56463623046875,237.0543975830078 313.9251708984375,237.7346954345703 315.28570556640625,238.4149627685547 317.3265380859375,238.4149627685547 318.68707275390625,238.4149627685547 319.36737060546875,238.4149627685547 322.08843994140625,238.4149627685547 322.7686767578125,238.4149627685547 324.8095397949219,238.4149627685547 325.48980712890625,238.4149627685547 326.1700439453125,238.4149627685547 327.5306091308594,237.7346954345703 328.21087646484375,237.0543975830078 328.89117431640625,237.0543975830078 330.251708984375,236.37413024902344 330.9319763183594,235.69386291503906 332.29254150390625,235.0135955810547 333.653076171875,234.3333282470703 334.33331298828125,233.65306091308594 335.01361083984375,232.97279357910156 335.6938781738281,232.29249572753906 336.3741455078125,230.9319610595703 337.054443359375,230.9319610595703 337.054443359375,230.25169372558594 337.7347106933594,230.25169372558594 337.7347106933594,229.57142639160156 337.7347106933594,228.2108612060547 338.4149475097656,226.85032653808594 338.4149475097656,226.17005920410156 338.4149475097656,225.4897918701172 338.4149475097656,224.1292266845703 338.4149475097656,223.44895935058594 338.4149475097656,222.76869201660156 338.4149475097656,221.4081573486328 338.4149475097656,220.04762268066406 338.4149475097656,218.6870574951172 337.7347106933594,218.0067901611328 337.054443359375,216.64625549316406 335.6938781738281,215.9659881591797 335.6938781738281,215.2856903076172 335.01361083984375,214.6054229736328 334.33331298828125,213.92515563964844 333.653076171875,213.24488830566406 332.9727783203125,213.24488830566406 330.9319763183594,211.8843536376953 330.251708984375,211.8843536376953 328.89117431640625,211.20408630371094 326.850341796875,210.52378845214844 324.8095397949219,210.52378845214844 324.1292724609375,210.52378845214844 323.448974609375,210.52378845214844 322.08843994140625,209.84352111816406 "/>
    <polyline stroke-width="2" stroke="#333" fill="none" points="362.22447776794434,139.09523010253906 368.34691429138184,137.73468017578125 369.7074794769287,137.73468017578125 375.14964866638184,137.05441284179688 383.3129177093506,137.05441284179688 391.47618675231934,137.05441284179688 402.3605251312256,137.05441284179688 407.8026943206787,136.3741455078125 413.92516136169434,135.69386291503906 421.4081325531006,134.3333282470703 428.8911647796631,133.65304565429688 440.45580101013184,130.9319610595703 452.0204372406006,126.17005920410156 464.2653102874756,120.72787475585938 471.0680446624756,117.32652282714844 475.82994651794434,115.28570556640625 480.59181785583496,111.20407104492188 482.63268089294434,109.16325378417969 486.03404808044434,106.44216918945312 489.43532371520996,103.04080200195312 494.1973171234131,98.95916748046875 498.27892112731934,95.55781555175781 501.68028831481934,92.15644836425781 505.7618923187256,89.43536376953125 508.48302268981934,86.71427917480469 512.5646266937256,83.31291198730469 514.6054592132568,81.95237731933594 516.6462917327881,79.91156005859375 520.7278957366943,76.51019287109375 523.4489650726318,73.10884094238281 525.4897975921631,71.06802368164062 526.8503322601318,69.02720642089844 528.2108669281006,67.66665649414062 529.5714626312256,65.62583923339844 530.9319972991943,62.904754638671875 532.2925319671631,60.86393737792969 532.9727687835693,58.8231201171875 534.3333644866943,56.10203552246094 534.3333644866943,55.42176818847656 534.3333644866943,53.380950927734375 535.0136013031006,49.979583740234375 535.6938991546631,47.93876647949219 535.6938991546631,45.89794921875 535.6938991546631,43.85713195800781 535.6938991546631,41.816314697265625 535.6938991546631,39.77549743652344 535.0136013031006,38.41496276855469 533.6530666351318,36.3741455078125 532.2925319671631,34.33332824707031 531.6122341156006,32.9727783203125 530.2516994476318,31.61224365234375 527.5306301116943,28.891143798828125 525.4897975921631,27.530609130859375 524.1292629241943,26.170059204101562 523.4489650726318,25.489791870117188 522.0884304046631,24.129241943359375 520.0475978851318,23.448974609375 518.0068264007568,22.088424682617188 517.3265285491943,22.088424682617188 515.9659938812256,21.408157348632812 514.6054592132568,21.408157348632812 511.88438987731934,21.408157348632812 510.52379417419434,21.408157348632812 505.7618923187256,20.727890014648438 502.36049461364746,20.727890014648438 498.27892112731934,20.727890014648438 494.87755393981934,20.727890014648438 492.15648460388184,20.727890014648438 490.1156520843506,20.727890014648438 488.0747890472412,20.727890014648438 484.67345237731934,20.727890014648438 481.95238304138184,20.727890014648438 479.9115505218506,22.088424682617188 477.1904811859131,22.768707275390625 473.10887718200684,24.80950927734375 472.4285488128662,24.80950927734375 469.02721214294434,27.530609130859375 466.30614280700684,29.571426391601562 464.2653102874756,31.61224365234375 462.22447776794434,33.65306091308594 460.8639430999756,35.69386291503906 459.5033779144287,37.73468017578125 458.82311058044434,39.09523010253906 457.4625759124756,41.816314697265625 456.78233909606934,43.17686462402344 455.42177391052246,45.217681884765625 454.7415065765381,48.61903381347656 454.0612087249756,51.34013366699219 454.0612087249756,54.06121826171875 453.38097190856934,56.10203552246094 453.38097190856934,58.142852783203125 453.38097190856934,60.18367004394531 453.38097190856934,62.2244873046875 454.0612087249756,64.94557189941406 454.7415065765381,66.98638916015625 455.42177391052246,69.02720642089844 456.10204124450684,71.06802368164062 457.4625759124756,73.78910827636719 459.5033779144287,75.149658203125 460.8639430999756,77.87074279785156 463.58507347106934,81.2720947265625 464.9456081390381,82.63264465332031 466.9863796234131,83.99319458007812 468.3469753265381,84.6734619140625 469.70750999450684,85.35372924804688 471.74828147888184,86.03401184082031 472.4285488128662,86.03401184082031 473.78908348083496,86.71427917480469 474.4694118499756,86.71427917480469 475.1496181488037,86.71427917480469 476.5101833343506,86.71427917480469 477.1904811859131,86.71427917480469 480.59181785583496,86.71427917480469 481.95238304138184,86.71427917480469 483.3129177093506,86.71427917480469 483.9932155609131,86.71427917480469 484.67345237731934,86.71427917480469 486.03404808044434,86.71427917480469 487.3945827484131,86.03401184082031 489.43532371520996,85.35372924804688 490.7959499359131,84.6734619140625 492.15648460388184,83.99319458007812 493.5170192718506,83.31291198730469 494.1973171234131,82.63264465332031 494.87755393981934,81.2720947265625 496.2380886077881,80.59182739257812 496.9183864593506,79.91156005859375 498.27892112731934,78.55101013183594 498.95921897888184,77.87074279785156 498.95921897888184,77.19046020507812 500.3197536468506,75.149658203125 500.3197536468506,73.78910827636719 500.99999046325684,72.42855834960938 500.99999046325684,71.06802368164062 500.99999046325684,69.70747375488281 500.99999046325684,68.346923828125 500.99999046325684,66.30612182617188 500.99999046325684,65.62583923339844 500.99999046325684,63.58502197265625 500.3197536468506,62.904754638671875 498.95921897888184,61.54420471191406 498.27892112731934,60.86393737792969 497.59862327575684,60.18367004394531 496.9183864593506,59.503387451171875 495.55785179138184,58.8231201171875 494.87755393981934,58.142852783203125 494.1973171234131,58.142852783203125 493.5170192718506,56.78230285644531 492.83669090270996,56.78230285644531 492.15648460388184,56.10203552246094 491.47618675231934,56.10203552246094 490.1156520843506,55.42176818847656 488.75511741638184,54.741485595703125 488.0747890472412,54.741485595703125 487.3945827484131,54.741485595703125 486.7142848968506,54.06121826171875 485.3537197113037,54.06121826171875 484.67345237731934,54.06121826171875 483.9932155609131,54.06121826171875 481.95238304138184,54.06121826171875 481.27211570739746,54.06121826171875 479.9115505218506,54.06121826171875 478.55101585388184,54.06121826171875 477.8707790374756,54.06121826171875 477.1904811859131,54.06121826171875 476.5101833343506,54.06121826171875 475.82994651794434,54.06121826171875 475.82994651794434,54.741485595703125 474.4694118499756,54.741485595703125 473.78908348083496,54.741485595703125 473.78908348083496,55.42176818847656 473.10887718200684,55.42176818847656 472.4285488128662,56.10203552246094 471.74828147888184,56.78230285644531 471.74828147888184,57.46257019042969 471.74828147888184,58.142852783203125 471.0680446624756,58.8231201171875 471.0680446624756,60.18367004394531 471.0680446624756,61.54420471191406 471.0680446624756,63.58502197265625 471.0680446624756,64.26530456542969"/>
    <polyline stroke-width="2" stroke="#333" fill="none" points="44.53741455078125,138.41496181488037 50.65986633300781,141.13603115081787 52.70068359375,141.81632900238037 54.06122589111328,142.49659633636475 58.142860412597656,143.8571310043335 62.22449493408203,144.53739833831787 65.6258544921875,145.89796352386475 69.70748901367188,145.89796352386475 72.42857360839844,146.57823085784912 77.19047546386719,147.93876552581787 78.551025390625,148.61903285980225 83.31292724609375,149.97959804534912 86.03401947021484,150.6598653793335 89.43537902832031,150.6598653793335 92.15646362304688,151.34013271331787 "/>
  </g>
  <g class="whole">
  <g class="cactus">
    <path d="M94.4,456.4c.3-27.1-2.5-56.6,1.7-81.8a26.1,26.1,0,0,0-.7-13c-9.3,6-10.4,30-10.7,39.7-7.7-23.4-12.5-49.5-10-73.5.9-8.7.9-21.5-8.2-13.7s-5.1,31.2-3.2,39.3c-6.2-19-13.7-38-19.9-56.5-7.3-22-26.1-16.6-12,4.7,9.2,13.8,22.8,46.3,22.8,46.3S10.9,295.4,3.4,304c-5.5,6.3,43.6,41.8,51.3,54.4-6.6-6.6-29.3-22.6-33.5-13.3-2.3,5.1,6.3,7.2,11.7,9.8,14.5,7.2,26.4,17,33.7,31.9,3.5,8,5.1,12,8,20.2-4.6-7.1-23.4-22.9-26.3-16.4-1.9,4.4,9.6,13,15.2,18.6,13.9,13.9,21.1,29,24.9,48.2Z" fill="#e7e7e7"/>
    <path d="M91.8,453c6.2-22.3,15.4-45.8,17.9-67.4a21.1,21.1,0,0,1,3.7-10.5c6.2,7.2,1.4,27-.7,35,11.9-17.3,22-37.6,25.5-57.8,1.3-7.3,4.4-17.8,10-9.2s-3.2,26.7-6.6,32.9c9.5-14.1,20.2-27.8,29.6-41.6,11.2-16.2,25.3-7.4,8.7,6.7-10.8,9.2-29.6,32.5-29.6,32.5s47.8-32.7,51.9-23.9c3.1,6.5-45.5,23.9-54.8,32.4,7-3.9,29.3-11.6,30.6-3,.7,4.8-6.9,4.4-11.9,5.3-13.6,2.5-25.6,7.7-35.1,18.2a162.1,162.1,0,0,0-11.3,14.6c5.4-4.7,24.5-13.3,25.3-7.3.6,4.1-10.9,8.4-16.8,11.7-14.6,8.1-24.1,18.8-31.8,33.5Z" fill="#e1e1e1"/>
    <path d="M41.6,440.9,52,520.7a16.2,16.2,0,0,0,16,14h47.5a16.1,16.1,0,0,0,16-14l10.4-79.8Z" fill="#ececec"/>
  </g>
  <g>
    <g>
      <g>
        <polygon points="565.3 467.7 161.2 467.7 185.3 123.3 589.4 123.3 565.3 467.7" fill="#263238"/>
        <polygon points="565.3 467.7 161.2 467.7 185.3 123.3 589.4 123.3 565.3 467.7" fill="#fff" opacity="0.9"/>
      </g>
      <polygon points="167.6 376.9 161.2 467.7 565.3 467.7 571.7 376.9 167.6 376.9" opacity="0.1"/>
      <g>
        <path d="M491.5,384.2h0a1.9,1.9,0,0,1-1.9-2l2.8-67.7h8l-6.7,67.7A2.3,2.3,0,0,1,491.5,384.2Z" fill="#263238"/>
        <g>
          <path d="M460.9,380.2h0A1.9,1.9,0,0,1,459,378l11.5-63.5h8l-15.5,64A2.1,2.1,0,0,1,460.9,380.2Z" fill="#263238"/>
          <path d="M522.7,380.2h0a2.2,2.2,0,0,0,2.2-2.2l-2.6-63.5h-8l6.6,64A1.8,1.8,0,0,0,522.7,380.2Z" fill="#263238"/>
        </g>
      </g>
      <g opacity="0.6">
        <path d="M491.5,384.2h0a1.9,1.9,0,0,1-1.9-2l2.8-67.7h8l-6.7,67.7A2.3,2.3,0,0,1,491.5,384.2Z" fill="#fff"/>
        <g>
          <path d="M460.9,380.2h0A1.9,1.9,0,0,1,459,378l11.5-63.5h8l-15.5,64A2.1,2.1,0,0,1,460.9,380.2Z" fill="#fff"/>
          <path d="M522.7,380.2h0a2.2,2.2,0,0,0,2.2-2.2l-2.6-63.5h-8l6.6,64A1.8,1.8,0,0,0,522.7,380.2Z" fill="#fff"/>
        </g>
      </g>
      <g>
        <polygon points="314.2 144.3 587.9 144.3 589.4 123.3 315.7 123.3 314.2 144.3" fill="#263238"/>
        <polygon points="314.2 144.3 587.9 144.3 589.4 123.3 315.7 123.3 314.2 144.3" fill="#fff" opacity="0.7"/>
        <polygon points="452.6 123.3 315.7 123.3 314.2 144.3 451.1 144.3 452.6 123.3" fill="#fff" opacity="0.3"/>
      </g>
      <polygon points="566.7 149.3 544.8 462.7 560.7 462.7 582.6 149.3 566.7 149.3" fill="#263238"/>
      <polygon points="566.7 149.3 544.8 462.7 560.7 462.7 582.6 149.3 566.7 149.3" fill="#fff" opacity="0.6"/>
      <g>
        <path d="M296.6,140.4H197.1a3,3,0,0,1-3.1-3.3h0a3.6,3.6,0,0,1,3.5-3.3h99.6a3,3,0,0,1,3,3.3h0A3.6,3.6,0,0,1,296.6,140.4Z" fill="#263238"/>
        <path d="M296.6,140.4H197.1a3,3,0,0,1-3.1-3.3h0a3.6,3.6,0,0,1,3.5-3.3h99.6a3,3,0,0,1,3,3.3h0A3.6,3.6,0,0,1,296.6,140.4Z" fill="#fff" opacity="0.5"/>
      </g>
      <g>
        <g>
          <g>
            <path d="M406.7,430.6h0a2.6,2.6,0,0,0,2.6-3l-13.7-78.4h-8.5l17.4,79.7A2.2,2.2,0,0,0,406.7,430.6Z" fill="#263238"/>
            <path d="M364,430.6h.1a2.6,2.6,0,0,0,2.6-2.8l-5-78.6h-8.6l8.6,79.4A2.2,2.2,0,0,0,364,430.6Z" fill="#263238"/>
          </g>
          <g opacity="0.5">
            <path d="M406.7,430.6h0a2.6,2.6,0,0,0,2.6-3l-13.7-78.4h-8.5l17.4,79.7A2.2,2.2,0,0,0,406.7,430.6Z" fill="#fff"/>
            <path d="M364,430.6h.1a2.6,2.6,0,0,0,2.6-2.8l-5-78.6h-8.6l8.6,79.4A2.2,2.2,0,0,0,364,430.6Z" fill="#fff"/>
          </g>
        </g>
        <path d="M278.1,327.7h72l-7.8-101.4c-2-25.6-23.2-46.1-47.7-46.1H275.9c-24.5,0-43.5,20.5-42.8,46.1l1.7,57.2Z" fill="#007cff"/>
        <path d="M278.1,327.7h72l-7.8-101.4c-2-25.6-23.2-46.1-47.7-46.1H275.9c-24.5,0-43.5,20.5-42.8,46.1l1.7,57.2Z" fill="#fde59d"/>
        <path d="M371.3,327.7H257.2l-2.9-101.4c-.7-25.6,18.3-46.1,42.9-46.1h18.6c24.6,0,45.7,20.5,47.7,46.1Z" fill="#ffc40c"/>
        <path d="M350.9,362.6c25.6-.2,52-11.5,69.7-31.4,14.5-16.4,23.3-36,25-57.2.6-8.1-6.1-15.9-14.4-15.5H383.1c-8.5.4-15.9,6.8-16.6,15.5-.1,1.7-.3,3.5-.5,5.2s-1,4.8-.6,3.1a79.9,79.9,0,0,1-3.2,10.2l-1.5,3.6c.3-.7-1.2,2.3-1.6,3-1.8,3.1-3.9,6.1-6,9l-.5.6-.9,1.1-3.5,3.6c-1.4,1.4-2.8,2.6-4.2,3.9l-2,1.6-1.6,1.2-2.8,1.8-4.4,2.6-3.8,1.9c-2.5-1.3-5-2.6-7.3-4.1l-3.8-2.8c2.7,1.9-.8-.7-1.6-1.4a74.6,74.6,0,0,1-7.1-7.8l-.6-.8c.4.4-1-1.6-1.3-1.9s-1.8-3.1-2.6-4.7a43.1,43.1,0,0,1-2.2-4.9,20.4,20.4,0,0,1-.9-2.2c1.3,3.3-.1-.4-.3-.9a67.9,67.9,0,0,1-2.2-10.9l-.3-2.5c.5,3.6,0-.3,0-1s0-4.3.2-6.5c.5-8.1-6-15.9-14.4-15.5H236.9c-8.4.4-16.1,6.8-16.6,15.5-2.3,37.5,19,70.3,53.1,83.4a80,80,0,0,0,30.4,5.1Z" fill="#007cff"/>
        <path d="M350.9,362.6c25.6-.2,52-11.5,69.7-31.4,14.5-16.4,23.3-36,25-57.2.6-8.1-6.1-15.9-14.4-15.5H383.1c-8.5.4-15.9,6.8-16.6,15.5-.1,1.7-.3,3.5-.5,5.2s-1,4.8-.6,3.1a79.9,79.9,0,0,1-3.2,10.2l-1.5,3.6c.3-.7-1.2,2.3-1.6,3-1.8,3.1-3.9,6.1-6,9l-.5.6-.9,1.1-3.5,3.6c-1.4,1.4-2.8,2.6-4.2,3.9l-2,1.6-1.6,1.2-2.8,1.8-4.4,2.6-3.8,1.9c-2.5-1.3-5-2.6-7.3-4.1l-3.8-2.8c2.7,1.9-.8-.7-1.6-1.4a74.6,74.6,0,0,1-7.1-7.8l-.6-.8c.4.4-1-1.6-1.3-1.9s-1.8-3.1-2.6-4.7a43.1,43.1,0,0,1-2.2-4.9,20.4,20.4,0,0,1-.9-2.2c1.3,3.3-.1-.4-.3-.9a67.9,67.9,0,0,1-2.2-10.9l-.3-2.5c.5,3.6,0-.3,0-1s0-4.3.2-6.5c.5-8.1-6-15.9-14.4-15.5H236.9c-8.4.4-16.1,6.8-16.6,15.5-2.3,37.5,19,70.3,53.1,83.4a80,80,0,0,0,30.4,5.1Z" fill="#fcc938"/>
        <path d="M414.7,274c-.2,1.7-.3,3.5-.6,5.2s-1.2,5.7-.3,2.3a87.7,87.7,0,0,1-3.5,11c-.6,1.6-1.3,3.1-2,4.7,1.5-3.2-.6,1-1.1,1.9a88,88,0,0,1-6,9l-.7.9c1.3-1.7-.4.4-.7.8l-3.5,3.6-4.2,3.9-2,1.6c-.3.3-3.2,2.3-1.3,1.1s-2.6,1.6-3.1,1.9l-4.4,2.6-4.5,2.2c-.5.2-3,1.3-1,.5s-1.3.5-1.7.6a84.1,84.1,0,0,1-9.8,2.8c-1.1.2-5.7.9-2.2.5l-6.5.5a90.4,90.4,0,0,1-10.4-.4c-.8-.1-2.8-.6.3.1l-2.5-.5a52.9,52.9,0,0,1-5.4-1.3,42.6,42.6,0,0,1-4.7-1.5l-2.2-.9c-2.1-.6,2.1,1.2.2.1s-6-3-8.8-4.9l-3.8-2.8c2.7,1.9-.8-.7-1.6-1.4a74.6,74.6,0,0,1-7.1-7.8l-1.4-1.9c2.1,2.9-.2-.4-.5-.8s-1.8-3.1-2.6-4.7a43.1,43.1,0,0,1-2.2-4.9,20.4,20.4,0,0,1-.9-2.2c1.3,3.3-.1-.4-.3-.9a67.9,67.9,0,0,1-2.2-10.9l-.3-2.5c.5,3.6,0-.3,0-1s0-4.3.2-6.5c.5-8.1-6-15.9-14.4-15.5s-16,6.8-16.6,15.5c-2.3,37.5,19,70.3,53.1,83.4s74.4,1.6,99.1-26.2c14.5-16.4,23.3-36,25-57.2.6-8.1-6.1-15.9-14.4-15.5s-15.9,6.8-16.5,15.5Z" fill="#007cff"/>
        <path d="M414.7,274c-.2,1.7-.3,3.5-.6,5.2s-1.2,5.7-.3,2.3a87.7,87.7,0,0,1-3.5,11c-.6,1.6-1.3,3.1-2,4.7,1.5-3.2-.6,1-1.1,1.9a88,88,0,0,1-6,9l-.7.9c1.3-1.7-.4.4-.7.8l-3.5,3.6-4.2,3.9-2,1.6c-.3.3-3.2,2.3-1.3,1.1s-2.6,1.6-3.1,1.9l-4.4,2.6-4.5,2.2c-.5.2-3,1.3-1,.5s-1.3.5-1.7.6a84.1,84.1,0,0,1-9.8,2.8c-1.1.2-5.7.9-2.2.5l-6.5.5a90.4,90.4,0,0,1-10.4-.4c-.8-.1-2.8-.6.3.1l-2.5-.5a52.9,52.9,0,0,1-5.4-1.3,42.6,42.6,0,0,1-4.7-1.5l-2.2-.9c-2.1-.6,2.1,1.2.2.1s-6-3-8.8-4.9l-3.8-2.8c2.7,1.9-.8-.7-1.6-1.4a74.6,74.6,0,0,1-7.1-7.8l-1.4-1.9c2.1,2.9-.2-.4-.5-.8s-1.8-3.1-2.6-4.7a43.1,43.1,0,0,1-2.2-4.9,20.4,20.4,0,0,1-.9-2.2c1.3,3.3-.1-.4-.3-.9a67.9,67.9,0,0,1-2.2-10.9l-.3-2.5c.5,3.6,0-.3,0-1s0-4.3.2-6.5c.5-8.1-6-15.9-14.4-15.5s-16,6.8-16.6,15.5c-2.3,37.5,19,70.3,53.1,83.4s74.4,1.6,99.1-26.2c14.5-16.4,23.3-36,25-57.2.6-8.1-6.1-15.9-14.4-15.5s-15.9,6.8-16.5,15.5Z" fill="#fde59d"/>
        <g>
          <g>
            <path d="M239.9,430.6h0a2.3,2.3,0,0,1-2.2-3l23.7-75.3a4.5,4.5,0,0,1,4.2-3.1h0a3.8,3.8,0,0,1,3.5,5.2l-26.7,74.5A2.7,2.7,0,0,1,239.9,430.6Z" fill="#263238"/>
            <path d="M282.7,430.6h-.1a2.3,2.3,0,0,1-2.3-2.8l15.3-75a4.5,4.5,0,0,1,4.4-3.6h0a3.9,3.9,0,0,1,3.7,4.9l-18.5,74.5A2.6,2.6,0,0,1,282.7,430.6Z" fill="#263238"/>
          </g>
          <g opacity="0.5">
            <path d="M239.9,430.6h0a2.3,2.3,0,0,1-2.2-3l23.7-75.3a4.5,4.5,0,0,1,4.2-3.1h0a3.8,3.8,0,0,1,3.5,5.2l-26.7,74.5A2.7,2.7,0,0,1,239.9,430.6Z" fill="#fff"/>
            <path d="M282.7,430.6h-.1a2.3,2.3,0,0,1-2.3-2.8l15.3-75a4.5,4.5,0,0,1,4.4-3.6h0a3.9,3.9,0,0,1,3.7,4.9l-18.5,74.5A2.6,2.6,0,0,1,282.7,430.6Z" fill="#fff"/>
          </g>
        </g>
      </g>
      <g>
        <g>
          <polygon points="511 301.7 506.8 301.7 496.9 286.3 502.9 286.3 511 301.7" fill="#263238"/>
          <polygon points="511 301.7 506.8 301.7 496.9 286.3 502.9 286.3 511 301.7" fill="#fff" opacity="0.7"/>
        </g>
        <g>
          <polygon points="504.9 301.7 482.2 301.7 487.9 272.2 510.6 272.2 504.9 301.7" fill="#263238"/>
          <polygon points="504.9 301.7 482.2 301.7 487.9 272.2 510.6 272.2 504.9 301.7" fill="#fff" opacity="0.6"/>
          <polygon points="503.6 299.4 484.4 299.4 489.2 274.5 508.4 274.5 503.6 299.4" fill="#fff" opacity="0.4"/>
          <polygon points="501.1 295 488.7 295 491.8 278.9 504.2 278.9 501.1 295" fill="#fff" opacity="0.4"/>
        </g>
      </g>
      <path d="M523.3,316.5H469.2a7.5,7.5,0,0,1-7.5-8.2l.5-7.1h70.3l-.5,7.1A8.9,8.9,0,0,1,523.3,316.5Z" fill="#263238"/>
      <path d="M523.3,316.5H469.2a7.5,7.5,0,0,1-7.5-8.2l.5-7.1h70.3l-.5,7.1A8.9,8.9,0,0,1,523.3,316.5Z" fill="#fff" opacity="0.8"/>
      <path d="M556.3,347.7,554.5,373a4.1,4.1,0,0,0,4.2,4.4h0a4.9,4.9,0,0,0,4.8-4.4l1.8-25.3a4.2,4.2,0,0,0-4.2-4.5h0A4.9,4.9,0,0,0,556.3,347.7Z" fill="#fff" opacity="0.5"/>
      <polygon points="568.8 161.4 574.2 155.2 578.8 161.4 568.8 161.4" fill="#fff" opacity="0.5"/>
      <polygon points="558.5 451.3 553.1 457.5 548.6 451.3 558.5 451.3" fill="#fff" opacity="0.5"/>
    </g>
    <g>
      <g>
        <polygon points="204.9 282.5 41.6 282.5 50.3 158.7 213.5 158.7 204.9 282.5" fill="#263238"/>
        <polygon points="204.9 282.5 41.6 282.5 50.3 158.7 213.5 158.7 204.9 282.5" fill="#fff" opacity="0.5"/>
      </g>
      <polygon points="107.4 185.8 211.6 185.8 213.2 162.7 109 162.7 107.4 185.8" opacity="0.3"/>
      <polygon points="213.2 162.7 50 162.7 50.3 158.7 213.5 158.7 213.2 162.7" opacity="0.5"/>
      <path d="M95,179.8H59.8a2.6,2.6,0,0,1-2.6-2.8h0a3,3,0,0,1,3-2.7H95.4A2.5,2.5,0,0,1,98,177h0A3,3,0,0,1,95,179.8Z" fill="#fff" opacity="0.5"/>
      <polygon points="70.6 207.4 55.1 207.4 56.2 191.9 71.7 191.9 70.6 207.4" fill="#ffc40c"/>
      <g opacity="0.9">
        <polygon points="77.9 215.3 62.1 215.3 62.6 209 65.6 209 65.3 212.3 75.2 212.3 75.9 202.5 72.6 202.5 72.8 199.5 79 199.5 77.9 215.3"/>
      </g>
      <g opacity="0.5">
        <polygon points="206.6 169.4 189.6 169.4 189.8 166.4 206.8 166.4 206.6 169.4" fill="#fff"/>
        <polygon points="206.1 175.7 189.2 175.7 189.4 172.8 206.3 172.8 206.1 175.7" fill="#fff"/>
        <polygon points="205.7 182.1 188.8 182.1 189 179.1 205.9 179.1 205.7 182.1" fill="#fff"/>
      </g>
      <g opacity="0.5">
        <polygon points="179.7 194.9 162.8 194.9 163 191.9 179.9 191.9 179.7 194.9" fill="#fff"/>
        <polygon points="179.3 201.2 162.4 201.2 162.6 198.3 179.5 198.3 179.3 201.2" fill="#fff"/>
        <polygon points="178.9 207.6 161.9 207.6 162.1 204.6 179.1 204.6 178.9 207.6" fill="#fff"/>
      </g>
      <g opacity="0.5">
        <polygon points="174.7 167.6 172.5 169.7 176.7 174.3 171.8 178.8 173.8 180.9 180.9 174.3 174.7 167.6" fill="#fff"/>
        <polygon points="167.1 167.6 164.8 169.7 169.1 174.3 164.2 178.8 166.2 180.9 173.3 174.3 167.1 167.6" fill="#fff"/>
      </g>
      <g opacity="0.5">
        <polygon points="197.9 201.2 197.4 207.6 204.4 207.6 204.8 201.2 197.9 201.2" fill="#fff"/>
        <polygon points="198.1 198.3 205 198.3 205.5 191.9 198.5 191.9 198.1 198.3" fill="#fff"/>
        <polygon points="195.1 198.3 195.5 191.9 188.6 191.9 188.1 198.3 195.1 198.3" fill="#fff"/>
        <polygon points="194.9 201.2 187.9 201.2 187.5 207.6 194.4 207.6 194.9 201.2" fill="#fff"/>
      </g>
      <g>
        <polygon points="76.6 248.1 98 248.1 99.5 226.7 78.1 226.7 76.6 248.1" fill="#263238"/>
        <polygon points="76.6 248.1 98 248.1 99.5 226.7 78.1 226.7 76.6 248.1" fill="#fff" opacity="0.6"/>
      </g>
      <g>
        <polygon points="100 248.1 121.4 248.1 122.9 226.7 101.5 226.7 100 248.1" fill="#263238"/>
        <polygon points="100 248.1 121.4 248.1 122.9 226.7 101.5 226.7 100 248.1" fill="#fff" opacity="0.4"/>
      </g>
      <g>
        <polygon points="75 271.5 96.4 271.5 97.9 250.1 76.5 250.1 75 271.5" fill="#fde59d"/>
        <polygon points="75 271.5 96.4 271.5 97.9 250.1 76.5 250.1 75 271.5" fill="#fde59d" opacity="0.4"/>
      </g>
      <g>
        <polygon points="98.4 271.5 119.8 271.5 121.3 250.1 99.9 250.1 98.4 271.5" fill="#f9d780"/>
        <polygon points="98.4 271.5 119.8 271.5 121.3 250.1 99.9 250.1 98.4 271.5" fill="#f9d780" opacity="0.2"/>
      </g>
      <g>
        <polygon points="53.3 248.1 74.7 248.1 76.2 226.7 54.8 226.7 53.3 248.1" fill="#263238"/>
        <polygon points="53.3 248.1 74.7 248.1 76.2 226.7 54.8 226.7 53.3 248.1" fill="#fff" opacity="0.8"/>
      </g>
      <g>
        <polygon points="51.6 271.5 73 271.5 74.5 250.1 53.1 250.1 51.6 271.5" fill="#fcf1d4"/>
        <polygon points="51.6 271.5 73 271.5 74.5 250.1 53.1 250.1 51.6 271.5" fill="#fcf1d4" opacity="0.6"/>
      </g>
      <g>
        <polygon points="168.6 271.5 190 271.5 191.5 250.1 170.1 250.1 168.6 271.5" fill="#ffc40c"/>
        <polygon points="168.6 271.5 190 271.5 191.5 250.1 170.1 250.1 168.6 271.5" fill="#ffc40c" opacity="0.4"/>
      </g>
      <polygon points="146.8 248.1 168.2 248.1 169.7 226.7 148.3 226.7 146.8 248.1" fill="#263238"/>
      <polygon points="121.8 271.5 143.2 271.5 144.7 250.1 123.3 250.1 121.8 271.5" fill="#f9c655"/>
      <g>
        <polygon points="123.4 248.1 144.8 248.1 146.3 226.7 124.9 226.7 123.4 248.1" fill="#263238"/>
        <polygon points="123.4 248.1 144.8 248.1 146.3 226.7 124.9 226.7 123.4 248.1" fill="#fff" opacity="0.2"/>
      </g>
      <g>
        <polygon points="145.2 271.5 166.6 271.5 168.1 250.1 146.7 250.1 145.2 271.5" fill="#fcb72d"/>
        <polygon points="145.2 271.5 166.6 271.5 168.1 250.1 146.7 250.1 145.2 271.5" fill="#fcb72d" opacity="0.2"/>
      </g>
    </g>
    <g>
      <g class="cursor">
        <polygon points="414 309.9 377.4 294.8 392.5 331.4 397.8 319 412.7 334 416.5 330.2 401.5 315.2 414 309.9" fill="#fff" opacity="0.9"/>
        <path d="M412.7,335.8l-14.5-14.5-5.7,13.6-17.6-42.6,42.6,17.6-13.6,5.8,14.5,14.5Zm-15.4-19.2,15.4,15.5,1.9-1.9-15.4-15.5,11.3-4.8-30.7-12.6L392.5,328Z" fill="#263238"/>
      </g>
      
    </g>
  </g>
  <g>
    <g>
      <polygon points="631.2 506.5 456.7 506.5 466 374.3 640.4 374.3 631.2 506.5" fill="#263238"/>
      <polygon points="631.2 506.5 456.7 506.5 466 374.3 640.4 374.3 631.2 506.5" fill="#fff" opacity="0.5"/>
    </g>
    <polygon points="527 403.2 638.4 403.2 640.1 378.5 528.7 378.5 527 403.2" opacity="0.3"/>
    <polygon points="640.1 378.5 465.7 378.5 466 374.3 640.4 374.3 640.1 378.5" opacity="0.5"/>
    <path d="M513.8,396.8H476.2a2.7,2.7,0,0,1-2.8-3h0a3.2,3.2,0,0,1,3.2-2.9h37.6a2.7,2.7,0,0,1,2.8,2.9h0A3.2,3.2,0,0,1,513.8,396.8Z" fill="#fff" opacity="0.5"/>
    <polygon points="491.2 430 470.9 430 472.3 409.7 492.6 409.7 491.2 430" fill="#ffc40c"/>
    <g opacity="0.9">
      <polygon points="500.8 440.4 480.1 440.4 480.7 432.2 484.6 432.2 484.3 436.5 497.2 436.5 498.1 423.6 493.8 423.6 494.1 419.7 502.3 419.7 500.8 440.4"/>
    </g>
    <g opacity="0.5">
      <polygon points="633 385.7 614.9 385.7 615.1 382.5 633.2 382.5 633 385.7" fill="#fff"/>
      <polygon points="632.5 392.5 614.4 392.5 614.6 389.3 632.7 389.3 632.5 392.5" fill="#fff"/>
      <polygon points="632 399.3 613.9 399.3 614.2 396.1 632.2 396.1 632 399.3" fill="#fff"/>
    </g>
    <g opacity="0.5">
      <polygon points="598.9 383.7 596.5 386 601.1 390.9 595.8 395.8 597.9 398 605.6 390.9 598.9 383.7" fill="#fff"/>
      <polygon points="590.8 383.7 588.4 386 592.9 390.9 587.7 395.8 589.8 398 597.4 390.9 590.8 383.7" fill="#fff"/>
    </g>
    <g>
      <polygon points="585.8 429.8 516.6 429.8 517 424.1 586.1 424.1 585.8 429.8" fill="#fff" opacity="0.2"/>
      <polygon points="621.1 434 591.8 434 592.8 419.8 622.1 419.8 621.1 434" fill="#263238"/>
      <polygon points="584.3 450.5 515.2 450.5 515.6 444.8 584.7 444.8 584.3 450.5" fill="#ffc40c"/>
      <polygon points="619.6 454.8 590.4 454.8 591.4 440.6 620.6 440.6 619.6 454.8" fill="#263238"/>
      <polygon points="582.9 471.2 513.7 471.2 514.1 465.6 583.2 465.6 582.9 471.2" fill="#fff" opacity="0.9"/>
      <polygon points="618.2 475.5 588.9 475.5 589.9 461.3 619.2 461.3 618.2 475.5" fill="#263238"/>
      <polygon points="616.7 496.2 581.6 496.2 582.6 482 617.7 482 616.7 496.2" fill="#263238"/>
      <g>
        <polygon points="521.6 436.8 516.1 436.8 516.4 433.4 519.3 431.3 521.9 433.4 521.6 436.8" fill="#263238"/>
        <polygon points="518.7 478.2 513.2 478.2 513.5 474.9 516.4 472.7 519 474.9 518.7 478.2" fill="#263238"/>
        <polygon points="582.3 457.5 576.8 457.5 577.1 454.1 580 452 582.6 454.1 582.3 457.5" fill="#263238"/>
      </g>
      <g opacity="0.3">
        <polygon points="521.6 436.8 516.1 436.8 516.4 433.4 519.3 431.3 521.9 433.4 521.6 436.8" fill="#fff"/>
        <polygon points="518.7 478.2 513.2 478.2 513.5 474.9 516.4 472.7 519 474.9 518.7 478.2" fill="#fff"/>
        <polygon points="582.3 457.5 576.8 457.5 577.1 454.1 580 452 582.6 454.1 582.3 457.5" fill="#fff"/>
      </g>
    </g>
  </g>
  </g>
</svg>
