<?xml version="1.0" encoding="utf-8"?>
<!-- Generator: Adobe Illustrator 23.0.3, SVG Export Plug-In . SVG Version: 6.00 Build 0)  -->
<svg version="1.1" id="Layer_1" xmlns="http://www.w3.org/2000/svg" xmlns:xlink="http://www.w3.org/1999/xlink" x="0px" y="0px"
	 viewBox="0 0 600 400" style="enable-background:new 0 0 600 400;" xml:space="preserve">
<style type="text/css">
	.st0{fill:none;stroke:#595858;stroke-miterlimit:10;}
</style>
<path class="st0" d="M431.8,112.1c-97.1,0-194.2,0.1-291.3,0.1c-11.6,6.2-23.2,12.4-34.8,18.7c-0.4,0.2-0.9,0.5-1.3,0.7
	c34.3,10.6,68.6,21.2,102.8,31.8c-12.6,12.4-25.2,24.7-37.7,37.1c19.2-10.4,38.3-20.9,57.5-31.3c34.8,10.1,69.7,20.1,104.5,30.2
	c-2.8,2.8-5.7,5.7-8.5,8.5c-11.8,11.8-23.7,23.6-35.5,35.5c22.7-12.2,45.4-24.5,68.1-36.7c33.6,9.8,67.2,19.6,100.7,29.4
	c-7.5-39.4-15-78.8-22.6-118.1c-0.4-1.9-0.9-3.8-1.3-5.6L431.8,112.1z"/>
<path class="st0" d="M433.9,117.7c-99.3-1-198.5-1.9-297.8-2.9"/>
<path class="st0" d="M177.3,154c2.7-3.1,5.4-6.2,8-9.4c-23.7-6.2-47.4-12.3-71.1-18.5"/>
<path class="st0" d="M227,168.7c-6.5-1.9-13.1-3.8-19.6-5.7"/>
<path class="st0" d="M355.6,206.5c-7.9-2.4-15.7-4.7-23.6-7.1"/>
<path class="st0" d="M322.8,208.2c0.3-0.1,0.7-0.2,1.2-0.2c1.5-0.1,2.7,0.2,3,0.2c1,0.3,1.7,0.7,2.3,1c0.7,0.4,1.2,0.7,1.7,1.2
	c0.7,0.7,0.9,1.4,1.3,2.5c0.2,0.7,0.4,1.2,0.5,2c0.2,0.7,0.3,1.3,0.3,1.6c0.1,0.6,0.2,1.1,0.2,1.4"/>
<path class="st0" d="M199.7,170.7c0.3-0.1,0.6-0.1,1.1-0.2c1.3-0.1,2.3,0.1,2.5,0.2c0.8,0.2,1.4,0.6,1.9,0.9c0.6,0.4,1,0.6,1.4,1
	c0.6,0.6,0.8,1.2,1.1,2.1c0.2,0.6,0.3,1,0.5,1.7c0.1,0.6,0.2,1.1,0.3,1.4c0.1,0.5,0.1,0.9,0.2,1.2"/>
<path class="st0" d="M442.1,164.3C336,150.1,229.9,136,123.8,121.8"/>
<path class="st0" d="M239.9,172.8c7.5-10.8,14.9-21.6,22.4-32.5"/>
<path class="st0" d="M360.8,207.6c11.4-16.5,22.8-33,34.2-49.6"/>
</svg>
