<svg xmlns="http://www.w3.org/2000/svg" xmlns:xlink="http://www.w3.org/1999/xlink" width="797" height="740" viewBox="0 0 797 740">
  <defs>
    <clipPath id="clip-path">
      <path d="M86.8,236.1l145.3-80.7a5.8,5.8,0,0,1,7.8,2.1l4.4,7.3a5.8,5.8,0,0,1-2.2,8.1L96.6,253.7a5.8,5.8,0,0,1-7.9-2.3l-4.2-7.5A5.8,5.8,0,0,1,86.8,236.1Z" fill="none"/>
    </clipPath>
    <clipPath id="clip-path-2">
      <path d="M217,130.5,72.8,212.8a5.8,5.8,0,0,0-2.2,7.8l4.2,7.7a5.7,5.7,0,0,0,7.8,2.3l146.7-78a5.7,5.7,0,0,0,2.4-7.9l-6.8-12A5.7,5.7,0,0,0,217,130.5Z" fill="none"/>
    </clipPath>
    <clipPath id="clip-path-3">
      <path d="M625.3,274.1H419.5a7.3,7.3,0,0,1-7.5-6.5L401.2,146a7.3,7.3,0,0,1,7.5-7.6l228.8.5c4.4,0,7.9,3.6,7.4,7.7L632.7,267.7A7.3,7.3,0,0,1,625.3,274.1Z" fill="none"/>
    </clipPath>
    <clipPath id="clip-path-4">
      <rect x="542.3" y="554.8" width="48.8" height="54.86" transform="translate(-131.2 998.4) rotate(-76.6)" fill="none"/>
    </clipPath>
    <clipPath id="clip-path-5">
      <rect x="484.6" y="541" width="48.8" height="54.86" transform="translate(-162 931.7) rotate(-76.6)" fill="none"/>
    </clipPath>
    <clipPath id="clip-path-6">
      <rect x="426.9" y="527.3" width="48.8" height="54.86" transform="translate(-192.9 865) rotate(-76.6)" fill="#263238"/>
    </clipPath>
    <clipPath id="clip-path-7">
      <rect x="369.3" y="513.5" width="48.8" height="54.86" transform="translate(-223.8 798.4) rotate(-76.6)" fill="none"/>
    </clipPath>
  </defs>
  <title>multimedia</title>
  <style>
    .animationAction{
      animation: aa1 2s infinite alternate;
    }
    @keyframes aa1{
      100%{
        transform: rotate(-20deg) translateX(-10%) translateY(3%);
      }
    }
    .action{
      animation: aa2 4s infinite alternate;
    }
    @keyframes aa2{
      100%{
        transform: rotate(5deg);
      }
    }
    .player{
      animation: p1 3s infinite;
    }
    @keyframes p1{
      100%{
        transform: translateX(15%);
      }
    }
    .pause{
      animation: p2 2s infinite alternate;
    }
    @keyframes p2{
      0%{opacity:0;}
      50%{opacity:0;}
      100%{opacity:1;}
    }
    .play{
      animation: p3 2s infinite alternate;
    }
    @keyframes p3{
      0%{opacity:1;}
      50%{opacity:1;}
      100%{opacity:0;}
    }
    .pen{
      animation: p4 5s infinite alternate;
    }
    @keyframes p4{
      0%{
        -ms-transform:rotate(-3deg);        
        -moz-transform:rotate(-3deg);        
        -webkit-transform:rotate(-3deg);
        -o-transform:rotate(-3deg);               
        transform:rotate(-3deg);}
      50%{
        -ms-transform:translate(0,-10%);
        -moz-transform:translateY(0,-10%);
        -webkit-transform:translateY(0,-10%);
        -o-transform:translateY(0,-10%);
        transform:translateY(-10%);}
      60%{
        -moz-transform:translateY(0,-6%);
        -webkit-transform:translateY(0,-6%);
        -ms-transform:translateY(0,-6%);
        -o-transform:translateY(0,-6%);
        transform:translateY(-6%);}
      100%{
        -webkit-transform:translateY(0,-4%) translateX(-4%,0);
        -moz-transform:translateY(0,-4%) translateX(-4%,0);
        -ms-transform:translateY(0,-4%) translateX(-4%,0);
        -o-transform:translateY(0,-4%) translateX(-4%,0);
        transform:translateY(-4%) translateX(-4%);}
    }
    .mouse{
      animation: m1 3s infinite ;
    }
    @keyframes m1{
      30%{transform:translateY(6%);}
      60%{transform:rotate(-1deg);}
      85%{transform:rotate(1deg);}
    }
    .mouse1{
      animation: m2 3s infinite ;
    }
    @keyframes m2{
      50%{
        transform:rotate(3deg);
        transform-origin: 90% 10%;
      }
    }
    .negative{
      transform: translateY(10%);
      animation: n1 4s infinite;
    }
    @keyframes n1{
      50%{
        transform-origin: 10% 90%;
        transform:rotateX(110deg) rotateY(10deg) rotateZ(50deg);}
    }
  </style>
  <g style="isolation: isolate">
    <g id="Layer_1" data-name="Layer 1">
      <g>
        <g>
          <g class="action">
            <path d="M290.1,253.3,142.6,335.8a5.6,5.6,0,0,1-7.8-2.2l-50-89.2a5.9,5.9,0,0,1,2.3-7.9l145-81.1a5.7,5.7,0,0,1,7.7,2.1l52.5,87.7A5.9,5.9,0,0,1,290.1,253.3Z" fill="#263238"/>
            <path d="M271.4,250.1,152.5,316.7a5.4,5.4,0,0,1-7.3-2.1l-28.7-51.2a5.4,5.4,0,0,1,2.1-7.3l118.9-66.5a5.2,5.2,0,0,1,7.2,2l28.7,51.2A5.4,5.4,0,0,1,271.4,250.1Z" fill="none" stroke="#ede3fc" stroke-miterlimit="10" stroke-width="0.73"/>
            <line x1="178.1" y1="223.1" x2="212.2" y2="283.8" fill="none" stroke="#ede3fc" stroke-miterlimit="10" stroke-width="0.73"/>
            <line x1="119.7" y1="269.3" x2="248" y2="197.5" fill="none" stroke="#ede3fc" stroke-miterlimit="10" stroke-width="0.73"/>
            <line x1="142.9" y1="309.8" x2="270.6" y2="238.2" fill="none" stroke="#ede3fc" stroke-miterlimit="10" stroke-width="0.73"/>
            <line x1="194.2" y1="237.8" x2="244.8" y2="209.4" fill="none" stroke="#ede3fc" stroke-miterlimit="10" stroke-width="0.73"/>
            <line x1="202.7" y1="253.1" x2="253.3" y2="224.7" fill="none" stroke="#ede3fc" stroke-miterlimit="10" stroke-width="0.73"/>
            <path d="M290.2,253.2,142.6,335.8a5.6,5.6,0,0,1-7.8-2.2l-6.4-11.4a5.7,5.7,0,0,1,2.9-8.2c41.5-16.4,77.9-46,99-87.7,11.2-22,11.8-47.6-1.2-69.3l3-1.6a5.7,5.7,0,0,1,7.7,2l52.5,87.7A5.9,5.9,0,0,1,290.2,253.2Z" fill="#3d4381" opacity="0.3" style="mix-blend-mode: multiply"/>
            <g>
              <g>
                <path d="M88.1,238.5l145.1-80.6a5.7,5.7,0,0,1,7.9,2.2l4.2,7.5a5.9,5.9,0,0,1-2.3,7.9L97.9,256.1a5.9,5.9,0,0,1-7.9-2.3l-4.1-7.5A5.6,5.6,0,0,1,88.1,238.5Z" fill="#2c1c3f" opacity="0.2" style="mix-blend-mode: multiply"/>
                <path d="M86.8,236.1l145.3-80.7a5.8,5.8,0,0,1,7.8,2.1l4.3,7.4a5.8,5.8,0,0,1-2.1,8L96.6,253.7a5.8,5.8,0,0,1-7.9-2.3l-4.2-7.5A5.8,5.8,0,0,1,86.8,236.1Z" fill="#263238"/>
                <g clip-path="url(#clip-path)">
                  <polygon points="76.4 235.2 81.5 228.7 154 258.4 148.8 264.8 76.4 235.2" fill="#ede3fc"/>
                  <polygon points="93.1 220.2 98.3 213.7 170.7 243.3 165.6 249.8 93.1 220.2" fill="#ede3fc"/>
                  <polygon points="109.9 205.1 115 198.7 187.5 228.3 182.3 234.8 109.9 205.1" fill="#ede3fc"/>
                  <polygon points="126.6 190.1 131.7 183.6 204.2 213.3 199 219.8 126.6 190.1" fill="#ede3fc"/>
                  <polygon points="143.3 175.1 148.5 168.6 220.9 198.3 215.8 204.8 143.3 175.1" fill="#ede3fc"/>
                  <polygon points="160.1 160.1 165.2 153.6 237.7 183.3 232.5 189.7 160.1 160.1" fill="#ede3fc"/>
                  <polygon points="176.8 145.1 182 138.6 254.4 168.2 249.3 174.7 176.8 145.1" fill="#ede3fc"/>
                </g>
              </g>
              <g class="animationAction">
                <path d="M217.2,130.5,72.8,212.8a5.8,5.8,0,0,0-2.2,7.8l4.2,7.7a5.8,5.8,0,0,0,7.8,2.3l146.8-78.1a5.8,5.8,0,0,0,2.3-7.9l-6.6-11.9A5.8,5.8,0,0,0,217.2,130.5Z" fill="#263238"/>
                <g clip-path="url(#clip-path-2)">
                  <polygon points="223.4 124 215.1 124.8 201.5 201.9 209.7 201 223.4 124" fill="#ede3fc"/>
                  <polygon points="201.7 130.1 193.5 131 179.9 208.1 188.1 207.2 201.7 130.1" fill="#ede3fc"/>
                  <polygon points="180.1 136.2 171.9 137.1 158.2 214.2 166.5 213.3 180.1 136.2" fill="#ede3fc"/>
                  <polygon points="158.5 142.3 150.2 143.2 136.6 220.3 144.8 219.4 158.5 142.3" fill="#ede3fc"/>
                  <polygon points="136.8 148.5 128.6 149.3 115 226.4 123.2 225.5 136.8 148.5" fill="#ede3fc"/>
                  <polygon points="115.2 154.6 107 155.5 93.3 232.6 101.5 231.7 115.2 154.6" fill="#ede3fc"/>
                  <polygon points="93.5 160.7 85.3 161.6 71.7 238.7 79.9 237.8 93.5 160.7" fill="#ede3fc"/>
                </g>
              </g>
              <path d="M75.6,224.2l26.4,1.1a2.3,2.3,0,0,1,2.1,2.9l-8,28.3a2.3,2.3,0,0,1-4.2.6L73.6,227.7A2.3,2.3,0,0,1,75.6,224.2Z" fill="#263238"/>
              <g>
                <path d="M99.6,229.7a2,2,0,0,1-.8,2.8,2.1,2.1,0,0,1-2.9-.8,2.2,2.2,0,0,1,.8-2.9A2.1,2.1,0,0,1,99.6,229.7Z" fill="#ede3fc"/>
                <path d="M80.5,227.5a2.1,2.1,0,0,1-.8,2.9,2.2,2.2,0,0,1-2.9-.9,2.1,2.1,0,0,1,.8-2.8A2.1,2.1,0,0,1,80.5,227.5Z" fill="#ede3fc"/>
                <path d="M94.8,249.2A2,2,0,0,1,94,252a2.1,2.1,0,0,1-2.9-.8,2.2,2.2,0,0,1,.8-2.9A2.1,2.1,0,0,1,94.8,249.2Z" fill="#ede3fc"/>
              </g>
            </g>
          </g>
          <g>
            <g>
              <polygon points="482.4 446.4 439.9 446.4 437.3 378 485 378 482.4 446.4" fill="#263238"/>
              <path d="M482.7,440.2,485,378H437.3l.9,23.7C460.2,402.1,476.4,419.7,482.7,440.2Z" fill="#472872" opacity="0.2" style="mix-blend-mode: multiply"/>
              <path d="M613.6,397.8H307.3a6.1,6.1,0,0,1-6-5.9l-6.1-221.6a6,6,0,0,1,6-6.2H619.7a6,6,0,0,1,6,6.2l-6.1,221.6A6.1,6.1,0,0,1,613.6,397.8Z" fill="#263238"/>
              <path d="M625.7,170.3l-6.1,221.6a6.1,6.1,0,0,1-6,5.9H307.3a5.9,5.9,0,0,1-5.9-5.1H606.1a6.1,6.1,0,0,0,6-5.9l6.1-221.7v-1h1.5A6,6,0,0,1,625.7,170.3Z" fill="#472872" opacity="0.5" style="mix-blend-mode: multiply"/>
              <polygon points="316.8 383.7 311.1 178.1 609.8 178.1 604.1 383.7 316.8 383.7" fill="#e1e1df"/>
              <path d="M523.5,460.4H398.8a4.4,4.4,0,0,1-4.4-4.4v-4a4.4,4.4,0,0,1,4.3-4.4L523.4,444a4.4,4.4,0,0,1,4.5,4.4V456A4.4,4.4,0,0,1,523.5,460.4Z" fill="#263238"/>
              <path d="M527.9,448.4V456a4.4,4.4,0,0,1-4.4,4.4H398.8a4.4,4.4,0,0,1-4.4-4.4v-3.9a4.4,4.4,0,0,0,4.2,3.2H523.3a4.4,4.4,0,0,0,4.4-4.4v-3.8A5.1,5.1,0,0,1,527.9,448.4Z" fill="#472872" opacity="0.3" style="mix-blend-mode: multiply"/>
            </g>
            <g>
              <path d="M625.3,274.1H419.5a7.3,7.3,0,0,1-7.5-6.5L401.2,146a7.3,7.3,0,0,1,7.5-7.6l228.8.5c4.4,0,7.9,3.6,7.4,7.7L632.7,267.7A7.3,7.3,0,0,1,625.3,274.1Z" fill="#ffc40c"/>
              <path d="M576.3,204.8c0,25.9-22.3,47-49.9,47s-49.8-21.1-49.8-47,22.3-47.1,49.8-47.1S576.3,178.8,576.3,204.8Z" fill="#fff"/>
              <polygon class="play" points="510 172.4 564.2 207.2 510 237.1 510 172.4" fill="#ffc40c"/>
              <g class="pause">
                <rect x="510" y="172" width="10" height="60" fill="#ffc40c"/>
                <rect x="530" y="172" width="10" height="60" fill="#ffc40c"/>
              </g>
              <g clip-path="url(#clip-path-3)">
                <g>
                  <rect x="481.6" y="111.5" width="9.4" height="192.82" transform="translate(95.6 -148.5) rotate(19.2)" fill="#fff" opacity="0.1"/>
                  <rect x="511.4" y="112" width="12.5" height="192.83" transform="translate(97.6 -159) rotate(19.2)" fill="#fff" opacity="0.1"/>
                  <rect x="538.4" y="120.4" width="20.5" height="192.83" transform="translate(102.1 -168.7) rotate(19.2)" fill="#fff" opacity="0.1"/>
                </g>
              </g>
            </g>
            <polygon points="408.7 374.9 333.5 374.3 327.4 192.7 394.7 192 408.7 374.9" fill="#fff"/>
            <polygon points="590.4 338.4 413.3 338.7 410.7 301.8 593.5 302.4 590.4 338.4" fill="#fff"/>
            <polygon points="588.3 370.8 414.7 370.8 413.3 344.2 590.6 345 588.3 370.8" fill="#fff"/>
            <g>
              <rect x="415.1" y="281.1" width="218.7" height="8.29" fill="#fff"/>
              <polygon points="419.6 282.2 424.8 285.7 419.6 288.8 419.6 282.2" fill="#ffc40c"/>
              <rect x="429.8" y="284.2" width="194.2" height="2.13" fill="#1f1e1b"/>
              <path class="player" d="M484.7,285.6a4.1,4.1,0,1,1-4.1-4.1A4,4,0,0,1,484.7,285.6Z" fill="#1f1e1b"/>
            </g>
            <g>
              <polygon points="586.8 331 419.4 331 418.1 306.2 586.8 306.2 586.8 331" fill="#ffc40c"/>
              <rect x="440.7" y="304.7" width="0.9" height="28.08" fill="#fff"/>
              <rect x="500.5" y="303.6" width="0.9" height="28.08" fill="#fff"/>
              <rect x="539.8" y="304.7" width="0.9" height="28.08" fill="#fff"/>
            </g>
            <polygon points="354.8 226 333.9 225.8 332.1 199.3 352.7 199.3 354.8 226" fill="#ffc40c"/>
            <rect x="356" y="200.4" width="35.1" height="2.11" fill="#263238"/>
            <rect x="357.2" y="207.4" width="35.1" height="2.11" fill="#263238"/>
            <rect x="357.8" y="215.1" width="35.1" height="2.1" fill="#263238"/>
            <polygon points="357.4 270.4 336.5 270.2 334.8 243.7 355.3 243.7 357.4 270.4" fill="#ffc40c"/>
            <rect x="358.6" y="244.8" width="35.1" height="2.11" fill="#263238"/>
            <rect x="359.9" y="251.8" width="35.1" height="2.11" fill="#263238"/>
            <rect x="360.4" y="259.5" width="35.1" height="2.1" fill="#263238"/>
          </g>
          <g>
            <g>
              <path d="M350.7,512.7,151.1,564.8a14.3,14.3,0,0,1-17.4-10.2L96.3,411.4A14.4,14.4,0,0,1,106.5,394l199.7-52.1a14.3,14.3,0,0,1,17.4,10.2L361,495.3A14.3,14.3,0,0,1,350.7,512.7Z" fill="#263238"/>
              <path d="M350.7,512.7,151.1,564.8a14.3,14.3,0,0,1-13.5-3.5,12.6,12.6,0,0,0,5.1-.4l199.6-52.1a14.3,14.3,0,0,0,10.2-17.4L315.2,348.3a13.4,13.4,0,0,0-4-6.7,14.2,14.2,0,0,1,12.4,10.5L361,495.3A14.3,14.3,0,0,1,350.7,512.7Z" fill="#3d4381" opacity="0.4" style="mix-blend-mode: multiply"/>
              <rect x="155.1" y="350.6" width="147.1" height="205.45" transform="translate(609.6 117.7) rotate(75.4)" fill="#263238" style="mix-blend-mode: multiply"/>
              <rect x="160.5" y="358.1" width="136.4" height="190.51" transform="translate(609.6 117.7) rotate(75.4)" fill="#fff"/>
            </g>
            <g>
              <g>
                <g>
                  <path d="M233.1,460.6l-12.3,3.2-2.7-10.5a32.1,32.1,0,0,1,12.3-3.2Z" fill="#f9bdb4"/>
                  <g>
                    <path d="M229.2,451.4l-8.1,2.1A18,18,0,0,1,199,440.6l-5.8-22.3a18.1,18.1,0,0,1,13-22l8.1-2.1a18,18,0,0,1,22.1,12.9l5.8,22.3A18.1,18.1,0,0,1,229.2,451.4Z" fill="#f9bdb4"/>
                    <path d="M246.7,432.5l-2,.5a2.9,2.9,0,0,1-3.5-2l-2.8-10.9a2.9,2.9,0,0,1,2.1-3.5l2-.5a6.1,6.1,0,0,1,7.3,4.3l1.2,4.8A5.9,5.9,0,0,1,246.7,432.5Z" fill="#f9bdb4"/>
                    <path d="M244,430.3h0l-2.9-10.9,2.1-.6h.8a3.3,3.3,0,0,1,3.1,2.4l1.2,4.8a3.3,3.3,0,0,1-.3,2.4,3.4,3.4,0,0,1-2,1.5Z" fill="#f9bdb4" opacity="0.3" style="mix-blend-mode: multiply"/>
                    <path d="M192.8,429.1l2-.6a2.9,2.9,0,0,1,3.5,2.1l2.8,10.8a2.8,2.8,0,0,1-2,3.5l-2,.5a5.9,5.9,0,0,1-7.3-4.2l-1.3-4.8A6,6,0,0,1,192.8,429.1Z" fill="#f9bdb4"/>
                    <path d="M195.6,442.8a3.2,3.2,0,0,1-3.1-2.4l-1.3-4.7a3.4,3.4,0,0,1,2.3-3.9l2-.5,2.9,10.8-2,.6Z" fill="#f9bdb4" opacity="0.3" style="mix-blend-mode: multiply"/>
                    <path d="M240.6,425.1l-7.7-1.4a15.6,15.6,0,0,1-12.8-18.1l.6-3.7,7.7,1.4a15.7,15.7,0,0,1,12.8,18.2Z" fill="#1f1e1b"/>
                    <path d="M223.6,421.2l-6.6,4.3a15.7,15.7,0,0,1-21.7-4.7l-2-3.1,6.6-4.3a15.8,15.8,0,0,1,21.8,4.8Z" fill="#1f1e1b"/>
                    <rect x="196" y="422" width="3.3" height="15.56" transform="translate(-101.9 63.7) rotate(-14.6)" fill="#1f1e1b"/>
                    <path d="M238.7,412.1,193.1,424l-2.4-9.2a19.2,19.2,0,0,1,13.7-23.3l8.6-2.2A19,19,0,0,1,236.3,403Z" fill="#ffc40c"/>
                    <path d="M252.2,408.9l-26.5,6.6-3-11.7,14.8-3.7a12,12,0,0,1,14.7,8.8Z" fill="#ffc40c"/>
                  </g>
                  <path d="M239.4,464.6,217,470.5,214.3,460a100.2,100.2,0,0,1,22.4-5.9Z" fill="#ffc40c"/>
                  <path d="M231.5,427.5a3.1,3.1,0,0,1-2.1,3.7,3,3,0,1,1,2.1-3.7Z" fill="#2c1c3f"/>
                  <path d="M213.6,432.2a3,3,0,0,1-2.1,3.6,2.9,2.9,0,0,1-3.6-2.1,2.8,2.8,0,0,1,2.1-3.6A3,3,0,0,1,213.6,432.2Z" fill="#2c1c3f"/>
                  <path d="M222.7,441.2l-1.2.4a2.8,2.8,0,0,1-3.3-1.9l-1.3-5.3a2.7,2.7,0,0,1,1.9-3.3l1.2-.3a2.6,2.6,0,0,1,3.2,1.9l1.4,5.3A2.6,2.6,0,0,1,222.7,441.2Z" fill="#f4978e"/>
                  <path d="M213.5,445.3l18.3-4.8s.9,6.8-7.7,9.1S213.5,445.3,213.5,445.3Z" fill="#fff"/>
                </g>
                <rect x="209.4" y="464.9" width="55" height="53.36" transform="matrix(0.97, -0.25, 0.25, 0.97, -116.41, 75.72)" fill="#ffc40c"/>
                <path d="M187.7,497.8l29.4-7.6a8.4,8.4,0,0,0,5.9-10.1l-1-3.7a8.2,8.2,0,0,0-10.1-5.9l-29.3,7.6a8.3,8.3,0,0,0-5.9,10.1l.9,3.7A8.3,8.3,0,0,0,187.7,497.8Z" fill="#ffc40c"/>
                <path d="M277.1,427.7l-15,3.9-2.2-8.5a6.3,6.3,0,0,1,4.5-7.7l2.8-.7a6.3,6.3,0,0,1,7.7,4.5Z" fill="#f9bdb4"/>
                <path d="M185.7,520.8l14.9-3.9,2.3,8.5a6.4,6.4,0,0,1-4.5,7.6l-2.9.8a6.4,6.4,0,0,1-7.6-4.5Z" fill="#f9bdb4"/>
                <path d="M283,473.1l-29.4,7.6a8.1,8.1,0,0,1-10-5.9l-1-3.7a8.3,8.3,0,0,1,5.9-10.1l29.3-7.6a8.2,8.2,0,0,1,10.1,5.9l1,3.7A8.4,8.4,0,0,1,283,473.1Z" fill="#ffc40c"/>
                <path d="M269,466.7l-9.7-37.3,19.7-5.2,9.7,37.4a8.3,8.3,0,0,1-5.9,10.1l-3.7.9A8.3,8.3,0,0,1,269,466.7Z" fill="#ffc40c"/>
                <path d="M176,488.4l9.8,37.3,19.7-5.1-9.8-37.3a8.1,8.1,0,0,0-10-5.9l-3.8.9A8.4,8.4,0,0,0,176,488.4Z" fill="#ffc40c"/>
              </g>
              <polyline points="211.3 480.5 185.6 487.3 192.8 517.4" fill="none" stroke="#fff" stroke-miterlimit="10" stroke-width="1.14"/>
              <path d="M217.3,479.3a5.9,5.9,0,1,1-11.4,3,5.9,5.9,0,1,1,11.4-3Z" fill="#ffc40c" stroke="#fff" stroke-miterlimit="10" stroke-width="2"/>
              <path d="M190.8,486.5a5.9,5.9,0,1,1-11.4,3,6.1,6.1,0,0,1,4.2-7.3A5.9,5.9,0,0,1,190.8,486.5Z" fill="#ffc40c" stroke="#fff" stroke-miterlimit="10" stroke-width="2"/>
              <path d="M200,521.5a5.9,5.9,0,1,1-11.5,3,5.9,5.9,0,0,1,4.3-7.2A6,6,0,0,1,200,521.5Z" fill="none" stroke="#fff" stroke-miterlimit="10" stroke-width="1.14"/>
              <polyline points="249 470.6 279.5 462.6 271.2 432.7" fill="none" stroke="#fff" stroke-miterlimit="10" stroke-width="1.14"/>
              <path d="M254.7,469.1a5.8,5.8,0,0,1-4.2,7.2,5.9,5.9,0,0,1-3-11.4A5.8,5.8,0,0,1,254.7,469.1Z" fill="#ffc40c" stroke="#fff" stroke-miterlimit="10" stroke-width="2"/>
              <path d="M284.5,461.2a5.9,5.9,0,1,1-7.2-4.2A5.8,5.8,0,0,1,284.5,461.2Z" fill="#ffc40c" stroke="#fff" stroke-miterlimit="10" stroke-width="2"/>
              <path d="M275.5,425.5a5.9,5.9,0,0,1-4.2,7.2,5.8,5.8,0,0,1-7.2-4.2,5.8,5.8,0,0,1,4.2-7.2A6,6,0,0,1,275.5,425.5Z" fill="none" stroke="#fff" stroke-miterlimit="10" stroke-width="1.14"/>
            </g>
          </g>
          <g class="mouse">
            <g class="mouse1">
              <path d="M680.7,554.3l-.3.3c-17.6,15.2-37.4,6.1-45.5.5s-45-45.6-47.7-62.2,14.9-30.4,14.9-30.4l.5-.4s16.5-15.2,32.4-9.9,49.5,48,53.8,57S698.9,539.3,680.7,554.3Z" fill="#263238"/>
              <path d="M635,452.2a23.1,23.1,0,0,0-13-.4c4.8,28,25.6,45.4,50.5,52.6a6.1,6.1,0,0,0,6.6-9.5C666.8,478.9,646.5,456,635,452.2Z" fill="#fff" opacity="0.05"/>
              <path d="M641.4,534.9c-24.9-5.5-45.7-24.7-54.3-48.1a20.8,20.8,0,0,0,.1,6.1c2.7,16.6,39.5,56.5,47.7,62.2s27.9,14.7,45.5-.5l.3-.3c13.2-10.8,13.8-24.8,11.5-35.2C683.7,535.8,659.9,538.6,641.4,534.9Z" fill="#263238" style="mix-blend-mode: multiply"/>
              <path d="M648.7,514.9l-1.4,1.5a3.9,3.9,0,0,1-5.7-.1l-37.8-40.1a3.9,3.9,0,0,1,.3-5.6l5.7-4.9a4,4,0,0,1,5.6.6l33.5,43.6A3.8,3.8,0,0,1,648.7,514.9Z" fill="#3d4381" style="mix-blend-mode: multiply"/>
              <path d="M626.6,486.4l-4.4,3.8a1.1,1.1,0,0,1-1.6-.2l-12.5-14.5a1.2,1.2,0,0,1,.2-1.7l4.4-3.7a1,1,0,0,1,1.6.1l12.4,14.6A1,1,0,0,1,626.6,486.4Z" fill="#3d4381" style="mix-blend-mode: multiply"/>
              <path d="M624.1,486.6l-1.4,1.1a2.1,2.1,0,0,1-2.9-.3L611,477.1a2.1,2.1,0,0,1,.2-2.9l1.4-1.2a2.1,2.1,0,0,1,2.9.3l8.8,10.3A2.1,2.1,0,0,1,624.1,486.6Z" fill="#ede3fc"/>
            </g>
            <path d="M606.1,466.4c-7.6-12.9-6-30.5,3.8-41.8a36.6,36.6,0,0,1,8.6-7.1,72.4,72.4,0,0,1,10.1-4.9c3.4-1.5,6.9-2.8,10.3-4.2l5.1-2.3,5-2.4,4.9-2.5,4.8-2.8,4.7-2.9,4.6-3.1a130,130,0,0,0,17-14.3c1.4-1.3,2.5-2.8,3.8-4.1s2.4-2.8,3.5-4.3a57.6,57.6,0,0,0,6-9.4,48,48,0,0,0,3.8-10.4,30.9,30.9,0,0,0,1-10.9,16,16,0,0,0-4.1-10,13.7,13.7,0,0,0-9.7-4.2,18.4,18.4,0,0,0-10.4,3.1,21.3,21.3,0,0,0-7.2,8,26.1,26.1,0,0,0-2.8,10.6,40.2,40.2,0,0,0,.9,10.9,73.2,73.2,0,0,0,8.6,20.4c1,1.5,1.9,3.2,3,4.6l1.6,2.3,1.7,2.1a64.6,64.6,0,0,0,8,7.7,45.9,45.9,0,0,0,20.1,8.7c7.3,1.2,14.7.9,22.1.1l11-1.4c3.7-.5,7.4-1,11.1-1.2h0c-7.4.4-14.7,2.1-22.1,2.9a78.6,78.6,0,0,1-22.2,0,44.8,44.8,0,0,1-20.4-8.7c-6-4.5-10.7-10.5-14.6-16.8a77.5,77.5,0,0,1-8.6-20.6,42.1,42.1,0,0,1-.9-11.2,26,26,0,0,1,2.9-10.8,21.4,21.4,0,0,1,7.5-8.3,19.1,19.1,0,0,1,10.7-3.1,14.5,14.5,0,0,1,10.1,4.5,16.8,16.8,0,0,1,4.1,10.2,29.6,29.6,0,0,1-1.1,11.1,48.8,48.8,0,0,1-3.8,10.5,64.8,64.8,0,0,1-6.1,9.3,18.4,18.4,0,0,1-1.7,2.2l-1.8,2.2c-1.3,1.3-2.4,2.8-3.8,4.1a122.4,122.4,0,0,1-16.9,14.4c-1.5,1.1-3,2.2-4.6,3.2l-4.7,2.9-4.8,2.8-5,2.6c-1.6.9-3.3,1.7-5,2.5s-3.3,1.6-5.1,2.3c-3.4,1.5-6.9,2.8-10.3,4.2a76.4,76.4,0,0,0-10,4.8,34,34,0,0,0-17,27,37.1,37.1,0,0,0,4.3,21.4Z" fill="#263238"/>
          </g>
          <g class="pen">
            <path d="M273.8,501.5h0c-.2-.1-.2-.4,0-.6l1.4-1.8a.8.8,0,0,1,.8.3h0a.8.8,0,0,1,.3.8l-1.9,1.3A.4.4,0,0,1,273.8,501.5Z" fill="#472872"/>
            <g>
              <path d="M379.8,402.9l-3.3-3.4,10.2-9.8a6.1,6.1,0,0,1,3.3,3.4Z" fill="#ffc40c"/>
              <path d="M325.6,461.5l-9.5-9.9,62.6-58.8c4.2,2.7,6,4.4,8.1,8.5Z" fill="#263238"/>
              <path d="M316.1,451.6l9.5,9.9,36.1-35.6a66.4,66.4,0,0,1-31.5,12.4Z" fill="#455a64"/>
              <path d="M293.7,492.1l-9.6-10c9.5-8,20.5-19.1,32.5-31.2a20.9,20.9,0,0,1,9.6,9.9C314.5,471.5,303.7,482,293.7,492.1Z" fill="#455a64"/>
              <path d="M318.7,452.1c1.8,11.2-8.4,18.8-16.3,25.3-5.5,4.4-11.8,6.1-18.3,4.7h0l9.6,10c10-10.1,20.8-20.6,32.5-31.3A20.5,20.5,0,0,0,318.7,452.1Z" fill="#263238"/>
              <path d="M276.1,500.5l-.6-.7-.6-.6L284,482a27.9,27.9,0,0,1,9.8,10.1Z" fill="#263238"/>
              <path d="M303.7,467.5h0a1.9,1.9,0,0,1,.1-2.6l8-7.8a1.9,1.9,0,0,1,2.6.1h0a1.8,1.8,0,0,1,0,2.6l-8,7.7A2,2,0,0,1,303.7,467.5Z" fill="#fff"/>
              <path d="M291.9,478.8h0a1.8,1.8,0,0,1,.1-2.6l8-7.7a1.9,1.9,0,0,1,2.6,0h0a1.9,1.9,0,0,1,0,2.6l-8.1,7.8A1.9,1.9,0,0,1,291.9,478.8Z" fill="#fff"/>
            </g>
            <path d="M377.8,400.7l-23.6,22a1.4,1.4,0,0,1-2,0h0a1.4,1.4,0,0,1,.1-2l23.5-22.1a1.4,1.4,0,0,1,2,.1h0A1.4,1.4,0,0,1,377.8,400.7Z" fill="#fff" opacity="0.1"/>
          </g>
          <g class="negative">
            <path d="M375.6,498.8l-17.1,71.6,226.3,54,.7-3.1-2.3-.6,1-4.1,2.3.5L600,560.7l-2.4-.5,1-4.2,2.4.6.9-3.9ZM577.9,615.1l-1,4.1-6.8-1.6,1-4.1ZM564.8,612l-1,4.1-6.8-1.6,1-4.2Zm-13.1-3.2-1,4.2-6.8-1.7,1-4.1Zm-13.1-3.1-1,4.1-6.8-1.6,1-4.1Zm-13.1-3.1-1,4.1-6.8-1.6,1-4.1Zm-13.1-3.1-.9,4.1-6.9-1.6,1-4.2Zm-13.1-3.1-.9,4.1-6.9-1.7,1-4.1Zm-13-3.2-1,4.1-6.9-1.6,1-4.1Zm-13.1-3.1-1,4.1-6.9-1.6,1-4.1ZM460.1,587l-1,4.1-6.9-1.6,1-4.1ZM447,583.9l-1,4.1-6.9-1.7,1-4.1Zm-13.1-3.2-1,4.2-6.8-1.7.9-4.1Zm-13.1-3.1-1,4.1-6.8-1.6.9-4.1Zm-13.1-3.1-1,4.1-6.8-1.6.9-4.1Zm-13.1-3.1-1,4.1-6.8-1.6.9-4.2Zm-13.1-3.2-1,4.2-6.8-1.7,1-4.1Zm-13.1-3.1-1,4.1-6.8-1.6,1-4.1Zm223.9-10.5-.9,4.1-6.9-1.7,1-4.1Zm-13-3.2-1,4.2-6.9-1.7,1-4.1Zm-13.1-3.1-1,4.1-6.9-1.6,1-4.1Zm-13.1-3.1-1,4.1-6.9-1.6,1-4.1ZM540,542.1l-1,4.1-6.9-1.6,1-4.2Zm-13.1-3.2-1,4.2-6.8-1.7.9-4.1Zm-13.1-3.1-1,4.1-6.8-1.6.9-4.1Zm-13.1-3.1-1,4.1-6.8-1.6.9-4.1Zm-13.1-3.1-1,4.1-6.8-1.6,1-4.2Zm-13.1-3.1-1,4.1-6.8-1.7,1-4.1Zm-13.1-3.2-1,4.1-6.8-1.6,1-4.1Zm-13.1-3.1-1,4.1-6.8-1.6,1-4.1Zm-13.1-3.1-1,4.1-6.8-1.6,1-4.1ZM422.1,514l-1,4.1-6.8-1.7,1-4.1ZM409,510.8l-1,4.2-6.8-1.7,1-4.1Zm-13.1-3.1-1,4.1-6.8-1.6,1-4.1Zm-13.1-3.1-.9,4.1-6.9-1.6,1-4.1Z" fill="#e0e0e0"/>
            <rect x="369.3" y="513.5" width="48.8" height="54.86" transform="translate(-223.8 798.4) rotate(-76.6)" fill="#ffc40c"/>
            <rect x="426.9" y="527.3" width="48.8" height="54.86" transform="translate(-192.9 865) rotate(-76.6)" fill="#f4564a"/>
            <rect x="484.6" y="541" width="48.8" height="54.86" transform="translate(-162 931.7) rotate(-76.6)" fill="#ffc40c"/>
            <rect x="542.3" y="554.8" width="48.8" height="54.86" transform="translate(-131.2 998.4) rotate(-76.6)" fill="#263238"/>
            <g clip-path="url(#clip-path-4)">
              <rect x="552.1" y="525.7" width="6.1" height="101.56" transform="translate(-155.8 208.9) rotate(-18.7)" fill="#fff" opacity="0.1"/>
              <rect x="567.8" y="526.8" width="12.7" height="101.56" transform="translate(-155.1 215.1) rotate(-18.7)" fill="#fff" opacity="0.1"/>
            </g>
            <g clip-path="url(#clip-path-5)">
              <rect x="494.3" y="518.5" width="6.1" height="101.56" transform="translate(-156.5 189.9) rotate(-18.7)" fill="#fff" opacity="0.1"/>
              <rect x="510" y="519.5" width="12.7" height="101.56" transform="translate(-155.8 196) rotate(-18.7)" fill="#fff" opacity="0.1"/>
            </g>
            <g>
              <rect x="426.9" y="527.3" width="48.8" height="54.86" transform="translate(-192.9 865) rotate(-76.6)" fill="#263238"/>
              <g clip-path="url(#clip-path-6)">
                <rect x="439" y="506.8" width="6.1" height="101.56" transform="translate(-155.7 171.5) rotate(-18.7)" fill="#263238" opacity="0.1"/>
                <rect x="454.8" y="507.8" width="12.7" height="101.56" transform="translate(-155.1 177.9) rotate(-18.8)" fill="#263238" opacity="0.1"/>
              </g>
            </g>
            <g clip-path="url(#clip-path-7)">
              <rect x="383.6" y="498.1" width="6.1" height="101.56" transform="translate(-155.8 153.2) rotate(-18.7)" fill="#fff" opacity="0.1"/>
              <rect x="399.3" y="499.2" width="12.7" height="101.56" transform="translate(-155.1 159.4) rotate(-18.7)" fill="#fff" opacity="0.1"/>
            </g>
          </g>
        </g>
        <g>
          <path d="M514.7,126.5c-6.7-2.7-17.3-1.9-28.9,0a83.7,83.7,0,0,0,0-37.6,53.5,53.5,0,0,1,28.9,0A107.9,107.9,0,0,1,514.7,126.5Z" fill="#ffbf51"/>
          <path d="M514.7,88.9l-1.1-.3c-.1,17.7-11.9,29.8-27.1,34.5a34,34,0,0,1-.7,3.4c11.6-1.9,22.2-2.7,28.9,0A107.9,107.9,0,0,0,514.7,88.9Z" fill="#ffbf51" opacity="0.3" style="mix-blend-mode: multiply"/>
          <path d="M53.5,497c4.2-6,5.6-16.5,6.3-28.2,11.2,5.5,23.5,8.1,36.7,8.2a53.2,53.2,0,0,1-6.3,28.2A108.6,108.6,0,0,1,53.5,497Z" fill="#ffbf51"/>
          <path d="M96.5,477a82.6,82.6,0,0,1-10-.6c-3,12.8-16.2,22.2-30,21.8a107.1,107.1,0,0,0,33.7,7A53.2,53.2,0,0,0,96.5,477Z" fill="#ffbf51" opacity="0.3" style="mix-blend-mode: multiply"/>
          <path d="M631.1,409.3c-.9-7.3-7-16-14.4-25.1a84,84,0,0,0,32.6-18.8,52.3,52.3,0,0,1,14.4,25.1A109.3,109.3,0,0,1,631.1,409.3Z" fill="#263238"/>
          <path d="M621,382.8l-4.3,1.4c7.4,9.1,13.5,17.8,14.4,25.1a112.7,112.7,0,0,0,26.5-14.1c-1.9.7-4.1,1.1-5.9,1.7C638.3,400.5,627.8,393.5,621,382.8Z" fill="#263238" style="mix-blend-mode: multiply"/>
          <g>
            <path d="M275.1,101.3c7.3-1.1,15.9-7.2,24.9-14.8a83.9,83.9,0,0,0,19.2,32.3,52.5,52.5,0,0,1-24.8,14.8A109.5,109.5,0,0,1,275.1,101.3Z" fill="#263238"/>
            <path d="M297.3,113c-7.2,0-19.5-4-21.3-11.9l-.9.2a109.5,109.5,0,0,0,19.3,32.3,52.5,52.5,0,0,0,24.8-14.8c-2.1-2.3-4.1-4.6-5.9-7A47.6,47.6,0,0,1,297.3,113Z" fill="#263238" style="mix-blend-mode: multiply"/>
          </g>
        </g>
      </g>
    </g>
  </g>
</svg>
